ISO-10303-21;
HEADER;
/* Generated by software containing ST-Developer
 * from STEP Tools, Inc. (www.steptools.com) 
 */

FILE_DESCRIPTION(
/* description */ (''),
/* implementation_level */ '2;1');

FILE_NAME(
/* name */ 'camera_plate.step',
/* time_stamp */ '2026-10-03T13:54:14+08:00',
/* author */ (''),
/* organization */ (''),
/* preprocessor_version */ 'ST-DEVELOPER v20.2',
/* originating_system */ 'Autodesk Translation Framework v15.15.0.0',
/* authorisation */ '');

FILE_SCHEMA (('AUTOMOTIVE_DESIGN { 1 0 10303 214 3 1 1 }'));
ENDSEC;

DATA;
#10=MECHANICAL_DESIGN_GEOMETRIC_PRESENTATION_REPRESENTATION('',(#13),#627);
#11=SHAPE_REPRESENTATION_RELATIONSHIP('SRR','None',#634,#12);
#12=ADVANCED_BREP_SHAPE_REPRESENTATION('',(#14),#626);
#13=STYLED_ITEM('',(#643),#14);
#14=MANIFOLD_SOLID_BREP('Camera_plate_1_4_optimized',#383);
#15=FACE_BOUND('',#60,.T.);
#16=FACE_BOUND('',#65,.T.);
#17=FACE_BOUND('',#80,.T.);
#18=PLANE('',#400);
#19=PLANE('',#404);
#20=PLANE('',#405);
#21=PLANE('',#406);
#22=PLANE('',#407);
#23=PLANE('',#408);
#24=PLANE('',#409);
#25=PLANE('',#410);
#26=PLANE('',#411);
#27=PLANE('',#412);
#28=PLANE('',#413);
#29=PLANE('',#414);
#30=PLANE('',#415);
#31=PLANE('',#416);
#32=PLANE('',#417);
#33=PLANE('',#418);
#34=PLANE('',#419);
#35=PLANE('',#420);
#36=PLANE('',#421);
#37=FACE_OUTER_BOUND('',#58,.T.);
#38=FACE_OUTER_BOUND('',#59,.T.);
#39=FACE_OUTER_BOUND('',#61,.T.);
#40=FACE_OUTER_BOUND('',#62,.T.);
#41=FACE_OUTER_BOUND('',#63,.T.);
#42=FACE_OUTER_BOUND('',#64,.T.);
#43=FACE_OUTER_BOUND('',#66,.T.);
#44=FACE_OUTER_BOUND('',#67,.T.);
#45=FACE_OUTER_BOUND('',#68,.T.);
#46=FACE_OUTER_BOUND('',#69,.T.);
#47=FACE_OUTER_BOUND('',#70,.T.);
#48=FACE_OUTER_BOUND('',#71,.T.);
#49=FACE_OUTER_BOUND('',#72,.T.);
#50=FACE_OUTER_BOUND('',#73,.T.);
#51=FACE_OUTER_BOUND('',#74,.T.);
#52=FACE_OUTER_BOUND('',#75,.T.);
#53=FACE_OUTER_BOUND('',#76,.T.);
#54=FACE_OUTER_BOUND('',#77,.T.);
#55=FACE_OUTER_BOUND('',#78,.T.);
#56=FACE_OUTER_BOUND('',#79,.T.);
#57=FACE_OUTER_BOUND('',#81,.T.);
#58=EDGE_LOOP('',(#260,#261,#262,#263));
#59=EDGE_LOOP('',(#264));
#60=EDGE_LOOP('',(#265));
#61=EDGE_LOOP('',(#266,#267,#268,#269));
#62=EDGE_LOOP('',(#270,#271,#272,#273));
#63=EDGE_LOOP('',(#274,#275,#276,#277));
#64=EDGE_LOOP('',(#278,#279,#280,#281));
#65=EDGE_LOOP('',(#282));
#66=EDGE_LOOP('',(#283,#284,#285,#286,#287,#288));
#67=EDGE_LOOP('',(#289,#290,#291,#292));
#68=EDGE_LOOP('',(#293,#294,#295,#296,#297,#298));
#69=EDGE_LOOP('',(#299,#300,#301,#302));
#70=EDGE_LOOP('',(#303,#304,#305,#306,#307,#308));
#71=EDGE_LOOP('',(#309,#310,#311,#312));
#72=EDGE_LOOP('',(#313,#314,#315,#316));
#73=EDGE_LOOP('',(#317,#318,#319,#320,#321,#322));
#74=EDGE_LOOP('',(#323,#324,#325,#326));
#75=EDGE_LOOP('',(#327,#328,#329,#330));
#76=EDGE_LOOP('',(#331,#332,#333,#334));
#77=EDGE_LOOP('',(#335,#336,#337,#338,#339,#340));
#78=EDGE_LOOP('',(#341,#342,#343,#344));
#79=EDGE_LOOP('',(#345,#346,#347,#348,#349,#350,#351,#352));
#80=EDGE_LOOP('',(#353));
#81=EDGE_LOOP('',(#354,#355,#356,#357,#358,#359));
#82=LINE('',#525,#128);
#83=LINE('',#532,#129);
#84=LINE('',#537,#130);
#85=LINE('',#539,#131);
#86=LINE('',#541,#132);
#87=LINE('',#542,#133);
#88=LINE('',#546,#134);
#89=LINE('',#548,#135);
#90=LINE('',#550,#136);
#91=LINE('',#551,#137);
#92=LINE('',#555,#138);
#93=LINE('',#557,#139);
#94=LINE('',#559,#140);
#95=LINE('',#560,#141);
#96=LINE('',#562,#142);
#97=LINE('',#563,#143);
#98=LINE('',#564,#144);
#99=LINE('',#566,#145);
#100=LINE('',#568,#146);
#101=LINE('',#569,#147);
#102=LINE('',#573,#148);
#103=LINE('',#575,#149);
#104=LINE('',#577,#150);
#105=LINE('',#579,#151);
#106=LINE('',#580,#152);
#107=LINE('',#583,#153);
#108=LINE('',#585,#154);
#109=LINE('',#586,#155);
#110=LINE('',#589,#156);
#111=LINE('',#590,#157);
#112=LINE('',#593,#158);
#113=LINE('',#595,#159);
#114=LINE('',#596,#160);
#115=LINE('',#599,#161);
#116=LINE('',#601,#162);
#117=LINE('',#602,#163);
#118=LINE('',#605,#164);
#119=LINE('',#607,#165);
#120=LINE('',#608,#166);
#121=LINE('',#611,#167);
#122=LINE('',#613,#168);
#123=LINE('',#614,#169);
#124=LINE('',#616,#170);
#125=LINE('',#618,#171);
#126=LINE('',#619,#172);
#127=LINE('',#621,#173);
#128=VECTOR('',#428,7.);
#129=VECTOR('',#437,3.4);
#130=VECTOR('',#442,10.);
#131=VECTOR('',#443,10.);
#132=VECTOR('',#444,10.);
#133=VECTOR('',#445,10.);
#134=VECTOR('',#448,10.);
#135=VECTOR('',#449,10.);
#136=VECTOR('',#450,10.);
#137=VECTOR('',#451,10.);
#138=VECTOR('',#454,10.);
#139=VECTOR('',#455,10.);
#140=VECTOR('',#456,10.);
#141=VECTOR('',#457,10.);
#142=VECTOR('',#460,10.);
#143=VECTOR('',#461,10.);
#144=VECTOR('',#462,10.);
#145=VECTOR('',#465,10.);
#146=VECTOR('',#468,10.);
#147=VECTOR('',#469,10.);
#148=VECTOR('',#474,10.);
#149=VECTOR('',#475,10.);
#150=VECTOR('',#476,10.);
#151=VECTOR('',#477,10.);
#152=VECTOR('',#478,10.);
#153=VECTOR('',#481,10.);
#154=VECTOR('',#482,10.);
#155=VECTOR('',#483,10.);
#156=VECTOR('',#486,10.);
#157=VECTOR('',#487,10.);
#158=VECTOR('',#490,10.);
#159=VECTOR('',#491,10.);
#160=VECTOR('',#492,10.);
#161=VECTOR('',#495,10.);
#162=VECTOR('',#496,10.);
#163=VECTOR('',#497,10.);
#164=VECTOR('',#500,10.);
#165=VECTOR('',#501,10.);
#166=VECTOR('',#502,10.);
#167=VECTOR('',#505,10.);
#168=VECTOR('',#506,10.);
#169=VECTOR('',#507,10.);
#170=VECTOR('',#510,10.);
#171=VECTOR('',#511,10.);
#172=VECTOR('',#512,10.);
#173=VECTOR('',#515,10.);
#174=CIRCLE('',#398,7.);
#175=CIRCLE('',#399,7.);
#176=CIRCLE('',#401,3.4);
#177=CIRCLE('',#403,3.4);
#178=VERTEX_POINT('',#522);
#179=VERTEX_POINT('',#524);
#180=VERTEX_POINT('',#528);
#181=VERTEX_POINT('',#531);
#182=VERTEX_POINT('',#535);
#183=VERTEX_POINT('',#536);
#184=VERTEX_POINT('',#538);
#185=VERTEX_POINT('',#540);
#186=VERTEX_POINT('',#544);
#187=VERTEX_POINT('',#545);
#188=VERTEX_POINT('',#547);
#189=VERTEX_POINT('',#549);
#190=VERTEX_POINT('',#553);
#191=VERTEX_POINT('',#554);
#192=VERTEX_POINT('',#556);
#193=VERTEX_POINT('',#558);
#194=VERTEX_POINT('',#572);
#195=VERTEX_POINT('',#574);
#196=VERTEX_POINT('',#576);
#197=VERTEX_POINT('',#578);
#198=VERTEX_POINT('',#582);
#199=VERTEX_POINT('',#584);
#200=VERTEX_POINT('',#588);
#201=VERTEX_POINT('',#592);
#202=VERTEX_POINT('',#594);
#203=VERTEX_POINT('',#598);
#204=VERTEX_POINT('',#600);
#205=VERTEX_POINT('',#604);
#206=VERTEX_POINT('',#606);
#207=VERTEX_POINT('',#610);
#208=VERTEX_POINT('',#612);
#209=VERTEX_POINT('',#617);
#210=EDGE_CURVE('',#178,#178,#174,.T.);
#211=EDGE_CURVE('',#178,#179,#82,.T.);
#212=EDGE_CURVE('',#179,#179,#175,.T.);
#213=EDGE_CURVE('',#180,#180,#176,.T.);
#214=EDGE_CURVE('',#180,#181,#83,.T.);
#215=EDGE_CURVE('',#181,#181,#177,.T.);
#216=EDGE_CURVE('',#182,#183,#84,.T.);
#217=EDGE_CURVE('',#182,#184,#85,.T.);
#218=EDGE_CURVE('',#184,#185,#86,.T.);
#219=EDGE_CURVE('',#185,#183,#87,.T.);
#220=EDGE_CURVE('',#186,#187,#88,.T.);
#221=EDGE_CURVE('',#186,#188,#89,.T.);
#222=EDGE_CURVE('',#188,#189,#90,.T.);
#223=EDGE_CURVE('',#189,#187,#91,.T.);
#224=EDGE_CURVE('',#190,#191,#92,.T.);
#225=EDGE_CURVE('',#192,#190,#93,.T.);
#226=EDGE_CURVE('',#193,#192,#94,.T.);
#227=EDGE_CURVE('',#191,#193,#95,.T.);
#228=EDGE_CURVE('',#191,#184,#96,.T.);
#229=EDGE_CURVE('',#187,#182,#97,.T.);
#230=EDGE_CURVE('',#190,#189,#98,.T.);
#231=EDGE_CURVE('',#193,#185,#99,.T.);
#232=EDGE_CURVE('',#192,#188,#100,.T.);
#233=EDGE_CURVE('',#183,#186,#101,.T.);
#234=EDGE_CURVE('',#194,#182,#102,.T.);
#235=EDGE_CURVE('',#195,#194,#103,.T.);
#236=EDGE_CURVE('',#196,#195,#104,.T.);
#237=EDGE_CURVE('',#197,#196,#105,.T.);
#238=EDGE_CURVE('',#187,#197,#106,.T.);
#239=EDGE_CURVE('',#195,#198,#107,.T.);
#240=EDGE_CURVE('',#199,#198,#108,.T.);
#241=EDGE_CURVE('',#196,#199,#109,.T.);
#242=EDGE_CURVE('',#200,#199,#110,.T.);
#243=EDGE_CURVE('',#197,#200,#111,.T.);
#244=EDGE_CURVE('',#201,#186,#112,.T.);
#245=EDGE_CURVE('',#202,#200,#113,.T.);
#246=EDGE_CURVE('',#201,#202,#114,.T.);
#247=EDGE_CURVE('',#203,#201,#115,.T.);
#248=EDGE_CURVE('',#204,#202,#116,.T.);
#249=EDGE_CURVE('',#203,#204,#117,.T.);
#250=EDGE_CURVE('',#205,#203,#118,.T.);
#251=EDGE_CURVE('',#206,#204,#119,.T.);
#252=EDGE_CURVE('',#205,#206,#120,.T.);
#253=EDGE_CURVE('',#207,#205,#121,.T.);
#254=EDGE_CURVE('',#208,#206,#122,.T.);
#255=EDGE_CURVE('',#207,#208,#123,.T.);
#256=EDGE_CURVE('',#183,#207,#124,.T.);
#257=EDGE_CURVE('',#209,#208,#125,.T.);
#258=EDGE_CURVE('',#194,#209,#126,.T.);
#259=EDGE_CURVE('',#198,#209,#127,.T.);
#260=ORIENTED_EDGE('',*,*,#210,.F.);
#261=ORIENTED_EDGE('',*,*,#211,.T.);
#262=ORIENTED_EDGE('',*,*,#212,.T.);
#263=ORIENTED_EDGE('',*,*,#211,.F.);
#264=ORIENTED_EDGE('',*,*,#212,.F.);
#265=ORIENTED_EDGE('',*,*,#213,.F.);
#266=ORIENTED_EDGE('',*,*,#213,.T.);
#267=ORIENTED_EDGE('',*,*,#214,.T.);
#268=ORIENTED_EDGE('',*,*,#215,.F.);
#269=ORIENTED_EDGE('',*,*,#214,.F.);
#270=ORIENTED_EDGE('',*,*,#216,.F.);
#271=ORIENTED_EDGE('',*,*,#217,.T.);
#272=ORIENTED_EDGE('',*,*,#218,.T.);
#273=ORIENTED_EDGE('',*,*,#219,.T.);
#274=ORIENTED_EDGE('',*,*,#220,.F.);
#275=ORIENTED_EDGE('',*,*,#221,.T.);
#276=ORIENTED_EDGE('',*,*,#222,.T.);
#277=ORIENTED_EDGE('',*,*,#223,.T.);
#278=ORIENTED_EDGE('',*,*,#224,.F.);
#279=ORIENTED_EDGE('',*,*,#225,.F.);
#280=ORIENTED_EDGE('',*,*,#226,.F.);
#281=ORIENTED_EDGE('',*,*,#227,.F.);
#282=ORIENTED_EDGE('',*,*,#210,.T.);
#283=ORIENTED_EDGE('',*,*,#224,.T.);
#284=ORIENTED_EDGE('',*,*,#228,.T.);
#285=ORIENTED_EDGE('',*,*,#217,.F.);
#286=ORIENTED_EDGE('',*,*,#229,.F.);
#287=ORIENTED_EDGE('',*,*,#223,.F.);
#288=ORIENTED_EDGE('',*,*,#230,.F.);
#289=ORIENTED_EDGE('',*,*,#227,.T.);
#290=ORIENTED_EDGE('',*,*,#231,.T.);
#291=ORIENTED_EDGE('',*,*,#218,.F.);
#292=ORIENTED_EDGE('',*,*,#228,.F.);
#293=ORIENTED_EDGE('',*,*,#226,.T.);
#294=ORIENTED_EDGE('',*,*,#232,.T.);
#295=ORIENTED_EDGE('',*,*,#221,.F.);
#296=ORIENTED_EDGE('',*,*,#233,.F.);
#297=ORIENTED_EDGE('',*,*,#219,.F.);
#298=ORIENTED_EDGE('',*,*,#231,.F.);
#299=ORIENTED_EDGE('',*,*,#225,.T.);
#300=ORIENTED_EDGE('',*,*,#230,.T.);
#301=ORIENTED_EDGE('',*,*,#222,.F.);
#302=ORIENTED_EDGE('',*,*,#232,.F.);
#303=ORIENTED_EDGE('',*,*,#229,.T.);
#304=ORIENTED_EDGE('',*,*,#234,.F.);
#305=ORIENTED_EDGE('',*,*,#235,.F.);
#306=ORIENTED_EDGE('',*,*,#236,.F.);
#307=ORIENTED_EDGE('',*,*,#237,.F.);
#308=ORIENTED_EDGE('',*,*,#238,.F.);
#309=ORIENTED_EDGE('',*,*,#236,.T.);
#310=ORIENTED_EDGE('',*,*,#239,.T.);
#311=ORIENTED_EDGE('',*,*,#240,.F.);
#312=ORIENTED_EDGE('',*,*,#241,.F.);
#313=ORIENTED_EDGE('',*,*,#237,.T.);
#314=ORIENTED_EDGE('',*,*,#241,.T.);
#315=ORIENTED_EDGE('',*,*,#242,.F.);
#316=ORIENTED_EDGE('',*,*,#243,.F.);
#317=ORIENTED_EDGE('',*,*,#244,.T.);
#318=ORIENTED_EDGE('',*,*,#220,.T.);
#319=ORIENTED_EDGE('',*,*,#238,.T.);
#320=ORIENTED_EDGE('',*,*,#243,.T.);
#321=ORIENTED_EDGE('',*,*,#245,.F.);
#322=ORIENTED_EDGE('',*,*,#246,.F.);
#323=ORIENTED_EDGE('',*,*,#247,.T.);
#324=ORIENTED_EDGE('',*,*,#246,.T.);
#325=ORIENTED_EDGE('',*,*,#248,.F.);
#326=ORIENTED_EDGE('',*,*,#249,.F.);
#327=ORIENTED_EDGE('',*,*,#250,.T.);
#328=ORIENTED_EDGE('',*,*,#249,.T.);
#329=ORIENTED_EDGE('',*,*,#251,.F.);
#330=ORIENTED_EDGE('',*,*,#252,.F.);
#331=ORIENTED_EDGE('',*,*,#253,.T.);
#332=ORIENTED_EDGE('',*,*,#252,.T.);
#333=ORIENTED_EDGE('',*,*,#254,.F.);
#334=ORIENTED_EDGE('',*,*,#255,.F.);
#335=ORIENTED_EDGE('',*,*,#234,.T.);
#336=ORIENTED_EDGE('',*,*,#216,.T.);
#337=ORIENTED_EDGE('',*,*,#256,.T.);
#338=ORIENTED_EDGE('',*,*,#255,.T.);
#339=ORIENTED_EDGE('',*,*,#257,.F.);
#340=ORIENTED_EDGE('',*,*,#258,.F.);
#341=ORIENTED_EDGE('',*,*,#235,.T.);
#342=ORIENTED_EDGE('',*,*,#258,.T.);
#343=ORIENTED_EDGE('',*,*,#259,.F.);
#344=ORIENTED_EDGE('',*,*,#239,.F.);
#345=ORIENTED_EDGE('',*,*,#259,.T.);
#346=ORIENTED_EDGE('',*,*,#257,.T.);
#347=ORIENTED_EDGE('',*,*,#254,.T.);
#348=ORIENTED_EDGE('',*,*,#251,.T.);
#349=ORIENTED_EDGE('',*,*,#248,.T.);
#350=ORIENTED_EDGE('',*,*,#245,.T.);
#351=ORIENTED_EDGE('',*,*,#242,.T.);
#352=ORIENTED_EDGE('',*,*,#240,.T.);
#353=ORIENTED_EDGE('',*,*,#215,.T.);
#354=ORIENTED_EDGE('',*,*,#233,.T.);
#355=ORIENTED_EDGE('',*,*,#244,.F.);
#356=ORIENTED_EDGE('',*,*,#247,.F.);
#357=ORIENTED_EDGE('',*,*,#250,.F.);
#358=ORIENTED_EDGE('',*,*,#253,.F.);
#359=ORIENTED_EDGE('',*,*,#256,.F.);
#360=CYLINDRICAL_SURFACE('',#397,7.);
#361=CYLINDRICAL_SURFACE('',#402,3.4);
#362=ADVANCED_FACE('',(#37),#360,.F.);
#363=ADVANCED_FACE('',(#38,#15),#18,.F.);
#364=ADVANCED_FACE('',(#39),#361,.F.);
#365=ADVANCED_FACE('',(#40),#19,.T.);
#366=ADVANCED_FACE('',(#41),#20,.T.);
#367=ADVANCED_FACE('',(#42,#16),#21,.F.);
#368=ADVANCED_FACE('',(#43),#22,.T.);
#369=ADVANCED_FACE('',(#44),#23,.T.);
#370=ADVANCED_FACE('',(#45),#24,.T.);
#371=ADVANCED_FACE('',(#46),#25,.T.);
#372=ADVANCED_FACE('',(#47),#26,.F.);
#373=ADVANCED_FACE('',(#48),#27,.T.);
#374=ADVANCED_FACE('',(#49),#28,.T.);
#375=ADVANCED_FACE('',(#50),#29,.T.);
#376=ADVANCED_FACE('',(#51),#30,.T.);
#377=ADVANCED_FACE('',(#52),#31,.T.);
#378=ADVANCED_FACE('',(#53),#32,.T.);
#379=ADVANCED_FACE('',(#54),#33,.T.);
#380=ADVANCED_FACE('',(#55),#34,.T.);
#381=ADVANCED_FACE('',(#56,#17),#35,.T.);
#382=ADVANCED_FACE('',(#57),#36,.F.);
#383=CLOSED_SHELL('',(#362,#363,#364,#365,#366,#367,#368,#369,#370,#371,
#372,#373,#374,#375,#376,#377,#378,#379,#380,#381,#382));
#384=DERIVED_UNIT_ELEMENT(#386,1.);
#385=DERIVED_UNIT_ELEMENT(#629,-3.);
#386=(
MASS_UNIT()
NAMED_UNIT(*)
SI_UNIT(.KILO.,.GRAM.)
);
#387=DERIVED_UNIT((#384,#385));
#388=MEASURE_REPRESENTATION_ITEM('density measure',
POSITIVE_RATIO_MEASURE(7850.),#387);
#389=PROPERTY_DEFINITION_REPRESENTATION(#394,#391);
#390=PROPERTY_DEFINITION_REPRESENTATION(#395,#392);
#391=REPRESENTATION('material name',(#393),#626);
#392=REPRESENTATION('density',(#388),#626);
#393=DESCRIPTIVE_REPRESENTATION_ITEM('\X2\94A2\X0\','\X2\94A2\X0\');
#394=PROPERTY_DEFINITION('material property','material name',#636);
#395=PROPERTY_DEFINITION('material property','density of part',#636);
#396=AXIS2_PLACEMENT_3D('',#520,#422,#423);
#397=AXIS2_PLACEMENT_3D('',#521,#424,#425);
#398=AXIS2_PLACEMENT_3D('',#523,#426,#427);
#399=AXIS2_PLACEMENT_3D('',#526,#429,#430);
#400=AXIS2_PLACEMENT_3D('',#527,#431,#432);
#401=AXIS2_PLACEMENT_3D('',#529,#433,#434);
#402=AXIS2_PLACEMENT_3D('',#530,#435,#436);
#403=AXIS2_PLACEMENT_3D('',#533,#438,#439);
#404=AXIS2_PLACEMENT_3D('',#534,#440,#441);
#405=AXIS2_PLACEMENT_3D('',#543,#446,#447);
#406=AXIS2_PLACEMENT_3D('',#552,#452,#453);
#407=AXIS2_PLACEMENT_3D('',#561,#458,#459);
#408=AXIS2_PLACEMENT_3D('',#565,#463,#464);
#409=AXIS2_PLACEMENT_3D('',#567,#466,#467);
#410=AXIS2_PLACEMENT_3D('',#570,#470,#471);
#411=AXIS2_PLACEMENT_3D('',#571,#472,#473);
#412=AXIS2_PLACEMENT_3D('',#581,#479,#480);
#413=AXIS2_PLACEMENT_3D('',#587,#484,#485);
#414=AXIS2_PLACEMENT_3D('',#591,#488,#489);
#415=AXIS2_PLACEMENT_3D('',#597,#493,#494);
#416=AXIS2_PLACEMENT_3D('',#603,#498,#499);
#417=AXIS2_PLACEMENT_3D('',#609,#503,#504);
#418=AXIS2_PLACEMENT_3D('',#615,#508,#509);
#419=AXIS2_PLACEMENT_3D('',#620,#513,#514);
#420=AXIS2_PLACEMENT_3D('',#622,#516,#517);
#421=AXIS2_PLACEMENT_3D('',#623,#518,#519);
#422=DIRECTION('axis',(0.,0.,1.));
#423=DIRECTION('refdir',(1.,0.,0.));
#424=DIRECTION('center_axis',(0.,0.,1.));
#425=DIRECTION('ref_axis',(-2.22044604925031E-16,1.,0.));
#426=DIRECTION('center_axis',(8.15376964093327E-33,2.75954141285335E-33,
1.));
#427=DIRECTION('ref_axis',(-2.22044604925031E-16,1.,0.));
#428=DIRECTION('',(0.,0.,1.));
#429=DIRECTION('center_axis',(0.,0.,1.));
#430=DIRECTION('ref_axis',(-2.22044604925031E-16,1.,0.));
#431=DIRECTION('center_axis',(0.,0.,1.));
#432=DIRECTION('ref_axis',(-2.22044604925031E-16,1.,0.));
#433=DIRECTION('center_axis',(0.,0.,-1.));
#434=DIRECTION('ref_axis',(-2.22044604925031E-16,1.,0.));
#435=DIRECTION('center_axis',(0.,0.,1.));
#436=DIRECTION('ref_axis',(-2.22044604925031E-16,1.,0.));
#437=DIRECTION('',(0.,0.,1.));
#438=DIRECTION('center_axis',(0.,0.,-1.));
#439=DIRECTION('ref_axis',(-2.22044604925031E-16,1.,0.));
#440=DIRECTION('center_axis',(2.26774378353511E-48,-1.43726115252779E-32,
1.));
#441=DIRECTION('ref_axis',(-2.22044604925031E-16,1.,1.43726115252779E-32));
#442=DIRECTION('',(-2.22044604925031E-16,1.,0.));
#443=DIRECTION('',(1.,2.22044604925031E-16,0.));
#444=DIRECTION('',(-2.22044604925031E-16,1.,0.));
#445=DIRECTION('',(-1.,-2.22044604925031E-16,0.));
#446=DIRECTION('center_axis',(2.26774378353511E-48,-1.43726115252779E-32,
1.));
#447=DIRECTION('ref_axis',(-2.22044604925031E-16,1.,1.43726115252779E-32));
#448=DIRECTION('',(2.22044604925031E-16,-1.,0.));
#449=DIRECTION('',(-1.,-2.22044604925031E-16,0.));
#450=DIRECTION('',(2.22044604925031E-16,-1.,0.));
#451=DIRECTION('',(1.,2.22044604925031E-16,0.));
#452=DIRECTION('center_axis',(8.15376964093327E-33,2.75954141285335E-33,
1.));
#453=DIRECTION('ref_axis',(-2.22044604925031E-16,1.,-2.75954141285335E-33));
#454=DIRECTION('',(1.,2.22044604925031E-16,0.));
#455=DIRECTION('',(2.22044604925031E-16,-1.,0.));
#456=DIRECTION('',(-1.,-2.22044604925031E-16,0.));
#457=DIRECTION('',(-2.22044604925031E-16,1.,0.));
#458=DIRECTION('center_axis',(1.73387706291057E-16,-0.780868809443031,0.624695047554424));
#459=DIRECTION('ref_axis',(-1.38710165032846E-16,0.624695047554424,0.78086880944303));
#460=DIRECTION('',(-1.38710165032846E-16,0.624695047554424,0.78086880944303));
#461=DIRECTION('',(1.,2.22044604925031E-16,0.));
#462=DIRECTION('',(-1.38710165032846E-16,0.624695047554423,0.780868809443031));
#463=DIRECTION('center_axis',(1.,2.22044604925031E-16,0.));
#464=DIRECTION('ref_axis',(0.,0.,-1.));
#465=DIRECTION('',(1.38710165032846E-16,-0.624695047554424,0.78086880944303));
#466=DIRECTION('center_axis',(-1.73387706291057E-16,0.780868809443031,0.624695047554424));
#467=DIRECTION('ref_axis',(-1.38710165032846E-16,0.624695047554424,-0.78086880944303));
#468=DIRECTION('',(1.38710165032846E-16,-0.624695047554424,0.78086880944303));
#469=DIRECTION('',(-1.,-2.22044604925031E-16,0.));
#470=DIRECTION('center_axis',(-1.,-2.22044604925031E-16,0.));
#471=DIRECTION('ref_axis',(0.,0.,1.));
#472=DIRECTION('center_axis',(0.,0.,1.));
#473=DIRECTION('ref_axis',(-2.22044604925031E-16,1.,0.));
#474=DIRECTION('',(-2.22044604925031E-16,1.,0.));
#475=DIRECTION('',(0.707106781186547,0.707106781186548,0.));
#476=DIRECTION('',(1.,2.22044604925031E-16,0.));
#477=DIRECTION('',(0.707106781186548,-0.707106781186547,0.));
#478=DIRECTION('',(2.22044604925031E-16,-1.,0.));
#479=DIRECTION('center_axis',(2.22044604925031E-16,-1.,0.));
#480=DIRECTION('ref_axis',(1.,2.22044604925031E-16,0.));
#481=DIRECTION('',(0.,0.,1.));
#482=DIRECTION('',(1.,2.22044604925031E-16,0.));
#483=DIRECTION('',(0.,0.,1.));
#484=DIRECTION('center_axis',(-0.707106781186547,-0.707106781186548,0.));
#485=DIRECTION('ref_axis',(0.707106781186548,-0.707106781186547,0.));
#486=DIRECTION('',(0.707106781186548,-0.707106781186547,0.));
#487=DIRECTION('',(0.,0.,1.));
#488=DIRECTION('center_axis',(-1.,-2.22044604925031E-16,0.));
#489=DIRECTION('ref_axis',(2.22044604925031E-16,-1.,0.));
#490=DIRECTION('',(2.22044604925031E-16,-1.,0.));
#491=DIRECTION('',(2.22044604925031E-16,-1.,0.));
#492=DIRECTION('',(0.,0.,1.));
#493=DIRECTION('center_axis',(-0.707106781186548,0.707106781186547,0.));
#494=DIRECTION('ref_axis',(-0.707106781186547,-0.707106781186548,0.));
#495=DIRECTION('',(-0.707106781186547,-0.707106781186548,0.));
#496=DIRECTION('',(-0.707106781186547,-0.707106781186548,0.));
#497=DIRECTION('',(0.,0.,1.));
#498=DIRECTION('center_axis',(-2.22044604925031E-16,1.,0.));
#499=DIRECTION('ref_axis',(-1.,-2.22044604925031E-16,0.));
#500=DIRECTION('',(-1.,-2.22044604925031E-16,0.));
#501=DIRECTION('',(-1.,-2.22044604925031E-16,0.));
#502=DIRECTION('',(0.,0.,1.));
#503=DIRECTION('center_axis',(0.707106781186547,0.707106781186548,0.));
#504=DIRECTION('ref_axis',(-0.707106781186548,0.707106781186547,0.));
#505=DIRECTION('',(-0.707106781186548,0.707106781186547,0.));
#506=DIRECTION('',(-0.707106781186548,0.707106781186547,0.));
#507=DIRECTION('',(0.,0.,1.));
#508=DIRECTION('center_axis',(1.,2.22044604925031E-16,0.));
#509=DIRECTION('ref_axis',(-2.22044604925031E-16,1.,0.));
#510=DIRECTION('',(-2.22044604925031E-16,1.,0.));
#511=DIRECTION('',(-2.22044604925031E-16,1.,0.));
#512=DIRECTION('',(0.,0.,1.));
#513=DIRECTION('center_axis',(0.707106781186548,-0.707106781186547,0.));
#514=DIRECTION('ref_axis',(0.707106781186547,0.707106781186548,0.));
#515=DIRECTION('',(0.707106781186547,0.707106781186548,0.));
#516=DIRECTION('center_axis',(0.,0.,1.));
#517=DIRECTION('ref_axis',(-2.22044604925031E-16,1.,0.));
#518=DIRECTION('center_axis',(0.,0.,1.));
#519=DIRECTION('ref_axis',(-2.22044604925031E-16,1.,0.));
#520=CARTESIAN_POINT('',(0.,0.,0.));
#521=CARTESIAN_POINT('Origin',(0.,0.,7.3));
#522=CARTESIAN_POINT('',(2.41156499387837E-15,-7.,7.3));
#523=CARTESIAN_POINT('Origin',(0.,0.,7.3));
#524=CARTESIAN_POINT('',(2.41156499387837E-15,-7.,10.8));
#525=CARTESIAN_POINT('',(2.41156499387837E-15,-7.,7.3));
#526=CARTESIAN_POINT('Origin',(0.,0.,10.8));
#527=CARTESIAN_POINT('Origin',(0.,0.,10.8));
#528=CARTESIAN_POINT('',(3.38571745035006E-16,-3.4,10.8));
#529=CARTESIAN_POINT('Origin',(0.,0.,10.8));
#530=CARTESIAN_POINT('Origin',(0.,0.,7.3));
#531=CARTESIAN_POINT('',(1.17133156845521E-15,-3.4,16.3));
#532=CARTESIAN_POINT('',(1.17133156845521E-15,-3.4,7.3));
#533=CARTESIAN_POINT('Origin',(0.,0.,16.3));
#534=CARTESIAN_POINT('Origin',(-2.04898936421042E-32,9.22782773714416E-17,
12.3));
#535=CARTESIAN_POINT('',(16.,-16.,12.3));
#536=CARTESIAN_POINT('',(16.,16.,12.3));
#537=CARTESIAN_POINT('',(16.,-33.,12.3));
#538=CARTESIAN_POINT('',(19.,-16.,12.3));
#539=CARTESIAN_POINT('',(-19.,-16.,12.3));
#540=CARTESIAN_POINT('',(19.,16.,12.3));
#541=CARTESIAN_POINT('',(19.,-16.,12.3));
#542=CARTESIAN_POINT('',(19.,16.,12.3));
#543=CARTESIAN_POINT('Origin',(-2.04898936421042E-32,9.22782773714416E-17,
12.3));
#544=CARTESIAN_POINT('',(-16.,16.,12.3));
#545=CARTESIAN_POINT('',(-16.,-16.,12.3));
#546=CARTESIAN_POINT('',(-16.,33.,12.3));
#547=CARTESIAN_POINT('',(-19.,16.,12.3));
#548=CARTESIAN_POINT('',(19.,16.,12.3));
#549=CARTESIAN_POINT('',(-19.,-16.,12.3));
#550=CARTESIAN_POINT('',(-19.,16.,12.3));
#551=CARTESIAN_POINT('',(-19.,-16.,12.3));
#552=CARTESIAN_POINT('Origin',(5.43031436067785E-32,-2.44559617312534E-16,
7.3));
#553=CARTESIAN_POINT('',(-19.,-20.,7.3));
#554=CARTESIAN_POINT('',(19.,-20.,7.3));
#555=CARTESIAN_POINT('',(-19.,-20.,7.3));
#556=CARTESIAN_POINT('',(-19.,20.,7.3));
#557=CARTESIAN_POINT('',(-19.,20.,7.3));
#558=CARTESIAN_POINT('',(19.,20.,7.3));
#559=CARTESIAN_POINT('',(19.,20.,7.3));
#560=CARTESIAN_POINT('',(19.,-20.,7.3));
#561=CARTESIAN_POINT('Origin',(-19.,-20.,7.3));
#562=CARTESIAN_POINT('',(19.,-20.,7.3));
#563=CARTESIAN_POINT('',(-9.5,-16.,12.3));
#564=CARTESIAN_POINT('',(-19.,-20.,7.3));
#565=CARTESIAN_POINT('Origin',(19.,-20.,7.3));
#566=CARTESIAN_POINT('',(19.,20.,7.3));
#567=CARTESIAN_POINT('Origin',(19.,20.,7.3));
#568=CARTESIAN_POINT('',(-19.,20.,7.3));
#569=CARTESIAN_POINT('',(9.5,16.,12.3));
#570=CARTESIAN_POINT('Origin',(-19.,20.,7.3));
#571=CARTESIAN_POINT('Origin',(0.,0.,12.3));
#572=CARTESIAN_POINT('',(16.,-33.,12.3));
#573=CARTESIAN_POINT('',(16.,-33.,12.3));
#574=CARTESIAN_POINT('',(14.,-35.,12.3));
#575=CARTESIAN_POINT('',(14.,-35.,12.3));
#576=CARTESIAN_POINT('',(-14.,-35.,12.3));
#577=CARTESIAN_POINT('',(-14.,-35.,12.3));
#578=CARTESIAN_POINT('',(-16.,-33.,12.3));
#579=CARTESIAN_POINT('',(-16.,-33.,12.3));
#580=CARTESIAN_POINT('',(-16.,33.,12.3));
#581=CARTESIAN_POINT('Origin',(-14.,-35.,12.3));
#582=CARTESIAN_POINT('',(14.,-35.,16.3));
#583=CARTESIAN_POINT('',(14.,-35.,12.3));
#584=CARTESIAN_POINT('',(-14.,-35.,16.3));
#585=CARTESIAN_POINT('',(-14.,-35.,16.3));
#586=CARTESIAN_POINT('',(-14.,-35.,12.3));
#587=CARTESIAN_POINT('Origin',(-16.,-33.,12.3));
#588=CARTESIAN_POINT('',(-16.,-33.,16.3));
#589=CARTESIAN_POINT('',(-16.,-33.,16.3));
#590=CARTESIAN_POINT('',(-16.,-33.,12.3));
#591=CARTESIAN_POINT('Origin',(-16.,33.,12.3));
#592=CARTESIAN_POINT('',(-16.,33.,12.3));
#593=CARTESIAN_POINT('',(-16.,33.,12.3));
#594=CARTESIAN_POINT('',(-16.,33.,16.3));
#595=CARTESIAN_POINT('',(-16.,33.,16.3));
#596=CARTESIAN_POINT('',(-16.,33.,12.3));
#597=CARTESIAN_POINT('Origin',(-14.,35.,12.3));
#598=CARTESIAN_POINT('',(-14.,35.,12.3));
#599=CARTESIAN_POINT('',(-14.,35.,12.3));
#600=CARTESIAN_POINT('',(-14.,35.,16.3));
#601=CARTESIAN_POINT('',(-14.,35.,16.3));
#602=CARTESIAN_POINT('',(-14.,35.,12.3));
#603=CARTESIAN_POINT('Origin',(14.,35.,12.3));
#604=CARTESIAN_POINT('',(14.,35.,12.3));
#605=CARTESIAN_POINT('',(14.,35.,12.3));
#606=CARTESIAN_POINT('',(14.,35.,16.3));
#607=CARTESIAN_POINT('',(14.,35.,16.3));
#608=CARTESIAN_POINT('',(14.,35.,12.3));
#609=CARTESIAN_POINT('Origin',(16.,33.,12.3));
#610=CARTESIAN_POINT('',(16.,33.,12.3));
#611=CARTESIAN_POINT('',(16.,33.,12.3));
#612=CARTESIAN_POINT('',(16.,33.,16.3));
#613=CARTESIAN_POINT('',(16.,33.,16.3));
#614=CARTESIAN_POINT('',(16.,33.,12.3));
#615=CARTESIAN_POINT('Origin',(16.,-33.,12.3));
#616=CARTESIAN_POINT('',(16.,-33.,12.3));
#617=CARTESIAN_POINT('',(16.,-33.,16.3));
#618=CARTESIAN_POINT('',(16.,-33.,16.3));
#619=CARTESIAN_POINT('',(16.,-33.,12.3));
#620=CARTESIAN_POINT('Origin',(14.,-35.,12.3));
#621=CARTESIAN_POINT('',(14.,-35.,16.3));
#622=CARTESIAN_POINT('Origin',(0.,0.,16.3));
#623=CARTESIAN_POINT('Origin',(0.,0.,12.3));
#624=UNCERTAINTY_MEASURE_WITH_UNIT(LENGTH_MEASURE(0.01),#628,
'DISTANCE_ACCURACY_VALUE',
'Maximum model space distance between geometric entities at asserted c
onnectivities');
#625=UNCERTAINTY_MEASURE_WITH_UNIT(LENGTH_MEASURE(0.01),#628,
'DISTANCE_ACCURACY_VALUE',
'Maximum model space distance between geometric entities at asserted c
onnectivities');
#626=(
GEOMETRIC_REPRESENTATION_CONTEXT(3)
GLOBAL_UNCERTAINTY_ASSIGNED_CONTEXT((#624))
GLOBAL_UNIT_ASSIGNED_CONTEXT((#628,#630,#631))
REPRESENTATION_CONTEXT('','3D')
);
#627=(
GEOMETRIC_REPRESENTATION_CONTEXT(3)
GLOBAL_UNCERTAINTY_ASSIGNED_CONTEXT((#625))
GLOBAL_UNIT_ASSIGNED_CONTEXT((#628,#630,#631))
REPRESENTATION_CONTEXT('','3D')
);
#628=(
LENGTH_UNIT()
NAMED_UNIT(*)
SI_UNIT(.MILLI.,.METRE.)
);
#629=(
LENGTH_UNIT()
NAMED_UNIT(*)
SI_UNIT($,.METRE.)
);
#630=(
NAMED_UNIT(*)
PLANE_ANGLE_UNIT()
SI_UNIT($,.RADIAN.)
);
#631=(
NAMED_UNIT(*)
SI_UNIT($,.STERADIAN.)
SOLID_ANGLE_UNIT()
);
#632=SHAPE_DEFINITION_REPRESENTATION(#633,#634);
#633=PRODUCT_DEFINITION_SHAPE('',$,#636);
#634=SHAPE_REPRESENTATION('',(#396),#626);
#635=PRODUCT_DEFINITION_CONTEXT('part definition',#640,'design');
#636=PRODUCT_DEFINITION('2026-10-03-13-54-14-210',
'Camera_plate_1_4_optimized',#637,#635);
#637=PRODUCT_DEFINITION_FORMATION('',$,#642);
#638=PRODUCT_RELATED_PRODUCT_CATEGORY('Camera_plate_1_4_optimized',
'Camera_plate_1_4_optimized',(#642));
#639=APPLICATION_PROTOCOL_DEFINITION('international standard',
'automotive_design',2009,#640);
#640=APPLICATION_CONTEXT(
'Core Data for Automotive Mechanical Design Process');
#641=PRODUCT_CONTEXT('part definition',#640,'mechanical');
#642=PRODUCT('2026-10-03-13-54-14-210','Camera_plate_1_4_optimized',$,(#641));
#643=PRESENTATION_STYLE_ASSIGNMENT((#644));
#644=SURFACE_STYLE_USAGE(.BOTH.,#645);
#645=SURFACE_SIDE_STYLE('',(#646));
#646=SURFACE_STYLE_FILL_AREA(#647);
#647=FILL_AREA_STYLE('\X2\94A2\X0\ - \X2\7F0E5149\X0\',(#648));
#648=FILL_AREA_STYLE_COLOUR('\X2\94A2\X0\ - \X2\7F0E5149\X0\',#649);
#649=COLOUR_RGB('\X2\94A2\X0\ - \X2\7F0E5149\X0\',0.627450980392157,0.627450980392157,
0.627450980392157);
ENDSEC;
END-ISO-10303-21;
