ISO-10303-21;
HEADER;
/* Generated by software containing ST-Developer
 * from STEP Tools, Inc. (www.steptools.com) 
 */

FILE_DESCRIPTION(
/* description */ (''),
/* implementation_level */ '2;1');

FILE_NAME(
/* name */ 'camera_plate_four_screw.step',
/* time_stamp */ '2026-10-03T13:24:10+08:00',
/* author */ (''),
/* organization */ (''),
/* preprocessor_version */ 'ST-DEVELOPER v20.2',
/* originating_system */ 'Autodesk Translation Framework v15.15.0.0',
/* authorisation */ '');

FILE_SCHEMA (('AUTOMOTIVE_DESIGN { 1 0 10303 214 3 1 1 }'));
ENDSEC;

DATA;
#10=MECHANICAL_DESIGN_GEOMETRIC_PRESENTATION_REPRESENTATION('',(#13),#1067);
#11=SHAPE_REPRESENTATION_RELATIONSHIP('SRR','None',#1074,#12);
#12=ADVANCED_BREP_SHAPE_REPRESENTATION('',(#14),#1066);
#13=STYLED_ITEM('',(#1084),#14);
#14=MANIFOLD_SOLID_BREP('Camera_plate_1_4_four_screw_v2',#655);
#15=FACE_BOUND('',#97,.T.);
#16=FACE_BOUND('',#98,.T.);
#17=FACE_BOUND('',#101,.T.);
#18=FACE_BOUND('',#102,.T.);
#19=FACE_BOUND('',#106,.T.);
#20=FACE_BOUND('',#107,.T.);
#21=FACE_BOUND('',#110,.T.);
#22=FACE_BOUND('',#111,.T.);
#23=FACE_BOUND('',#116,.T.);
#24=FACE_BOUND('',#121,.T.);
#25=FACE_BOUND('',#136,.T.);
#26=FACE_BOUND('',#137,.T.);
#27=FACE_BOUND('',#138,.T.);
#28=PLANE('',#681);
#29=PLANE('',#682);
#30=PLANE('',#683);
#31=PLANE('',#684);
#32=PLANE('',#685);
#33=PLANE('',#686);
#34=PLANE('',#687);
#35=PLANE('',#688);
#36=PLANE('',#689);
#37=PLANE('',#690);
#38=PLANE('',#694);
#39=PLANE('',#698);
#40=PLANE('',#699);
#41=PLANE('',#700);
#42=PLANE('',#701);
#43=PLANE('',#702);
#44=PLANE('',#703);
#45=PLANE('',#704);
#46=PLANE('',#705);
#47=PLANE('',#706);
#48=PLANE('',#707);
#49=PLANE('',#708);
#50=PLANE('',#709);
#51=PLANE('',#710);
#52=PLANE('',#711);
#53=PLANE('',#712);
#54=PLANE('',#713);
#55=PLANE('',#714);
#56=PLANE('',#715);
#57=FACE_OUTER_BOUND('',#92,.T.);
#58=FACE_OUTER_BOUND('',#93,.T.);
#59=FACE_OUTER_BOUND('',#94,.T.);
#60=FACE_OUTER_BOUND('',#95,.T.);
#61=FACE_OUTER_BOUND('',#96,.T.);
#62=FACE_OUTER_BOUND('',#99,.T.);
#63=FACE_OUTER_BOUND('',#100,.T.);
#64=FACE_OUTER_BOUND('',#103,.T.);
#65=FACE_OUTER_BOUND('',#104,.T.);
#66=FACE_OUTER_BOUND('',#105,.T.);
#67=FACE_OUTER_BOUND('',#108,.T.);
#68=FACE_OUTER_BOUND('',#109,.T.);
#69=FACE_OUTER_BOUND('',#112,.T.);
#70=FACE_OUTER_BOUND('',#113,.T.);
#71=FACE_OUTER_BOUND('',#114,.T.);
#72=FACE_OUTER_BOUND('',#115,.T.);
#73=FACE_OUTER_BOUND('',#117,.T.);
#74=FACE_OUTER_BOUND('',#118,.T.);
#75=FACE_OUTER_BOUND('',#119,.T.);
#76=FACE_OUTER_BOUND('',#120,.T.);
#77=FACE_OUTER_BOUND('',#122,.T.);
#78=FACE_OUTER_BOUND('',#123,.T.);
#79=FACE_OUTER_BOUND('',#124,.T.);
#80=FACE_OUTER_BOUND('',#125,.T.);
#81=FACE_OUTER_BOUND('',#126,.T.);
#82=FACE_OUTER_BOUND('',#127,.T.);
#83=FACE_OUTER_BOUND('',#128,.T.);
#84=FACE_OUTER_BOUND('',#129,.T.);
#85=FACE_OUTER_BOUND('',#130,.T.);
#86=FACE_OUTER_BOUND('',#131,.T.);
#87=FACE_OUTER_BOUND('',#132,.T.);
#88=FACE_OUTER_BOUND('',#133,.T.);
#89=FACE_OUTER_BOUND('',#134,.T.);
#90=FACE_OUTER_BOUND('',#135,.T.);
#91=FACE_OUTER_BOUND('',#139,.T.);
#92=EDGE_LOOP('',(#442,#443,#444,#445));
#93=EDGE_LOOP('',(#446,#447,#448,#449));
#94=EDGE_LOOP('',(#450,#451,#452,#453));
#95=EDGE_LOOP('',(#454,#455,#456,#457));
#96=EDGE_LOOP('',(#458,#459,#460,#461));
#97=EDGE_LOOP('',(#462));
#98=EDGE_LOOP('',(#463));
#99=EDGE_LOOP('',(#464,#465,#466,#467));
#100=EDGE_LOOP('',(#468,#469,#470,#471));
#101=EDGE_LOOP('',(#472));
#102=EDGE_LOOP('',(#473));
#103=EDGE_LOOP('',(#474,#475,#476,#477));
#104=EDGE_LOOP('',(#478,#479,#480,#481));
#105=EDGE_LOOP('',(#482,#483,#484,#485));
#106=EDGE_LOOP('',(#486));
#107=EDGE_LOOP('',(#487));
#108=EDGE_LOOP('',(#488,#489,#490,#491));
#109=EDGE_LOOP('',(#492,#493,#494,#495));
#110=EDGE_LOOP('',(#496));
#111=EDGE_LOOP('',(#497));
#112=EDGE_LOOP('',(#498,#499,#500,#501));
#113=EDGE_LOOP('',(#502,#503,#504,#505));
#114=EDGE_LOOP('',(#506,#507,#508,#509));
#115=EDGE_LOOP('',(#510));
#116=EDGE_LOOP('',(#511));
#117=EDGE_LOOP('',(#512,#513,#514,#515));
#118=EDGE_LOOP('',(#516,#517,#518,#519));
#119=EDGE_LOOP('',(#520,#521,#522,#523));
#120=EDGE_LOOP('',(#524,#525,#526,#527));
#121=EDGE_LOOP('',(#528));
#122=EDGE_LOOP('',(#529,#530,#531,#532,#533,#534));
#123=EDGE_LOOP('',(#535,#536,#537,#538));
#124=EDGE_LOOP('',(#539,#540,#541,#542,#543,#544));
#125=EDGE_LOOP('',(#545,#546,#547,#548));
#126=EDGE_LOOP('',(#549,#550,#551,#552,#553,#554));
#127=EDGE_LOOP('',(#555,#556,#557,#558));
#128=EDGE_LOOP('',(#559,#560,#561,#562));
#129=EDGE_LOOP('',(#563,#564,#565,#566,#567,#568));
#130=EDGE_LOOP('',(#569,#570,#571,#572));
#131=EDGE_LOOP('',(#573,#574,#575,#576));
#132=EDGE_LOOP('',(#577,#578,#579,#580));
#133=EDGE_LOOP('',(#581,#582,#583,#584,#585,#586));
#134=EDGE_LOOP('',(#587,#588,#589,#590));
#135=EDGE_LOOP('',(#591,#592,#593,#594,#595,#596,#597,#598));
#136=EDGE_LOOP('',(#599,#600,#601,#602));
#137=EDGE_LOOP('',(#603,#604,#605,#606));
#138=EDGE_LOOP('',(#607));
#139=EDGE_LOOP('',(#608,#609,#610,#611,#612,#613));
#140=LINE('',#891,#214);
#141=LINE('',#897,#215);
#142=LINE('',#903,#216);
#143=LINE('',#909,#217);
#144=LINE('',#914,#218);
#145=LINE('',#916,#219);
#146=LINE('',#918,#220);
#147=LINE('',#919,#221);
#148=LINE('',#922,#222);
#149=LINE('',#924,#223);
#150=LINE('',#925,#224);
#151=LINE('',#928,#225);
#152=LINE('',#930,#226);
#153=LINE('',#931,#227);
#154=LINE('',#933,#228);
#155=LINE('',#934,#229);
#156=LINE('',#939,#230);
#157=LINE('',#941,#231);
#158=LINE('',#943,#232);
#159=LINE('',#944,#233);
#160=LINE('',#947,#234);
#161=LINE('',#949,#235);
#162=LINE('',#950,#236);
#163=LINE('',#953,#237);
#164=LINE('',#955,#238);
#165=LINE('',#956,#239);
#166=LINE('',#958,#240);
#167=LINE('',#959,#241);
#168=LINE('',#965,#242);
#169=LINE('',#972,#243);
#170=LINE('',#977,#244);
#171=LINE('',#979,#245);
#172=LINE('',#981,#246);
#173=LINE('',#982,#247);
#174=LINE('',#986,#248);
#175=LINE('',#988,#249);
#176=LINE('',#990,#250);
#177=LINE('',#991,#251);
#178=LINE('',#995,#252);
#179=LINE('',#997,#253);
#180=LINE('',#999,#254);
#181=LINE('',#1000,#255);
#182=LINE('',#1002,#256);
#183=LINE('',#1003,#257);
#184=LINE('',#1004,#258);
#185=LINE('',#1006,#259);
#186=LINE('',#1008,#260);
#187=LINE('',#1009,#261);
#188=LINE('',#1013,#262);
#189=LINE('',#1015,#263);
#190=LINE('',#1017,#264);
#191=LINE('',#1019,#265);
#192=LINE('',#1020,#266);
#193=LINE('',#1023,#267);
#194=LINE('',#1025,#268);
#195=LINE('',#1026,#269);
#196=LINE('',#1029,#270);
#197=LINE('',#1030,#271);
#198=LINE('',#1033,#272);
#199=LINE('',#1035,#273);
#200=LINE('',#1036,#274);
#201=LINE('',#1039,#275);
#202=LINE('',#1041,#276);
#203=LINE('',#1042,#277);
#204=LINE('',#1045,#278);
#205=LINE('',#1047,#279);
#206=LINE('',#1048,#280);
#207=LINE('',#1051,#281);
#208=LINE('',#1053,#282);
#209=LINE('',#1054,#283);
#210=LINE('',#1056,#284);
#211=LINE('',#1058,#285);
#212=LINE('',#1059,#286);
#213=LINE('',#1061,#287);
#214=VECTOR('',#722,1.4);
#215=VECTOR('',#729,1.4);
#216=VECTOR('',#736,1.4);
#217=VECTOR('',#743,1.4);
#218=VECTOR('',#748,10.);
#219=VECTOR('',#749,10.);
#220=VECTOR('',#750,10.);
#221=VECTOR('',#751,10.);
#222=VECTOR('',#754,10.);
#223=VECTOR('',#755,10.);
#224=VECTOR('',#756,10.);
#225=VECTOR('',#759,10.);
#226=VECTOR('',#760,10.);
#227=VECTOR('',#761,10.);
#228=VECTOR('',#764,10.);
#229=VECTOR('',#765,10.);
#230=VECTOR('',#770,10.);
#231=VECTOR('',#771,10.);
#232=VECTOR('',#772,10.);
#233=VECTOR('',#773,10.);
#234=VECTOR('',#776,10.);
#235=VECTOR('',#777,10.);
#236=VECTOR('',#778,10.);
#237=VECTOR('',#781,10.);
#238=VECTOR('',#782,10.);
#239=VECTOR('',#783,10.);
#240=VECTOR('',#786,10.);
#241=VECTOR('',#787,10.);
#242=VECTOR('',#794,7.);
#243=VECTOR('',#803,3.4);
#244=VECTOR('',#808,10.);
#245=VECTOR('',#809,10.);
#246=VECTOR('',#810,10.);
#247=VECTOR('',#811,10.);
#248=VECTOR('',#814,10.);
#249=VECTOR('',#815,10.);
#250=VECTOR('',#816,10.);
#251=VECTOR('',#817,10.);
#252=VECTOR('',#820,10.);
#253=VECTOR('',#821,10.);
#254=VECTOR('',#822,10.);
#255=VECTOR('',#823,10.);
#256=VECTOR('',#826,10.);
#257=VECTOR('',#827,10.);
#258=VECTOR('',#828,10.);
#259=VECTOR('',#831,10.);
#260=VECTOR('',#834,10.);
#261=VECTOR('',#835,10.);
#262=VECTOR('',#840,10.);
#263=VECTOR('',#841,10.);
#264=VECTOR('',#842,10.);
#265=VECTOR('',#843,10.);
#266=VECTOR('',#844,10.);
#267=VECTOR('',#847,10.);
#268=VECTOR('',#848,10.);
#269=VECTOR('',#849,10.);
#270=VECTOR('',#852,10.);
#271=VECTOR('',#853,10.);
#272=VECTOR('',#856,10.);
#273=VECTOR('',#857,10.);
#274=VECTOR('',#858,10.);
#275=VECTOR('',#861,10.);
#276=VECTOR('',#862,10.);
#277=VECTOR('',#863,10.);
#278=VECTOR('',#866,10.);
#279=VECTOR('',#867,10.);
#280=VECTOR('',#868,10.);
#281=VECTOR('',#871,10.);
#282=VECTOR('',#872,10.);
#283=VECTOR('',#873,10.);
#284=VECTOR('',#876,10.);
#285=VECTOR('',#877,10.);
#286=VECTOR('',#878,10.);
#287=VECTOR('',#881,10.);
#288=CIRCLE('',#670,1.4);
#289=CIRCLE('',#671,1.4);
#290=CIRCLE('',#673,1.4);
#291=CIRCLE('',#674,1.4);
#292=CIRCLE('',#676,1.4);
#293=CIRCLE('',#677,1.4);
#294=CIRCLE('',#679,1.4);
#295=CIRCLE('',#680,1.4);
#296=CIRCLE('',#692,7.);
#297=CIRCLE('',#693,7.);
#298=CIRCLE('',#695,3.4);
#299=CIRCLE('',#697,3.4);
#300=VERTEX_POINT('',#888);
#301=VERTEX_POINT('',#890);
#302=VERTEX_POINT('',#894);
#303=VERTEX_POINT('',#896);
#304=VERTEX_POINT('',#900);
#305=VERTEX_POINT('',#902);
#306=VERTEX_POINT('',#906);
#307=VERTEX_POINT('',#908);
#308=VERTEX_POINT('',#912);
#309=VERTEX_POINT('',#913);
#310=VERTEX_POINT('',#915);
#311=VERTEX_POINT('',#917);
#312=VERTEX_POINT('',#921);
#313=VERTEX_POINT('',#923);
#314=VERTEX_POINT('',#927);
#315=VERTEX_POINT('',#929);
#316=VERTEX_POINT('',#937);
#317=VERTEX_POINT('',#938);
#318=VERTEX_POINT('',#940);
#319=VERTEX_POINT('',#942);
#320=VERTEX_POINT('',#946);
#321=VERTEX_POINT('',#948);
#322=VERTEX_POINT('',#952);
#323=VERTEX_POINT('',#954);
#324=VERTEX_POINT('',#962);
#325=VERTEX_POINT('',#964);
#326=VERTEX_POINT('',#968);
#327=VERTEX_POINT('',#971);
#328=VERTEX_POINT('',#975);
#329=VERTEX_POINT('',#976);
#330=VERTEX_POINT('',#978);
#331=VERTEX_POINT('',#980);
#332=VERTEX_POINT('',#984);
#333=VERTEX_POINT('',#985);
#334=VERTEX_POINT('',#987);
#335=VERTEX_POINT('',#989);
#336=VERTEX_POINT('',#993);
#337=VERTEX_POINT('',#994);
#338=VERTEX_POINT('',#996);
#339=VERTEX_POINT('',#998);
#340=VERTEX_POINT('',#1012);
#341=VERTEX_POINT('',#1014);
#342=VERTEX_POINT('',#1016);
#343=VERTEX_POINT('',#1018);
#344=VERTEX_POINT('',#1022);
#345=VERTEX_POINT('',#1024);
#346=VERTEX_POINT('',#1028);
#347=VERTEX_POINT('',#1032);
#348=VERTEX_POINT('',#1034);
#349=VERTEX_POINT('',#1038);
#350=VERTEX_POINT('',#1040);
#351=VERTEX_POINT('',#1044);
#352=VERTEX_POINT('',#1046);
#353=VERTEX_POINT('',#1050);
#354=VERTEX_POINT('',#1052);
#355=VERTEX_POINT('',#1057);
#356=EDGE_CURVE('',#300,#300,#288,.T.);
#357=EDGE_CURVE('',#300,#301,#140,.T.);
#358=EDGE_CURVE('',#301,#301,#289,.T.);
#359=EDGE_CURVE('',#302,#302,#290,.T.);
#360=EDGE_CURVE('',#302,#303,#141,.T.);
#361=EDGE_CURVE('',#303,#303,#291,.T.);
#362=EDGE_CURVE('',#304,#304,#292,.T.);
#363=EDGE_CURVE('',#304,#305,#142,.T.);
#364=EDGE_CURVE('',#305,#305,#293,.T.);
#365=EDGE_CURVE('',#306,#306,#294,.T.);
#366=EDGE_CURVE('',#306,#307,#143,.T.);
#367=EDGE_CURVE('',#307,#307,#295,.T.);
#368=EDGE_CURVE('',#308,#309,#144,.T.);
#369=EDGE_CURVE('',#308,#310,#145,.T.);
#370=EDGE_CURVE('',#311,#310,#146,.T.);
#371=EDGE_CURVE('',#309,#311,#147,.T.);
#372=EDGE_CURVE('',#309,#312,#148,.T.);
#373=EDGE_CURVE('',#313,#311,#149,.T.);
#374=EDGE_CURVE('',#312,#313,#150,.T.);
#375=EDGE_CURVE('',#312,#314,#151,.T.);
#376=EDGE_CURVE('',#315,#313,#152,.T.);
#377=EDGE_CURVE('',#314,#315,#153,.T.);
#378=EDGE_CURVE('',#314,#308,#154,.T.);
#379=EDGE_CURVE('',#310,#315,#155,.T.);
#380=EDGE_CURVE('',#316,#317,#156,.T.);
#381=EDGE_CURVE('',#316,#318,#157,.T.);
#382=EDGE_CURVE('',#319,#318,#158,.T.);
#383=EDGE_CURVE('',#317,#319,#159,.T.);
#384=EDGE_CURVE('',#317,#320,#160,.T.);
#385=EDGE_CURVE('',#321,#319,#161,.T.);
#386=EDGE_CURVE('',#320,#321,#162,.T.);
#387=EDGE_CURVE('',#320,#322,#163,.T.);
#388=EDGE_CURVE('',#323,#321,#164,.T.);
#389=EDGE_CURVE('',#322,#323,#165,.T.);
#390=EDGE_CURVE('',#322,#316,#166,.T.);
#391=EDGE_CURVE('',#318,#323,#167,.T.);
#392=EDGE_CURVE('',#324,#324,#296,.T.);
#393=EDGE_CURVE('',#324,#325,#168,.T.);
#394=EDGE_CURVE('',#325,#325,#297,.T.);
#395=EDGE_CURVE('',#326,#326,#298,.T.);
#396=EDGE_CURVE('',#326,#327,#169,.T.);
#397=EDGE_CURVE('',#327,#327,#299,.T.);
#398=EDGE_CURVE('',#328,#329,#170,.T.);
#399=EDGE_CURVE('',#328,#330,#171,.T.);
#400=EDGE_CURVE('',#330,#331,#172,.T.);
#401=EDGE_CURVE('',#331,#329,#173,.T.);
#402=EDGE_CURVE('',#332,#333,#174,.T.);
#403=EDGE_CURVE('',#332,#334,#175,.T.);
#404=EDGE_CURVE('',#334,#335,#176,.T.);
#405=EDGE_CURVE('',#335,#333,#177,.T.);
#406=EDGE_CURVE('',#336,#337,#178,.T.);
#407=EDGE_CURVE('',#338,#336,#179,.T.);
#408=EDGE_CURVE('',#339,#338,#180,.T.);
#409=EDGE_CURVE('',#337,#339,#181,.T.);
#410=EDGE_CURVE('',#337,#330,#182,.T.);
#411=EDGE_CURVE('',#333,#328,#183,.T.);
#412=EDGE_CURVE('',#336,#335,#184,.T.);
#413=EDGE_CURVE('',#339,#331,#185,.T.);
#414=EDGE_CURVE('',#338,#334,#186,.T.);
#415=EDGE_CURVE('',#329,#332,#187,.T.);
#416=EDGE_CURVE('',#340,#328,#188,.T.);
#417=EDGE_CURVE('',#341,#340,#189,.T.);
#418=EDGE_CURVE('',#342,#341,#190,.T.);
#419=EDGE_CURVE('',#343,#342,#191,.T.);
#420=EDGE_CURVE('',#333,#343,#192,.T.);
#421=EDGE_CURVE('',#341,#344,#193,.T.);
#422=EDGE_CURVE('',#345,#344,#194,.T.);
#423=EDGE_CURVE('',#342,#345,#195,.T.);
#424=EDGE_CURVE('',#346,#345,#196,.T.);
#425=EDGE_CURVE('',#343,#346,#197,.T.);
#426=EDGE_CURVE('',#347,#332,#198,.T.);
#427=EDGE_CURVE('',#348,#346,#199,.T.);
#428=EDGE_CURVE('',#347,#348,#200,.T.);
#429=EDGE_CURVE('',#349,#347,#201,.T.);
#430=EDGE_CURVE('',#350,#348,#202,.T.);
#431=EDGE_CURVE('',#349,#350,#203,.T.);
#432=EDGE_CURVE('',#351,#349,#204,.T.);
#433=EDGE_CURVE('',#352,#350,#205,.T.);
#434=EDGE_CURVE('',#351,#352,#206,.T.);
#435=EDGE_CURVE('',#353,#351,#207,.T.);
#436=EDGE_CURVE('',#354,#352,#208,.T.);
#437=EDGE_CURVE('',#353,#354,#209,.T.);
#438=EDGE_CURVE('',#329,#353,#210,.T.);
#439=EDGE_CURVE('',#355,#354,#211,.T.);
#440=EDGE_CURVE('',#340,#355,#212,.T.);
#441=EDGE_CURVE('',#344,#355,#213,.T.);
#442=ORIENTED_EDGE('',*,*,#356,.F.);
#443=ORIENTED_EDGE('',*,*,#357,.T.);
#444=ORIENTED_EDGE('',*,*,#358,.F.);
#445=ORIENTED_EDGE('',*,*,#357,.F.);
#446=ORIENTED_EDGE('',*,*,#359,.F.);
#447=ORIENTED_EDGE('',*,*,#360,.T.);
#448=ORIENTED_EDGE('',*,*,#361,.F.);
#449=ORIENTED_EDGE('',*,*,#360,.F.);
#450=ORIENTED_EDGE('',*,*,#362,.F.);
#451=ORIENTED_EDGE('',*,*,#363,.T.);
#452=ORIENTED_EDGE('',*,*,#364,.F.);
#453=ORIENTED_EDGE('',*,*,#363,.F.);
#454=ORIENTED_EDGE('',*,*,#365,.F.);
#455=ORIENTED_EDGE('',*,*,#366,.T.);
#456=ORIENTED_EDGE('',*,*,#367,.F.);
#457=ORIENTED_EDGE('',*,*,#366,.F.);
#458=ORIENTED_EDGE('',*,*,#368,.F.);
#459=ORIENTED_EDGE('',*,*,#369,.T.);
#460=ORIENTED_EDGE('',*,*,#370,.F.);
#461=ORIENTED_EDGE('',*,*,#371,.F.);
#462=ORIENTED_EDGE('',*,*,#358,.T.);
#463=ORIENTED_EDGE('',*,*,#367,.T.);
#464=ORIENTED_EDGE('',*,*,#372,.F.);
#465=ORIENTED_EDGE('',*,*,#371,.T.);
#466=ORIENTED_EDGE('',*,*,#373,.F.);
#467=ORIENTED_EDGE('',*,*,#374,.F.);
#468=ORIENTED_EDGE('',*,*,#375,.F.);
#469=ORIENTED_EDGE('',*,*,#374,.T.);
#470=ORIENTED_EDGE('',*,*,#376,.F.);
#471=ORIENTED_EDGE('',*,*,#377,.F.);
#472=ORIENTED_EDGE('',*,*,#356,.T.);
#473=ORIENTED_EDGE('',*,*,#365,.T.);
#474=ORIENTED_EDGE('',*,*,#378,.F.);
#475=ORIENTED_EDGE('',*,*,#377,.T.);
#476=ORIENTED_EDGE('',*,*,#379,.F.);
#477=ORIENTED_EDGE('',*,*,#369,.F.);
#478=ORIENTED_EDGE('',*,*,#379,.T.);
#479=ORIENTED_EDGE('',*,*,#376,.T.);
#480=ORIENTED_EDGE('',*,*,#373,.T.);
#481=ORIENTED_EDGE('',*,*,#370,.T.);
#482=ORIENTED_EDGE('',*,*,#380,.F.);
#483=ORIENTED_EDGE('',*,*,#381,.T.);
#484=ORIENTED_EDGE('',*,*,#382,.F.);
#485=ORIENTED_EDGE('',*,*,#383,.F.);
#486=ORIENTED_EDGE('',*,*,#361,.T.);
#487=ORIENTED_EDGE('',*,*,#364,.T.);
#488=ORIENTED_EDGE('',*,*,#384,.F.);
#489=ORIENTED_EDGE('',*,*,#383,.T.);
#490=ORIENTED_EDGE('',*,*,#385,.F.);
#491=ORIENTED_EDGE('',*,*,#386,.F.);
#492=ORIENTED_EDGE('',*,*,#387,.F.);
#493=ORIENTED_EDGE('',*,*,#386,.T.);
#494=ORIENTED_EDGE('',*,*,#388,.F.);
#495=ORIENTED_EDGE('',*,*,#389,.F.);
#496=ORIENTED_EDGE('',*,*,#359,.T.);
#497=ORIENTED_EDGE('',*,*,#362,.T.);
#498=ORIENTED_EDGE('',*,*,#390,.F.);
#499=ORIENTED_EDGE('',*,*,#389,.T.);
#500=ORIENTED_EDGE('',*,*,#391,.F.);
#501=ORIENTED_EDGE('',*,*,#381,.F.);
#502=ORIENTED_EDGE('',*,*,#391,.T.);
#503=ORIENTED_EDGE('',*,*,#388,.T.);
#504=ORIENTED_EDGE('',*,*,#385,.T.);
#505=ORIENTED_EDGE('',*,*,#382,.T.);
#506=ORIENTED_EDGE('',*,*,#392,.F.);
#507=ORIENTED_EDGE('',*,*,#393,.T.);
#508=ORIENTED_EDGE('',*,*,#394,.T.);
#509=ORIENTED_EDGE('',*,*,#393,.F.);
#510=ORIENTED_EDGE('',*,*,#394,.F.);
#511=ORIENTED_EDGE('',*,*,#395,.F.);
#512=ORIENTED_EDGE('',*,*,#395,.T.);
#513=ORIENTED_EDGE('',*,*,#396,.T.);
#514=ORIENTED_EDGE('',*,*,#397,.F.);
#515=ORIENTED_EDGE('',*,*,#396,.F.);
#516=ORIENTED_EDGE('',*,*,#398,.F.);
#517=ORIENTED_EDGE('',*,*,#399,.T.);
#518=ORIENTED_EDGE('',*,*,#400,.T.);
#519=ORIENTED_EDGE('',*,*,#401,.T.);
#520=ORIENTED_EDGE('',*,*,#402,.F.);
#521=ORIENTED_EDGE('',*,*,#403,.T.);
#522=ORIENTED_EDGE('',*,*,#404,.T.);
#523=ORIENTED_EDGE('',*,*,#405,.T.);
#524=ORIENTED_EDGE('',*,*,#406,.F.);
#525=ORIENTED_EDGE('',*,*,#407,.F.);
#526=ORIENTED_EDGE('',*,*,#408,.F.);
#527=ORIENTED_EDGE('',*,*,#409,.F.);
#528=ORIENTED_EDGE('',*,*,#392,.T.);
#529=ORIENTED_EDGE('',*,*,#406,.T.);
#530=ORIENTED_EDGE('',*,*,#410,.T.);
#531=ORIENTED_EDGE('',*,*,#399,.F.);
#532=ORIENTED_EDGE('',*,*,#411,.F.);
#533=ORIENTED_EDGE('',*,*,#405,.F.);
#534=ORIENTED_EDGE('',*,*,#412,.F.);
#535=ORIENTED_EDGE('',*,*,#409,.T.);
#536=ORIENTED_EDGE('',*,*,#413,.T.);
#537=ORIENTED_EDGE('',*,*,#400,.F.);
#538=ORIENTED_EDGE('',*,*,#410,.F.);
#539=ORIENTED_EDGE('',*,*,#408,.T.);
#540=ORIENTED_EDGE('',*,*,#414,.T.);
#541=ORIENTED_EDGE('',*,*,#403,.F.);
#542=ORIENTED_EDGE('',*,*,#415,.F.);
#543=ORIENTED_EDGE('',*,*,#401,.F.);
#544=ORIENTED_EDGE('',*,*,#413,.F.);
#545=ORIENTED_EDGE('',*,*,#407,.T.);
#546=ORIENTED_EDGE('',*,*,#412,.T.);
#547=ORIENTED_EDGE('',*,*,#404,.F.);
#548=ORIENTED_EDGE('',*,*,#414,.F.);
#549=ORIENTED_EDGE('',*,*,#411,.T.);
#550=ORIENTED_EDGE('',*,*,#416,.F.);
#551=ORIENTED_EDGE('',*,*,#417,.F.);
#552=ORIENTED_EDGE('',*,*,#418,.F.);
#553=ORIENTED_EDGE('',*,*,#419,.F.);
#554=ORIENTED_EDGE('',*,*,#420,.F.);
#555=ORIENTED_EDGE('',*,*,#418,.T.);
#556=ORIENTED_EDGE('',*,*,#421,.T.);
#557=ORIENTED_EDGE('',*,*,#422,.F.);
#558=ORIENTED_EDGE('',*,*,#423,.F.);
#559=ORIENTED_EDGE('',*,*,#419,.T.);
#560=ORIENTED_EDGE('',*,*,#423,.T.);
#561=ORIENTED_EDGE('',*,*,#424,.F.);
#562=ORIENTED_EDGE('',*,*,#425,.F.);
#563=ORIENTED_EDGE('',*,*,#426,.T.);
#564=ORIENTED_EDGE('',*,*,#402,.T.);
#565=ORIENTED_EDGE('',*,*,#420,.T.);
#566=ORIENTED_EDGE('',*,*,#425,.T.);
#567=ORIENTED_EDGE('',*,*,#427,.F.);
#568=ORIENTED_EDGE('',*,*,#428,.F.);
#569=ORIENTED_EDGE('',*,*,#429,.T.);
#570=ORIENTED_EDGE('',*,*,#428,.T.);
#571=ORIENTED_EDGE('',*,*,#430,.F.);
#572=ORIENTED_EDGE('',*,*,#431,.F.);
#573=ORIENTED_EDGE('',*,*,#432,.T.);
#574=ORIENTED_EDGE('',*,*,#431,.T.);
#575=ORIENTED_EDGE('',*,*,#433,.F.);
#576=ORIENTED_EDGE('',*,*,#434,.F.);
#577=ORIENTED_EDGE('',*,*,#435,.T.);
#578=ORIENTED_EDGE('',*,*,#434,.T.);
#579=ORIENTED_EDGE('',*,*,#436,.F.);
#580=ORIENTED_EDGE('',*,*,#437,.F.);
#581=ORIENTED_EDGE('',*,*,#416,.T.);
#582=ORIENTED_EDGE('',*,*,#398,.T.);
#583=ORIENTED_EDGE('',*,*,#438,.T.);
#584=ORIENTED_EDGE('',*,*,#437,.T.);
#585=ORIENTED_EDGE('',*,*,#439,.F.);
#586=ORIENTED_EDGE('',*,*,#440,.F.);
#587=ORIENTED_EDGE('',*,*,#417,.T.);
#588=ORIENTED_EDGE('',*,*,#440,.T.);
#589=ORIENTED_EDGE('',*,*,#441,.F.);
#590=ORIENTED_EDGE('',*,*,#421,.F.);
#591=ORIENTED_EDGE('',*,*,#441,.T.);
#592=ORIENTED_EDGE('',*,*,#439,.T.);
#593=ORIENTED_EDGE('',*,*,#436,.T.);
#594=ORIENTED_EDGE('',*,*,#433,.T.);
#595=ORIENTED_EDGE('',*,*,#430,.T.);
#596=ORIENTED_EDGE('',*,*,#427,.T.);
#597=ORIENTED_EDGE('',*,*,#424,.T.);
#598=ORIENTED_EDGE('',*,*,#422,.T.);
#599=ORIENTED_EDGE('',*,*,#368,.T.);
#600=ORIENTED_EDGE('',*,*,#372,.T.);
#601=ORIENTED_EDGE('',*,*,#375,.T.);
#602=ORIENTED_EDGE('',*,*,#378,.T.);
#603=ORIENTED_EDGE('',*,*,#380,.T.);
#604=ORIENTED_EDGE('',*,*,#384,.T.);
#605=ORIENTED_EDGE('',*,*,#387,.T.);
#606=ORIENTED_EDGE('',*,*,#390,.T.);
#607=ORIENTED_EDGE('',*,*,#397,.T.);
#608=ORIENTED_EDGE('',*,*,#415,.T.);
#609=ORIENTED_EDGE('',*,*,#426,.F.);
#610=ORIENTED_EDGE('',*,*,#429,.F.);
#611=ORIENTED_EDGE('',*,*,#432,.F.);
#612=ORIENTED_EDGE('',*,*,#435,.F.);
#613=ORIENTED_EDGE('',*,*,#438,.F.);
#614=CYLINDRICAL_SURFACE('',#669,1.4);
#615=CYLINDRICAL_SURFACE('',#672,1.4);
#616=CYLINDRICAL_SURFACE('',#675,1.4);
#617=CYLINDRICAL_SURFACE('',#678,1.4);
#618=CYLINDRICAL_SURFACE('',#691,7.);
#619=CYLINDRICAL_SURFACE('',#696,3.4);
#620=ADVANCED_FACE('',(#57),#614,.F.);
#621=ADVANCED_FACE('',(#58),#615,.F.);
#622=ADVANCED_FACE('',(#59),#616,.F.);
#623=ADVANCED_FACE('',(#60),#617,.F.);
#624=ADVANCED_FACE('',(#61,#15,#16),#28,.T.);
#625=ADVANCED_FACE('',(#62),#29,.T.);
#626=ADVANCED_FACE('',(#63,#17,#18),#30,.T.);
#627=ADVANCED_FACE('',(#64),#31,.T.);
#628=ADVANCED_FACE('',(#65),#32,.T.);
#629=ADVANCED_FACE('',(#66,#19,#20),#33,.T.);
#630=ADVANCED_FACE('',(#67),#34,.T.);
#631=ADVANCED_FACE('',(#68,#21,#22),#35,.T.);
#632=ADVANCED_FACE('',(#69),#36,.T.);
#633=ADVANCED_FACE('',(#70),#37,.T.);
#634=ADVANCED_FACE('',(#71),#618,.F.);
#635=ADVANCED_FACE('',(#72,#23),#38,.F.);
#636=ADVANCED_FACE('',(#73),#619,.F.);
#637=ADVANCED_FACE('',(#74),#39,.T.);
#638=ADVANCED_FACE('',(#75),#40,.T.);
#639=ADVANCED_FACE('',(#76,#24),#41,.F.);
#640=ADVANCED_FACE('',(#77),#42,.T.);
#641=ADVANCED_FACE('',(#78),#43,.T.);
#642=ADVANCED_FACE('',(#79),#44,.T.);
#643=ADVANCED_FACE('',(#80),#45,.T.);
#644=ADVANCED_FACE('',(#81),#46,.F.);
#645=ADVANCED_FACE('',(#82),#47,.T.);
#646=ADVANCED_FACE('',(#83),#48,.T.);
#647=ADVANCED_FACE('',(#84),#49,.T.);
#648=ADVANCED_FACE('',(#85),#50,.T.);
#649=ADVANCED_FACE('',(#86),#51,.T.);
#650=ADVANCED_FACE('',(#87),#52,.T.);
#651=ADVANCED_FACE('',(#88),#53,.T.);
#652=ADVANCED_FACE('',(#89),#54,.T.);
#653=ADVANCED_FACE('',(#90,#25,#26,#27),#55,.T.);
#654=ADVANCED_FACE('',(#91),#56,.F.);
#655=CLOSED_SHELL('',(#620,#621,#622,#623,#624,#625,#626,#627,#628,#629,
#630,#631,#632,#633,#634,#635,#636,#637,#638,#639,#640,#641,#642,#643,#644,
#645,#646,#647,#648,#649,#650,#651,#652,#653,#654));
#656=DERIVED_UNIT_ELEMENT(#658,1.);
#657=DERIVED_UNIT_ELEMENT(#1069,-3.);
#658=(
MASS_UNIT()
NAMED_UNIT(*)
SI_UNIT(.KILO.,.GRAM.)
);
#659=DERIVED_UNIT((#656,#657));
#660=MEASURE_REPRESENTATION_ITEM('density measure',
POSITIVE_RATIO_MEASURE(7850.),#659);
#661=PROPERTY_DEFINITION_REPRESENTATION(#666,#663);
#662=PROPERTY_DEFINITION_REPRESENTATION(#667,#664);
#663=REPRESENTATION('material name',(#665),#1066);
#664=REPRESENTATION('density',(#660),#1066);
#665=DESCRIPTIVE_REPRESENTATION_ITEM('\X2\94A2\X0\','\X2\94A2\X0\');
#666=PROPERTY_DEFINITION('material property','material name',#1076);
#667=PROPERTY_DEFINITION('material property','density of part',#1076);
#668=AXIS2_PLACEMENT_3D('',#886,#716,#717);
#669=AXIS2_PLACEMENT_3D('',#887,#718,#719);
#670=AXIS2_PLACEMENT_3D('',#889,#720,#721);
#671=AXIS2_PLACEMENT_3D('',#892,#723,#724);
#672=AXIS2_PLACEMENT_3D('',#893,#725,#726);
#673=AXIS2_PLACEMENT_3D('',#895,#727,#728);
#674=AXIS2_PLACEMENT_3D('',#898,#730,#731);
#675=AXIS2_PLACEMENT_3D('',#899,#732,#733);
#676=AXIS2_PLACEMENT_3D('',#901,#734,#735);
#677=AXIS2_PLACEMENT_3D('',#904,#737,#738);
#678=AXIS2_PLACEMENT_3D('',#905,#739,#740);
#679=AXIS2_PLACEMENT_3D('',#907,#741,#742);
#680=AXIS2_PLACEMENT_3D('',#910,#744,#745);
#681=AXIS2_PLACEMENT_3D('',#911,#746,#747);
#682=AXIS2_PLACEMENT_3D('',#920,#752,#753);
#683=AXIS2_PLACEMENT_3D('',#926,#757,#758);
#684=AXIS2_PLACEMENT_3D('',#932,#762,#763);
#685=AXIS2_PLACEMENT_3D('',#935,#766,#767);
#686=AXIS2_PLACEMENT_3D('',#936,#768,#769);
#687=AXIS2_PLACEMENT_3D('',#945,#774,#775);
#688=AXIS2_PLACEMENT_3D('',#951,#779,#780);
#689=AXIS2_PLACEMENT_3D('',#957,#784,#785);
#690=AXIS2_PLACEMENT_3D('',#960,#788,#789);
#691=AXIS2_PLACEMENT_3D('',#961,#790,#791);
#692=AXIS2_PLACEMENT_3D('',#963,#792,#793);
#693=AXIS2_PLACEMENT_3D('',#966,#795,#796);
#694=AXIS2_PLACEMENT_3D('',#967,#797,#798);
#695=AXIS2_PLACEMENT_3D('',#969,#799,#800);
#696=AXIS2_PLACEMENT_3D('',#970,#801,#802);
#697=AXIS2_PLACEMENT_3D('',#973,#804,#805);
#698=AXIS2_PLACEMENT_3D('',#974,#806,#807);
#699=AXIS2_PLACEMENT_3D('',#983,#812,#813);
#700=AXIS2_PLACEMENT_3D('',#992,#818,#819);
#701=AXIS2_PLACEMENT_3D('',#1001,#824,#825);
#702=AXIS2_PLACEMENT_3D('',#1005,#829,#830);
#703=AXIS2_PLACEMENT_3D('',#1007,#832,#833);
#704=AXIS2_PLACEMENT_3D('',#1010,#836,#837);
#705=AXIS2_PLACEMENT_3D('',#1011,#838,#839);
#706=AXIS2_PLACEMENT_3D('',#1021,#845,#846);
#707=AXIS2_PLACEMENT_3D('',#1027,#850,#851);
#708=AXIS2_PLACEMENT_3D('',#1031,#854,#855);
#709=AXIS2_PLACEMENT_3D('',#1037,#859,#860);
#710=AXIS2_PLACEMENT_3D('',#1043,#864,#865);
#711=AXIS2_PLACEMENT_3D('',#1049,#869,#870);
#712=AXIS2_PLACEMENT_3D('',#1055,#874,#875);
#713=AXIS2_PLACEMENT_3D('',#1060,#879,#880);
#714=AXIS2_PLACEMENT_3D('',#1062,#882,#883);
#715=AXIS2_PLACEMENT_3D('',#1063,#884,#885);
#716=DIRECTION('axis',(0.,0.,1.));
#717=DIRECTION('refdir',(1.,0.,0.));
#718=DIRECTION('center_axis',(-1.,-2.22044604925031E-16,0.));
#719=DIRECTION('ref_axis',(-2.22044604925031E-16,1.,0.));
#720=DIRECTION('center_axis',(-1.,-2.22044604925031E-16,0.));
#721=DIRECTION('ref_axis',(-2.22044604925031E-16,1.,0.));
#722=DIRECTION('',(-1.,-2.22044604925031E-16,0.));
#723=DIRECTION('center_axis',(1.,2.22044604925031E-16,0.));
#724=DIRECTION('ref_axis',(-2.22044604925031E-16,1.,0.));
#725=DIRECTION('center_axis',(-1.,-2.22044604925031E-16,0.));
#726=DIRECTION('ref_axis',(-2.22044604925031E-16,1.,0.));
#727=DIRECTION('center_axis',(-1.,-2.22044604925031E-16,0.));
#728=DIRECTION('ref_axis',(-2.22044604925031E-16,1.,0.));
#729=DIRECTION('',(-1.,-2.22044604925031E-16,0.));
#730=DIRECTION('center_axis',(1.,2.22044604925031E-16,0.));
#731=DIRECTION('ref_axis',(-2.22044604925031E-16,1.,0.));
#732=DIRECTION('center_axis',(-1.,-2.22044604925031E-16,0.));
#733=DIRECTION('ref_axis',(-2.22044604925031E-16,1.,0.));
#734=DIRECTION('center_axis',(-1.,-2.22044604925031E-16,0.));
#735=DIRECTION('ref_axis',(-2.22044604925031E-16,1.,0.));
#736=DIRECTION('',(-1.,-2.22044604925031E-16,0.));
#737=DIRECTION('center_axis',(1.,2.22044604925031E-16,0.));
#738=DIRECTION('ref_axis',(-2.22044604925031E-16,1.,0.));
#739=DIRECTION('center_axis',(-1.,-2.22044604925031E-16,0.));
#740=DIRECTION('ref_axis',(-2.22044604925031E-16,1.,0.));
#741=DIRECTION('center_axis',(-1.,-2.22044604925031E-16,0.));
#742=DIRECTION('ref_axis',(-2.22044604925031E-16,1.,0.));
#743=DIRECTION('',(-1.,-2.22044604925031E-16,0.));
#744=DIRECTION('center_axis',(1.,2.22044604925031E-16,0.));
#745=DIRECTION('ref_axis',(-2.22044604925031E-16,1.,0.));
#746=DIRECTION('center_axis',(-1.,-2.22044604925031E-16,0.));
#747=DIRECTION('ref_axis',(2.22044604925031E-16,-1.,0.));
#748=DIRECTION('',(-2.22044604925031E-16,1.,0.));
#749=DIRECTION('',(0.,0.,1.));
#750=DIRECTION('',(2.22044604925031E-16,-1.,0.));
#751=DIRECTION('',(0.,0.,1.));
#752=DIRECTION('center_axis',(-2.22044604925031E-16,1.,0.));
#753=DIRECTION('ref_axis',(-1.,-2.22044604925031E-16,0.));
#754=DIRECTION('',(1.,2.22044604925031E-16,0.));
#755=DIRECTION('',(-1.,-2.22044604925031E-16,0.));
#756=DIRECTION('',(0.,0.,1.));
#757=DIRECTION('center_axis',(1.,2.22044604925031E-16,0.));
#758=DIRECTION('ref_axis',(-2.22044604925031E-16,1.,0.));
#759=DIRECTION('',(2.22044604925031E-16,-1.,0.));
#760=DIRECTION('',(-2.22044604925031E-16,1.,0.));
#761=DIRECTION('',(0.,0.,1.));
#762=DIRECTION('center_axis',(2.22044604925031E-16,-1.,0.));
#763=DIRECTION('ref_axis',(1.,2.22044604925031E-16,0.));
#764=DIRECTION('',(-1.,-2.22044604925031E-16,0.));
#765=DIRECTION('',(1.,2.22044604925031E-16,0.));
#766=DIRECTION('center_axis',(0.,0.,1.));
#767=DIRECTION('ref_axis',(-2.22044604925031E-16,1.,0.));
#768=DIRECTION('center_axis',(-1.,-2.22044604925031E-16,0.));
#769=DIRECTION('ref_axis',(2.22044604925031E-16,-1.,0.));
#770=DIRECTION('',(-2.22044604925031E-16,1.,0.));
#771=DIRECTION('',(0.,0.,1.));
#772=DIRECTION('',(2.22044604925031E-16,-1.,0.));
#773=DIRECTION('',(0.,0.,1.));
#774=DIRECTION('center_axis',(-2.22044604925031E-16,1.,0.));
#775=DIRECTION('ref_axis',(-1.,-2.22044604925031E-16,0.));
#776=DIRECTION('',(1.,2.22044604925031E-16,0.));
#777=DIRECTION('',(-1.,-2.22044604925031E-16,0.));
#778=DIRECTION('',(0.,0.,1.));
#779=DIRECTION('center_axis',(1.,2.22044604925031E-16,0.));
#780=DIRECTION('ref_axis',(-2.22044604925031E-16,1.,0.));
#781=DIRECTION('',(2.22044604925031E-16,-1.,0.));
#782=DIRECTION('',(-2.22044604925031E-16,1.,0.));
#783=DIRECTION('',(0.,0.,1.));
#784=DIRECTION('center_axis',(2.22044604925031E-16,-1.,0.));
#785=DIRECTION('ref_axis',(1.,2.22044604925031E-16,0.));
#786=DIRECTION('',(-1.,-2.22044604925031E-16,0.));
#787=DIRECTION('',(1.,2.22044604925031E-16,0.));
#788=DIRECTION('center_axis',(0.,0.,1.));
#789=DIRECTION('ref_axis',(-2.22044604925031E-16,1.,0.));
#790=DIRECTION('center_axis',(0.,0.,1.));
#791=DIRECTION('ref_axis',(-2.22044604925031E-16,1.,0.));
#792=DIRECTION('center_axis',(8.15376964093327E-33,2.75954141285335E-33,
1.));
#793=DIRECTION('ref_axis',(-2.22044604925031E-16,1.,0.));
#794=DIRECTION('',(0.,0.,1.));
#795=DIRECTION('center_axis',(0.,0.,1.));
#796=DIRECTION('ref_axis',(-2.22044604925031E-16,1.,0.));
#797=DIRECTION('center_axis',(0.,0.,1.));
#798=DIRECTION('ref_axis',(-2.22044604925031E-16,1.,0.));
#799=DIRECTION('center_axis',(0.,0.,-1.));
#800=DIRECTION('ref_axis',(-2.22044604925031E-16,1.,0.));
#801=DIRECTION('center_axis',(0.,0.,1.));
#802=DIRECTION('ref_axis',(-2.22044604925031E-16,1.,0.));
#803=DIRECTION('',(0.,0.,1.));
#804=DIRECTION('center_axis',(0.,0.,-1.));
#805=DIRECTION('ref_axis',(-2.22044604925031E-16,1.,0.));
#806=DIRECTION('center_axis',(2.26774378353511E-48,-1.43726115252779E-32,
1.));
#807=DIRECTION('ref_axis',(-2.22044604925031E-16,1.,1.43726115252779E-32));
#808=DIRECTION('',(-2.22044604925031E-16,1.,0.));
#809=DIRECTION('',(1.,2.22044604925031E-16,0.));
#810=DIRECTION('',(-2.22044604925031E-16,1.,0.));
#811=DIRECTION('',(-1.,-2.22044604925031E-16,0.));
#812=DIRECTION('center_axis',(2.26774378353511E-48,-1.43726115252779E-32,
1.));
#813=DIRECTION('ref_axis',(-2.22044604925031E-16,1.,1.43726115252779E-32));
#814=DIRECTION('',(2.22044604925031E-16,-1.,0.));
#815=DIRECTION('',(-1.,-2.22044604925031E-16,0.));
#816=DIRECTION('',(2.22044604925031E-16,-1.,0.));
#817=DIRECTION('',(1.,2.22044604925031E-16,0.));
#818=DIRECTION('center_axis',(8.15376964093327E-33,2.75954141285335E-33,
1.));
#819=DIRECTION('ref_axis',(-2.22044604925031E-16,1.,-2.75954141285335E-33));
#820=DIRECTION('',(1.,2.22044604925031E-16,0.));
#821=DIRECTION('',(2.22044604925031E-16,-1.,0.));
#822=DIRECTION('',(-1.,-2.22044604925031E-16,0.));
#823=DIRECTION('',(-2.22044604925031E-16,1.,0.));
#824=DIRECTION('center_axis',(1.73387706291057E-16,-0.780868809443031,0.624695047554424));
#825=DIRECTION('ref_axis',(-1.38710165032846E-16,0.624695047554424,0.78086880944303));
#826=DIRECTION('',(-1.38710165032846E-16,0.624695047554424,0.78086880944303));
#827=DIRECTION('',(1.,2.22044604925031E-16,0.));
#828=DIRECTION('',(-1.38710165032846E-16,0.624695047554423,0.780868809443031));
#829=DIRECTION('center_axis',(1.,2.22044604925031E-16,0.));
#830=DIRECTION('ref_axis',(0.,0.,-1.));
#831=DIRECTION('',(1.38710165032846E-16,-0.624695047554424,0.78086880944303));
#832=DIRECTION('center_axis',(-1.73387706291057E-16,0.780868809443031,0.624695047554424));
#833=DIRECTION('ref_axis',(-1.38710165032846E-16,0.624695047554424,-0.78086880944303));
#834=DIRECTION('',(1.38710165032846E-16,-0.624695047554424,0.78086880944303));
#835=DIRECTION('',(-1.,-2.22044604925031E-16,0.));
#836=DIRECTION('center_axis',(-1.,-2.22044604925031E-16,0.));
#837=DIRECTION('ref_axis',(0.,0.,1.));
#838=DIRECTION('center_axis',(0.,0.,1.));
#839=DIRECTION('ref_axis',(-2.22044604925031E-16,1.,0.));
#840=DIRECTION('',(-2.22044604925031E-16,1.,0.));
#841=DIRECTION('',(0.707106781186547,0.707106781186548,0.));
#842=DIRECTION('',(1.,2.22044604925031E-16,0.));
#843=DIRECTION('',(0.707106781186548,-0.707106781186547,0.));
#844=DIRECTION('',(2.22044604925031E-16,-1.,0.));
#845=DIRECTION('center_axis',(2.22044604925031E-16,-1.,0.));
#846=DIRECTION('ref_axis',(1.,2.22044604925031E-16,0.));
#847=DIRECTION('',(0.,0.,1.));
#848=DIRECTION('',(1.,2.22044604925031E-16,0.));
#849=DIRECTION('',(0.,0.,1.));
#850=DIRECTION('center_axis',(-0.707106781186547,-0.707106781186548,0.));
#851=DIRECTION('ref_axis',(0.707106781186548,-0.707106781186547,0.));
#852=DIRECTION('',(0.707106781186548,-0.707106781186547,0.));
#853=DIRECTION('',(0.,0.,1.));
#854=DIRECTION('center_axis',(-1.,-2.22044604925031E-16,0.));
#855=DIRECTION('ref_axis',(2.22044604925031E-16,-1.,0.));
#856=DIRECTION('',(2.22044604925031E-16,-1.,0.));
#857=DIRECTION('',(2.22044604925031E-16,-1.,0.));
#858=DIRECTION('',(0.,0.,1.));
#859=DIRECTION('center_axis',(-0.707106781186548,0.707106781186547,0.));
#860=DIRECTION('ref_axis',(-0.707106781186547,-0.707106781186548,0.));
#861=DIRECTION('',(-0.707106781186547,-0.707106781186548,0.));
#862=DIRECTION('',(-0.707106781186547,-0.707106781186548,0.));
#863=DIRECTION('',(0.,0.,1.));
#864=DIRECTION('center_axis',(-2.22044604925031E-16,1.,0.));
#865=DIRECTION('ref_axis',(-1.,-2.22044604925031E-16,0.));
#866=DIRECTION('',(-1.,-2.22044604925031E-16,0.));
#867=DIRECTION('',(-1.,-2.22044604925031E-16,0.));
#868=DIRECTION('',(0.,0.,1.));
#869=DIRECTION('center_axis',(0.707106781186547,0.707106781186548,0.));
#870=DIRECTION('ref_axis',(-0.707106781186548,0.707106781186547,0.));
#871=DIRECTION('',(-0.707106781186548,0.707106781186547,0.));
#872=DIRECTION('',(-0.707106781186548,0.707106781186547,0.));
#873=DIRECTION('',(0.,0.,1.));
#874=DIRECTION('center_axis',(1.,2.22044604925031E-16,0.));
#875=DIRECTION('ref_axis',(-2.22044604925031E-16,1.,0.));
#876=DIRECTION('',(-2.22044604925031E-16,1.,0.));
#877=DIRECTION('',(-2.22044604925031E-16,1.,0.));
#878=DIRECTION('',(0.,0.,1.));
#879=DIRECTION('center_axis',(0.707106781186548,-0.707106781186547,0.));
#880=DIRECTION('ref_axis',(0.707106781186547,0.707106781186548,0.));
#881=DIRECTION('',(0.707106781186547,0.707106781186548,0.));
#882=DIRECTION('center_axis',(0.,0.,1.));
#883=DIRECTION('ref_axis',(-2.22044604925031E-16,1.,0.));
#884=DIRECTION('center_axis',(0.,0.,1.));
#885=DIRECTION('ref_axis',(-2.22044604925031E-16,1.,0.));
#886=CARTESIAN_POINT('',(0.,0.,0.));
#887=CARTESIAN_POINT('Origin',(14.00043,27.83905,21.02296));
#888=CARTESIAN_POINT('',(14.00043,26.43905,21.02296));
#889=CARTESIAN_POINT('Origin',(14.00043,27.83905,21.02296));
#890=CARTESIAN_POINT('',(11.60043,26.43905,21.02296));
#891=CARTESIAN_POINT('',(14.00043,26.43905,21.02296));
#892=CARTESIAN_POINT('Origin',(11.60043,27.83905,21.02296));
#893=CARTESIAN_POINT('Origin',(14.00043,-27.83906,61.29704));
#894=CARTESIAN_POINT('',(14.00043,-29.23906,61.29704));
#895=CARTESIAN_POINT('Origin',(14.00043,-27.83906,61.29704));
#896=CARTESIAN_POINT('',(11.60043,-29.23906,61.29704));
#897=CARTESIAN_POINT('',(14.00043,-29.23906,61.29704));
#898=CARTESIAN_POINT('Origin',(11.60043,-27.83906,61.29704));
#899=CARTESIAN_POINT('Origin',(14.00043,-27.83906,21.02296));
#900=CARTESIAN_POINT('',(14.00043,-29.23906,21.02296));
#901=CARTESIAN_POINT('Origin',(14.00043,-27.83906,21.02296));
#902=CARTESIAN_POINT('',(11.60043,-29.23906,21.02296));
#903=CARTESIAN_POINT('',(14.00043,-29.23906,21.02296));
#904=CARTESIAN_POINT('Origin',(11.60043,-27.83906,21.02296));
#905=CARTESIAN_POINT('Origin',(14.00043,27.83905,61.29704));
#906=CARTESIAN_POINT('',(14.00043,26.43905,61.29704));
#907=CARTESIAN_POINT('Origin',(14.00043,27.83905,61.29704));
#908=CARTESIAN_POINT('',(11.60043,26.43905,61.29704));
#909=CARTESIAN_POINT('',(14.00043,26.43905,61.29704));
#910=CARTESIAN_POINT('Origin',(11.60043,27.83905,61.29704));
#911=CARTESIAN_POINT('Origin',(11.60043,31.83905,16.3));
#912=CARTESIAN_POINT('',(11.60043,23.83905,16.3));
#913=CARTESIAN_POINT('',(11.60043,31.83905,16.3));
#914=CARTESIAN_POINT('',(11.60043,15.919525,16.3));
#915=CARTESIAN_POINT('',(11.60043,23.83905,65.3));
#916=CARTESIAN_POINT('',(11.60043,23.83905,16.3));
#917=CARTESIAN_POINT('',(11.60043,31.83905,65.3));
#918=CARTESIAN_POINT('',(11.60043,31.83905,65.3));
#919=CARTESIAN_POINT('',(11.60043,31.83905,16.3));
#920=CARTESIAN_POINT('Origin',(14.00043,31.83905,16.3));
#921=CARTESIAN_POINT('',(14.00043,31.83905,16.3));
#922=CARTESIAN_POINT('',(7.00021499999999,31.83905,16.3));
#923=CARTESIAN_POINT('',(14.00043,31.83905,65.3));
#924=CARTESIAN_POINT('',(14.00043,31.83905,65.3));
#925=CARTESIAN_POINT('',(14.00043,31.83905,16.3));
#926=CARTESIAN_POINT('Origin',(14.00043,23.83905,16.3));
#927=CARTESIAN_POINT('',(14.00043,23.83905,16.3));
#928=CARTESIAN_POINT('',(14.00043,11.919525,16.3));
#929=CARTESIAN_POINT('',(14.00043,23.83905,65.3));
#930=CARTESIAN_POINT('',(14.00043,23.83905,65.3));
#931=CARTESIAN_POINT('',(14.00043,23.83905,16.3));
#932=CARTESIAN_POINT('Origin',(11.60043,23.83905,16.3));
#933=CARTESIAN_POINT('',(5.80021499999999,23.83905,16.3));
#934=CARTESIAN_POINT('',(11.60043,23.83905,65.3));
#935=CARTESIAN_POINT('Origin',(12.80043,27.83905,65.3));
#936=CARTESIAN_POINT('Origin',(11.60043,-23.83906,16.3));
#937=CARTESIAN_POINT('',(11.60043,-31.83906,16.3));
#938=CARTESIAN_POINT('',(11.60043,-23.83906,16.3));
#939=CARTESIAN_POINT('',(11.60043,-11.91953,16.3));
#940=CARTESIAN_POINT('',(11.60043,-31.83906,65.3));
#941=CARTESIAN_POINT('',(11.60043,-31.83906,16.3));
#942=CARTESIAN_POINT('',(11.60043,-23.83906,65.3));
#943=CARTESIAN_POINT('',(11.60043,-23.83906,65.3));
#944=CARTESIAN_POINT('',(11.60043,-23.83906,16.3));
#945=CARTESIAN_POINT('Origin',(14.00043,-23.83906,16.3));
#946=CARTESIAN_POINT('',(14.00043,-23.83906,16.3));
#947=CARTESIAN_POINT('',(7.00021500000001,-23.83906,16.3));
#948=CARTESIAN_POINT('',(14.00043,-23.83906,65.3));
#949=CARTESIAN_POINT('',(14.00043,-23.83906,65.3));
#950=CARTESIAN_POINT('',(14.00043,-23.83906,16.3));
#951=CARTESIAN_POINT('Origin',(14.00043,-31.83906,16.3));
#952=CARTESIAN_POINT('',(14.00043,-31.83906,16.3));
#953=CARTESIAN_POINT('',(14.00043,-15.91953,16.3));
#954=CARTESIAN_POINT('',(14.00043,-31.83906,65.3));
#955=CARTESIAN_POINT('',(14.00043,-31.83906,65.3));
#956=CARTESIAN_POINT('',(14.00043,-31.83906,16.3));
#957=CARTESIAN_POINT('Origin',(11.60043,-31.83906,16.3));
#958=CARTESIAN_POINT('',(5.80021500000001,-31.83906,16.3));
#959=CARTESIAN_POINT('',(11.60043,-31.83906,65.3));
#960=CARTESIAN_POINT('Origin',(12.80043,-27.83906,65.3));
#961=CARTESIAN_POINT('Origin',(0.,0.,7.3));
#962=CARTESIAN_POINT('',(2.41156499387837E-15,-7.,7.3));
#963=CARTESIAN_POINT('Origin',(0.,0.,7.3));
#964=CARTESIAN_POINT('',(2.41156499387837E-15,-7.,10.8));
#965=CARTESIAN_POINT('',(2.41156499387837E-15,-7.,7.3));
#966=CARTESIAN_POINT('Origin',(0.,0.,10.8));
#967=CARTESIAN_POINT('Origin',(0.,0.,10.8));
#968=CARTESIAN_POINT('',(3.38571745035006E-16,-3.4,10.8));
#969=CARTESIAN_POINT('Origin',(0.,0.,10.8));
#970=CARTESIAN_POINT('Origin',(0.,0.,7.3));
#971=CARTESIAN_POINT('',(1.17133156845521E-15,-3.4,16.3));
#972=CARTESIAN_POINT('',(1.17133156845521E-15,-3.4,7.3));
#973=CARTESIAN_POINT('Origin',(0.,0.,16.3));
#974=CARTESIAN_POINT('Origin',(-2.04898936421042E-32,9.22782773714416E-17,
12.3));
#975=CARTESIAN_POINT('',(16.,-16.,12.3));
#976=CARTESIAN_POINT('',(16.,16.,12.3));
#977=CARTESIAN_POINT('',(16.,-33.,12.3));
#978=CARTESIAN_POINT('',(19.,-16.,12.3));
#979=CARTESIAN_POINT('',(-19.,-16.,12.3));
#980=CARTESIAN_POINT('',(19.,16.,12.3));
#981=CARTESIAN_POINT('',(19.,-16.,12.3));
#982=CARTESIAN_POINT('',(19.,16.,12.3));
#983=CARTESIAN_POINT('Origin',(-2.04898936421042E-32,9.22782773714416E-17,
12.3));
#984=CARTESIAN_POINT('',(-16.,16.,12.3));
#985=CARTESIAN_POINT('',(-16.,-16.,12.3));
#986=CARTESIAN_POINT('',(-16.,33.,12.3));
#987=CARTESIAN_POINT('',(-19.,16.,12.3));
#988=CARTESIAN_POINT('',(19.,16.,12.3));
#989=CARTESIAN_POINT('',(-19.,-16.,12.3));
#990=CARTESIAN_POINT('',(-19.,16.,12.3));
#991=CARTESIAN_POINT('',(-19.,-16.,12.3));
#992=CARTESIAN_POINT('Origin',(5.43031436067785E-32,-2.44559617312534E-16,
7.3));
#993=CARTESIAN_POINT('',(-19.,-20.,7.3));
#994=CARTESIAN_POINT('',(19.,-20.,7.3));
#995=CARTESIAN_POINT('',(-19.,-20.,7.3));
#996=CARTESIAN_POINT('',(-19.,20.,7.3));
#997=CARTESIAN_POINT('',(-19.,20.,7.3));
#998=CARTESIAN_POINT('',(19.,20.,7.3));
#999=CARTESIAN_POINT('',(19.,20.,7.3));
#1000=CARTESIAN_POINT('',(19.,-20.,7.3));
#1001=CARTESIAN_POINT('Origin',(-19.,-20.,7.3));
#1002=CARTESIAN_POINT('',(19.,-20.,7.3));
#1003=CARTESIAN_POINT('',(-9.5,-16.,12.3));
#1004=CARTESIAN_POINT('',(-19.,-20.,7.3));
#1005=CARTESIAN_POINT('Origin',(19.,-20.,7.3));
#1006=CARTESIAN_POINT('',(19.,20.,7.3));
#1007=CARTESIAN_POINT('Origin',(19.,20.,7.3));
#1008=CARTESIAN_POINT('',(-19.,20.,7.3));
#1009=CARTESIAN_POINT('',(9.5,16.,12.3));
#1010=CARTESIAN_POINT('Origin',(-19.,20.,7.3));
#1011=CARTESIAN_POINT('Origin',(0.,0.,12.3));
#1012=CARTESIAN_POINT('',(16.,-33.,12.3));
#1013=CARTESIAN_POINT('',(16.,-33.,12.3));
#1014=CARTESIAN_POINT('',(14.,-35.,12.3));
#1015=CARTESIAN_POINT('',(14.,-35.,12.3));
#1016=CARTESIAN_POINT('',(-14.,-35.,12.3));
#1017=CARTESIAN_POINT('',(-14.,-35.,12.3));
#1018=CARTESIAN_POINT('',(-16.,-33.,12.3));
#1019=CARTESIAN_POINT('',(-16.,-33.,12.3));
#1020=CARTESIAN_POINT('',(-16.,33.,12.3));
#1021=CARTESIAN_POINT('Origin',(-14.,-35.,12.3));
#1022=CARTESIAN_POINT('',(14.,-35.,16.3));
#1023=CARTESIAN_POINT('',(14.,-35.,12.3));
#1024=CARTESIAN_POINT('',(-14.,-35.,16.3));
#1025=CARTESIAN_POINT('',(-14.,-35.,16.3));
#1026=CARTESIAN_POINT('',(-14.,-35.,12.3));
#1027=CARTESIAN_POINT('Origin',(-16.,-33.,12.3));
#1028=CARTESIAN_POINT('',(-16.,-33.,16.3));
#1029=CARTESIAN_POINT('',(-16.,-33.,16.3));
#1030=CARTESIAN_POINT('',(-16.,-33.,12.3));
#1031=CARTESIAN_POINT('Origin',(-16.,33.,12.3));
#1032=CARTESIAN_POINT('',(-16.,33.,12.3));
#1033=CARTESIAN_POINT('',(-16.,33.,12.3));
#1034=CARTESIAN_POINT('',(-16.,33.,16.3));
#1035=CARTESIAN_POINT('',(-16.,33.,16.3));
#1036=CARTESIAN_POINT('',(-16.,33.,12.3));
#1037=CARTESIAN_POINT('Origin',(-14.,35.,12.3));
#1038=CARTESIAN_POINT('',(-14.,35.,12.3));
#1039=CARTESIAN_POINT('',(-14.,35.,12.3));
#1040=CARTESIAN_POINT('',(-14.,35.,16.3));
#1041=CARTESIAN_POINT('',(-14.,35.,16.3));
#1042=CARTESIAN_POINT('',(-14.,35.,12.3));
#1043=CARTESIAN_POINT('Origin',(14.,35.,12.3));
#1044=CARTESIAN_POINT('',(14.,35.,12.3));
#1045=CARTESIAN_POINT('',(14.,35.,12.3));
#1046=CARTESIAN_POINT('',(14.,35.,16.3));
#1047=CARTESIAN_POINT('',(14.,35.,16.3));
#1048=CARTESIAN_POINT('',(14.,35.,12.3));
#1049=CARTESIAN_POINT('Origin',(16.,33.,12.3));
#1050=CARTESIAN_POINT('',(16.,33.,12.3));
#1051=CARTESIAN_POINT('',(16.,33.,12.3));
#1052=CARTESIAN_POINT('',(16.,33.,16.3));
#1053=CARTESIAN_POINT('',(16.,33.,16.3));
#1054=CARTESIAN_POINT('',(16.,33.,12.3));
#1055=CARTESIAN_POINT('Origin',(16.,-33.,12.3));
#1056=CARTESIAN_POINT('',(16.,-33.,12.3));
#1057=CARTESIAN_POINT('',(16.,-33.,16.3));
#1058=CARTESIAN_POINT('',(16.,-33.,16.3));
#1059=CARTESIAN_POINT('',(16.,-33.,12.3));
#1060=CARTESIAN_POINT('Origin',(14.,-35.,12.3));
#1061=CARTESIAN_POINT('',(14.,-35.,16.3));
#1062=CARTESIAN_POINT('Origin',(0.,0.,16.3));
#1063=CARTESIAN_POINT('Origin',(0.,0.,12.3));
#1064=UNCERTAINTY_MEASURE_WITH_UNIT(LENGTH_MEASURE(0.01),#1068,
'DISTANCE_ACCURACY_VALUE',
'Maximum model space distance between geometric entities at asserted c
onnectivities');
#1065=UNCERTAINTY_MEASURE_WITH_UNIT(LENGTH_MEASURE(0.01),#1068,
'DISTANCE_ACCURACY_VALUE',
'Maximum model space distance between geometric entities at asserted c
onnectivities');
#1066=(
GEOMETRIC_REPRESENTATION_CONTEXT(3)
GLOBAL_UNCERTAINTY_ASSIGNED_CONTEXT((#1064))
GLOBAL_UNIT_ASSIGNED_CONTEXT((#1068,#1070,#1071))
REPRESENTATION_CONTEXT('','3D')
);
#1067=(
GEOMETRIC_REPRESENTATION_CONTEXT(3)
GLOBAL_UNCERTAINTY_ASSIGNED_CONTEXT((#1065))
GLOBAL_UNIT_ASSIGNED_CONTEXT((#1068,#1070,#1071))
REPRESENTATION_CONTEXT('','3D')
);
#1068=(
LENGTH_UNIT()
NAMED_UNIT(*)
SI_UNIT(.MILLI.,.METRE.)
);
#1069=(
LENGTH_UNIT()
NAMED_UNIT(*)
SI_UNIT($,.METRE.)
);
#1070=(
NAMED_UNIT(*)
PLANE_ANGLE_UNIT()
SI_UNIT($,.RADIAN.)
);
#1071=(
NAMED_UNIT(*)
SI_UNIT($,.STERADIAN.)
SOLID_ANGLE_UNIT()
);
#1072=SHAPE_DEFINITION_REPRESENTATION(#1073,#1074);
#1073=PRODUCT_DEFINITION_SHAPE('',$,#1076);
#1074=SHAPE_REPRESENTATION('',(#668),#1066);
#1075=PRODUCT_DEFINITION_CONTEXT('part definition',#1080,'design');
#1076=PRODUCT_DEFINITION('2026-10-03-13-24-10-552',
'Camera_plate_1_4_four_screw_v2',#1077,#1075);
#1077=PRODUCT_DEFINITION_FORMATION('',$,#1082);
#1078=PRODUCT_RELATED_PRODUCT_CATEGORY('Camera_plate_1_4_four_screw_v2',
'Camera_plate_1_4_four_screw_v2',(#1082));
#1079=APPLICATION_PROTOCOL_DEFINITION('international standard',
'automotive_design',2009,#1080);
#1080=APPLICATION_CONTEXT(
'Core Data for Automotive Mechanical Design Process');
#1081=PRODUCT_CONTEXT('part definition',#1080,'mechanical');
#1082=PRODUCT('2026-10-03-13-24-10-552',
'Camera_plate_1_4_four_screw_v2',$,(#1081));
#1083=PRESENTATION_STYLE_ASSIGNMENT((#1085));
#1084=PRESENTATION_STYLE_ASSIGNMENT((#1086));
#1085=SURFACE_STYLE_USAGE(.BOTH.,#1087);
#1086=SURFACE_STYLE_USAGE(.BOTH.,#1088);
#1087=SURFACE_SIDE_STYLE('',(#1089));
#1088=SURFACE_SIDE_STYLE('',(#1090));
#1089=SURFACE_STYLE_FILL_AREA(#1091);
#1090=SURFACE_STYLE_FILL_AREA(#1092);
#1091=FILL_AREA_STYLE('\X2\94A2\X0\ - \X2\7F0E5149\X0\',(#1093));
#1092=FILL_AREA_STYLE('Camera_plate_1_4_four_screw_v2 color',(#1094));
#1093=FILL_AREA_STYLE_COLOUR('\X2\94A2\X0\ - \X2\7F0E5149\X0\',#1095);
#1094=FILL_AREA_STYLE_COLOUR('Camera_plate_1_4_four_screw_v2 color',#1096);
#1095=COLOUR_RGB('\X2\94A2\X0\ - \X2\7F0E5149\X0\',0.627450980392157,0.627450980392157,
0.627450980392157);
#1096=COLOUR_RGB('Camera_plate_1_4_four_screw_v2 color',0.854901960784314,
0.52156862745098,0.207843137254902);
ENDSEC;
END-ISO-10303-21;
