ISO-10303-21;
HEADER;
/* Generated by software containing ST-Developer
 * from STEP Tools, Inc. (www.steptools.com) 
 */

FILE_DESCRIPTION(
/* description */ (''),
/* implementation_level */ '2;1');

FILE_NAME(
/* name */ 'receiver_heat_stake.step',
/* time_stamp */ '2026-10-03T13:24:05+08:00',
/* author */ (''),
/* organization */ (''),
/* preprocessor_version */ 'ST-DEVELOPER v20.2',
/* originating_system */ 'Autodesk Translation Framework v15.15.0.0',
/* authorisation */ '');

FILE_SCHEMA (('AUTOMOTIVE_DESIGN { 1 0 10303 214 3 1 1 }'));
ENDSEC;

DATA;
#10=MECHANICAL_DESIGN_GEOMETRIC_PRESENTATION_REPRESENTATION('',(#13),#2360);
#11=SHAPE_REPRESENTATION_RELATIONSHIP('SRR','None',#2367,#12);
#12=ADVANCED_BREP_SHAPE_REPRESENTATION('',(#14),#2359);
#13=STYLED_ITEM('',(#2377),#14);
#14=MANIFOLD_SOLID_BREP('Receiver_heat_stake_v2',#1482);
#15=FACE_BOUND('',#185,.T.);
#16=FACE_BOUND('',#186,.T.);
#17=FACE_BOUND('',#187,.T.);
#18=FACE_BOUND('',#188,.T.);
#19=FACE_BOUND('',#212,.T.);
#20=FACE_BOUND('',#214,.T.);
#21=FACE_BOUND('',#216,.T.);
#22=FACE_BOUND('',#247,.T.);
#23=FACE_BOUND('',#248,.T.);
#24=PLANE('',#1499);
#25=PLANE('',#1503);
#26=PLANE('',#1504);
#27=PLANE('',#1505);
#28=PLANE('',#1506);
#29=PLANE('',#1507);
#30=PLANE('',#1508);
#31=PLANE('',#1509);
#32=PLANE('',#1511);
#33=PLANE('',#1512);
#34=PLANE('',#1513);
#35=PLANE('',#1514);
#36=PLANE('',#1515);
#37=PLANE('',#1516);
#38=PLANE('',#1519);
#39=PLANE('',#1520);
#40=PLANE('',#1521);
#41=PLANE('',#1522);
#42=PLANE('',#1523);
#43=PLANE('',#1524);
#44=PLANE('',#1525);
#45=PLANE('',#1526);
#46=PLANE('',#1527);
#47=PLANE('',#1528);
#48=PLANE('',#1529);
#49=PLANE('',#1530);
#50=PLANE('',#1531);
#51=PLANE('',#1532);
#52=PLANE('',#1533);
#53=PLANE('',#1534);
#54=PLANE('',#1535);
#55=PLANE('',#1536);
#56=PLANE('',#1539);
#57=PLANE('',#1540);
#58=PLANE('',#1541);
#59=PLANE('',#1542);
#60=PLANE('',#1543);
#61=PLANE('',#1544);
#62=PLANE('',#1545);
#63=PLANE('',#1546);
#64=PLANE('',#1547);
#65=PLANE('',#1548);
#66=PLANE('',#1549);
#67=PLANE('',#1550);
#68=PLANE('',#1551);
#69=PLANE('',#1552);
#70=PLANE('',#1553);
#71=PLANE('',#1554);
#72=PLANE('',#1555);
#73=PLANE('',#1556);
#74=PLANE('',#1557);
#75=PLANE('',#1558);
#76=PLANE('',#1559);
#77=PLANE('',#1560);
#78=PLANE('',#1561);
#79=PLANE('',#1562);
#80=PLANE('',#1563);
#81=PLANE('',#1564);
#82=PLANE('',#1565);
#83=PLANE('',#1566);
#84=PLANE('',#1567);
#85=PLANE('',#1568);
#86=PLANE('',#1569);
#87=PLANE('',#1570);
#88=PLANE('',#1571);
#89=PLANE('',#1572);
#90=PLANE('',#1573);
#91=PLANE('',#1574);
#92=PLANE('',#1575);
#93=PLANE('',#1576);
#94=PLANE('',#1577);
#95=FACE_OUTER_BOUND('',#169,.T.);
#96=FACE_OUTER_BOUND('',#170,.T.);
#97=FACE_OUTER_BOUND('',#171,.T.);
#98=FACE_OUTER_BOUND('',#172,.T.);
#99=FACE_OUTER_BOUND('',#173,.T.);
#100=FACE_OUTER_BOUND('',#174,.T.);
#101=FACE_OUTER_BOUND('',#175,.T.);
#102=FACE_OUTER_BOUND('',#176,.T.);
#103=FACE_OUTER_BOUND('',#177,.T.);
#104=FACE_OUTER_BOUND('',#178,.T.);
#105=FACE_OUTER_BOUND('',#179,.T.);
#106=FACE_OUTER_BOUND('',#180,.T.);
#107=FACE_OUTER_BOUND('',#181,.T.);
#108=FACE_OUTER_BOUND('',#182,.T.);
#109=FACE_OUTER_BOUND('',#183,.T.);
#110=FACE_OUTER_BOUND('',#184,.T.);
#111=FACE_OUTER_BOUND('',#189,.T.);
#112=FACE_OUTER_BOUND('',#190,.T.);
#113=FACE_OUTER_BOUND('',#191,.T.);
#114=FACE_OUTER_BOUND('',#192,.T.);
#115=FACE_OUTER_BOUND('',#193,.T.);
#116=FACE_OUTER_BOUND('',#194,.T.);
#117=FACE_OUTER_BOUND('',#195,.T.);
#118=FACE_OUTER_BOUND('',#196,.T.);
#119=FACE_OUTER_BOUND('',#197,.T.);
#120=FACE_OUTER_BOUND('',#198,.T.);
#121=FACE_OUTER_BOUND('',#199,.T.);
#122=FACE_OUTER_BOUND('',#200,.T.);
#123=FACE_OUTER_BOUND('',#201,.T.);
#124=FACE_OUTER_BOUND('',#202,.T.);
#125=FACE_OUTER_BOUND('',#203,.T.);
#126=FACE_OUTER_BOUND('',#204,.T.);
#127=FACE_OUTER_BOUND('',#205,.T.);
#128=FACE_OUTER_BOUND('',#206,.T.);
#129=FACE_OUTER_BOUND('',#207,.T.);
#130=FACE_OUTER_BOUND('',#208,.T.);
#131=FACE_OUTER_BOUND('',#209,.T.);
#132=FACE_OUTER_BOUND('',#210,.T.);
#133=FACE_OUTER_BOUND('',#211,.T.);
#134=FACE_OUTER_BOUND('',#213,.T.);
#135=FACE_OUTER_BOUND('',#215,.T.);
#136=FACE_OUTER_BOUND('',#217,.T.);
#137=FACE_OUTER_BOUND('',#218,.T.);
#138=FACE_OUTER_BOUND('',#219,.T.);
#139=FACE_OUTER_BOUND('',#220,.T.);
#140=FACE_OUTER_BOUND('',#221,.T.);
#141=FACE_OUTER_BOUND('',#222,.T.);
#142=FACE_OUTER_BOUND('',#223,.T.);
#143=FACE_OUTER_BOUND('',#224,.T.);
#144=FACE_OUTER_BOUND('',#225,.T.);
#145=FACE_OUTER_BOUND('',#226,.T.);
#146=FACE_OUTER_BOUND('',#227,.T.);
#147=FACE_OUTER_BOUND('',#228,.T.);
#148=FACE_OUTER_BOUND('',#229,.T.);
#149=FACE_OUTER_BOUND('',#230,.T.);
#150=FACE_OUTER_BOUND('',#231,.T.);
#151=FACE_OUTER_BOUND('',#232,.T.);
#152=FACE_OUTER_BOUND('',#233,.T.);
#153=FACE_OUTER_BOUND('',#234,.T.);
#154=FACE_OUTER_BOUND('',#235,.T.);
#155=FACE_OUTER_BOUND('',#236,.T.);
#156=FACE_OUTER_BOUND('',#237,.T.);
#157=FACE_OUTER_BOUND('',#238,.T.);
#158=FACE_OUTER_BOUND('',#239,.T.);
#159=FACE_OUTER_BOUND('',#240,.T.);
#160=FACE_OUTER_BOUND('',#241,.T.);
#161=FACE_OUTER_BOUND('',#242,.T.);
#162=FACE_OUTER_BOUND('',#243,.T.);
#163=FACE_OUTER_BOUND('',#244,.T.);
#164=FACE_OUTER_BOUND('',#245,.T.);
#165=FACE_OUTER_BOUND('',#246,.T.);
#166=FACE_OUTER_BOUND('',#249,.T.);
#167=FACE_OUTER_BOUND('',#250,.T.);
#168=FACE_OUTER_BOUND('',#251,.T.);
#169=EDGE_LOOP('',(#995,#996,#997,#998));
#170=EDGE_LOOP('',(#999));
#171=EDGE_LOOP('',(#1000,#1001,#1002,#1003));
#172=EDGE_LOOP('',(#1004));
#173=EDGE_LOOP('',(#1005,#1006,#1007,#1008));
#174=EDGE_LOOP('',(#1009,#1010,#1011,#1012));
#175=EDGE_LOOP('',(#1013,#1014,#1015,#1016));
#176=EDGE_LOOP('',(#1017,#1018,#1019,#1020));
#177=EDGE_LOOP('',(#1021,#1022,#1023,#1024));
#178=EDGE_LOOP('',(#1025,#1026));
#179=EDGE_LOOP('',(#1027,#1028,#1029,#1030));
#180=EDGE_LOOP('',(#1031,#1032,#1033,#1034,#1035,#1036));
#181=EDGE_LOOP('',(#1037,#1038,#1039,#1040));
#182=EDGE_LOOP('',(#1041,#1042,#1043,#1044));
#183=EDGE_LOOP('',(#1045,#1046,#1047,#1048));
#184=EDGE_LOOP('',(#1049,#1050,#1051,#1052,#1053,#1054,#1055,#1056,#1057,
#1058,#1059,#1060,#1061,#1062,#1063,#1064));
#185=EDGE_LOOP('',(#1065));
#186=EDGE_LOOP('',(#1066));
#187=EDGE_LOOP('',(#1067,#1068,#1069,#1070));
#188=EDGE_LOOP('',(#1071,#1072,#1073,#1074,#1075,#1076,#1077));
#189=EDGE_LOOP('',(#1078,#1079,#1080,#1081));
#190=EDGE_LOOP('',(#1082,#1083,#1084,#1085));
#191=EDGE_LOOP('',(#1086,#1087,#1088,#1089));
#192=EDGE_LOOP('',(#1090,#1091,#1092,#1093,#1094,#1095));
#193=EDGE_LOOP('',(#1096,#1097,#1098,#1099,#1100,#1101));
#194=EDGE_LOOP('',(#1102,#1103,#1104,#1105,#1106,#1107));
#195=EDGE_LOOP('',(#1108,#1109,#1110,#1111));
#196=EDGE_LOOP('',(#1112,#1113,#1114,#1115));
#197=EDGE_LOOP('',(#1116,#1117,#1118,#1119,#1120,#1121));
#198=EDGE_LOOP('',(#1122,#1123,#1124,#1125));
#199=EDGE_LOOP('',(#1126,#1127,#1128,#1129));
#200=EDGE_LOOP('',(#1130,#1131,#1132,#1133));
#201=EDGE_LOOP('',(#1134,#1135,#1136,#1137,#1138,#1139,#1140,#1141));
#202=EDGE_LOOP('',(#1142,#1143,#1144,#1145,#1146,#1147));
#203=EDGE_LOOP('',(#1148,#1149,#1150,#1151,#1152,#1153));
#204=EDGE_LOOP('',(#1154,#1155,#1156,#1157));
#205=EDGE_LOOP('',(#1158,#1159,#1160,#1161));
#206=EDGE_LOOP('',(#1162,#1163,#1164,#1165,#1166,#1167,#1168,#1169,#1170,
#1171,#1172,#1173,#1174,#1175,#1176,#1177,#1178,#1179,#1180,#1181,#1182,
#1183,#1184,#1185));
#207=EDGE_LOOP('',(#1186,#1187,#1188,#1189,#1190,#1191));
#208=EDGE_LOOP('',(#1192,#1193,#1194,#1195));
#209=EDGE_LOOP('',(#1196,#1197,#1198,#1199,#1200,#1201));
#210=EDGE_LOOP('',(#1202,#1203,#1204,#1205));
#211=EDGE_LOOP('',(#1206,#1207,#1208,#1209,#1210,#1211,#1212,#1213));
#212=EDGE_LOOP('',(#1214,#1215,#1216,#1217));
#213=EDGE_LOOP('',(#1218,#1219,#1220,#1221,#1222,#1223,#1224,#1225,#1226,
#1227,#1228,#1229));
#214=EDGE_LOOP('',(#1230));
#215=EDGE_LOOP('',(#1231,#1232,#1233,#1234,#1235,#1236,#1237,#1238));
#216=EDGE_LOOP('',(#1239,#1240,#1241,#1242));
#217=EDGE_LOOP('',(#1243,#1244,#1245,#1246));
#218=EDGE_LOOP('',(#1247,#1248,#1249,#1250));
#219=EDGE_LOOP('',(#1251,#1252,#1253,#1254));
#220=EDGE_LOOP('',(#1255,#1256,#1257,#1258));
#221=EDGE_LOOP('',(#1259,#1260,#1261,#1262));
#222=EDGE_LOOP('',(#1263,#1264,#1265,#1266));
#223=EDGE_LOOP('',(#1267,#1268,#1269,#1270));
#224=EDGE_LOOP('',(#1271,#1272,#1273,#1274));
#225=EDGE_LOOP('',(#1275,#1276,#1277,#1278,#1279,#1280,#1281,#1282,#1283,
#1284,#1285,#1286,#1287,#1288,#1289,#1290));
#226=EDGE_LOOP('',(#1291,#1292,#1293,#1294));
#227=EDGE_LOOP('',(#1295,#1296,#1297,#1298,#1299,#1300,#1301,#1302));
#228=EDGE_LOOP('',(#1303,#1304,#1305,#1306));
#229=EDGE_LOOP('',(#1307,#1308,#1309,#1310));
#230=EDGE_LOOP('',(#1311,#1312,#1313));
#231=EDGE_LOOP('',(#1314,#1315,#1316));
#232=EDGE_LOOP('',(#1317,#1318,#1319,#1320));
#233=EDGE_LOOP('',(#1321,#1322,#1323,#1324));
#234=EDGE_LOOP('',(#1325,#1326,#1327,#1328));
#235=EDGE_LOOP('',(#1329,#1330,#1331,#1332));
#236=EDGE_LOOP('',(#1333,#1334,#1335,#1336));
#237=EDGE_LOOP('',(#1337,#1338,#1339,#1340));
#238=EDGE_LOOP('',(#1341,#1342,#1343,#1344,#1345,#1346,#1347,#1348));
#239=EDGE_LOOP('',(#1349,#1350,#1351,#1352));
#240=EDGE_LOOP('',(#1353,#1354,#1355,#1356));
#241=EDGE_LOOP('',(#1357,#1358,#1359,#1360));
#242=EDGE_LOOP('',(#1361,#1362,#1363,#1364,#1365,#1366,#1367,#1368));
#243=EDGE_LOOP('',(#1369,#1370,#1371));
#244=EDGE_LOOP('',(#1372,#1373,#1374));
#245=EDGE_LOOP('',(#1375,#1376,#1377,#1378));
#246=EDGE_LOOP('',(#1379,#1380,#1381,#1382,#1383,#1384,#1385,#1386));
#247=EDGE_LOOP('',(#1387,#1388,#1389));
#248=EDGE_LOOP('',(#1390,#1391,#1392));
#249=EDGE_LOOP('',(#1393,#1394,#1395,#1396));
#250=EDGE_LOOP('',(#1397,#1398,#1399,#1400));
#251=EDGE_LOOP('',(#1401,#1402,#1403,#1404));
#252=LINE('',#1946,#449);
#253=LINE('',#1953,#450);
#254=LINE('',#1959,#451);
#255=LINE('',#1961,#452);
#256=LINE('',#1963,#453);
#257=LINE('',#1964,#454);
#258=LINE('',#1967,#455);
#259=LINE('',#1969,#456);
#260=LINE('',#1970,#457);
#261=LINE('',#1973,#458);
#262=LINE('',#1975,#459);
#263=LINE('',#1976,#460);
#264=LINE('',#1978,#461);
#265=LINE('',#1979,#462);
#266=LINE('',#1985,#463);
#267=LINE('',#1989,#464);
#268=LINE('',#1991,#465);
#269=LINE('',#1993,#466);
#270=LINE('',#1994,#467);
#271=LINE('',#1997,#468);
#272=LINE('',#1998,#469);
#273=LINE('',#2000,#470);
#274=LINE('',#2001,#471);
#275=LINE('',#2004,#472);
#276=LINE('',#2006,#473);
#277=LINE('',#2007,#474);
#278=LINE('',#2009,#475);
#279=LINE('',#2010,#476);
#280=LINE('',#2015,#477);
#281=LINE('',#2017,#478);
#282=LINE('',#2019,#479);
#283=LINE('',#2021,#480);
#284=LINE('',#2023,#481);
#285=LINE('',#2025,#482);
#286=LINE('',#2027,#483);
#287=LINE('',#2029,#484);
#288=LINE('',#2031,#485);
#289=LINE('',#2033,#486);
#290=LINE('',#2035,#487);
#291=LINE('',#2037,#488);
#292=LINE('',#2039,#489);
#293=LINE('',#2041,#490);
#294=LINE('',#2043,#491);
#295=LINE('',#2044,#492);
#296=LINE('',#2051,#493);
#297=LINE('',#2052,#494);
#298=LINE('',#2053,#495);
#299=LINE('',#2057,#496);
#300=LINE('',#2058,#497);
#301=LINE('',#2059,#498);
#302=LINE('',#2061,#499);
#303=LINE('',#2064,#500);
#304=LINE('',#2066,#501);
#305=LINE('',#2068,#502);
#306=LINE('',#2069,#503);
#307=LINE('',#2072,#504);
#308=LINE('',#2074,#505);
#309=LINE('',#2076,#506);
#310=LINE('',#2077,#507);
#311=LINE('',#2081,#508);
#312=LINE('',#2083,#509);
#313=LINE('',#2085,#510);
#314=LINE('',#2086,#511);
#315=LINE('',#2087,#512);
#316=LINE('',#2090,#513);
#317=LINE('',#2091,#514);
#318=LINE('',#2095,#515);
#319=LINE('',#2097,#516);
#320=LINE('',#2099,#517);
#321=LINE('',#2100,#518);
#322=LINE('',#2103,#519);
#323=LINE('',#2105,#520);
#324=LINE('',#2107,#521);
#325=LINE('',#2108,#522);
#326=LINE('',#2111,#523);
#327=LINE('',#2113,#524);
#328=LINE('',#2114,#525);
#329=LINE('',#2117,#526);
#330=LINE('',#2119,#527);
#331=LINE('',#2120,#528);
#332=LINE('',#2123,#529);
#333=LINE('',#2125,#530);
#334=LINE('',#2126,#531);
#335=LINE('',#2129,#532);
#336=LINE('',#2131,#533);
#337=LINE('',#2133,#534);
#338=LINE('',#2135,#535);
#339=LINE('',#2136,#536);
#340=LINE('',#2139,#537);
#341=LINE('',#2141,#538);
#342=LINE('',#2143,#539);
#343=LINE('',#2144,#540);
#344=LINE('',#2147,#541);
#345=LINE('',#2149,#542);
#346=LINE('',#2151,#543);
#347=LINE('',#2152,#544);
#348=LINE('',#2155,#545);
#349=LINE('',#2156,#546);
#350=LINE('',#2158,#547);
#351=LINE('',#2160,#548);
#352=LINE('',#2162,#549);
#353=LINE('',#2164,#550);
#354=LINE('',#2165,#551);
#355=LINE('',#2167,#552);
#356=LINE('',#2169,#553);
#357=LINE('',#2171,#554);
#358=LINE('',#2173,#555);
#359=LINE('',#2175,#556);
#360=LINE('',#2177,#557);
#361=LINE('',#2179,#558);
#362=LINE('',#2181,#559);
#363=LINE('',#2182,#560);
#364=LINE('',#2185,#561);
#365=LINE('',#2190,#562);
#366=LINE('',#2192,#563);
#367=LINE('',#2194,#564);
#368=LINE('',#2195,#565);
#369=LINE('',#2197,#566);
#370=LINE('',#2199,#567);
#371=LINE('',#2201,#568);
#372=LINE('',#2202,#569);
#373=LINE('',#2205,#570);
#374=LINE('',#2207,#571);
#375=LINE('',#2208,#572);
#376=LINE('',#2211,#573);
#377=LINE('',#2213,#574);
#378=LINE('',#2215,#575);
#379=LINE('',#2217,#576);
#380=LINE('',#2218,#577);
#381=LINE('',#2221,#578);
#382=LINE('',#2223,#579);
#383=LINE('',#2225,#580);
#384=LINE('',#2226,#581);
#385=LINE('',#2229,#582);
#386=LINE('',#2231,#583);
#387=LINE('',#2233,#584);
#388=LINE('',#2235,#585);
#389=LINE('',#2237,#586);
#390=LINE('',#2239,#587);
#391=LINE('',#2240,#588);
#392=LINE('',#2241,#589);
#393=LINE('',#2244,#590);
#394=LINE('',#2246,#591);
#395=LINE('',#2247,#592);
#396=LINE('',#2248,#593);
#397=LINE('',#2251,#594);
#398=LINE('',#2253,#595);
#399=LINE('',#2255,#596);
#400=LINE('',#2256,#597);
#401=LINE('',#2259,#598);
#402=LINE('',#2261,#599);
#403=LINE('',#2262,#600);
#404=LINE('',#2265,#601);
#405=LINE('',#2266,#602);
#406=LINE('',#2269,#603);
#407=LINE('',#2270,#604);
#408=LINE('',#2272,#605);
#409=LINE('',#2276,#606);
#410=LINE('',#2278,#607);
#411=LINE('',#2279,#608);
#412=LINE('',#2282,#609);
#413=LINE('',#2284,#610);
#414=LINE('',#2285,#611);
#415=LINE('',#2287,#612);
#416=LINE('',#2290,#613);
#417=LINE('',#2291,#614);
#418=LINE('',#2293,#615);
#419=LINE('',#2294,#616);
#420=LINE('',#2296,#617);
#421=LINE('',#2297,#618);
#422=LINE('',#2298,#619);
#423=LINE('',#2300,#620);
#424=LINE('',#2303,#621);
#425=LINE('',#2304,#622);
#426=LINE('',#2306,#623);
#427=LINE('',#2310,#624);
#428=LINE('',#2311,#625);
#429=LINE('',#2313,#626);
#430=LINE('',#2316,#627);
#431=LINE('',#2318,#628);
#432=LINE('',#2319,#629);
#433=LINE('',#2322,#630);
#434=LINE('',#2323,#631);
#435=LINE('',#2326,#632);
#436=LINE('',#2327,#633);
#437=LINE('',#2329,#634);
#438=LINE('',#2332,#635);
#439=LINE('',#2335,#636);
#440=LINE('',#2336,#637);
#441=LINE('',#2337,#638);
#442=LINE('',#2339,#639);
#443=LINE('',#2342,#640);
#444=LINE('',#2345,#641);
#445=LINE('',#2348,#642);
#446=LINE('',#2349,#643);
#447=LINE('',#2351,#644);
#448=LINE('',#2353,#645);
#449=VECTOR('',#1584,1.05);
#450=VECTOR('',#1593,1.05);
#451=VECTOR('',#1600,10.);
#452=VECTOR('',#1601,10.);
#453=VECTOR('',#1602,10.);
#454=VECTOR('',#1603,10.);
#455=VECTOR('',#1606,10.);
#456=VECTOR('',#1607,10.);
#457=VECTOR('',#1608,10.);
#458=VECTOR('',#1611,10.);
#459=VECTOR('',#1612,10.);
#460=VECTOR('',#1613,10.);
#461=VECTOR('',#1616,10.);
#462=VECTOR('',#1617,10.);
#463=VECTOR('',#1624,10.);
#464=VECTOR('',#1627,10.);
#465=VECTOR('',#1628,10.);
#466=VECTOR('',#1629,10.);
#467=VECTOR('',#1630,10.);
#468=VECTOR('',#1633,10.);
#469=VECTOR('',#1634,10.);
#470=VECTOR('',#1635,10.);
#471=VECTOR('',#1636,10.);
#472=VECTOR('',#1639,10.);
#473=VECTOR('',#1640,10.);
#474=VECTOR('',#1641,10.);
#475=VECTOR('',#1644,10.);
#476=VECTOR('',#1645,10.);
#477=VECTOR('',#1650,10.);
#478=VECTOR('',#1651,10.);
#479=VECTOR('',#1652,10.);
#480=VECTOR('',#1653,10.);
#481=VECTOR('',#1654,10.);
#482=VECTOR('',#1655,10.);
#483=VECTOR('',#1656,10.);
#484=VECTOR('',#1657,10.);
#485=VECTOR('',#1658,10.);
#486=VECTOR('',#1659,10.);
#487=VECTOR('',#1660,10.);
#488=VECTOR('',#1661,10.);
#489=VECTOR('',#1662,10.);
#490=VECTOR('',#1663,10.);
#491=VECTOR('',#1664,10.);
#492=VECTOR('',#1665,10.);
#493=VECTOR('',#1672,10.);
#494=VECTOR('',#1673,10.);
#495=VECTOR('',#1674,10.);
#496=VECTOR('',#1677,10.);
#497=VECTOR('',#1678,10.);
#498=VECTOR('',#1679,10.);
#499=VECTOR('',#1682,10.);
#500=VECTOR('',#1685,10.);
#501=VECTOR('',#1686,10.);
#502=VECTOR('',#1687,10.);
#503=VECTOR('',#1688,10.);
#504=VECTOR('',#1691,10.);
#505=VECTOR('',#1692,10.);
#506=VECTOR('',#1693,10.);
#507=VECTOR('',#1694,10.);
#508=VECTOR('',#1697,10.);
#509=VECTOR('',#1698,10.);
#510=VECTOR('',#1699,10.);
#511=VECTOR('',#1700,10.);
#512=VECTOR('',#1701,10.);
#513=VECTOR('',#1704,10.);
#514=VECTOR('',#1705,10.);
#515=VECTOR('',#1708,10.);
#516=VECTOR('',#1709,10.);
#517=VECTOR('',#1710,10.);
#518=VECTOR('',#1711,10.);
#519=VECTOR('',#1714,10.);
#520=VECTOR('',#1715,10.);
#521=VECTOR('',#1716,10.);
#522=VECTOR('',#1717,10.);
#523=VECTOR('',#1720,10.);
#524=VECTOR('',#1721,10.);
#525=VECTOR('',#1722,10.);
#526=VECTOR('',#1725,10.);
#527=VECTOR('',#1726,10.);
#528=VECTOR('',#1727,10.);
#529=VECTOR('',#1730,10.);
#530=VECTOR('',#1731,10.);
#531=VECTOR('',#1732,10.);
#532=VECTOR('',#1735,10.);
#533=VECTOR('',#1736,10.);
#534=VECTOR('',#1737,10.);
#535=VECTOR('',#1738,10.);
#536=VECTOR('',#1739,10.);
#537=VECTOR('',#1742,10.);
#538=VECTOR('',#1743,10.);
#539=VECTOR('',#1744,10.);
#540=VECTOR('',#1745,10.);
#541=VECTOR('',#1748,10.);
#542=VECTOR('',#1749,10.);
#543=VECTOR('',#1750,10.);
#544=VECTOR('',#1751,10.);
#545=VECTOR('',#1754,10.);
#546=VECTOR('',#1755,10.);
#547=VECTOR('',#1758,10.);
#548=VECTOR('',#1761,10.);
#549=VECTOR('',#1762,10.);
#550=VECTOR('',#1763,10.);
#551=VECTOR('',#1764,10.);
#552=VECTOR('',#1765,10.);
#553=VECTOR('',#1766,10.);
#554=VECTOR('',#1767,10.);
#555=VECTOR('',#1768,10.);
#556=VECTOR('',#1769,10.);
#557=VECTOR('',#1770,10.);
#558=VECTOR('',#1771,10.);
#559=VECTOR('',#1772,10.);
#560=VECTOR('',#1773,10.);
#561=VECTOR('',#1776,7.5);
#562=VECTOR('',#1781,10.);
#563=VECTOR('',#1782,10.);
#564=VECTOR('',#1783,10.);
#565=VECTOR('',#1784,10.);
#566=VECTOR('',#1787,10.);
#567=VECTOR('',#1788,10.);
#568=VECTOR('',#1789,10.);
#569=VECTOR('',#1790,10.);
#570=VECTOR('',#1793,10.);
#571=VECTOR('',#1794,10.);
#572=VECTOR('',#1795,10.);
#573=VECTOR('',#1798,10.);
#574=VECTOR('',#1799,10.);
#575=VECTOR('',#1800,10.);
#576=VECTOR('',#1801,10.);
#577=VECTOR('',#1802,10.);
#578=VECTOR('',#1803,10.);
#579=VECTOR('',#1804,10.);
#580=VECTOR('',#1805,10.);
#581=VECTOR('',#1806,10.);
#582=VECTOR('',#1809,10.);
#583=VECTOR('',#1810,10.);
#584=VECTOR('',#1811,10.);
#585=VECTOR('',#1812,10.);
#586=VECTOR('',#1813,10.);
#587=VECTOR('',#1814,10.);
#588=VECTOR('',#1815,10.);
#589=VECTOR('',#1816,10.);
#590=VECTOR('',#1819,10.);
#591=VECTOR('',#1820,10.);
#592=VECTOR('',#1821,10.);
#593=VECTOR('',#1822,10.);
#594=VECTOR('',#1823,10.);
#595=VECTOR('',#1824,10.);
#596=VECTOR('',#1825,10.);
#597=VECTOR('',#1826,10.);
#598=VECTOR('',#1829,10.);
#599=VECTOR('',#1830,10.);
#600=VECTOR('',#1831,10.);
#601=VECTOR('',#1834,10.);
#602=VECTOR('',#1835,10.);
#603=VECTOR('',#1838,10.);
#604=VECTOR('',#1839,10.);
#605=VECTOR('',#1842,10.);
#606=VECTOR('',#1847,10.);
#607=VECTOR('',#1848,10.);
#608=VECTOR('',#1849,10.);
#609=VECTOR('',#1852,10.);
#610=VECTOR('',#1853,10.);
#611=VECTOR('',#1854,10.);
#612=VECTOR('',#1857,10.);
#613=VECTOR('',#1860,10.);
#614=VECTOR('',#1861,10.);
#615=VECTOR('',#1862,10.);
#616=VECTOR('',#1863,10.);
#617=VECTOR('',#1864,10.);
#618=VECTOR('',#1865,10.);
#619=VECTOR('',#1866,10.);
#620=VECTOR('',#1869,10.);
#621=VECTOR('',#1872,10.);
#622=VECTOR('',#1873,10.);
#623=VECTOR('',#1876,10.);
#624=VECTOR('',#1881,10.);
#625=VECTOR('',#1882,10.);
#626=VECTOR('',#1885,10.);
#627=VECTOR('',#1888,10.);
#628=VECTOR('',#1889,10.);
#629=VECTOR('',#1890,10.);
#630=VECTOR('',#1893,10.);
#631=VECTOR('',#1894,10.);
#632=VECTOR('',#1897,10.);
#633=VECTOR('',#1898,10.);
#634=VECTOR('',#1901,10.);
#635=VECTOR('',#1906,10.);
#636=VECTOR('',#1909,10.);
#637=VECTOR('',#1910,10.);
#638=VECTOR('',#1911,10.);
#639=VECTOR('',#1914,10.);
#640=VECTOR('',#1919,10.);
#641=VECTOR('',#1924,10.);
#642=VECTOR('',#1927,10.);
#643=VECTOR('',#1928,10.);
#644=VECTOR('',#1931,10.);
#645=VECTOR('',#1934,10.);
#646=CIRCLE('',#1497,1.05);
#647=CIRCLE('',#1498,1.05);
#648=CIRCLE('',#1501,1.05);
#649=CIRCLE('',#1502,1.05);
#650=CIRCLE('',#1510,7.5);
#651=CIRCLE('',#1517,7.5);
#652=CIRCLE('',#1518,7.5);
#653=CIRCLE('',#1538,7.5);
#654=VERTEX_POINT('',#1943);
#655=VERTEX_POINT('',#1945);
#656=VERTEX_POINT('',#1950);
#657=VERTEX_POINT('',#1952);
#658=VERTEX_POINT('',#1957);
#659=VERTEX_POINT('',#1958);
#660=VERTEX_POINT('',#1960);
#661=VERTEX_POINT('',#1962);
#662=VERTEX_POINT('',#1966);
#663=VERTEX_POINT('',#1968);
#664=VERTEX_POINT('',#1972);
#665=VERTEX_POINT('',#1974);
#666=VERTEX_POINT('',#1982);
#667=VERTEX_POINT('',#1983);
#668=VERTEX_POINT('',#1987);
#669=VERTEX_POINT('',#1988);
#670=VERTEX_POINT('',#1990);
#671=VERTEX_POINT('',#1992);
#672=VERTEX_POINT('',#1996);
#673=VERTEX_POINT('',#1999);
#674=VERTEX_POINT('',#2003);
#675=VERTEX_POINT('',#2005);
#676=VERTEX_POINT('',#2013);
#677=VERTEX_POINT('',#2014);
#678=VERTEX_POINT('',#2016);
#679=VERTEX_POINT('',#2018);
#680=VERTEX_POINT('',#2020);
#681=VERTEX_POINT('',#2022);
#682=VERTEX_POINT('',#2024);
#683=VERTEX_POINT('',#2026);
#684=VERTEX_POINT('',#2028);
#685=VERTEX_POINT('',#2030);
#686=VERTEX_POINT('',#2032);
#687=VERTEX_POINT('',#2034);
#688=VERTEX_POINT('',#2036);
#689=VERTEX_POINT('',#2038);
#690=VERTEX_POINT('',#2040);
#691=VERTEX_POINT('',#2042);
#692=VERTEX_POINT('',#2045);
#693=VERTEX_POINT('',#2049);
#694=VERTEX_POINT('',#2050);
#695=VERTEX_POINT('',#2055);
#696=VERTEX_POINT('',#2056);
#697=VERTEX_POINT('',#2063);
#698=VERTEX_POINT('',#2065);
#699=VERTEX_POINT('',#2067);
#700=VERTEX_POINT('',#2071);
#701=VERTEX_POINT('',#2073);
#702=VERTEX_POINT('',#2075);
#703=VERTEX_POINT('',#2079);
#704=VERTEX_POINT('',#2080);
#705=VERTEX_POINT('',#2082);
#706=VERTEX_POINT('',#2084);
#707=VERTEX_POINT('',#2089);
#708=VERTEX_POINT('',#2093);
#709=VERTEX_POINT('',#2094);
#710=VERTEX_POINT('',#2096);
#711=VERTEX_POINT('',#2098);
#712=VERTEX_POINT('',#2102);
#713=VERTEX_POINT('',#2104);
#714=VERTEX_POINT('',#2106);
#715=VERTEX_POINT('',#2110);
#716=VERTEX_POINT('',#2112);
#717=VERTEX_POINT('',#2116);
#718=VERTEX_POINT('',#2118);
#719=VERTEX_POINT('',#2122);
#720=VERTEX_POINT('',#2124);
#721=VERTEX_POINT('',#2128);
#722=VERTEX_POINT('',#2130);
#723=VERTEX_POINT('',#2132);
#724=VERTEX_POINT('',#2134);
#725=VERTEX_POINT('',#2138);
#726=VERTEX_POINT('',#2140);
#727=VERTEX_POINT('',#2142);
#728=VERTEX_POINT('',#2146);
#729=VERTEX_POINT('',#2148);
#730=VERTEX_POINT('',#2150);
#731=VERTEX_POINT('',#2154);
#732=VERTEX_POINT('',#2161);
#733=VERTEX_POINT('',#2163);
#734=VERTEX_POINT('',#2166);
#735=VERTEX_POINT('',#2168);
#736=VERTEX_POINT('',#2170);
#737=VERTEX_POINT('',#2172);
#738=VERTEX_POINT('',#2174);
#739=VERTEX_POINT('',#2176);
#740=VERTEX_POINT('',#2178);
#741=VERTEX_POINT('',#2180);
#742=VERTEX_POINT('',#2184);
#743=VERTEX_POINT('',#2188);
#744=VERTEX_POINT('',#2189);
#745=VERTEX_POINT('',#2191);
#746=VERTEX_POINT('',#2193);
#747=VERTEX_POINT('',#2198);
#748=VERTEX_POINT('',#2200);
#749=VERTEX_POINT('',#2204);
#750=VERTEX_POINT('',#2206);
#751=VERTEX_POINT('',#2210);
#752=VERTEX_POINT('',#2212);
#753=VERTEX_POINT('',#2214);
#754=VERTEX_POINT('',#2216);
#755=VERTEX_POINT('',#2219);
#756=VERTEX_POINT('',#2220);
#757=VERTEX_POINT('',#2222);
#758=VERTEX_POINT('',#2224);
#759=VERTEX_POINT('',#2228);
#760=VERTEX_POINT('',#2230);
#761=VERTEX_POINT('',#2232);
#762=VERTEX_POINT('',#2234);
#763=VERTEX_POINT('',#2236);
#764=VERTEX_POINT('',#2238);
#765=VERTEX_POINT('',#2243);
#766=VERTEX_POINT('',#2245);
#767=VERTEX_POINT('',#2249);
#768=VERTEX_POINT('',#2250);
#769=VERTEX_POINT('',#2252);
#770=VERTEX_POINT('',#2254);
#771=VERTEX_POINT('',#2258);
#772=VERTEX_POINT('',#2260);
#773=VERTEX_POINT('',#2264);
#774=VERTEX_POINT('',#2268);
#775=VERTEX_POINT('',#2275);
#776=VERTEX_POINT('',#2277);
#777=VERTEX_POINT('',#2281);
#778=VERTEX_POINT('',#2283);
#779=VERTEX_POINT('',#2289);
#780=VERTEX_POINT('',#2292);
#781=VERTEX_POINT('',#2295);
#782=VERTEX_POINT('',#2302);
#783=VERTEX_POINT('',#2309);
#784=VERTEX_POINT('',#2315);
#785=VERTEX_POINT('',#2317);
#786=VERTEX_POINT('',#2321);
#787=VERTEX_POINT('',#2325);
#788=VERTEX_POINT('',#2334);
#789=VERTEX_POINT('',#2347);
#790=EDGE_CURVE('',#654,#654,#646,.T.);
#791=EDGE_CURVE('',#654,#655,#252,.T.);
#792=EDGE_CURVE('',#655,#655,#647,.T.);
#793=EDGE_CURVE('',#656,#656,#648,.T.);
#794=EDGE_CURVE('',#656,#657,#253,.T.);
#795=EDGE_CURVE('',#657,#657,#649,.T.);
#796=EDGE_CURVE('',#658,#659,#254,.T.);
#797=EDGE_CURVE('',#659,#660,#255,.T.);
#798=EDGE_CURVE('',#661,#660,#256,.T.);
#799=EDGE_CURVE('',#658,#661,#257,.T.);
#800=EDGE_CURVE('',#662,#658,#258,.T.);
#801=EDGE_CURVE('',#663,#661,#259,.T.);
#802=EDGE_CURVE('',#662,#663,#260,.T.);
#803=EDGE_CURVE('',#664,#662,#261,.T.);
#804=EDGE_CURVE('',#665,#663,#262,.T.);
#805=EDGE_CURVE('',#664,#665,#263,.T.);
#806=EDGE_CURVE('',#659,#664,#264,.T.);
#807=EDGE_CURVE('',#660,#665,#265,.T.);
#808=EDGE_CURVE('',#666,#667,#650,.T.);
#809=EDGE_CURVE('',#667,#666,#266,.T.);
#810=EDGE_CURVE('',#668,#669,#267,.T.);
#811=EDGE_CURVE('',#669,#670,#268,.T.);
#812=EDGE_CURVE('',#671,#670,#269,.T.);
#813=EDGE_CURVE('',#668,#671,#270,.T.);
#814=EDGE_CURVE('',#672,#668,#271,.T.);
#815=EDGE_CURVE('',#666,#671,#272,.T.);
#816=EDGE_CURVE('',#673,#667,#273,.T.);
#817=EDGE_CURVE('',#672,#673,#274,.T.);
#818=EDGE_CURVE('',#674,#672,#275,.T.);
#819=EDGE_CURVE('',#675,#673,#276,.T.);
#820=EDGE_CURVE('',#674,#675,#277,.T.);
#821=EDGE_CURVE('',#669,#674,#278,.T.);
#822=EDGE_CURVE('',#670,#675,#279,.T.);
#823=EDGE_CURVE('',#676,#677,#280,.T.);
#824=EDGE_CURVE('',#677,#678,#281,.T.);
#825=EDGE_CURVE('',#678,#679,#282,.T.);
#826=EDGE_CURVE('',#680,#679,#283,.T.);
#827=EDGE_CURVE('',#681,#680,#284,.T.);
#828=EDGE_CURVE('',#682,#681,#285,.T.);
#829=EDGE_CURVE('',#683,#682,#286,.T.);
#830=EDGE_CURVE('',#684,#683,#287,.T.);
#831=EDGE_CURVE('',#684,#685,#288,.T.);
#832=EDGE_CURVE('',#685,#686,#289,.T.);
#833=EDGE_CURVE('',#686,#687,#290,.T.);
#834=EDGE_CURVE('',#688,#687,#291,.T.);
#835=EDGE_CURVE('',#689,#688,#292,.T.);
#836=EDGE_CURVE('',#690,#689,#293,.T.);
#837=EDGE_CURVE('',#691,#690,#294,.T.);
#838=EDGE_CURVE('',#676,#691,#295,.T.);
#839=EDGE_CURVE('',#667,#692,#651,.T.);
#840=EDGE_CURVE('',#692,#666,#652,.T.);
#841=EDGE_CURVE('',#693,#694,#296,.T.);
#842=EDGE_CURVE('',#677,#693,#297,.T.);
#843=EDGE_CURVE('',#694,#676,#298,.T.);
#844=EDGE_CURVE('',#695,#696,#299,.T.);
#845=EDGE_CURVE('',#679,#695,#300,.T.);
#846=EDGE_CURVE('',#678,#696,#301,.T.);
#847=EDGE_CURVE('',#696,#693,#302,.T.);
#848=EDGE_CURVE('',#697,#695,#303,.T.);
#849=EDGE_CURVE('',#698,#697,#304,.T.);
#850=EDGE_CURVE('',#698,#699,#305,.T.);
#851=EDGE_CURVE('',#680,#699,#306,.T.);
#852=EDGE_CURVE('',#691,#700,#307,.T.);
#853=EDGE_CURVE('',#700,#701,#308,.T.);
#854=EDGE_CURVE('',#701,#702,#309,.T.);
#855=EDGE_CURVE('',#694,#702,#310,.T.);
#856=EDGE_CURVE('',#703,#704,#311,.T.);
#857=EDGE_CURVE('',#705,#703,#312,.T.);
#858=EDGE_CURVE('',#706,#705,#313,.T.);
#859=EDGE_CURVE('',#687,#706,#314,.T.);
#860=EDGE_CURVE('',#686,#704,#315,.T.);
#861=EDGE_CURVE('',#704,#707,#316,.T.);
#862=EDGE_CURVE('',#685,#707,#317,.T.);
#863=EDGE_CURVE('',#708,#709,#318,.T.);
#864=EDGE_CURVE('',#710,#708,#319,.T.);
#865=EDGE_CURVE('',#711,#710,#320,.T.);
#866=EDGE_CURVE('',#711,#709,#321,.T.);
#867=EDGE_CURVE('',#707,#712,#322,.T.);
#868=EDGE_CURVE('',#713,#684,#323,.T.);
#869=EDGE_CURVE('',#714,#713,#324,.T.);
#870=EDGE_CURVE('',#712,#714,#325,.T.);
#871=EDGE_CURVE('',#709,#715,#326,.T.);
#872=EDGE_CURVE('',#716,#711,#327,.T.);
#873=EDGE_CURVE('',#715,#716,#328,.T.);
#874=EDGE_CURVE('',#717,#708,#329,.T.);
#875=EDGE_CURVE('',#718,#717,#330,.T.);
#876=EDGE_CURVE('',#710,#718,#331,.T.);
#877=EDGE_CURVE('',#716,#719,#332,.T.);
#878=EDGE_CURVE('',#720,#719,#333,.T.);
#879=EDGE_CURVE('',#715,#720,#334,.T.);
#880=EDGE_CURVE('',#712,#721,#335,.T.);
#881=EDGE_CURVE('',#722,#721,#336,.T.);
#882=EDGE_CURVE('',#722,#723,#337,.T.);
#883=EDGE_CURVE('',#723,#724,#338,.T.);
#884=EDGE_CURVE('',#724,#703,#339,.T.);
#885=EDGE_CURVE('',#683,#725,#340,.T.);
#886=EDGE_CURVE('',#725,#726,#341,.T.);
#887=EDGE_CURVE('',#726,#727,#342,.T.);
#888=EDGE_CURVE('',#713,#727,#343,.T.);
#889=EDGE_CURVE('',#728,#706,#344,.T.);
#890=EDGE_CURVE('',#729,#728,#345,.T.);
#891=EDGE_CURVE('',#729,#730,#346,.T.);
#892=EDGE_CURVE('',#688,#730,#347,.T.);
#893=EDGE_CURVE('',#731,#714,#348,.T.);
#894=EDGE_CURVE('',#721,#731,#349,.T.);
#895=EDGE_CURVE('',#727,#731,#350,.T.);
#896=EDGE_CURVE('',#702,#728,#351,.T.);
#897=EDGE_CURVE('',#705,#732,#352,.T.);
#898=EDGE_CURVE('',#732,#733,#353,.T.);
#899=EDGE_CURVE('',#733,#717,#354,.T.);
#900=EDGE_CURVE('',#720,#734,#355,.T.);
#901=EDGE_CURVE('',#734,#735,#356,.T.);
#902=EDGE_CURVE('',#735,#736,#357,.T.);
#903=EDGE_CURVE('',#736,#737,#358,.T.);
#904=EDGE_CURVE('',#737,#738,#359,.T.);
#905=EDGE_CURVE('',#738,#739,#360,.T.);
#906=EDGE_CURVE('',#739,#740,#361,.T.);
#907=EDGE_CURVE('',#740,#741,#362,.T.);
#908=EDGE_CURVE('',#741,#697,#363,.T.);
#909=EDGE_CURVE('',#692,#742,#364,.T.);
#910=EDGE_CURVE('',#742,#742,#653,.T.);
#911=EDGE_CURVE('',#743,#744,#365,.T.);
#912=EDGE_CURVE('',#745,#743,#366,.T.);
#913=EDGE_CURVE('',#746,#745,#367,.T.);
#914=EDGE_CURVE('',#746,#744,#368,.T.);
#915=EDGE_CURVE('',#736,#743,#369,.T.);
#916=EDGE_CURVE('',#747,#735,#370,.T.);
#917=EDGE_CURVE('',#748,#747,#371,.T.);
#918=EDGE_CURVE('',#745,#748,#372,.T.);
#919=EDGE_CURVE('',#749,#747,#373,.T.);
#920=EDGE_CURVE('',#750,#749,#374,.T.);
#921=EDGE_CURVE('',#748,#750,#375,.T.);
#922=EDGE_CURVE('',#751,#744,#376,.T.);
#923=EDGE_CURVE('',#752,#751,#377,.T.);
#924=EDGE_CURVE('',#752,#753,#378,.T.);
#925=EDGE_CURVE('',#753,#754,#379,.T.);
#926=EDGE_CURVE('',#754,#737,#380,.T.);
#927=EDGE_CURVE('',#755,#756,#381,.T.);
#928=EDGE_CURVE('',#756,#757,#382,.T.);
#929=EDGE_CURVE('',#757,#758,#383,.T.);
#930=EDGE_CURVE('',#758,#755,#384,.T.);
#931=EDGE_CURVE('',#750,#759,#385,.T.);
#932=EDGE_CURVE('',#759,#760,#386,.T.);
#933=EDGE_CURVE('',#760,#761,#387,.T.);
#934=EDGE_CURVE('',#761,#762,#388,.T.);
#935=EDGE_CURVE('',#762,#763,#389,.T.);
#936=EDGE_CURVE('',#763,#764,#390,.T.);
#937=EDGE_CURVE('',#764,#752,#391,.T.);
#938=EDGE_CURVE('',#751,#746,#392,.T.);
#939=EDGE_CURVE('',#765,#734,#393,.T.);
#940=EDGE_CURVE('',#765,#766,#394,.T.);
#941=EDGE_CURVE('',#766,#760,#395,.T.);
#942=EDGE_CURVE('',#759,#749,#396,.T.);
#943=EDGE_CURVE('',#767,#768,#397,.T.);
#944=EDGE_CURVE('',#768,#769,#398,.T.);
#945=EDGE_CURVE('',#769,#770,#399,.T.);
#946=EDGE_CURVE('',#770,#767,#400,.T.);
#947=EDGE_CURVE('',#756,#771,#401,.T.);
#948=EDGE_CURVE('',#771,#772,#402,.T.);
#949=EDGE_CURVE('',#757,#772,#403,.T.);
#950=EDGE_CURVE('',#773,#755,#404,.T.);
#951=EDGE_CURVE('',#771,#773,#405,.T.);
#952=EDGE_CURVE('',#772,#774,#406,.T.);
#953=EDGE_CURVE('',#774,#758,#407,.T.);
#954=EDGE_CURVE('',#773,#774,#408,.T.);
#955=EDGE_CURVE('',#775,#753,#409,.T.);
#956=EDGE_CURVE('',#776,#775,#410,.T.);
#957=EDGE_CURVE('',#754,#776,#411,.T.);
#958=EDGE_CURVE('',#777,#763,#412,.T.);
#959=EDGE_CURVE('',#778,#777,#413,.T.);
#960=EDGE_CURVE('',#778,#764,#414,.T.);
#961=EDGE_CURVE('',#776,#738,#415,.T.);
#962=EDGE_CURVE('',#779,#777,#416,.T.);
#963=EDGE_CURVE('',#762,#722,#417,.T.);
#964=EDGE_CURVE('',#726,#780,#418,.T.);
#965=EDGE_CURVE('',#682,#780,#419,.T.);
#966=EDGE_CURVE('',#681,#781,#420,.T.);
#967=EDGE_CURVE('',#781,#698,#421,.T.);
#968=EDGE_CURVE('',#741,#779,#422,.T.);
#969=EDGE_CURVE('',#775,#739,#423,.T.);
#970=EDGE_CURVE('',#782,#778,#424,.T.);
#971=EDGE_CURVE('',#782,#740,#425,.T.);
#972=EDGE_CURVE('',#779,#782,#426,.T.);
#973=EDGE_CURVE('',#700,#783,#427,.T.);
#974=EDGE_CURVE('',#701,#783,#428,.T.);
#975=EDGE_CURVE('',#781,#699,#429,.T.);
#976=EDGE_CURVE('',#784,#768,#430,.T.);
#977=EDGE_CURVE('',#784,#785,#431,.T.);
#978=EDGE_CURVE('',#785,#769,#432,.T.);
#979=EDGE_CURVE('',#767,#786,#433,.T.);
#980=EDGE_CURVE('',#786,#784,#434,.T.);
#981=EDGE_CURVE('',#787,#785,#435,.T.);
#982=EDGE_CURVE('',#770,#787,#436,.T.);
#983=EDGE_CURVE('',#786,#787,#437,.T.);
#984=EDGE_CURVE('',#723,#761,#438,.T.);
#985=EDGE_CURVE('',#788,#718,#439,.T.);
#986=EDGE_CURVE('',#766,#788,#440,.T.);
#987=EDGE_CURVE('',#719,#765,#441,.T.);
#988=EDGE_CURVE('',#788,#733,#442,.T.);
#989=EDGE_CURVE('',#724,#732,#443,.T.);
#990=EDGE_CURVE('',#725,#780,#444,.T.);
#991=EDGE_CURVE('',#789,#730,#445,.T.);
#992=EDGE_CURVE('',#789,#729,#446,.T.);
#993=EDGE_CURVE('',#689,#789,#447,.T.);
#994=EDGE_CURVE('',#690,#783,#448,.T.);
#995=ORIENTED_EDGE('',*,*,#790,.F.);
#996=ORIENTED_EDGE('',*,*,#791,.T.);
#997=ORIENTED_EDGE('',*,*,#792,.T.);
#998=ORIENTED_EDGE('',*,*,#791,.F.);
#999=ORIENTED_EDGE('',*,*,#792,.F.);
#1000=ORIENTED_EDGE('',*,*,#793,.F.);
#1001=ORIENTED_EDGE('',*,*,#794,.T.);
#1002=ORIENTED_EDGE('',*,*,#795,.T.);
#1003=ORIENTED_EDGE('',*,*,#794,.F.);
#1004=ORIENTED_EDGE('',*,*,#795,.F.);
#1005=ORIENTED_EDGE('',*,*,#796,.T.);
#1006=ORIENTED_EDGE('',*,*,#797,.T.);
#1007=ORIENTED_EDGE('',*,*,#798,.F.);
#1008=ORIENTED_EDGE('',*,*,#799,.F.);
#1009=ORIENTED_EDGE('',*,*,#800,.T.);
#1010=ORIENTED_EDGE('',*,*,#799,.T.);
#1011=ORIENTED_EDGE('',*,*,#801,.F.);
#1012=ORIENTED_EDGE('',*,*,#802,.F.);
#1013=ORIENTED_EDGE('',*,*,#803,.T.);
#1014=ORIENTED_EDGE('',*,*,#802,.T.);
#1015=ORIENTED_EDGE('',*,*,#804,.F.);
#1016=ORIENTED_EDGE('',*,*,#805,.F.);
#1017=ORIENTED_EDGE('',*,*,#806,.T.);
#1018=ORIENTED_EDGE('',*,*,#805,.T.);
#1019=ORIENTED_EDGE('',*,*,#807,.F.);
#1020=ORIENTED_EDGE('',*,*,#797,.F.);
#1021=ORIENTED_EDGE('',*,*,#806,.F.);
#1022=ORIENTED_EDGE('',*,*,#796,.F.);
#1023=ORIENTED_EDGE('',*,*,#800,.F.);
#1024=ORIENTED_EDGE('',*,*,#803,.F.);
#1025=ORIENTED_EDGE('',*,*,#808,.T.);
#1026=ORIENTED_EDGE('',*,*,#809,.T.);
#1027=ORIENTED_EDGE('',*,*,#810,.T.);
#1028=ORIENTED_EDGE('',*,*,#811,.T.);
#1029=ORIENTED_EDGE('',*,*,#812,.F.);
#1030=ORIENTED_EDGE('',*,*,#813,.F.);
#1031=ORIENTED_EDGE('',*,*,#814,.T.);
#1032=ORIENTED_EDGE('',*,*,#813,.T.);
#1033=ORIENTED_EDGE('',*,*,#815,.F.);
#1034=ORIENTED_EDGE('',*,*,#809,.F.);
#1035=ORIENTED_EDGE('',*,*,#816,.F.);
#1036=ORIENTED_EDGE('',*,*,#817,.F.);
#1037=ORIENTED_EDGE('',*,*,#818,.T.);
#1038=ORIENTED_EDGE('',*,*,#817,.T.);
#1039=ORIENTED_EDGE('',*,*,#819,.F.);
#1040=ORIENTED_EDGE('',*,*,#820,.F.);
#1041=ORIENTED_EDGE('',*,*,#821,.T.);
#1042=ORIENTED_EDGE('',*,*,#820,.T.);
#1043=ORIENTED_EDGE('',*,*,#822,.F.);
#1044=ORIENTED_EDGE('',*,*,#811,.F.);
#1045=ORIENTED_EDGE('',*,*,#821,.F.);
#1046=ORIENTED_EDGE('',*,*,#810,.F.);
#1047=ORIENTED_EDGE('',*,*,#814,.F.);
#1048=ORIENTED_EDGE('',*,*,#818,.F.);
#1049=ORIENTED_EDGE('',*,*,#823,.T.);
#1050=ORIENTED_EDGE('',*,*,#824,.T.);
#1051=ORIENTED_EDGE('',*,*,#825,.T.);
#1052=ORIENTED_EDGE('',*,*,#826,.F.);
#1053=ORIENTED_EDGE('',*,*,#827,.F.);
#1054=ORIENTED_EDGE('',*,*,#828,.F.);
#1055=ORIENTED_EDGE('',*,*,#829,.F.);
#1056=ORIENTED_EDGE('',*,*,#830,.F.);
#1057=ORIENTED_EDGE('',*,*,#831,.T.);
#1058=ORIENTED_EDGE('',*,*,#832,.T.);
#1059=ORIENTED_EDGE('',*,*,#833,.T.);
#1060=ORIENTED_EDGE('',*,*,#834,.F.);
#1061=ORIENTED_EDGE('',*,*,#835,.F.);
#1062=ORIENTED_EDGE('',*,*,#836,.F.);
#1063=ORIENTED_EDGE('',*,*,#837,.F.);
#1064=ORIENTED_EDGE('',*,*,#838,.F.);
#1065=ORIENTED_EDGE('',*,*,#790,.T.);
#1066=ORIENTED_EDGE('',*,*,#793,.T.);
#1067=ORIENTED_EDGE('',*,*,#798,.T.);
#1068=ORIENTED_EDGE('',*,*,#807,.T.);
#1069=ORIENTED_EDGE('',*,*,#804,.T.);
#1070=ORIENTED_EDGE('',*,*,#801,.T.);
#1071=ORIENTED_EDGE('',*,*,#815,.T.);
#1072=ORIENTED_EDGE('',*,*,#812,.T.);
#1073=ORIENTED_EDGE('',*,*,#822,.T.);
#1074=ORIENTED_EDGE('',*,*,#819,.T.);
#1075=ORIENTED_EDGE('',*,*,#816,.T.);
#1076=ORIENTED_EDGE('',*,*,#839,.T.);
#1077=ORIENTED_EDGE('',*,*,#840,.T.);
#1078=ORIENTED_EDGE('',*,*,#841,.F.);
#1079=ORIENTED_EDGE('',*,*,#842,.F.);
#1080=ORIENTED_EDGE('',*,*,#823,.F.);
#1081=ORIENTED_EDGE('',*,*,#843,.F.);
#1082=ORIENTED_EDGE('',*,*,#844,.F.);
#1083=ORIENTED_EDGE('',*,*,#845,.F.);
#1084=ORIENTED_EDGE('',*,*,#825,.F.);
#1085=ORIENTED_EDGE('',*,*,#846,.T.);
#1086=ORIENTED_EDGE('',*,*,#847,.F.);
#1087=ORIENTED_EDGE('',*,*,#846,.F.);
#1088=ORIENTED_EDGE('',*,*,#824,.F.);
#1089=ORIENTED_EDGE('',*,*,#842,.T.);
#1090=ORIENTED_EDGE('',*,*,#845,.T.);
#1091=ORIENTED_EDGE('',*,*,#848,.F.);
#1092=ORIENTED_EDGE('',*,*,#849,.F.);
#1093=ORIENTED_EDGE('',*,*,#850,.T.);
#1094=ORIENTED_EDGE('',*,*,#851,.F.);
#1095=ORIENTED_EDGE('',*,*,#826,.T.);
#1096=ORIENTED_EDGE('',*,*,#843,.T.);
#1097=ORIENTED_EDGE('',*,*,#838,.T.);
#1098=ORIENTED_EDGE('',*,*,#852,.T.);
#1099=ORIENTED_EDGE('',*,*,#853,.T.);
#1100=ORIENTED_EDGE('',*,*,#854,.T.);
#1101=ORIENTED_EDGE('',*,*,#855,.F.);
#1102=ORIENTED_EDGE('',*,*,#856,.F.);
#1103=ORIENTED_EDGE('',*,*,#857,.F.);
#1104=ORIENTED_EDGE('',*,*,#858,.F.);
#1105=ORIENTED_EDGE('',*,*,#859,.F.);
#1106=ORIENTED_EDGE('',*,*,#833,.F.);
#1107=ORIENTED_EDGE('',*,*,#860,.T.);
#1108=ORIENTED_EDGE('',*,*,#861,.F.);
#1109=ORIENTED_EDGE('',*,*,#860,.F.);
#1110=ORIENTED_EDGE('',*,*,#832,.F.);
#1111=ORIENTED_EDGE('',*,*,#862,.T.);
#1112=ORIENTED_EDGE('',*,*,#863,.F.);
#1113=ORIENTED_EDGE('',*,*,#864,.F.);
#1114=ORIENTED_EDGE('',*,*,#865,.F.);
#1115=ORIENTED_EDGE('',*,*,#866,.T.);
#1116=ORIENTED_EDGE('',*,*,#867,.F.);
#1117=ORIENTED_EDGE('',*,*,#862,.F.);
#1118=ORIENTED_EDGE('',*,*,#831,.F.);
#1119=ORIENTED_EDGE('',*,*,#868,.F.);
#1120=ORIENTED_EDGE('',*,*,#869,.F.);
#1121=ORIENTED_EDGE('',*,*,#870,.F.);
#1122=ORIENTED_EDGE('',*,*,#871,.F.);
#1123=ORIENTED_EDGE('',*,*,#866,.F.);
#1124=ORIENTED_EDGE('',*,*,#872,.F.);
#1125=ORIENTED_EDGE('',*,*,#873,.F.);
#1126=ORIENTED_EDGE('',*,*,#874,.F.);
#1127=ORIENTED_EDGE('',*,*,#875,.F.);
#1128=ORIENTED_EDGE('',*,*,#876,.F.);
#1129=ORIENTED_EDGE('',*,*,#864,.T.);
#1130=ORIENTED_EDGE('',*,*,#873,.T.);
#1131=ORIENTED_EDGE('',*,*,#877,.T.);
#1132=ORIENTED_EDGE('',*,*,#878,.F.);
#1133=ORIENTED_EDGE('',*,*,#879,.F.);
#1134=ORIENTED_EDGE('',*,*,#856,.T.);
#1135=ORIENTED_EDGE('',*,*,#861,.T.);
#1136=ORIENTED_EDGE('',*,*,#867,.T.);
#1137=ORIENTED_EDGE('',*,*,#880,.T.);
#1138=ORIENTED_EDGE('',*,*,#881,.F.);
#1139=ORIENTED_EDGE('',*,*,#882,.T.);
#1140=ORIENTED_EDGE('',*,*,#883,.T.);
#1141=ORIENTED_EDGE('',*,*,#884,.T.);
#1142=ORIENTED_EDGE('',*,*,#868,.T.);
#1143=ORIENTED_EDGE('',*,*,#830,.T.);
#1144=ORIENTED_EDGE('',*,*,#885,.T.);
#1145=ORIENTED_EDGE('',*,*,#886,.T.);
#1146=ORIENTED_EDGE('',*,*,#887,.T.);
#1147=ORIENTED_EDGE('',*,*,#888,.F.);
#1148=ORIENTED_EDGE('',*,*,#859,.T.);
#1149=ORIENTED_EDGE('',*,*,#889,.F.);
#1150=ORIENTED_EDGE('',*,*,#890,.F.);
#1151=ORIENTED_EDGE('',*,*,#891,.T.);
#1152=ORIENTED_EDGE('',*,*,#892,.F.);
#1153=ORIENTED_EDGE('',*,*,#834,.T.);
#1154=ORIENTED_EDGE('',*,*,#870,.T.);
#1155=ORIENTED_EDGE('',*,*,#893,.F.);
#1156=ORIENTED_EDGE('',*,*,#894,.F.);
#1157=ORIENTED_EDGE('',*,*,#880,.F.);
#1158=ORIENTED_EDGE('',*,*,#869,.T.);
#1159=ORIENTED_EDGE('',*,*,#888,.T.);
#1160=ORIENTED_EDGE('',*,*,#895,.T.);
#1161=ORIENTED_EDGE('',*,*,#893,.T.);
#1162=ORIENTED_EDGE('',*,*,#841,.T.);
#1163=ORIENTED_EDGE('',*,*,#855,.T.);
#1164=ORIENTED_EDGE('',*,*,#896,.T.);
#1165=ORIENTED_EDGE('',*,*,#889,.T.);
#1166=ORIENTED_EDGE('',*,*,#858,.T.);
#1167=ORIENTED_EDGE('',*,*,#897,.T.);
#1168=ORIENTED_EDGE('',*,*,#898,.T.);
#1169=ORIENTED_EDGE('',*,*,#899,.T.);
#1170=ORIENTED_EDGE('',*,*,#874,.T.);
#1171=ORIENTED_EDGE('',*,*,#863,.T.);
#1172=ORIENTED_EDGE('',*,*,#871,.T.);
#1173=ORIENTED_EDGE('',*,*,#879,.T.);
#1174=ORIENTED_EDGE('',*,*,#900,.T.);
#1175=ORIENTED_EDGE('',*,*,#901,.T.);
#1176=ORIENTED_EDGE('',*,*,#902,.T.);
#1177=ORIENTED_EDGE('',*,*,#903,.T.);
#1178=ORIENTED_EDGE('',*,*,#904,.T.);
#1179=ORIENTED_EDGE('',*,*,#905,.T.);
#1180=ORIENTED_EDGE('',*,*,#906,.T.);
#1181=ORIENTED_EDGE('',*,*,#907,.T.);
#1182=ORIENTED_EDGE('',*,*,#908,.T.);
#1183=ORIENTED_EDGE('',*,*,#848,.T.);
#1184=ORIENTED_EDGE('',*,*,#844,.T.);
#1185=ORIENTED_EDGE('',*,*,#847,.T.);
#1186=ORIENTED_EDGE('',*,*,#839,.F.);
#1187=ORIENTED_EDGE('',*,*,#808,.F.);
#1188=ORIENTED_EDGE('',*,*,#840,.F.);
#1189=ORIENTED_EDGE('',*,*,#909,.T.);
#1190=ORIENTED_EDGE('',*,*,#910,.F.);
#1191=ORIENTED_EDGE('',*,*,#909,.F.);
#1192=ORIENTED_EDGE('',*,*,#911,.F.);
#1193=ORIENTED_EDGE('',*,*,#912,.F.);
#1194=ORIENTED_EDGE('',*,*,#913,.F.);
#1195=ORIENTED_EDGE('',*,*,#914,.T.);
#1196=ORIENTED_EDGE('',*,*,#915,.F.);
#1197=ORIENTED_EDGE('',*,*,#902,.F.);
#1198=ORIENTED_EDGE('',*,*,#916,.F.);
#1199=ORIENTED_EDGE('',*,*,#917,.F.);
#1200=ORIENTED_EDGE('',*,*,#918,.F.);
#1201=ORIENTED_EDGE('',*,*,#912,.T.);
#1202=ORIENTED_EDGE('',*,*,#919,.F.);
#1203=ORIENTED_EDGE('',*,*,#920,.F.);
#1204=ORIENTED_EDGE('',*,*,#921,.F.);
#1205=ORIENTED_EDGE('',*,*,#917,.T.);
#1206=ORIENTED_EDGE('',*,*,#915,.T.);
#1207=ORIENTED_EDGE('',*,*,#911,.T.);
#1208=ORIENTED_EDGE('',*,*,#922,.F.);
#1209=ORIENTED_EDGE('',*,*,#923,.F.);
#1210=ORIENTED_EDGE('',*,*,#924,.T.);
#1211=ORIENTED_EDGE('',*,*,#925,.T.);
#1212=ORIENTED_EDGE('',*,*,#926,.T.);
#1213=ORIENTED_EDGE('',*,*,#903,.F.);
#1214=ORIENTED_EDGE('',*,*,#927,.T.);
#1215=ORIENTED_EDGE('',*,*,#928,.T.);
#1216=ORIENTED_EDGE('',*,*,#929,.T.);
#1217=ORIENTED_EDGE('',*,*,#930,.T.);
#1218=ORIENTED_EDGE('',*,*,#913,.T.);
#1219=ORIENTED_EDGE('',*,*,#918,.T.);
#1220=ORIENTED_EDGE('',*,*,#921,.T.);
#1221=ORIENTED_EDGE('',*,*,#931,.T.);
#1222=ORIENTED_EDGE('',*,*,#932,.T.);
#1223=ORIENTED_EDGE('',*,*,#933,.T.);
#1224=ORIENTED_EDGE('',*,*,#934,.T.);
#1225=ORIENTED_EDGE('',*,*,#935,.T.);
#1226=ORIENTED_EDGE('',*,*,#936,.T.);
#1227=ORIENTED_EDGE('',*,*,#937,.T.);
#1228=ORIENTED_EDGE('',*,*,#923,.T.);
#1229=ORIENTED_EDGE('',*,*,#938,.T.);
#1230=ORIENTED_EDGE('',*,*,#910,.T.);
#1231=ORIENTED_EDGE('',*,*,#919,.T.);
#1232=ORIENTED_EDGE('',*,*,#916,.T.);
#1233=ORIENTED_EDGE('',*,*,#901,.F.);
#1234=ORIENTED_EDGE('',*,*,#939,.F.);
#1235=ORIENTED_EDGE('',*,*,#940,.T.);
#1236=ORIENTED_EDGE('',*,*,#941,.T.);
#1237=ORIENTED_EDGE('',*,*,#932,.F.);
#1238=ORIENTED_EDGE('',*,*,#942,.T.);
#1239=ORIENTED_EDGE('',*,*,#943,.T.);
#1240=ORIENTED_EDGE('',*,*,#944,.T.);
#1241=ORIENTED_EDGE('',*,*,#945,.T.);
#1242=ORIENTED_EDGE('',*,*,#946,.T.);
#1243=ORIENTED_EDGE('',*,*,#928,.F.);
#1244=ORIENTED_EDGE('',*,*,#947,.T.);
#1245=ORIENTED_EDGE('',*,*,#948,.T.);
#1246=ORIENTED_EDGE('',*,*,#949,.F.);
#1247=ORIENTED_EDGE('',*,*,#927,.F.);
#1248=ORIENTED_EDGE('',*,*,#950,.F.);
#1249=ORIENTED_EDGE('',*,*,#951,.F.);
#1250=ORIENTED_EDGE('',*,*,#947,.F.);
#1251=ORIENTED_EDGE('',*,*,#929,.F.);
#1252=ORIENTED_EDGE('',*,*,#949,.T.);
#1253=ORIENTED_EDGE('',*,*,#952,.T.);
#1254=ORIENTED_EDGE('',*,*,#953,.T.);
#1255=ORIENTED_EDGE('',*,*,#951,.T.);
#1256=ORIENTED_EDGE('',*,*,#954,.T.);
#1257=ORIENTED_EDGE('',*,*,#952,.F.);
#1258=ORIENTED_EDGE('',*,*,#948,.F.);
#1259=ORIENTED_EDGE('',*,*,#930,.F.);
#1260=ORIENTED_EDGE('',*,*,#953,.F.);
#1261=ORIENTED_EDGE('',*,*,#954,.F.);
#1262=ORIENTED_EDGE('',*,*,#950,.T.);
#1263=ORIENTED_EDGE('',*,*,#925,.F.);
#1264=ORIENTED_EDGE('',*,*,#955,.F.);
#1265=ORIENTED_EDGE('',*,*,#956,.F.);
#1266=ORIENTED_EDGE('',*,*,#957,.F.);
#1267=ORIENTED_EDGE('',*,*,#936,.F.);
#1268=ORIENTED_EDGE('',*,*,#958,.F.);
#1269=ORIENTED_EDGE('',*,*,#959,.F.);
#1270=ORIENTED_EDGE('',*,*,#960,.T.);
#1271=ORIENTED_EDGE('',*,*,#957,.T.);
#1272=ORIENTED_EDGE('',*,*,#961,.T.);
#1273=ORIENTED_EDGE('',*,*,#904,.F.);
#1274=ORIENTED_EDGE('',*,*,#926,.F.);
#1275=ORIENTED_EDGE('',*,*,#962,.T.);
#1276=ORIENTED_EDGE('',*,*,#958,.T.);
#1277=ORIENTED_EDGE('',*,*,#935,.F.);
#1278=ORIENTED_EDGE('',*,*,#963,.T.);
#1279=ORIENTED_EDGE('',*,*,#881,.T.);
#1280=ORIENTED_EDGE('',*,*,#894,.T.);
#1281=ORIENTED_EDGE('',*,*,#895,.F.);
#1282=ORIENTED_EDGE('',*,*,#887,.F.);
#1283=ORIENTED_EDGE('',*,*,#964,.T.);
#1284=ORIENTED_EDGE('',*,*,#965,.F.);
#1285=ORIENTED_EDGE('',*,*,#828,.T.);
#1286=ORIENTED_EDGE('',*,*,#966,.T.);
#1287=ORIENTED_EDGE('',*,*,#967,.T.);
#1288=ORIENTED_EDGE('',*,*,#849,.T.);
#1289=ORIENTED_EDGE('',*,*,#908,.F.);
#1290=ORIENTED_EDGE('',*,*,#968,.T.);
#1291=ORIENTED_EDGE('',*,*,#956,.T.);
#1292=ORIENTED_EDGE('',*,*,#969,.T.);
#1293=ORIENTED_EDGE('',*,*,#905,.F.);
#1294=ORIENTED_EDGE('',*,*,#961,.F.);
#1295=ORIENTED_EDGE('',*,*,#906,.F.);
#1296=ORIENTED_EDGE('',*,*,#969,.F.);
#1297=ORIENTED_EDGE('',*,*,#955,.T.);
#1298=ORIENTED_EDGE('',*,*,#924,.F.);
#1299=ORIENTED_EDGE('',*,*,#937,.F.);
#1300=ORIENTED_EDGE('',*,*,#960,.F.);
#1301=ORIENTED_EDGE('',*,*,#970,.F.);
#1302=ORIENTED_EDGE('',*,*,#971,.T.);
#1303=ORIENTED_EDGE('',*,*,#907,.F.);
#1304=ORIENTED_EDGE('',*,*,#971,.F.);
#1305=ORIENTED_EDGE('',*,*,#972,.F.);
#1306=ORIENTED_EDGE('',*,*,#968,.F.);
#1307=ORIENTED_EDGE('',*,*,#962,.F.);
#1308=ORIENTED_EDGE('',*,*,#972,.T.);
#1309=ORIENTED_EDGE('',*,*,#970,.T.);
#1310=ORIENTED_EDGE('',*,*,#959,.T.);
#1311=ORIENTED_EDGE('',*,*,#973,.T.);
#1312=ORIENTED_EDGE('',*,*,#974,.F.);
#1313=ORIENTED_EDGE('',*,*,#853,.F.);
#1314=ORIENTED_EDGE('',*,*,#975,.T.);
#1315=ORIENTED_EDGE('',*,*,#850,.F.);
#1316=ORIENTED_EDGE('',*,*,#967,.F.);
#1317=ORIENTED_EDGE('',*,*,#944,.F.);
#1318=ORIENTED_EDGE('',*,*,#976,.F.);
#1319=ORIENTED_EDGE('',*,*,#977,.T.);
#1320=ORIENTED_EDGE('',*,*,#978,.T.);
#1321=ORIENTED_EDGE('',*,*,#943,.F.);
#1322=ORIENTED_EDGE('',*,*,#979,.T.);
#1323=ORIENTED_EDGE('',*,*,#980,.T.);
#1324=ORIENTED_EDGE('',*,*,#976,.T.);
#1325=ORIENTED_EDGE('',*,*,#945,.F.);
#1326=ORIENTED_EDGE('',*,*,#978,.F.);
#1327=ORIENTED_EDGE('',*,*,#981,.F.);
#1328=ORIENTED_EDGE('',*,*,#982,.F.);
#1329=ORIENTED_EDGE('',*,*,#946,.F.);
#1330=ORIENTED_EDGE('',*,*,#982,.T.);
#1331=ORIENTED_EDGE('',*,*,#983,.F.);
#1332=ORIENTED_EDGE('',*,*,#979,.F.);
#1333=ORIENTED_EDGE('',*,*,#980,.F.);
#1334=ORIENTED_EDGE('',*,*,#983,.T.);
#1335=ORIENTED_EDGE('',*,*,#981,.T.);
#1336=ORIENTED_EDGE('',*,*,#977,.F.);
#1337=ORIENTED_EDGE('',*,*,#934,.F.);
#1338=ORIENTED_EDGE('',*,*,#984,.F.);
#1339=ORIENTED_EDGE('',*,*,#882,.F.);
#1340=ORIENTED_EDGE('',*,*,#963,.F.);
#1341=ORIENTED_EDGE('',*,*,#876,.T.);
#1342=ORIENTED_EDGE('',*,*,#985,.F.);
#1343=ORIENTED_EDGE('',*,*,#986,.F.);
#1344=ORIENTED_EDGE('',*,*,#940,.F.);
#1345=ORIENTED_EDGE('',*,*,#987,.F.);
#1346=ORIENTED_EDGE('',*,*,#877,.F.);
#1347=ORIENTED_EDGE('',*,*,#872,.T.);
#1348=ORIENTED_EDGE('',*,*,#865,.T.);
#1349=ORIENTED_EDGE('',*,*,#875,.T.);
#1350=ORIENTED_EDGE('',*,*,#899,.F.);
#1351=ORIENTED_EDGE('',*,*,#988,.F.);
#1352=ORIENTED_EDGE('',*,*,#985,.T.);
#1353=ORIENTED_EDGE('',*,*,#987,.T.);
#1354=ORIENTED_EDGE('',*,*,#939,.T.);
#1355=ORIENTED_EDGE('',*,*,#900,.F.);
#1356=ORIENTED_EDGE('',*,*,#878,.T.);
#1357=ORIENTED_EDGE('',*,*,#857,.T.);
#1358=ORIENTED_EDGE('',*,*,#884,.F.);
#1359=ORIENTED_EDGE('',*,*,#989,.T.);
#1360=ORIENTED_EDGE('',*,*,#897,.F.);
#1361=ORIENTED_EDGE('',*,*,#898,.F.);
#1362=ORIENTED_EDGE('',*,*,#989,.F.);
#1363=ORIENTED_EDGE('',*,*,#883,.F.);
#1364=ORIENTED_EDGE('',*,*,#984,.T.);
#1365=ORIENTED_EDGE('',*,*,#933,.F.);
#1366=ORIENTED_EDGE('',*,*,#941,.F.);
#1367=ORIENTED_EDGE('',*,*,#986,.T.);
#1368=ORIENTED_EDGE('',*,*,#988,.T.);
#1369=ORIENTED_EDGE('',*,*,#990,.T.);
#1370=ORIENTED_EDGE('',*,*,#964,.F.);
#1371=ORIENTED_EDGE('',*,*,#886,.F.);
#1372=ORIENTED_EDGE('',*,*,#991,.T.);
#1373=ORIENTED_EDGE('',*,*,#891,.F.);
#1374=ORIENTED_EDGE('',*,*,#992,.F.);
#1375=ORIENTED_EDGE('',*,*,#835,.T.);
#1376=ORIENTED_EDGE('',*,*,#892,.T.);
#1377=ORIENTED_EDGE('',*,*,#991,.F.);
#1378=ORIENTED_EDGE('',*,*,#993,.F.);
#1379=ORIENTED_EDGE('',*,*,#896,.F.);
#1380=ORIENTED_EDGE('',*,*,#854,.F.);
#1381=ORIENTED_EDGE('',*,*,#974,.T.);
#1382=ORIENTED_EDGE('',*,*,#994,.F.);
#1383=ORIENTED_EDGE('',*,*,#836,.T.);
#1384=ORIENTED_EDGE('',*,*,#993,.T.);
#1385=ORIENTED_EDGE('',*,*,#992,.T.);
#1386=ORIENTED_EDGE('',*,*,#890,.T.);
#1387=ORIENTED_EDGE('',*,*,#914,.F.);
#1388=ORIENTED_EDGE('',*,*,#938,.F.);
#1389=ORIENTED_EDGE('',*,*,#922,.T.);
#1390=ORIENTED_EDGE('',*,*,#920,.T.);
#1391=ORIENTED_EDGE('',*,*,#942,.F.);
#1392=ORIENTED_EDGE('',*,*,#931,.F.);
#1393=ORIENTED_EDGE('',*,*,#837,.T.);
#1394=ORIENTED_EDGE('',*,*,#994,.T.);
#1395=ORIENTED_EDGE('',*,*,#973,.F.);
#1396=ORIENTED_EDGE('',*,*,#852,.F.);
#1397=ORIENTED_EDGE('',*,*,#827,.T.);
#1398=ORIENTED_EDGE('',*,*,#851,.T.);
#1399=ORIENTED_EDGE('',*,*,#975,.F.);
#1400=ORIENTED_EDGE('',*,*,#966,.F.);
#1401=ORIENTED_EDGE('',*,*,#829,.T.);
#1402=ORIENTED_EDGE('',*,*,#965,.T.);
#1403=ORIENTED_EDGE('',*,*,#990,.F.);
#1404=ORIENTED_EDGE('',*,*,#885,.F.);
#1405=CYLINDRICAL_SURFACE('',#1496,1.05);
#1406=CYLINDRICAL_SURFACE('',#1500,1.05);
#1407=CYLINDRICAL_SURFACE('',#1537,7.5);
#1408=ADVANCED_FACE('',(#95),#1405,.T.);
#1409=ADVANCED_FACE('',(#96),#24,.F.);
#1410=ADVANCED_FACE('',(#97),#1406,.T.);
#1411=ADVANCED_FACE('',(#98),#25,.F.);
#1412=ADVANCED_FACE('',(#99),#26,.T.);
#1413=ADVANCED_FACE('',(#100),#27,.T.);
#1414=ADVANCED_FACE('',(#101),#28,.T.);
#1415=ADVANCED_FACE('',(#102),#29,.T.);
#1416=ADVANCED_FACE('',(#103),#30,.F.);
#1417=ADVANCED_FACE('',(#104),#31,.T.);
#1418=ADVANCED_FACE('',(#105),#32,.T.);
#1419=ADVANCED_FACE('',(#106),#33,.T.);
#1420=ADVANCED_FACE('',(#107),#34,.T.);
#1421=ADVANCED_FACE('',(#108),#35,.T.);
#1422=ADVANCED_FACE('',(#109),#36,.F.);
#1423=ADVANCED_FACE('',(#110,#15,#16,#17,#18),#37,.F.);
#1424=ADVANCED_FACE('',(#111),#38,.F.);
#1425=ADVANCED_FACE('',(#112),#39,.F.);
#1426=ADVANCED_FACE('',(#113),#40,.F.);
#1427=ADVANCED_FACE('',(#114),#41,.T.);
#1428=ADVANCED_FACE('',(#115),#42,.T.);
#1429=ADVANCED_FACE('',(#116),#43,.F.);
#1430=ADVANCED_FACE('',(#117),#44,.F.);
#1431=ADVANCED_FACE('',(#118),#45,.F.);
#1432=ADVANCED_FACE('',(#119),#46,.F.);
#1433=ADVANCED_FACE('',(#120),#47,.F.);
#1434=ADVANCED_FACE('',(#121),#48,.F.);
#1435=ADVANCED_FACE('',(#122),#49,.F.);
#1436=ADVANCED_FACE('',(#123),#50,.T.);
#1437=ADVANCED_FACE('',(#124),#51,.T.);
#1438=ADVANCED_FACE('',(#125),#52,.T.);
#1439=ADVANCED_FACE('',(#126),#53,.F.);
#1440=ADVANCED_FACE('',(#127),#54,.T.);
#1441=ADVANCED_FACE('',(#128),#55,.T.);
#1442=ADVANCED_FACE('',(#129),#1407,.F.);
#1443=ADVANCED_FACE('',(#130),#56,.T.);
#1444=ADVANCED_FACE('',(#131),#57,.T.);
#1445=ADVANCED_FACE('',(#132),#58,.T.);
#1446=ADVANCED_FACE('',(#133,#19),#59,.T.);
#1447=ADVANCED_FACE('',(#134,#20),#60,.T.);
#1448=ADVANCED_FACE('',(#135,#21),#61,.T.);
#1449=ADVANCED_FACE('',(#136),#62,.T.);
#1450=ADVANCED_FACE('',(#137),#63,.F.);
#1451=ADVANCED_FACE('',(#138),#64,.T.);
#1452=ADVANCED_FACE('',(#139),#65,.T.);
#1453=ADVANCED_FACE('',(#140),#66,.T.);
#1454=ADVANCED_FACE('',(#141),#67,.F.);
#1455=ADVANCED_FACE('',(#142),#68,.F.);
#1456=ADVANCED_FACE('',(#143),#69,.T.);
#1457=ADVANCED_FACE('',(#144),#70,.T.);
#1458=ADVANCED_FACE('',(#145),#71,.F.);
#1459=ADVANCED_FACE('',(#146),#72,.F.);
#1460=ADVANCED_FACE('',(#147),#73,.F.);
#1461=ADVANCED_FACE('',(#148),#74,.T.);
#1462=ADVANCED_FACE('',(#149),#75,.F.);
#1463=ADVANCED_FACE('',(#150),#76,.F.);
#1464=ADVANCED_FACE('',(#151),#77,.F.);
#1465=ADVANCED_FACE('',(#152),#78,.F.);
#1466=ADVANCED_FACE('',(#153),#79,.T.);
#1467=ADVANCED_FACE('',(#154),#80,.F.);
#1468=ADVANCED_FACE('',(#155),#81,.F.);
#1469=ADVANCED_FACE('',(#156),#82,.F.);
#1470=ADVANCED_FACE('',(#157),#83,.F.);
#1471=ADVANCED_FACE('',(#158),#84,.F.);
#1472=ADVANCED_FACE('',(#159),#85,.T.);
#1473=ADVANCED_FACE('',(#160),#86,.F.);
#1474=ADVANCED_FACE('',(#161),#87,.F.);
#1475=ADVANCED_FACE('',(#162),#88,.F.);
#1476=ADVANCED_FACE('',(#163),#89,.F.);
#1477=ADVANCED_FACE('',(#164),#90,.T.);
#1478=ADVANCED_FACE('',(#165,#22,#23),#91,.T.);
#1479=ADVANCED_FACE('',(#166),#92,.T.);
#1480=ADVANCED_FACE('',(#167),#93,.T.);
#1481=ADVANCED_FACE('',(#168),#94,.T.);
#1482=CLOSED_SHELL('',(#1408,#1409,#1410,#1411,#1412,#1413,#1414,#1415,
#1416,#1417,#1418,#1419,#1420,#1421,#1422,#1423,#1424,#1425,#1426,#1427,
#1428,#1429,#1430,#1431,#1432,#1433,#1434,#1435,#1436,#1437,#1438,#1439,
#1440,#1441,#1442,#1443,#1444,#1445,#1446,#1447,#1448,#1449,#1450,#1451,
#1452,#1453,#1454,#1455,#1456,#1457,#1458,#1459,#1460,#1461,#1462,#1463,
#1464,#1465,#1466,#1467,#1468,#1469,#1470,#1471,#1472,#1473,#1474,#1475,
#1476,#1477,#1478,#1479,#1480,#1481));
#1483=DERIVED_UNIT_ELEMENT(#1485,1.);
#1484=DERIVED_UNIT_ELEMENT(#2362,-3.);
#1485=(
MASS_UNIT()
NAMED_UNIT(*)
SI_UNIT(.KILO.,.GRAM.)
);
#1486=DERIVED_UNIT((#1483,#1484));
#1487=MEASURE_REPRESENTATION_ITEM('density measure',
POSITIVE_RATIO_MEASURE(7850.),#1486);
#1488=PROPERTY_DEFINITION_REPRESENTATION(#1493,#1490);
#1489=PROPERTY_DEFINITION_REPRESENTATION(#1494,#1491);
#1490=REPRESENTATION('material name',(#1492),#2359);
#1491=REPRESENTATION('density',(#1487),#2359);
#1492=DESCRIPTIVE_REPRESENTATION_ITEM('\X2\94A2\X0\','\X2\94A2\X0\');
#1493=PROPERTY_DEFINITION('material property','material name',#2369);
#1494=PROPERTY_DEFINITION('material property','density of part',#2369);
#1495=AXIS2_PLACEMENT_3D('',#1941,#1578,#1579);
#1496=AXIS2_PLACEMENT_3D('',#1942,#1580,#1581);
#1497=AXIS2_PLACEMENT_3D('',#1944,#1582,#1583);
#1498=AXIS2_PLACEMENT_3D('',#1947,#1585,#1586);
#1499=AXIS2_PLACEMENT_3D('',#1948,#1587,#1588);
#1500=AXIS2_PLACEMENT_3D('',#1949,#1589,#1590);
#1501=AXIS2_PLACEMENT_3D('',#1951,#1591,#1592);
#1502=AXIS2_PLACEMENT_3D('',#1954,#1594,#1595);
#1503=AXIS2_PLACEMENT_3D('',#1955,#1596,#1597);
#1504=AXIS2_PLACEMENT_3D('',#1956,#1598,#1599);
#1505=AXIS2_PLACEMENT_3D('',#1965,#1604,#1605);
#1506=AXIS2_PLACEMENT_3D('',#1971,#1609,#1610);
#1507=AXIS2_PLACEMENT_3D('',#1977,#1614,#1615);
#1508=AXIS2_PLACEMENT_3D('',#1980,#1618,#1619);
#1509=AXIS2_PLACEMENT_3D('',#1981,#1620,#1621);
#1510=AXIS2_PLACEMENT_3D('',#1984,#1622,#1623);
#1511=AXIS2_PLACEMENT_3D('',#1986,#1625,#1626);
#1512=AXIS2_PLACEMENT_3D('',#1995,#1631,#1632);
#1513=AXIS2_PLACEMENT_3D('',#2002,#1637,#1638);
#1514=AXIS2_PLACEMENT_3D('',#2008,#1642,#1643);
#1515=AXIS2_PLACEMENT_3D('',#2011,#1646,#1647);
#1516=AXIS2_PLACEMENT_3D('',#2012,#1648,#1649);
#1517=AXIS2_PLACEMENT_3D('',#2046,#1666,#1667);
#1518=AXIS2_PLACEMENT_3D('',#2047,#1668,#1669);
#1519=AXIS2_PLACEMENT_3D('',#2048,#1670,#1671);
#1520=AXIS2_PLACEMENT_3D('',#2054,#1675,#1676);
#1521=AXIS2_PLACEMENT_3D('',#2060,#1680,#1681);
#1522=AXIS2_PLACEMENT_3D('',#2062,#1683,#1684);
#1523=AXIS2_PLACEMENT_3D('',#2070,#1689,#1690);
#1524=AXIS2_PLACEMENT_3D('',#2078,#1695,#1696);
#1525=AXIS2_PLACEMENT_3D('',#2088,#1702,#1703);
#1526=AXIS2_PLACEMENT_3D('',#2092,#1706,#1707);
#1527=AXIS2_PLACEMENT_3D('',#2101,#1712,#1713);
#1528=AXIS2_PLACEMENT_3D('',#2109,#1718,#1719);
#1529=AXIS2_PLACEMENT_3D('',#2115,#1723,#1724);
#1530=AXIS2_PLACEMENT_3D('',#2121,#1728,#1729);
#1531=AXIS2_PLACEMENT_3D('',#2127,#1733,#1734);
#1532=AXIS2_PLACEMENT_3D('',#2137,#1740,#1741);
#1533=AXIS2_PLACEMENT_3D('',#2145,#1746,#1747);
#1534=AXIS2_PLACEMENT_3D('',#2153,#1752,#1753);
#1535=AXIS2_PLACEMENT_3D('',#2157,#1756,#1757);
#1536=AXIS2_PLACEMENT_3D('',#2159,#1759,#1760);
#1537=AXIS2_PLACEMENT_3D('',#2183,#1774,#1775);
#1538=AXIS2_PLACEMENT_3D('',#2186,#1777,#1778);
#1539=AXIS2_PLACEMENT_3D('',#2187,#1779,#1780);
#1540=AXIS2_PLACEMENT_3D('',#2196,#1785,#1786);
#1541=AXIS2_PLACEMENT_3D('',#2203,#1791,#1792);
#1542=AXIS2_PLACEMENT_3D('',#2209,#1796,#1797);
#1543=AXIS2_PLACEMENT_3D('',#2227,#1807,#1808);
#1544=AXIS2_PLACEMENT_3D('',#2242,#1817,#1818);
#1545=AXIS2_PLACEMENT_3D('',#2257,#1827,#1828);
#1546=AXIS2_PLACEMENT_3D('',#2263,#1832,#1833);
#1547=AXIS2_PLACEMENT_3D('',#2267,#1836,#1837);
#1548=AXIS2_PLACEMENT_3D('',#2271,#1840,#1841);
#1549=AXIS2_PLACEMENT_3D('',#2273,#1843,#1844);
#1550=AXIS2_PLACEMENT_3D('',#2274,#1845,#1846);
#1551=AXIS2_PLACEMENT_3D('',#2280,#1850,#1851);
#1552=AXIS2_PLACEMENT_3D('',#2286,#1855,#1856);
#1553=AXIS2_PLACEMENT_3D('',#2288,#1858,#1859);
#1554=AXIS2_PLACEMENT_3D('',#2299,#1867,#1868);
#1555=AXIS2_PLACEMENT_3D('',#2301,#1870,#1871);
#1556=AXIS2_PLACEMENT_3D('',#2305,#1874,#1875);
#1557=AXIS2_PLACEMENT_3D('',#2307,#1877,#1878);
#1558=AXIS2_PLACEMENT_3D('',#2308,#1879,#1880);
#1559=AXIS2_PLACEMENT_3D('',#2312,#1883,#1884);
#1560=AXIS2_PLACEMENT_3D('',#2314,#1886,#1887);
#1561=AXIS2_PLACEMENT_3D('',#2320,#1891,#1892);
#1562=AXIS2_PLACEMENT_3D('',#2324,#1895,#1896);
#1563=AXIS2_PLACEMENT_3D('',#2328,#1899,#1900);
#1564=AXIS2_PLACEMENT_3D('',#2330,#1902,#1903);
#1565=AXIS2_PLACEMENT_3D('',#2331,#1904,#1905);
#1566=AXIS2_PLACEMENT_3D('',#2333,#1907,#1908);
#1567=AXIS2_PLACEMENT_3D('',#2338,#1912,#1913);
#1568=AXIS2_PLACEMENT_3D('',#2340,#1915,#1916);
#1569=AXIS2_PLACEMENT_3D('',#2341,#1917,#1918);
#1570=AXIS2_PLACEMENT_3D('',#2343,#1920,#1921);
#1571=AXIS2_PLACEMENT_3D('',#2344,#1922,#1923);
#1572=AXIS2_PLACEMENT_3D('',#2346,#1925,#1926);
#1573=AXIS2_PLACEMENT_3D('',#2350,#1929,#1930);
#1574=AXIS2_PLACEMENT_3D('',#2352,#1932,#1933);
#1575=AXIS2_PLACEMENT_3D('',#2354,#1935,#1936);
#1576=AXIS2_PLACEMENT_3D('',#2355,#1937,#1938);
#1577=AXIS2_PLACEMENT_3D('',#2356,#1939,#1940);
#1578=DIRECTION('axis',(0.,0.,1.));
#1579=DIRECTION('refdir',(1.,0.,0.));
#1580=DIRECTION('center_axis',(0.,0.,1.));
#1581=DIRECTION('ref_axis',(1.,0.,0.));
#1582=DIRECTION('center_axis',(0.,0.,1.));
#1583=DIRECTION('ref_axis',(1.,0.,0.));
#1584=DIRECTION('',(0.,0.,-1.));
#1585=DIRECTION('center_axis',(0.,0.,1.));
#1586=DIRECTION('ref_axis',(1.,0.,0.));
#1587=DIRECTION('center_axis',(0.,0.,1.));
#1588=DIRECTION('ref_axis',(1.,0.,0.));
#1589=DIRECTION('center_axis',(0.,0.,1.));
#1590=DIRECTION('ref_axis',(1.,0.,0.));
#1591=DIRECTION('center_axis',(0.,0.,1.));
#1592=DIRECTION('ref_axis',(1.,0.,0.));
#1593=DIRECTION('',(0.,0.,-1.));
#1594=DIRECTION('center_axis',(0.,0.,1.));
#1595=DIRECTION('ref_axis',(1.,0.,0.));
#1596=DIRECTION('center_axis',(0.,0.,1.));
#1597=DIRECTION('ref_axis',(1.,0.,0.));
#1598=DIRECTION('center_axis',(0.,1.,0.));
#1599=DIRECTION('ref_axis',(-1.,0.,0.));
#1600=DIRECTION('',(-1.,0.,0.));
#1601=DIRECTION('',(0.,0.,1.));
#1602=DIRECTION('',(-1.,0.,0.));
#1603=DIRECTION('',(0.,0.,1.));
#1604=DIRECTION('center_axis',(1.,0.,0.));
#1605=DIRECTION('ref_axis',(0.,1.,0.));
#1606=DIRECTION('',(0.,1.,0.));
#1607=DIRECTION('',(0.,1.,0.));
#1608=DIRECTION('',(0.,0.,1.));
#1609=DIRECTION('center_axis',(0.,-1.,0.));
#1610=DIRECTION('ref_axis',(1.,0.,0.));
#1611=DIRECTION('',(1.,0.,0.));
#1612=DIRECTION('',(1.,0.,0.));
#1613=DIRECTION('',(0.,0.,1.));
#1614=DIRECTION('center_axis',(-1.,0.,0.));
#1615=DIRECTION('ref_axis',(0.,-1.,0.));
#1616=DIRECTION('',(0.,-1.,0.));
#1617=DIRECTION('',(0.,-1.,0.));
#1618=DIRECTION('center_axis',(0.,0.,1.));
#1619=DIRECTION('ref_axis',(1.,0.,0.));
#1620=DIRECTION('center_axis',(0.,0.,1.));
#1621=DIRECTION('ref_axis',(1.,0.,0.));
#1622=DIRECTION('center_axis',(0.,0.,1.));
#1623=DIRECTION('ref_axis',(-2.22044604925031E-16,1.,0.));
#1624=DIRECTION('',(0.,1.,0.));
#1625=DIRECTION('center_axis',(0.,1.,0.));
#1626=DIRECTION('ref_axis',(-1.,0.,0.));
#1627=DIRECTION('',(-1.,0.,0.));
#1628=DIRECTION('',(0.,0.,1.));
#1629=DIRECTION('',(-1.,0.,0.));
#1630=DIRECTION('',(0.,0.,1.));
#1631=DIRECTION('center_axis',(1.,0.,0.));
#1632=DIRECTION('ref_axis',(0.,1.,0.));
#1633=DIRECTION('',(0.,1.,0.));
#1634=DIRECTION('',(0.,1.,0.));
#1635=DIRECTION('',(0.,1.,0.));
#1636=DIRECTION('',(0.,0.,1.));
#1637=DIRECTION('center_axis',(0.,-1.,0.));
#1638=DIRECTION('ref_axis',(1.,0.,0.));
#1639=DIRECTION('',(1.,0.,0.));
#1640=DIRECTION('',(1.,0.,0.));
#1641=DIRECTION('',(0.,0.,1.));
#1642=DIRECTION('center_axis',(-1.,0.,0.));
#1643=DIRECTION('ref_axis',(0.,-1.,0.));
#1644=DIRECTION('',(0.,-1.,0.));
#1645=DIRECTION('',(0.,-1.,0.));
#1646=DIRECTION('center_axis',(0.,0.,1.));
#1647=DIRECTION('ref_axis',(1.,0.,0.));
#1648=DIRECTION('center_axis',(0.,0.,1.));
#1649=DIRECTION('ref_axis',(-2.22044604925031E-16,1.,0.));
#1650=DIRECTION('',(0.,-1.,0.));
#1651=DIRECTION('',(1.,0.,0.));
#1652=DIRECTION('',(0.,1.,0.));
#1653=DIRECTION('',(-1.,-2.22044604925031E-16,0.));
#1654=DIRECTION('',(-0.707106781186548,0.707106781186547,0.));
#1655=DIRECTION('',(-2.22044604925031E-16,1.,0.));
#1656=DIRECTION('',(0.707106781186548,0.707106781186547,0.));
#1657=DIRECTION('',(1.,2.22044604925031E-16,0.));
#1658=DIRECTION('',(0.,1.,0.));
#1659=DIRECTION('',(-1.,0.,0.));
#1660=DIRECTION('',(0.,-1.,0.));
#1661=DIRECTION('',(1.,2.22044604925031E-16,0.));
#1662=DIRECTION('',(0.707106781186548,-0.707106781186547,0.));
#1663=DIRECTION('',(2.22044604925031E-16,-1.,0.));
#1664=DIRECTION('',(-0.707106781186548,-0.707106781186547,0.));
#1665=DIRECTION('',(-1.,-2.22044604925031E-16,0.));
#1666=DIRECTION('center_axis',(0.,0.,1.));
#1667=DIRECTION('ref_axis',(-2.22044604925031E-16,1.,0.));
#1668=DIRECTION('center_axis',(0.,0.,1.));
#1669=DIRECTION('ref_axis',(-2.22044604925031E-16,1.,0.));
#1670=DIRECTION('center_axis',(-1.,0.,0.));
#1671=DIRECTION('ref_axis',(0.,-1.,0.));
#1672=DIRECTION('',(0.,1.,2.46933570586929E-30));
#1673=DIRECTION('',(0.,0.,1.));
#1674=DIRECTION('',(0.,0.,-1.));
#1675=DIRECTION('center_axis',(1.,0.,0.));
#1676=DIRECTION('ref_axis',(0.,1.,0.));
#1677=DIRECTION('',(0.,-1.,-2.46933570586929E-30));
#1678=DIRECTION('',(0.,0.,1.));
#1679=DIRECTION('',(0.,0.,1.));
#1680=DIRECTION('center_axis',(0.,-1.,0.));
#1681=DIRECTION('ref_axis',(1.,0.,0.));
#1682=DIRECTION('',(-1.,0.,6.99387906287907E-32));
#1683=DIRECTION('center_axis',(-2.22044604925031E-16,1.,0.));
#1684=DIRECTION('ref_axis',(-1.,-2.22044604925031E-16,0.));
#1685=DIRECTION('',(-1.,-2.22044604925031E-16,0.));
#1686=DIRECTION('',(0.,0.,1.));
#1687=DIRECTION('',(-1.,-2.22044604925031E-16,0.));
#1688=DIRECTION('',(0.,0.,1.));
#1689=DIRECTION('center_axis',(-2.22044604925031E-16,1.,0.));
#1690=DIRECTION('ref_axis',(-1.,-2.22044604925031E-16,0.));
#1691=DIRECTION('',(0.,0.,1.));
#1692=DIRECTION('',(-1.,-2.22044604925031E-16,0.));
#1693=DIRECTION('',(0.,0.,1.));
#1694=DIRECTION('',(-1.,-2.22044604925031E-16,0.));
#1695=DIRECTION('center_axis',(-1.,0.,0.));
#1696=DIRECTION('ref_axis',(0.,-1.,0.));
#1697=DIRECTION('',(0.,1.,0.));
#1698=DIRECTION('',(0.,0.,-1.));
#1699=DIRECTION('',(0.,1.,2.46933570586929E-30));
#1700=DIRECTION('',(0.,0.,1.));
#1701=DIRECTION('',(0.,0.,1.));
#1702=DIRECTION('center_axis',(0.,1.,0.));
#1703=DIRECTION('ref_axis',(-1.,0.,0.));
#1704=DIRECTION('',(1.,0.,0.));
#1705=DIRECTION('',(0.,0.,1.));
#1706=DIRECTION('center_axis',(0.,1.,0.));
#1707=DIRECTION('ref_axis',(-1.,0.,0.));
#1708=DIRECTION('',(1.,0.,-6.99387906287907E-32));
#1709=DIRECTION('',(0.,0.,1.));
#1710=DIRECTION('',(-1.,0.,0.));
#1711=DIRECTION('',(0.,0.,1.));
#1712=DIRECTION('center_axis',(1.,0.,0.));
#1713=DIRECTION('ref_axis',(0.,1.,0.));
#1714=DIRECTION('',(0.,-1.,0.));
#1715=DIRECTION('',(0.,0.,-1.));
#1716=DIRECTION('',(0.,-1.,-2.46933570586929E-30));
#1717=DIRECTION('',(0.,0.,1.));
#1718=DIRECTION('center_axis',(1.,0.,0.));
#1719=DIRECTION('ref_axis',(0.,1.,0.));
#1720=DIRECTION('',(0.,-1.,-2.46933570586929E-30));
#1721=DIRECTION('',(0.,1.,0.));
#1722=DIRECTION('',(0.,0.,-1.));
#1723=DIRECTION('center_axis',(-1.,0.,0.));
#1724=DIRECTION('ref_axis',(0.,-1.,0.));
#1725=DIRECTION('',(0.,1.,2.46933570586929E-30));
#1726=DIRECTION('',(0.,0.,1.));
#1727=DIRECTION('',(0.,-1.,0.));
#1728=DIRECTION('center_axis',(-2.22044604925031E-16,1.,0.));
#1729=DIRECTION('ref_axis',(-1.,-2.22044604925031E-16,0.));
#1730=DIRECTION('',(1.,2.22044604925031E-16,0.));
#1731=DIRECTION('',(0.,0.,-1.));
#1732=DIRECTION('',(1.,2.22044604925031E-16,-6.99387906287901E-32));
#1733=DIRECTION('center_axis',(0.,0.,1.));
#1734=DIRECTION('ref_axis',(-2.22044604925031E-16,1.,0.));
#1735=DIRECTION('',(1.,2.22044604925031E-16,0.));
#1736=DIRECTION('',(2.22044604925031E-16,-1.,0.));
#1737=DIRECTION('',(-1.,-2.22044604925031E-16,0.));
#1738=DIRECTION('',(2.22044604925031E-16,-1.,0.));
#1739=DIRECTION('',(1.,2.22044604925031E-16,0.));
#1740=DIRECTION('center_axis',(2.22044604925031E-16,-1.,0.));
#1741=DIRECTION('ref_axis',(1.,2.22044604925031E-16,0.));
#1742=DIRECTION('',(0.,0.,1.));
#1743=DIRECTION('',(1.,2.22044604925031E-16,0.));
#1744=DIRECTION('',(0.,0.,1.));
#1745=DIRECTION('',(1.,2.22044604925031E-16,0.));
#1746=DIRECTION('center_axis',(2.22044604925031E-16,-1.,0.));
#1747=DIRECTION('ref_axis',(1.,2.22044604925031E-16,0.));
#1748=DIRECTION('',(1.,2.22044604925031E-16,0.));
#1749=DIRECTION('',(0.,0.,1.));
#1750=DIRECTION('',(1.,2.22044604925031E-16,0.));
#1751=DIRECTION('',(0.,0.,1.));
#1752=DIRECTION('center_axis',(2.22044604925031E-16,-1.,0.));
#1753=DIRECTION('ref_axis',(1.,2.22044604925031E-16,0.));
#1754=DIRECTION('',(-1.,-2.22044604925031E-16,6.99387906287901E-32));
#1755=DIRECTION('',(0.,0.,1.));
#1756=DIRECTION('center_axis',(6.99387906287907E-32,-2.46933570586929E-30,
1.));
#1757=DIRECTION('ref_axis',(-2.22044604925031E-16,1.,2.46933570586929E-30));
#1758=DIRECTION('',(-2.22044604925031E-16,1.,0.));
#1759=DIRECTION('center_axis',(6.99387906287907E-32,-2.46933570586929E-30,
1.));
#1760=DIRECTION('ref_axis',(-2.22044604925031E-16,1.,2.46933570586929E-30));
#1761=DIRECTION('',(2.22044604925031E-16,-1.,0.));
#1762=DIRECTION('',(-1.,-2.22044604925031E-16,6.99387906287901E-32));
#1763=DIRECTION('',(-2.22044604925031E-16,1.,1.57778123876112E-30));
#1764=DIRECTION('',(1.,2.22044604925031E-16,-6.99387906287901E-32));
#1765=DIRECTION('',(-2.22044604925031E-16,1.,0.));
#1766=DIRECTION('',(-1.,-2.22044604925031E-16,0.));
#1767=DIRECTION('',(-2.22044604925031E-16,1.,0.));
#1768=DIRECTION('',(1.,2.22044604925031E-16,0.));
#1769=DIRECTION('',(-2.22044604925031E-16,1.,0.));
#1770=DIRECTION('',(-1.,-2.22044604925031E-16,6.99387906287901E-32));
#1771=DIRECTION('',(-2.22044604925031E-16,1.,2.46933570586929E-30));
#1772=DIRECTION('',(1.,2.22044604925031E-16,-6.99387906287901E-32));
#1773=DIRECTION('',(-2.22044604925031E-16,1.,0.));
#1774=DIRECTION('center_axis',(0.,0.,1.));
#1775=DIRECTION('ref_axis',(-2.22044604925031E-16,1.,0.));
#1776=DIRECTION('',(0.,0.,1.));
#1777=DIRECTION('center_axis',(0.,0.,-1.));
#1778=DIRECTION('ref_axis',(-2.22044604925031E-16,1.,0.));
#1779=DIRECTION('center_axis',(-2.22044604925031E-16,1.,0.));
#1780=DIRECTION('ref_axis',(-1.,-2.22044604925031E-16,0.));
#1781=DIRECTION('',(-1.,-2.22044604925031E-16,0.));
#1782=DIRECTION('',(0.,0.,1.));
#1783=DIRECTION('',(1.,2.22044604925031E-16,0.));
#1784=DIRECTION('',(0.,0.,1.));
#1785=DIRECTION('center_axis',(1.,2.22044604925031E-16,0.));
#1786=DIRECTION('ref_axis',(-2.22044604925031E-16,1.,0.));
#1787=DIRECTION('',(-1.38710165032846E-16,0.624695047554425,-0.78086880944303));
#1788=DIRECTION('',(-1.38710165032846E-16,0.624695047554425,0.78086880944303));
#1789=DIRECTION('',(0.,0.,1.));
#1790=DIRECTION('',(2.22044604925031E-16,-1.,0.));
#1791=DIRECTION('center_axis',(2.22044604925031E-16,-1.,0.));
#1792=DIRECTION('ref_axis',(1.,2.22044604925031E-16,0.));
#1793=DIRECTION('',(1.,2.22044604925031E-16,0.));
#1794=DIRECTION('',(0.,0.,1.));
#1795=DIRECTION('',(-1.,-2.22044604925031E-16,0.));
#1796=DIRECTION('center_axis',(1.73387706291057E-16,-0.78086880944303,-0.624695047554425));
#1797=DIRECTION('ref_axis',(1.38710165032846E-16,-0.624695047554425,0.78086880944303));
#1798=DIRECTION('',(1.38710165032846E-16,-0.624695047554425,0.78086880944303));
#1799=DIRECTION('',(-1.,-2.22044604925031E-16,0.));
#1800=DIRECTION('',(1.38710165032846E-16,-0.624695047554425,0.78086880944303));
#1801=DIRECTION('',(1.,2.22044604925031E-16,0.));
#1802=DIRECTION('',(1.38710165032846E-16,-0.624695047554425,0.78086880944303));
#1803=DIRECTION('',(-1.,-2.22044604925026E-16,-6.02402814457572E-30));
#1804=DIRECTION('',(1.38710165032846E-16,-0.624695047554425,0.78086880944303));
#1805=DIRECTION('',(1.,2.22044604925024E-16,9.32387719413367E-30));
#1806=DIRECTION('',(9.9814680006574E-15,0.624695047554425,-0.78086880944303));
#1807=DIRECTION('center_axis',(0.,0.,1.));
#1808=DIRECTION('ref_axis',(-2.22044604925031E-16,1.,0.));
#1809=DIRECTION('',(2.22044604925031E-16,-1.,0.));
#1810=DIRECTION('',(1.,2.22044604925031E-16,0.));
#1811=DIRECTION('',(-2.22044604925031E-16,1.,0.));
#1812=DIRECTION('',(1.,2.22044604925031E-16,0.));
#1813=DIRECTION('',(-2.22044604925031E-16,1.,0.));
#1814=DIRECTION('',(-1.,-2.22044604925031E-16,0.));
#1815=DIRECTION('',(-2.22044604925031E-16,1.,0.));
#1816=DIRECTION('',(2.22044604925031E-16,-1.,0.));
#1817=DIRECTION('center_axis',(-1.73387706291057E-16,0.78086880944303,-0.624695047554425));
#1818=DIRECTION('ref_axis',(1.38710165032846E-16,-0.624695047554425,-0.78086880944303));
#1819=DIRECTION('',(-1.38710165032846E-16,0.624695047554425,0.78086880944303));
#1820=DIRECTION('',(-1.,-2.22044604925031E-16,0.));
#1821=DIRECTION('',(1.38710165032846E-16,-0.624695047554425,-0.78086880944303));
#1822=DIRECTION('',(-1.38710165032846E-16,0.624695047554425,0.78086880944303));
#1823=DIRECTION('',(1.,2.22044604925036E-16,6.02402814457572E-30));
#1824=DIRECTION('',(-1.02588883307231E-14,0.624695047554425,0.78086880944303));
#1825=DIRECTION('',(-1.,-2.22044604925039E-16,-9.32387719413367E-30));
#1826=DIRECTION('',(1.38710165032846E-16,-0.624695047554425,-0.78086880944303));
#1827=DIRECTION('center_axis',(-1.,-2.22044604925031E-16,0.));
#1828=DIRECTION('ref_axis',(0.,0.,1.));
#1829=DIRECTION('',(2.22044604925031E-16,-1.,0.));
#1830=DIRECTION('',(1.38710165032846E-16,-0.624695047554425,0.78086880944303));
#1831=DIRECTION('',(2.22044604925031E-16,-1.,0.));
#1832=DIRECTION('center_axis',(-6.02402814457582E-30,4.20838110470755E-28,
1.));
#1833=DIRECTION('ref_axis',(-2.22044604925031E-16,1.,-4.20838110470755E-28));
#1834=DIRECTION('',(0.998421713112782,0.0561612213625944,0.));
#1835=DIRECTION('',(1.,2.22044604925031E-16,0.));
#1836=DIRECTION('center_axis',(-9.32387719413382E-30,6.68528143808279E-28,
1.));
#1837=DIRECTION('ref_axis',(-2.22044604925031E-16,1.,-6.68528143808279E-28));
#1838=DIRECTION('',(1.,2.22044604925031E-16,0.));
#1839=DIRECTION('',(0.998421713112782,0.0561612213625947,0.));
#1840=DIRECTION('center_axis',(1.73387706291057E-16,-0.78086880944303,-0.624695047554425));
#1841=DIRECTION('ref_axis',(1.38710165032846E-16,-0.624695047554425,0.78086880944303));
#1842=DIRECTION('',(1.38710165032846E-16,-0.624695047554425,0.78086880944303));
#1843=DIRECTION('center_axis',(0.0438815604408655,-0.780116630059826,-0.624093304047861));
#1844=DIRECTION('ref_axis',(1.38710165032846E-16,-0.624695047554424,0.78086880944303));
#1845=DIRECTION('center_axis',(0.,0.,1.));
#1846=DIRECTION('ref_axis',(-2.22044604925031E-16,1.,0.));
#1847=DIRECTION('',(2.22044604925031E-16,-1.,0.));
#1848=DIRECTION('',(-1.,-2.22044604925031E-16,0.));
#1849=DIRECTION('',(-2.22044604925031E-16,1.,0.));
#1850=DIRECTION('center_axis',(2.22044604925031E-16,-1.,0.));
#1851=DIRECTION('ref_axis',(1.,2.22044604925031E-16,0.));
#1852=DIRECTION('',(0.,0.,1.));
#1853=DIRECTION('',(1.,2.22044604925031E-16,0.));
#1854=DIRECTION('',(0.,0.,1.));
#1855=DIRECTION('center_axis',(1.,2.22044604925031E-16,0.));
#1856=DIRECTION('ref_axis',(-2.22044604925031E-16,1.,0.));
#1857=DIRECTION('',(0.,0.,1.));
#1858=DIRECTION('center_axis',(1.,2.22044604925031E-16,0.));
#1859=DIRECTION('ref_axis',(-2.22044604925031E-16,1.,0.));
#1860=DIRECTION('',(2.22044604925031E-16,-1.,0.));
#1861=DIRECTION('',(0.,0.,-1.));
#1862=DIRECTION('',(-2.22044604925031E-16,1.,0.));
#1863=DIRECTION('',(0.,0.,1.));
#1864=DIRECTION('',(0.,0.,1.));
#1865=DIRECTION('',(-2.22044604925031E-16,1.,0.));
#1866=DIRECTION('',(0.,0.,-1.));
#1867=DIRECTION('center_axis',(2.22044604925031E-16,-1.,0.));
#1868=DIRECTION('ref_axis',(1.,2.22044604925031E-16,0.));
#1869=DIRECTION('',(0.,0.,1.));
#1870=DIRECTION('center_axis',(-1.,-2.22044604925031E-16,0.));
#1871=DIRECTION('ref_axis',(2.22044604925031E-16,-1.,0.));
#1872=DIRECTION('',(2.22044604925031E-16,-1.,0.));
#1873=DIRECTION('',(0.,0.,1.));
#1874=DIRECTION('center_axis',(-2.22044604925031E-16,1.,0.));
#1875=DIRECTION('ref_axis',(-1.,-2.22044604925031E-16,0.));
#1876=DIRECTION('',(-1.,-2.22044604925031E-16,0.));
#1877=DIRECTION('center_axis',(0.,0.,1.));
#1878=DIRECTION('ref_axis',(-2.22044604925031E-16,1.,0.));
#1879=DIRECTION('center_axis',(1.21632679354427E-32,-4.20128018656601E-30,
1.));
#1880=DIRECTION('ref_axis',(-2.22044604925031E-16,1.,4.20128018656601E-30));
#1881=DIRECTION('',(-0.707106781186548,-0.707106781186547,0.));
#1882=DIRECTION('',(2.22044604925031E-16,-1.,0.));
#1883=DIRECTION('center_axis',(1.21632679354427E-32,-4.20128018656601E-30,
1.));
#1884=DIRECTION('ref_axis',(-2.22044604925031E-16,1.,4.20128018656601E-30));
#1885=DIRECTION('',(-0.707106781186548,0.707106781186547,0.));
#1886=DIRECTION('center_axis',(-0.0438815604408652,-0.780116630059826,0.624093304047861));
#1887=DIRECTION('ref_axis',(-1.38710165032846E-16,0.624695047554424,0.78086880944303));
#1888=DIRECTION('',(0.998421713112782,-0.0561612213625939,0.));
#1889=DIRECTION('',(-1.38710165032846E-16,0.624695047554425,0.78086880944303));
#1890=DIRECTION('',(0.998421713112782,-0.0561612213625942,0.));
#1891=DIRECTION('center_axis',(-6.02402814457563E-30,-4.20838110470755E-28,
1.));
#1892=DIRECTION('ref_axis',(-2.22044604925031E-16,1.,4.20838110470755E-28));
#1893=DIRECTION('',(-2.22044604925031E-16,1.,0.));
#1894=DIRECTION('',(1.,2.22044604925031E-16,0.));
#1895=DIRECTION('center_axis',(-9.32387719413353E-30,-6.68528143808279E-28,
1.));
#1896=DIRECTION('ref_axis',(-2.22044604925031E-16,1.,6.68528143808279E-28));
#1897=DIRECTION('',(1.,2.22044604925031E-16,0.));
#1898=DIRECTION('',(-2.22044604925031E-16,1.,0.));
#1899=DIRECTION('center_axis',(1.,2.22044604925031E-16,0.));
#1900=DIRECTION('ref_axis',(0.,0.,-1.));
#1901=DIRECTION('',(-1.38710165032846E-16,0.624695047554425,0.78086880944303));
#1902=DIRECTION('center_axis',(1.73387706291057E-16,-0.78086880944303,0.624695047554425));
#1903=DIRECTION('ref_axis',(-1.38710165032846E-16,0.624695047554425,0.78086880944303));
#1904=DIRECTION('center_axis',(-2.22044604925031E-16,1.,0.));
#1905=DIRECTION('ref_axis',(-1.,-2.22044604925031E-16,0.));
#1906=DIRECTION('',(0.,0.,1.));
#1907=DIRECTION('center_axis',(0.,0.,1.));
#1908=DIRECTION('ref_axis',(-2.22044604925031E-16,1.,0.));
#1909=DIRECTION('',(1.,2.22044604925031E-16,0.));
#1910=DIRECTION('',(2.22044604925031E-16,-1.,0.));
#1911=DIRECTION('',(-2.22044604925031E-16,1.,0.));
#1912=DIRECTION('center_axis',(-2.22044604925031E-16,1.,0.));
#1913=DIRECTION('ref_axis',(-1.,-2.22044604925031E-16,0.));
#1914=DIRECTION('',(0.,0.,1.));
#1915=DIRECTION('center_axis',(1.,2.22044604925031E-16,0.));
#1916=DIRECTION('ref_axis',(-2.22044604925031E-16,1.,0.));
#1917=DIRECTION('center_axis',(2.22044604925031E-16,-1.,0.));
#1918=DIRECTION('ref_axis',(1.,2.22044604925031E-16,0.));
#1919=DIRECTION('',(0.,0.,1.));
#1920=DIRECTION('center_axis',(-1.,-2.22044604925031E-16,0.));
#1921=DIRECTION('ref_axis',(2.22044604925031E-16,-1.,0.));
#1922=DIRECTION('center_axis',(1.21632679354432E-32,-6.41934736580893E-30,
1.));
#1923=DIRECTION('ref_axis',(-2.22044604925031E-16,1.,6.41934736580893E-30));
#1924=DIRECTION('',(0.707106781186548,0.707106781186547,0.));
#1925=DIRECTION('center_axis',(1.21632679354432E-32,-6.41934736580893E-30,
1.));
#1926=DIRECTION('ref_axis',(-2.22044604925031E-16,1.,6.41934736580893E-30));
#1927=DIRECTION('',(0.707106781186548,-0.707106781186547,0.));
#1928=DIRECTION('',(2.22044604925031E-16,-1.,0.));
#1929=DIRECTION('center_axis',(-0.707106781186547,-0.707106781186548,0.));
#1930=DIRECTION('ref_axis',(0.707106781186548,-0.707106781186547,0.));
#1931=DIRECTION('',(0.,0.,1.));
#1932=DIRECTION('center_axis',(-1.,-2.22044604925031E-16,0.));
#1933=DIRECTION('ref_axis',(2.22044604925031E-16,-1.,0.));
#1934=DIRECTION('',(0.,0.,1.));
#1935=DIRECTION('center_axis',(-0.707106781186547,0.707106781186548,0.));
#1936=DIRECTION('ref_axis',(-0.707106781186548,-0.707106781186547,0.));
#1937=DIRECTION('center_axis',(0.707106781186547,0.707106781186548,0.));
#1938=DIRECTION('ref_axis',(-0.707106781186548,0.707106781186547,0.));
#1939=DIRECTION('center_axis',(0.707106781186547,-0.707106781186548,0.));
#1940=DIRECTION('ref_axis',(0.707106781186548,0.707106781186547,0.));
#1941=CARTESIAN_POINT('',(0.,0.,0.));
#1942=CARTESIAN_POINT('Origin',(0.,16.,-4.5));
#1943=CARTESIAN_POINT('',(-1.05,16.,0.));
#1944=CARTESIAN_POINT('Origin',(0.,16.,0.));
#1945=CARTESIAN_POINT('',(-1.05,16.,-4.5));
#1946=CARTESIAN_POINT('',(-1.05,16.,-4.5));
#1947=CARTESIAN_POINT('Origin',(0.,16.,-4.5));
#1948=CARTESIAN_POINT('Origin',(0.,16.,-4.5));
#1949=CARTESIAN_POINT('Origin',(0.,-16.,-4.5));
#1950=CARTESIAN_POINT('',(-1.05,-16.,0.));
#1951=CARTESIAN_POINT('Origin',(0.,-16.,0.));
#1952=CARTESIAN_POINT('',(-1.05,-16.,-4.5));
#1953=CARTESIAN_POINT('',(-1.05,-16.,-4.5));
#1954=CARTESIAN_POINT('Origin',(0.,-16.,-4.5));
#1955=CARTESIAN_POINT('Origin',(0.,-16.,-4.5));
#1956=CARTESIAN_POINT('Origin',(10.5,20.,-2.1));
#1957=CARTESIAN_POINT('',(10.5,20.,-2.1));
#1958=CARTESIAN_POINT('',(8.3,20.,-2.1));
#1959=CARTESIAN_POINT('',(10.5,20.,-2.1));
#1960=CARTESIAN_POINT('',(8.3,20.,0.));
#1961=CARTESIAN_POINT('',(8.3,20.,-2.1));
#1962=CARTESIAN_POINT('',(10.5,20.,0.));
#1963=CARTESIAN_POINT('',(5.25,20.,0.));
#1964=CARTESIAN_POINT('',(10.5,20.,-2.1));
#1965=CARTESIAN_POINT('Origin',(10.5,-20.,-2.1));
#1966=CARTESIAN_POINT('',(10.5,-20.,-2.1));
#1967=CARTESIAN_POINT('',(10.5,-20.,-2.1));
#1968=CARTESIAN_POINT('',(10.5,-20.,0.));
#1969=CARTESIAN_POINT('',(10.5,-10.,0.));
#1970=CARTESIAN_POINT('',(10.5,-20.,-2.1));
#1971=CARTESIAN_POINT('Origin',(8.3,-20.,-2.1));
#1972=CARTESIAN_POINT('',(8.3,-20.,-2.1));
#1973=CARTESIAN_POINT('',(8.3,-20.,-2.1));
#1974=CARTESIAN_POINT('',(8.3,-20.,0.));
#1975=CARTESIAN_POINT('',(4.15,-20.,0.));
#1976=CARTESIAN_POINT('',(8.3,-20.,-2.1));
#1977=CARTESIAN_POINT('Origin',(8.3,20.,-2.1));
#1978=CARTESIAN_POINT('',(8.3,20.,-2.1));
#1979=CARTESIAN_POINT('',(8.3,10.,0.));
#1980=CARTESIAN_POINT('Origin',(9.4,0.,-2.1));
#1981=CARTESIAN_POINT('Origin',(-7.4,0.,0.));
#1982=CARTESIAN_POINT('',(-6.3,4.06939798987516,0.));
#1983=CARTESIAN_POINT('',(-6.3,-4.06939798987516,0.));
#1984=CARTESIAN_POINT('Origin',(0.,0.,0.));
#1985=CARTESIAN_POINT('',(-6.3,-20.,0.));
#1986=CARTESIAN_POINT('Origin',(-6.3,20.,-2.1));
#1987=CARTESIAN_POINT('',(-6.3,20.,-2.1));
#1988=CARTESIAN_POINT('',(-8.5,20.,-2.1));
#1989=CARTESIAN_POINT('',(-6.3,20.,-2.1));
#1990=CARTESIAN_POINT('',(-8.5,20.,0.));
#1991=CARTESIAN_POINT('',(-8.5,20.,-2.1));
#1992=CARTESIAN_POINT('',(-6.3,20.,0.));
#1993=CARTESIAN_POINT('',(-3.15,20.,0.));
#1994=CARTESIAN_POINT('',(-6.3,20.,-2.1));
#1995=CARTESIAN_POINT('Origin',(-6.3,-20.,-2.1));
#1996=CARTESIAN_POINT('',(-6.3,-20.,-2.1));
#1997=CARTESIAN_POINT('',(-6.3,-20.,-2.1));
#1998=CARTESIAN_POINT('',(-6.3,-10.,0.));
#1999=CARTESIAN_POINT('',(-6.3,-20.,0.));
#2000=CARTESIAN_POINT('',(-6.3,-10.,0.));
#2001=CARTESIAN_POINT('',(-6.3,-20.,-2.1));
#2002=CARTESIAN_POINT('Origin',(-8.5,-20.,-2.1));
#2003=CARTESIAN_POINT('',(-8.5,-20.,-2.1));
#2004=CARTESIAN_POINT('',(-8.5,-20.,-2.1));
#2005=CARTESIAN_POINT('',(-8.5,-20.,0.));
#2006=CARTESIAN_POINT('',(-4.25,-20.,0.));
#2007=CARTESIAN_POINT('',(-8.5,-20.,-2.1));
#2008=CARTESIAN_POINT('Origin',(-8.5,20.,-2.1));
#2009=CARTESIAN_POINT('',(-8.5,20.,-2.1));
#2010=CARTESIAN_POINT('',(-8.5,10.,0.));
#2011=CARTESIAN_POINT('Origin',(-7.4,0.,-2.1));
#2012=CARTESIAN_POINT('Origin',(0.,0.,0.));
#2013=CARTESIAN_POINT('',(7.8,28.,0.));
#2014=CARTESIAN_POINT('',(7.8,25.95,0.));
#2015=CARTESIAN_POINT('',(7.8,14.,0.));
#2016=CARTESIAN_POINT('',(11.4,25.95,0.));
#2017=CARTESIAN_POINT('',(3.9,25.95,0.));
#2018=CARTESIAN_POINT('',(11.4,28.,0.));
#2019=CARTESIAN_POINT('',(11.4,12.975,0.));
#2020=CARTESIAN_POINT('',(20.,28.,0.));
#2021=CARTESIAN_POINT('',(20.,28.,0.));
#2022=CARTESIAN_POINT('',(22.,26.,0.));
#2023=CARTESIAN_POINT('',(22.,26.,0.));
#2024=CARTESIAN_POINT('',(22.,-26.,0.));
#2025=CARTESIAN_POINT('',(22.,-26.,0.));
#2026=CARTESIAN_POINT('',(20.,-28.,0.));
#2027=CARTESIAN_POINT('',(20.,-28.,0.));
#2028=CARTESIAN_POINT('',(11.4,-28.,0.));
#2029=CARTESIAN_POINT('',(-20.,-28.,0.));
#2030=CARTESIAN_POINT('',(11.4,-21.95,0.));
#2031=CARTESIAN_POINT('',(11.4,-14.,0.));
#2032=CARTESIAN_POINT('',(7.8,-21.95,0.));
#2033=CARTESIAN_POINT('',(5.7,-21.95,0.));
#2034=CARTESIAN_POINT('',(7.8,-28.,0.));
#2035=CARTESIAN_POINT('',(7.8,-10.975,0.));
#2036=CARTESIAN_POINT('',(-20.,-28.,0.));
#2037=CARTESIAN_POINT('',(-20.,-28.,0.));
#2038=CARTESIAN_POINT('',(-22.,-26.,0.));
#2039=CARTESIAN_POINT('',(-22.,-26.,0.));
#2040=CARTESIAN_POINT('',(-22.,26.,0.));
#2041=CARTESIAN_POINT('',(-22.,26.,0.));
#2042=CARTESIAN_POINT('',(-20.,28.,0.));
#2043=CARTESIAN_POINT('',(-20.,28.,0.));
#2044=CARTESIAN_POINT('',(20.,28.,0.));
#2045=CARTESIAN_POINT('',(2.58381963629825E-15,-7.5,0.));
#2046=CARTESIAN_POINT('Origin',(0.,0.,0.));
#2047=CARTESIAN_POINT('Origin',(0.,0.,0.));
#2048=CARTESIAN_POINT('Origin',(7.8,28.,0.));
#2049=CARTESIAN_POINT('',(7.8,25.95,12.2));
#2050=CARTESIAN_POINT('',(7.8,28.,12.2));
#2051=CARTESIAN_POINT('',(7.8,25.0825,12.2));
#2052=CARTESIAN_POINT('',(7.8,25.95,0.));
#2053=CARTESIAN_POINT('',(7.8,28.,0.));
#2054=CARTESIAN_POINT('Origin',(11.4,25.95,0.));
#2055=CARTESIAN_POINT('',(11.4,28.,12.2));
#2056=CARTESIAN_POINT('',(11.4,25.95,12.2));
#2057=CARTESIAN_POINT('',(11.4,24.0575,12.2));
#2058=CARTESIAN_POINT('',(11.4,28.,0.));
#2059=CARTESIAN_POINT('',(11.4,25.95,0.));
#2060=CARTESIAN_POINT('Origin',(7.8,25.95,0.));
#2061=CARTESIAN_POINT('',(3.9,25.95,12.2));
#2062=CARTESIAN_POINT('Origin',(20.,28.,0.));
#2063=CARTESIAN_POINT('',(22.,28.,12.2));
#2064=CARTESIAN_POINT('',(22.,28.,12.2));
#2065=CARTESIAN_POINT('',(22.,28.,7.));
#2066=CARTESIAN_POINT('',(22.,28.,7.));
#2067=CARTESIAN_POINT('',(20.,28.,7.));
#2068=CARTESIAN_POINT('',(22.,28.,7.));
#2069=CARTESIAN_POINT('',(20.,28.,0.));
#2070=CARTESIAN_POINT('Origin',(20.,28.,0.));
#2071=CARTESIAN_POINT('',(-20.,28.,7.));
#2072=CARTESIAN_POINT('',(-20.,28.,0.));
#2073=CARTESIAN_POINT('',(-22.,28.,7.));
#2074=CARTESIAN_POINT('',(22.,28.,7.));
#2075=CARTESIAN_POINT('',(-22.,28.,12.2));
#2076=CARTESIAN_POINT('',(-22.,28.,7.));
#2077=CARTESIAN_POINT('',(22.,28.,12.2));
#2078=CARTESIAN_POINT('Origin',(7.8,-21.95,0.));
#2079=CARTESIAN_POINT('',(7.8,-23.4,6.7));
#2080=CARTESIAN_POINT('',(7.8,-21.95,6.7));
#2081=CARTESIAN_POINT('',(7.8,-22.45,6.7));
#2082=CARTESIAN_POINT('',(7.8,-23.4,12.2));
#2083=CARTESIAN_POINT('',(7.8,-23.4,3.35));
#2084=CARTESIAN_POINT('',(7.8,-28.,12.2));
#2085=CARTESIAN_POINT('',(7.8,0.1075,12.2));
#2086=CARTESIAN_POINT('',(7.8,-28.,0.));
#2087=CARTESIAN_POINT('',(7.8,-21.95,0.));
#2088=CARTESIAN_POINT('Origin',(11.4,-21.95,0.));
#2089=CARTESIAN_POINT('',(11.4,-21.95,6.7));
#2090=CARTESIAN_POINT('',(7.95,-21.95,6.7));
#2091=CARTESIAN_POINT('',(11.4,-21.95,0.));
#2092=CARTESIAN_POINT('Origin',(11.4,-21.95,0.));
#2093=CARTESIAN_POINT('',(7.8,-21.95,12.2));
#2094=CARTESIAN_POINT('',(11.4,-21.95,12.2));
#2095=CARTESIAN_POINT('',(5.7,-21.95,12.2));
#2096=CARTESIAN_POINT('',(7.8,-21.95,7.5));
#2097=CARTESIAN_POINT('',(7.8,-21.95,0.));
#2098=CARTESIAN_POINT('',(11.4,-21.95,7.5));
#2099=CARTESIAN_POINT('',(7.95,-21.95,7.5));
#2100=CARTESIAN_POINT('',(11.4,-21.95,0.));
#2101=CARTESIAN_POINT('Origin',(11.4,-28.,0.));
#2102=CARTESIAN_POINT('',(11.4,-23.4,6.7));
#2103=CARTESIAN_POINT('',(11.4,-25.475,6.7));
#2104=CARTESIAN_POINT('',(11.4,-28.,12.2));
#2105=CARTESIAN_POINT('',(11.4,-28.,0.));
#2106=CARTESIAN_POINT('',(11.4,-23.4,12.2));
#2107=CARTESIAN_POINT('',(11.4,-2.9175,12.2));
#2108=CARTESIAN_POINT('',(11.4,-23.4,3.35));
#2109=CARTESIAN_POINT('Origin',(11.4,-28.,0.));
#2110=CARTESIAN_POINT('',(11.4,-22.5,12.2));
#2111=CARTESIAN_POINT('',(11.4,-2.9175,12.2));
#2112=CARTESIAN_POINT('',(11.4,-22.5,7.5));
#2113=CARTESIAN_POINT('',(11.4,-23.375,7.5));
#2114=CARTESIAN_POINT('',(11.4,-22.5,3.35));
#2115=CARTESIAN_POINT('Origin',(7.8,-21.95,0.));
#2116=CARTESIAN_POINT('',(7.8,-22.5,12.2));
#2117=CARTESIAN_POINT('',(7.8,0.1075,12.2));
#2118=CARTESIAN_POINT('',(7.8,-22.5,7.5));
#2119=CARTESIAN_POINT('',(7.8,-22.5,3.35));
#2120=CARTESIAN_POINT('',(7.8,-20.35,7.5));
#2121=CARTESIAN_POINT('Origin',(22.,-22.5,6.7));
#2122=CARTESIAN_POINT('',(22.,-22.5,7.5));
#2123=CARTESIAN_POINT('',(13.25,-22.5,7.5));
#2124=CARTESIAN_POINT('',(22.,-22.5,12.2));
#2125=CARTESIAN_POINT('',(22.,-22.5,3.35));
#2126=CARTESIAN_POINT('',(11.,-22.5,12.2));
#2127=CARTESIAN_POINT('Origin',(4.50000000000001,-22.95,6.7));
#2128=CARTESIAN_POINT('',(22.,-23.4,6.7));
#2129=CARTESIAN_POINT('',(-13.,-23.4,6.7));
#2130=CARTESIAN_POINT('',(22.,-15.,6.7));
#2131=CARTESIAN_POINT('',(22.,-22.375,6.7));
#2132=CARTESIAN_POINT('',(-13.,-15.,6.7));
#2133=CARTESIAN_POINT('',(22.,-15.,6.7));
#2134=CARTESIAN_POINT('',(-13.,-23.4,6.7));
#2135=CARTESIAN_POINT('',(-13.,-22.5,6.7));
#2136=CARTESIAN_POINT('',(-13.,-23.4,6.7));
#2137=CARTESIAN_POINT('Origin',(-20.,-28.,0.));
#2138=CARTESIAN_POINT('',(20.,-28.,7.));
#2139=CARTESIAN_POINT('',(20.,-28.,0.));
#2140=CARTESIAN_POINT('',(22.,-28.,7.));
#2141=CARTESIAN_POINT('',(-22.,-28.,7.));
#2142=CARTESIAN_POINT('',(22.,-28.,12.2));
#2143=CARTESIAN_POINT('',(22.,-28.,7.));
#2144=CARTESIAN_POINT('',(-22.,-28.,12.2));
#2145=CARTESIAN_POINT('Origin',(-20.,-28.,0.));
#2146=CARTESIAN_POINT('',(-22.,-28.,12.2));
#2147=CARTESIAN_POINT('',(-22.,-28.,12.2));
#2148=CARTESIAN_POINT('',(-22.,-28.,7.));
#2149=CARTESIAN_POINT('',(-22.,-28.,7.));
#2150=CARTESIAN_POINT('',(-20.,-28.,7.));
#2151=CARTESIAN_POINT('',(-22.,-28.,7.));
#2152=CARTESIAN_POINT('',(-20.,-28.,0.));
#2153=CARTESIAN_POINT('Origin',(-13.,-23.4,6.7));
#2154=CARTESIAN_POINT('',(22.,-23.4,12.2));
#2155=CARTESIAN_POINT('',(-6.49999999999999,-23.4,12.2));
#2156=CARTESIAN_POINT('',(22.,-23.4,3.35));
#2157=CARTESIAN_POINT('Origin',(-4.92161866816332E-15,22.165,12.2));
#2158=CARTESIAN_POINT('',(22.,-28.,12.2));
#2159=CARTESIAN_POINT('Origin',(-4.92161866816332E-15,22.165,12.2));
#2160=CARTESIAN_POINT('',(-22.,28.,12.2));
#2161=CARTESIAN_POINT('',(-13.,-23.4,12.2));
#2162=CARTESIAN_POINT('',(-6.49999999999999,-23.4,12.2));
#2163=CARTESIAN_POINT('',(-13.,-22.5,12.2));
#2164=CARTESIAN_POINT('',(-13.,-22.3325,12.2));
#2165=CARTESIAN_POINT('',(11.,-22.5,12.2));
#2166=CARTESIAN_POINT('',(22.,-16.33,12.2));
#2167=CARTESIAN_POINT('',(22.,-28.,12.2));
#2168=CARTESIAN_POINT('',(-19.4,-16.33,12.2));
#2169=CARTESIAN_POINT('',(22.,-16.33,12.2));
#2170=CARTESIAN_POINT('',(-19.4,16.33,12.2));
#2171=CARTESIAN_POINT('',(-19.4,-16.5,12.2));
#2172=CARTESIAN_POINT('',(22.,16.33,12.2));
#2173=CARTESIAN_POINT('',(-22.,16.33,12.2));
#2174=CARTESIAN_POINT('',(22.,22.5,12.2));
#2175=CARTESIAN_POINT('',(22.,16.33,12.2));
#2176=CARTESIAN_POINT('',(-13.,22.5,12.2));
#2177=CARTESIAN_POINT('',(-6.5,22.5,12.2));
#2178=CARTESIAN_POINT('',(-13.,23.4,12.2));
#2179=CARTESIAN_POINT('',(-13.,22.7825,12.2));
#2180=CARTESIAN_POINT('',(22.,23.4,12.2));
#2181=CARTESIAN_POINT('',(11.,23.4,12.2));
#2182=CARTESIAN_POINT('',(22.,16.33,12.2));
#2183=CARTESIAN_POINT('Origin',(0.,0.,0.));
#2184=CARTESIAN_POINT('',(2.58381963629825E-15,-7.5,7.));
#2185=CARTESIAN_POINT('',(2.58381963629825E-15,-7.5,0.));
#2186=CARTESIAN_POINT('Origin',(0.,0.,7.));
#2187=CARTESIAN_POINT('Origin',(-19.4,16.5,7.));
#2188=CARTESIAN_POINT('',(-19.4,16.5,11.9875));
#2189=CARTESIAN_POINT('',(-22.,16.5,11.9875));
#2190=CARTESIAN_POINT('',(-20.7,16.5,11.9875));
#2191=CARTESIAN_POINT('',(-19.4,16.5,7.));
#2192=CARTESIAN_POINT('',(-19.4,16.5,7.));
#2193=CARTESIAN_POINT('',(-22.,16.5,7.));
#2194=CARTESIAN_POINT('',(-9.7,16.5,7.));
#2195=CARTESIAN_POINT('',(-22.,16.5,7.));
#2196=CARTESIAN_POINT('Origin',(-19.4,-16.5,7.));
#2197=CARTESIAN_POINT('',(-19.4,13.2724390243902,16.0219512195122));
#2198=CARTESIAN_POINT('',(-19.4,-16.5,11.9875));
#2199=CARTESIAN_POINT('',(-19.4,-19.7114634146341,7.97317073170732));
#2200=CARTESIAN_POINT('',(-19.4,-16.5,7.));
#2201=CARTESIAN_POINT('',(-19.4,-16.5,7.));
#2202=CARTESIAN_POINT('',(-19.4,-8.25,7.));
#2203=CARTESIAN_POINT('Origin',(-22.,-16.5,7.));
#2204=CARTESIAN_POINT('',(-22.,-16.5,11.9875));
#2205=CARTESIAN_POINT('',(3.66373598126302E-15,-16.5,11.9875));
#2206=CARTESIAN_POINT('',(-22.,-16.5,7.));
#2207=CARTESIAN_POINT('',(-22.,-16.5,7.));
#2208=CARTESIAN_POINT('',(-11.,-16.5,7.));
#2209=CARTESIAN_POINT('Origin',(-22.,20.49,7.));
#2210=CARTESIAN_POINT('',(-22.,20.49,7.));
#2211=CARTESIAN_POINT('',(-22.,20.49,7.));
#2212=CARTESIAN_POINT('',(-13.,20.49,7.));
#2213=CARTESIAN_POINT('',(-11.,20.49,7.));
#2214=CARTESIAN_POINT('',(-13.,20.09,7.5));
#2215=CARTESIAN_POINT('',(-13.,20.9553658536585,6.41829268292683));
#2216=CARTESIAN_POINT('',(22.,20.09,7.5));
#2217=CARTESIAN_POINT('',(-8.75,20.09,7.5));
#2218=CARTESIAN_POINT('',(22.,20.49,7.));
#2219=CARTESIAN_POINT('',(4.22222222222219,20.01,7.6));
#2220=CARTESIAN_POINT('',(-11.,20.01,7.6));
#2221=CARTESIAN_POINT('',(-12.3043537822677,20.01,7.6));
#2222=CARTESIAN_POINT('',(-11.,16.65,11.8));
#2223=CARTESIAN_POINT('',(-11.,20.2890243902439,7.25121951219512));
#2224=CARTESIAN_POINT('',(4.22222222222216,16.65,11.8));
#2225=CARTESIAN_POINT('',(-12.3043537822677,16.65,11.8));
#2226=CARTESIAN_POINT('',(4.22222222222223,20.1817073170731,7.38536585365868));
#2227=CARTESIAN_POINT('Origin',(0.,0.,7.));
#2228=CARTESIAN_POINT('',(-22.,-20.49,7.));
#2229=CARTESIAN_POINT('',(-22.,26.,7.));
#2230=CARTESIAN_POINT('',(-13.,-20.49,7.));
#2231=CARTESIAN_POINT('',(11.,-20.49,7.));
#2232=CARTESIAN_POINT('',(-13.,-15.,7.));
#2233=CARTESIAN_POINT('',(-13.,-7.5,7.));
#2234=CARTESIAN_POINT('',(22.,-15.,7.));
#2235=CARTESIAN_POINT('',(11.,-15.,7.));
#2236=CARTESIAN_POINT('',(22.,15.,7.));
#2237=CARTESIAN_POINT('',(22.,-26.,7.));
#2238=CARTESIAN_POINT('',(-13.,15.,7.));
#2239=CARTESIAN_POINT('',(-6.5,15.,7.));
#2240=CARTESIAN_POINT('',(-13.,11.25,7.));
#2241=CARTESIAN_POINT('',(-22.,26.,7.));
#2242=CARTESIAN_POINT('Origin',(22.,-20.49,7.));
#2243=CARTESIAN_POINT('',(22.,-20.09,7.5));
#2244=CARTESIAN_POINT('',(22.,-20.49,7.));
#2245=CARTESIAN_POINT('',(-13.,-20.09,7.5));
#2246=CARTESIAN_POINT('',(13.25,-20.09,7.5));
#2247=CARTESIAN_POINT('',(-13.,-19.4919512195122,8.24756097560976));
#2248=CARTESIAN_POINT('',(-22.,-20.49,7.));
#2249=CARTESIAN_POINT('',(-11.,-20.01,7.6));
#2250=CARTESIAN_POINT('',(4.2222222222222,-20.01,7.6));
#2251=CARTESIAN_POINT('',(9.6956462177323,-20.01,7.6));
#2252=CARTESIAN_POINT('',(4.22222222222217,-16.65,11.8));
#2253=CARTESIAN_POINT('',(4.22222222222222,-20.1817073170732,7.38536585365849));
#2254=CARTESIAN_POINT('',(-11.,-16.65,11.8));
#2255=CARTESIAN_POINT('',(9.6956462177323,-16.65,11.8));
#2256=CARTESIAN_POINT('',(-11.,-20.2890243902439,7.25121951219512));
#2257=CARTESIAN_POINT('Origin',(-11.,20.21,7.6));
#2258=CARTESIAN_POINT('',(-11.,19.66,7.6));
#2259=CARTESIAN_POINT('',(-11.,20.21,7.6));
#2260=CARTESIAN_POINT('',(-11.,16.3,11.8));
#2261=CARTESIAN_POINT('',(-11.,19.66,7.6));
#2262=CARTESIAN_POINT('',(-11.,16.85,11.8));
#2263=CARTESIAN_POINT('Origin',(-2.60870756453541,19.9875599711545,7.6));
#2264=CARTESIAN_POINT('',(-2.,19.66,7.6));
#2265=CARTESIAN_POINT('',(-2.,19.66,7.6));
#2266=CARTESIAN_POINT('',(-11.,19.66,7.6));
#2267=CARTESIAN_POINT('Origin',(-2.60870756453541,16.6275599711545,11.8));
#2268=CARTESIAN_POINT('',(-2.,16.3,11.8));
#2269=CARTESIAN_POINT('',(-11.,16.3,11.8));
#2270=CARTESIAN_POINT('',(-2.,16.3,11.8));
#2271=CARTESIAN_POINT('Origin',(-11.,19.66,7.6));
#2272=CARTESIAN_POINT('',(-2.,19.66,7.6));
#2273=CARTESIAN_POINT('Origin',(-2.,19.66,7.6));
#2274=CARTESIAN_POINT('Origin',(4.5,18.75,7.5));
#2275=CARTESIAN_POINT('',(-13.,22.5,7.5));
#2276=CARTESIAN_POINT('',(-13.,22.5,7.5));
#2277=CARTESIAN_POINT('',(22.,22.5,7.5));
#2278=CARTESIAN_POINT('',(-4.25,22.5,7.5));
#2279=CARTESIAN_POINT('',(22.,-3.625,7.5));
#2280=CARTESIAN_POINT('Origin',(-13.,15.,6.7));
#2281=CARTESIAN_POINT('',(22.,15.,6.7));
#2282=CARTESIAN_POINT('',(22.,15.,3.35));
#2283=CARTESIAN_POINT('',(-13.,15.,6.7));
#2284=CARTESIAN_POINT('',(-13.,15.,6.7));
#2285=CARTESIAN_POINT('',(-13.,15.,6.7));
#2286=CARTESIAN_POINT('Origin',(22.,-26.,0.));
#2287=CARTESIAN_POINT('',(22.,22.5,3.35));
#2288=CARTESIAN_POINT('Origin',(22.,-26.,0.));
#2289=CARTESIAN_POINT('',(22.,23.4,6.7));
#2290=CARTESIAN_POINT('',(22.,-3.625,6.7));
#2291=CARTESIAN_POINT('',(22.,-15.,3.35));
#2292=CARTESIAN_POINT('',(22.,-26.,7.));
#2293=CARTESIAN_POINT('',(22.,-28.,7.));
#2294=CARTESIAN_POINT('',(22.,-26.,0.));
#2295=CARTESIAN_POINT('',(22.,26.,7.));
#2296=CARTESIAN_POINT('',(22.,26.,0.));
#2297=CARTESIAN_POINT('',(22.,20.49,7.));
#2298=CARTESIAN_POINT('',(22.,23.4,3.35));
#2299=CARTESIAN_POINT('Origin',(-13.,22.5,6.7));
#2300=CARTESIAN_POINT('',(-13.,22.5,6.7));
#2301=CARTESIAN_POINT('Origin',(-13.,23.4,6.7));
#2302=CARTESIAN_POINT('',(-13.,23.4,6.7));
#2303=CARTESIAN_POINT('',(-13.,22.5,6.7));
#2304=CARTESIAN_POINT('',(-13.,23.4,6.7));
#2305=CARTESIAN_POINT('Origin',(22.,23.4,6.7));
#2306=CARTESIAN_POINT('',(22.,23.4,6.7));
#2307=CARTESIAN_POINT('Origin',(4.5,22.95,6.7));
#2308=CARTESIAN_POINT('Origin',(-5.38347144640738E-15,24.245,7.));
#2309=CARTESIAN_POINT('',(-22.,26.,7.));
#2310=CARTESIAN_POINT('',(-20.,28.,7.));
#2311=CARTESIAN_POINT('',(-22.,28.,7.));
#2312=CARTESIAN_POINT('Origin',(-5.38347144640738E-15,24.245,7.));
#2313=CARTESIAN_POINT('',(22.,26.,7.));
#2314=CARTESIAN_POINT('Origin',(-2.,-19.66,7.6));
#2315=CARTESIAN_POINT('',(-2.,-19.66,7.6));
#2316=CARTESIAN_POINT('',(-2.,-19.66,7.6));
#2317=CARTESIAN_POINT('',(-2.,-16.3,11.8));
#2318=CARTESIAN_POINT('',(-2.,-19.66,7.6));
#2319=CARTESIAN_POINT('',(-2.,-16.3,11.8));
#2320=CARTESIAN_POINT('Origin',(-2.6087075645354,-19.9875599711545,7.6));
#2321=CARTESIAN_POINT('',(-11.,-19.66,7.6));
#2322=CARTESIAN_POINT('',(-11.,-20.21,7.6));
#2323=CARTESIAN_POINT('',(-11.,-19.66,7.6));
#2324=CARTESIAN_POINT('Origin',(-2.6087075645354,-16.6275599711545,11.8));
#2325=CARTESIAN_POINT('',(-11.,-16.3,11.8));
#2326=CARTESIAN_POINT('',(-11.,-16.3,11.8));
#2327=CARTESIAN_POINT('',(-11.,-16.85,11.8));
#2328=CARTESIAN_POINT('Origin',(-11.,-20.21,7.6));
#2329=CARTESIAN_POINT('',(-11.,-19.66,7.6));
#2330=CARTESIAN_POINT('Origin',(-11.,-19.66,7.6));
#2331=CARTESIAN_POINT('Origin',(22.,-15.,6.7));
#2332=CARTESIAN_POINT('',(-13.,-15.,6.7));
#2333=CARTESIAN_POINT('Origin',(4.50000000000001,-18.75,7.5));
#2334=CARTESIAN_POINT('',(-13.,-22.5,7.5));
#2335=CARTESIAN_POINT('',(13.25,-22.5,7.5));
#2336=CARTESIAN_POINT('',(-13.,-15.,7.5));
#2337=CARTESIAN_POINT('',(22.,-22.375,7.5));
#2338=CARTESIAN_POINT('Origin',(22.,-22.5,6.7));
#2339=CARTESIAN_POINT('',(-13.,-22.5,6.7));
#2340=CARTESIAN_POINT('Origin',(22.,-26.,0.));
#2341=CARTESIAN_POINT('Origin',(-13.,-23.4,6.7));
#2342=CARTESIAN_POINT('',(-13.,-23.4,6.7));
#2343=CARTESIAN_POINT('Origin',(-13.,-22.5,6.7));
#2344=CARTESIAN_POINT('Origin',(5.38347144640738E-15,-24.245,7.));
#2345=CARTESIAN_POINT('',(20.,-28.,7.));
#2346=CARTESIAN_POINT('Origin',(5.38347144640738E-15,-24.245,7.));
#2347=CARTESIAN_POINT('',(-22.,-26.,7.));
#2348=CARTESIAN_POINT('',(-22.,-26.,7.));
#2349=CARTESIAN_POINT('',(-22.,-20.49,7.));
#2350=CARTESIAN_POINT('Origin',(-22.,-26.,0.));
#2351=CARTESIAN_POINT('',(-22.,-26.,0.));
#2352=CARTESIAN_POINT('Origin',(-22.,26.,0.));
#2353=CARTESIAN_POINT('',(-22.,26.,0.));
#2354=CARTESIAN_POINT('Origin',(-20.,28.,0.));
#2355=CARTESIAN_POINT('Origin',(22.,26.,0.));
#2356=CARTESIAN_POINT('Origin',(20.,-28.,0.));
#2357=UNCERTAINTY_MEASURE_WITH_UNIT(LENGTH_MEASURE(0.01),#2361,
'DISTANCE_ACCURACY_VALUE',
'Maximum model space distance between geometric entities at asserted c
onnectivities');
#2358=UNCERTAINTY_MEASURE_WITH_UNIT(LENGTH_MEASURE(0.01),#2361,
'DISTANCE_ACCURACY_VALUE',
'Maximum model space distance between geometric entities at asserted c
onnectivities');
#2359=(
GEOMETRIC_REPRESENTATION_CONTEXT(3)
GLOBAL_UNCERTAINTY_ASSIGNED_CONTEXT((#2357))
GLOBAL_UNIT_ASSIGNED_CONTEXT((#2361,#2363,#2364))
REPRESENTATION_CONTEXT('','3D')
);
#2360=(
GEOMETRIC_REPRESENTATION_CONTEXT(3)
GLOBAL_UNCERTAINTY_ASSIGNED_CONTEXT((#2358))
GLOBAL_UNIT_ASSIGNED_CONTEXT((#2361,#2363,#2364))
REPRESENTATION_CONTEXT('','3D')
);
#2361=(
LENGTH_UNIT()
NAMED_UNIT(*)
SI_UNIT(.MILLI.,.METRE.)
);
#2362=(
LENGTH_UNIT()
NAMED_UNIT(*)
SI_UNIT($,.METRE.)
);
#2363=(
NAMED_UNIT(*)
PLANE_ANGLE_UNIT()
SI_UNIT($,.RADIAN.)
);
#2364=(
NAMED_UNIT(*)
SI_UNIT($,.STERADIAN.)
SOLID_ANGLE_UNIT()
);
#2365=SHAPE_DEFINITION_REPRESENTATION(#2366,#2367);
#2366=PRODUCT_DEFINITION_SHAPE('',$,#2369);
#2367=SHAPE_REPRESENTATION('',(#1495),#2359);
#2368=PRODUCT_DEFINITION_CONTEXT('part definition',#2373,'design');
#2369=PRODUCT_DEFINITION('2026-10-03-13-24-05-291',
'Receiver_heat_stake_v2',#2370,#2368);
#2370=PRODUCT_DEFINITION_FORMATION('',$,#2375);
#2371=PRODUCT_RELATED_PRODUCT_CATEGORY('Receiver_heat_stake_v2',
'Receiver_heat_stake_v2',(#2375));
#2372=APPLICATION_PROTOCOL_DEFINITION('international standard',
'automotive_design',2009,#2373);
#2373=APPLICATION_CONTEXT(
'Core Data for Automotive Mechanical Design Process');
#2374=PRODUCT_CONTEXT('part definition',#2373,'mechanical');
#2375=PRODUCT('2026-10-03-13-24-05-291','Receiver_heat_stake_v2',$,(#2374));
#2376=PRESENTATION_STYLE_ASSIGNMENT((#2378));
#2377=PRESENTATION_STYLE_ASSIGNMENT((#2379));
#2378=SURFACE_STYLE_USAGE(.BOTH.,#2380);
#2379=SURFACE_STYLE_USAGE(.BOTH.,#2381);
#2380=SURFACE_SIDE_STYLE('',(#2382));
#2381=SURFACE_SIDE_STYLE('',(#2383));
#2382=SURFACE_STYLE_FILL_AREA(#2384);
#2383=SURFACE_STYLE_FILL_AREA(#2385);
#2384=FILL_AREA_STYLE('\X2\94A2\X0\ - \X2\7F0E5149\X0\',(#2386));
#2385=FILL_AREA_STYLE('Receiver_heat_stake_v2 color',(#2387));
#2386=FILL_AREA_STYLE_COLOUR('\X2\94A2\X0\ - \X2\7F0E5149\X0\',#2388);
#2387=FILL_AREA_STYLE_COLOUR('Receiver_heat_stake_v2 color',#2389);
#2388=COLOUR_RGB('\X2\94A2\X0\ - \X2\7F0E5149\X0\',0.627450980392157,0.627450980392157,
0.627450980392157);
#2389=COLOUR_RGB('Receiver_heat_stake_v2 color',0.196078431372549,0.352941176470588,
0.450980392156863);
ENDSEC;
END-ISO-10303-21;
