ISO-10303-21;
HEADER;
/* Generated by software containing ST-Developer
 * from STEP Tools, Inc. (www.steptools.com) 
 */

FILE_DESCRIPTION(
/* description */ ('This file contains a STEP AP42 implementation'),
/* implementation_level */ '2;1');

FILE_NAME(
/* name */ '',
/* time_stamp */ '2026-10-03T12:42:08+08:00',
/* author */ (''),
/* organization */ (''),
/* preprocessor_version */ 'ST-DEVELOPER v20.2',
/* originating_system */ 'Autodesk Translation Framework v15.15.0.0',
/* authorisation */ '');

FILE_SCHEMA (('AUTOMOTIVE_DESIGN { 1 0 10303 214 3 1 1 }'));
ENDSEC;

DATA;
#10=MECHANICAL_DESIGN_GEOMETRIC_PRESENTATION_REPRESENTATION('',(#993,#994,
#995,#996,#997,#998,#999,#1000,#1001,#1002,#1003,#1004,#1005,#1006,#1007,
#1008,#1009,#1010,#1011,#1012,#1013,#1014,#1015,#1016,#1017,#1018,#1019,
#1020,#1021,#1022,#1023,#1024,#1025,#1026,#1027,#1028,#1029,#1030,#1031,
#1032,#1033,#1034,#1035,#1036,#1037,#1038,#1039,#1040,#1041,#1042,#1043,
#1044,#1045,#1046,#1047,#1048),#1891);
#11=ITEM_DEFINED_TRANSFORMATION($,$,#1118,#1238);
#12=(
REPRESENTATION_RELATIONSHIP($,$,#1902,#1901)
REPRESENTATION_RELATIONSHIP_WITH_TRANSFORMATION(#11)
SHAPE_REPRESENTATION_RELATIONSHIP()
);
#13=CONTEXT_DEPENDENT_SHAPE_REPRESENTATION(#12,#1900);
#14=NEXT_ASSEMBLY_USAGE_OCCURRENCE('(\X\D6\X\A7\X\BC\X\DC1\X\A3\X\A93D
:1','(\X\D6\X\A7\X\BC\X\DC1\X\A3\X\A93D:1','(\X\D6\X\A7\X\BC\X\DC1\X\A3
\X\A93D:1',#1904,#1905,'(\X\D6\X\A7\X\BC\X\DC1\X\A3\X\A93D:1');
#15=SHAPE_REPRESENTATION_RELATIONSHIP('SRR','None',#1902,#16);
#16=ADVANCED_BREP_SHAPE_REPRESENTATION('',(#17),#1890);
#17=MANIFOLD_SOLID_BREP('\X2\5B9E4F53\X0\1',#1104);
#18=B_SPLINE_CURVE_WITH_KNOTS('',3,(#1835,#1836,#1837,#1838,#1839,#1840),
 .UNSPECIFIED.,.F.,.F.,(4,2,4),(1.79893040623127,1.85044081518282,1.90195122297952),
 .UNSPECIFIED.);
#19=B_SPLINE_CURVE_WITH_KNOTS('',3,(#1844,#1845,#1846,#1847,#1848,#1849),
 .UNSPECIFIED.,.F.,.F.,(4,2,4),(1.76637763846554,1.86024080723211,1.95410397595639),
 .UNSPECIFIED.);
#20=CONICAL_SURFACE('',#1184,1.,0.78539816339745);
#21=CONICAL_SURFACE('',#1187,1.,0.78539816339745);
#22=CONICAL_SURFACE('',#1190,1.,0.78539816339745);
#23=CONICAL_SURFACE('',#1215,1.,0.78539816339745);
#24=CONICAL_SURFACE('',#1229,1.,0.78539816339745);
#25=CONICAL_SURFACE('',#1231,1.,0.78539816339745);
#26=CONICAL_SURFACE('',#1233,1.,0.78539816339745);
#27=(
BOUNDED_SURFACE()
B_SPLINE_SURFACE(2,1,((#1736,#1737),(#1738,#1739),(#1740,#1741),(#1742,
#1743),(#1744,#1745),(#1746,#1747),(#1748,#1749)),.UNSPECIFIED.,.F.,.F.,
 .F.)
B_SPLINE_SURFACE_WITH_KNOTS((3,2,2,3),(2,2),(-1.1316626073624,0.,0.125,
0.25000005514984),(0.,2.556),.UNSPECIFIED.)
GEOMETRIC_REPRESENTATION_ITEM()
RATIONAL_B_SPLINE_SURFACE(((0.85355339059327,0.85355339059327),(0.85355339059327,
0.85355339059327),(0.85355339059327,0.85355339059327),(0.85355339059327,
0.85355339059327),(1.,1.),(0.85355332598121,0.85355332598121),(0.8535533905933,
0.8535533905933)))
REPRESENTATION_ITEM('')
SURFACE()
);
#28=FACE_BOUND('',#140,.T.);
#29=FACE_BOUND('',#154,.T.);
#30=FACE_BOUND('',#155,.T.);
#31=FACE_BOUND('',#157,.T.);
#32=FACE_BOUND('',#158,.T.);
#33=FACE_BOUND('',#165,.T.);
#34=FACE_BOUND('',#167,.T.);
#35=FACE_BOUND('',#168,.T.);
#36=FACE_BOUND('',#171,.T.);
#37=FACE_BOUND('',#172,.T.);
#38=FACE_BOUND('',#189,.T.);
#39=FACE_BOUND('',#190,.T.);
#40=FACE_BOUND('',#191,.T.);
#41=FACE_BOUND('',#192,.T.);
#42=FACE_BOUND('',#193,.T.);
#43=FACE_BOUND('',#195,.T.);
#44=FACE_BOUND('',#196,.T.);
#45=FACE_BOUND('',#197,.T.);
#46=FACE_BOUND('',#198,.T.);
#47=FACE_BOUND('',#199,.T.);
#48=FACE_BOUND('',#200,.T.);
#49=FACE_BOUND('',#201,.T.);
#50=CYLINDRICAL_SURFACE('',#1122,1.1);
#51=CYLINDRICAL_SURFACE('',#1125,1.6);
#52=CYLINDRICAL_SURFACE('',#1133,3.);
#53=CYLINDRICAL_SURFACE('',#1136,3.);
#54=CYLINDRICAL_SURFACE('',#1150,3.);
#55=CYLINDRICAL_SURFACE('',#1159,3.0000000000002);
#56=CYLINDRICAL_SURFACE('',#1162,3.);
#57=CYLINDRICAL_SURFACE('',#1166,1.6);
#58=CYLINDRICAL_SURFACE('',#1169,1.1);
#59=CYLINDRICAL_SURFACE('',#1174,0.99999999999999);
#60=CYLINDRICAL_SURFACE('',#1175,1.);
#61=CYLINDRICAL_SURFACE('',#1176,3.);
#62=CYLINDRICAL_SURFACE('',#1177,3.0000000000002);
#63=CYLINDRICAL_SURFACE('',#1182,3.);
#64=CYLINDRICAL_SURFACE('',#1193,1.35);
#65=CYLINDRICAL_SURFACE('',#1195,1.35);
#66=CYLINDRICAL_SURFACE('',#1197,1.35);
#67=CYLINDRICAL_SURFACE('',#1199,1.35);
#68=CYLINDRICAL_SURFACE('',#1203,1.2);
#69=CYLINDRICAL_SURFACE('',#1205,1.2);
#70=CYLINDRICAL_SURFACE('',#1206,17.4);
#71=CYLINDRICAL_SURFACE('',#1209,2.9999999999998);
#72=CYLINDRICAL_SURFACE('',#1212,3.);
#73=CYLINDRICAL_SURFACE('',#1235,1.6);
#74=CYLINDRICAL_SURFACE('',#1236,1.6);
#75=CYLINDRICAL_SURFACE('',#1237,1.6);
#76=FACE_OUTER_BOUND('',#131,.T.);
#77=FACE_OUTER_BOUND('',#132,.T.);
#78=FACE_OUTER_BOUND('',#133,.T.);
#79=FACE_OUTER_BOUND('',#134,.T.);
#80=FACE_OUTER_BOUND('',#135,.T.);
#81=FACE_OUTER_BOUND('',#136,.T.);
#82=FACE_OUTER_BOUND('',#137,.T.);
#83=FACE_OUTER_BOUND('',#138,.T.);
#84=FACE_OUTER_BOUND('',#139,.T.);
#85=FACE_OUTER_BOUND('',#141,.T.);
#86=FACE_OUTER_BOUND('',#142,.T.);
#87=FACE_OUTER_BOUND('',#143,.T.);
#88=FACE_OUTER_BOUND('',#144,.T.);
#89=FACE_OUTER_BOUND('',#145,.T.);
#90=FACE_OUTER_BOUND('',#146,.T.);
#91=FACE_OUTER_BOUND('',#147,.T.);
#92=FACE_OUTER_BOUND('',#148,.T.);
#93=FACE_OUTER_BOUND('',#149,.T.);
#94=FACE_OUTER_BOUND('',#150,.T.);
#95=FACE_OUTER_BOUND('',#151,.T.);
#96=FACE_OUTER_BOUND('',#152,.T.);
#97=FACE_OUTER_BOUND('',#153,.T.);
#98=FACE_OUTER_BOUND('',#156,.T.);
#99=FACE_OUTER_BOUND('',#159,.T.);
#100=FACE_OUTER_BOUND('',#160,.T.);
#101=FACE_OUTER_BOUND('',#161,.T.);
#102=FACE_OUTER_BOUND('',#162,.T.);
#103=FACE_OUTER_BOUND('',#163,.T.);
#104=FACE_OUTER_BOUND('',#164,.T.);
#105=FACE_OUTER_BOUND('',#166,.T.);
#106=FACE_OUTER_BOUND('',#169,.T.);
#107=FACE_OUTER_BOUND('',#170,.T.);
#108=FACE_OUTER_BOUND('',#173,.T.);
#109=FACE_OUTER_BOUND('',#174,.T.);
#110=FACE_OUTER_BOUND('',#175,.T.);
#111=FACE_OUTER_BOUND('',#176,.T.);
#112=FACE_OUTER_BOUND('',#177,.T.);
#113=FACE_OUTER_BOUND('',#178,.T.);
#114=FACE_OUTER_BOUND('',#179,.T.);
#115=FACE_OUTER_BOUND('',#180,.T.);
#116=FACE_OUTER_BOUND('',#181,.T.);
#117=FACE_OUTER_BOUND('',#182,.T.);
#118=FACE_OUTER_BOUND('',#183,.T.);
#119=FACE_OUTER_BOUND('',#184,.T.);
#120=FACE_OUTER_BOUND('',#185,.T.);
#121=FACE_OUTER_BOUND('',#186,.T.);
#122=FACE_OUTER_BOUND('',#187,.T.);
#123=FACE_OUTER_BOUND('',#188,.T.);
#124=FACE_OUTER_BOUND('',#194,.T.);
#125=FACE_OUTER_BOUND('',#202,.T.);
#126=FACE_OUTER_BOUND('',#203,.T.);
#127=FACE_OUTER_BOUND('',#204,.T.);
#128=FACE_OUTER_BOUND('',#205,.T.);
#129=FACE_OUTER_BOUND('',#206,.T.);
#130=FACE_OUTER_BOUND('',#207,.T.);
#131=EDGE_LOOP('',(#676,#677,#678,#679));
#132=EDGE_LOOP('',(#680,#681,#682,#683));
#133=EDGE_LOOP('',(#684,#685,#686,#687));
#134=EDGE_LOOP('',(#688,#689,#690,#691,#692,#693));
#135=EDGE_LOOP('',(#694,#695,#696,#697));
#136=EDGE_LOOP('',(#698,#699,#700,#701));
#137=EDGE_LOOP('',(#702,#703,#704,#705));
#138=EDGE_LOOP('',(#706,#707,#708,#709));
#139=EDGE_LOOP('',(#710,#711,#712,#713,#714,#715,#716,#717));
#140=EDGE_LOOP('',(#718,#719,#720,#721));
#141=EDGE_LOOP('',(#722,#723,#724,#725,#726,#727,#728,#729));
#142=EDGE_LOOP('',(#730,#731,#732,#733));
#143=EDGE_LOOP('',(#734,#735,#736,#737,#738,#739));
#144=EDGE_LOOP('',(#740,#741,#742,#743));
#145=EDGE_LOOP('',(#744,#745,#746,#747,#748,#749,#750,#751));
#146=EDGE_LOOP('',(#752,#753,#754,#755,#756,#757));
#147=EDGE_LOOP('',(#758,#759,#760,#761));
#148=EDGE_LOOP('',(#762,#763,#764,#765));
#149=EDGE_LOOP('',(#766,#767,#768,#769));
#150=EDGE_LOOP('',(#770,#771,#772,#773));
#151=EDGE_LOOP('',(#774,#775,#776,#777));
#152=EDGE_LOOP('',(#778,#779,#780,#781));
#153=EDGE_LOOP('',(#782,#783,#784,#785,#786,#787));
#154=EDGE_LOOP('',(#788));
#155=EDGE_LOOP('',(#789));
#156=EDGE_LOOP('',(#790,#791,#792,#793,#794,#795));
#157=EDGE_LOOP('',(#796));
#158=EDGE_LOOP('',(#797));
#159=EDGE_LOOP('',(#798,#799,#800,#801));
#160=EDGE_LOOP('',(#802,#803,#804,#805));
#161=EDGE_LOOP('',(#806,#807,#808,#809));
#162=EDGE_LOOP('',(#810,#811,#812,#813));
#163=EDGE_LOOP('',(#814,#815,#816,#817));
#164=EDGE_LOOP('',(#818,#819,#820,#821,#822,#823,#824,#825));
#165=EDGE_LOOP('',(#826,#827,#828,#829));
#166=EDGE_LOOP('',(#830,#831,#832,#833,#834,#835));
#167=EDGE_LOOP('',(#836));
#168=EDGE_LOOP('',(#837));
#169=EDGE_LOOP('',(#838,#839,#840,#841));
#170=EDGE_LOOP('',(#842,#843,#844,#845,#846,#847));
#171=EDGE_LOOP('',(#848));
#172=EDGE_LOOP('',(#849));
#173=EDGE_LOOP('',(#850,#851,#852,#853));
#174=EDGE_LOOP('',(#854,#855,#856,#857));
#175=EDGE_LOOP('',(#858,#859,#860,#861));
#176=EDGE_LOOP('',(#862,#863,#864,#865));
#177=EDGE_LOOP('',(#866,#867,#868,#869));
#178=EDGE_LOOP('',(#870,#871,#872,#873));
#179=EDGE_LOOP('',(#874,#875,#876,#877));
#180=EDGE_LOOP('',(#878,#879,#880,#881));
#181=EDGE_LOOP('',(#882,#883,#884,#885));
#182=EDGE_LOOP('',(#886,#887,#888,#889));
#183=EDGE_LOOP('',(#890,#891,#892,#893));
#184=EDGE_LOOP('',(#894,#895,#896,#897));
#185=EDGE_LOOP('',(#898,#899,#900,#901));
#186=EDGE_LOOP('',(#902,#903,#904,#905));
#187=EDGE_LOOP('',(#906,#907,#908,#909,#910,#911,#912,#913));
#188=EDGE_LOOP('',(#914,#915,#916,#917,#918,#919));
#189=EDGE_LOOP('',(#920));
#190=EDGE_LOOP('',(#921,#922,#923,#924,#925,#926,#927));
#191=EDGE_LOOP('',(#928));
#192=EDGE_LOOP('',(#929));
#193=EDGE_LOOP('',(#930));
#194=EDGE_LOOP('',(#931,#932,#933,#934,#935,#936));
#195=EDGE_LOOP('',(#937));
#196=EDGE_LOOP('',(#938));
#197=EDGE_LOOP('',(#939));
#198=EDGE_LOOP('',(#940));
#199=EDGE_LOOP('',(#941));
#200=EDGE_LOOP('',(#942));
#201=EDGE_LOOP('',(#943));
#202=EDGE_LOOP('',(#944,#945,#946,#947,#948,#949));
#203=EDGE_LOOP('',(#950,#951,#952,#953,#954,#955));
#204=EDGE_LOOP('',(#956,#957,#958,#959));
#205=EDGE_LOOP('',(#960,#961,#962,#963));
#206=EDGE_LOOP('',(#964,#965,#966,#967));
#207=EDGE_LOOP('',(#968,#969,#970,#971));
#208=LINE('',#1571,#289);
#209=LINE('',#1574,#290);
#210=LINE('',#1579,#291);
#211=LINE('',#1585,#292);
#212=LINE('',#1592,#293);
#213=LINE('',#1594,#294);
#214=LINE('',#1596,#295);
#215=LINE('',#1599,#296);
#216=LINE('',#1602,#297);
#217=LINE('',#1604,#298);
#218=LINE('',#1605,#299);
#219=LINE('',#1609,#300);
#220=LINE('',#1611,#301);
#221=LINE('',#1613,#302);
#222=LINE('',#1614,#303);
#223=LINE('',#1622,#304);
#224=LINE('',#1624,#305);
#225=LINE('',#1626,#306);
#226=LINE('',#1628,#307);
#227=LINE('',#1632,#308);
#228=LINE('',#1634,#309);
#229=LINE('',#1635,#310);
#230=LINE('',#1638,#311);
#231=LINE('',#1642,#312);
#232=LINE('',#1648,#313);
#233=LINE('',#1652,#314);
#234=LINE('',#1654,#315);
#235=LINE('',#1655,#316);
#236=LINE('',#1658,#317);
#237=LINE('',#1659,#318);
#238=LINE('',#1664,#319);
#239=LINE('',#1668,#320);
#240=LINE('',#1669,#321);
#241=LINE('',#1673,#322);
#242=LINE('',#1679,#323);
#243=LINE('',#1681,#324);
#244=LINE('',#1683,#325);
#245=LINE('',#1685,#326);
#246=LINE('',#1692,#327);
#247=LINE('',#1694,#328);
#248=LINE('',#1695,#329);
#249=LINE('',#1698,#330);
#250=LINE('',#1700,#331);
#251=LINE('',#1701,#332);
#252=LINE('',#1706,#333);
#253=LINE('',#1712,#334);
#254=LINE('',#1715,#335);
#255=LINE('',#1716,#336);
#256=LINE('',#1721,#337);
#257=LINE('',#1727,#338);
#258=LINE('',#1730,#339);
#259=LINE('',#1732,#340);
#260=LINE('',#1734,#341);
#261=LINE('',#1751,#342);
#262=LINE('',#1752,#343);
#263=LINE('',#1754,#344);
#264=LINE('',#1755,#345);
#265=LINE('',#1757,#346);
#266=LINE('',#1760,#347);
#267=LINE('',#1764,#348);
#268=LINE('',#1768,#349);
#269=LINE('',#1774,#350);
#270=LINE('',#1780,#351);
#271=LINE('',#1786,#352);
#272=LINE('',#1790,#353);
#273=LINE('',#1794,#354);
#274=LINE('',#1798,#355);
#275=LINE('',#1804,#356);
#276=LINE('',#1807,#357);
#277=LINE('',#1808,#358);
#278=LINE('',#1810,#359);
#279=LINE('',#1812,#360);
#280=LINE('',#1817,#361);
#281=LINE('',#1821,#362);
#282=LINE('',#1831,#363);
#283=LINE('',#1870,#364);
#284=LINE('',#1874,#365);
#285=LINE('',#1878,#366);
#286=LINE('',#1880,#367);
#287=LINE('',#1882,#368);
#288=LINE('',#1884,#369);
#289=VECTOR('',#1247,2.);
#290=VECTOR('',#1250,2.);
#291=VECTOR('',#1255,1.1);
#292=VECTOR('',#1262,1.6);
#293=VECTOR('',#1269,7.5);
#294=VECTOR('',#1270,2.);
#295=VECTOR('',#1271,7.499999999998);
#296=VECTOR('',#1274,10.);
#297=VECTOR('',#1277,7.499999999998);
#298=VECTOR('',#1278,2.);
#299=VECTOR('',#1279,7.5);
#300=VECTOR('',#1282,4.3);
#301=VECTOR('',#1283,2.);
#302=VECTOR('',#1284,4.3);
#303=VECTOR('',#1285,2.);
#304=VECTOR('',#1300,10.3);
#305=VECTOR('',#1301,48.7);
#306=VECTOR('',#1302,14.3);
#307=VECTOR('',#1303,10.999999981725);
#308=VECTOR('',#1306,75.3);
#309=VECTOR('',#1307,14.);
#310=VECTOR('',#1308,5.);
#311=VECTOR('',#1309,65.);
#312=VECTOR('',#1312,65.);
#313=VECTOR('',#1319,5.00000079169042);
#314=VECTOR('',#1322,0.899451270785);
#315=VECTOR('',#1323,2.);
#316=VECTOR('',#1324,0.899449093987);
#317=VECTOR('',#1327,2.00000000000091);
#318=VECTOR('',#1328,10.);
#319=VECTOR('',#1333,2.000000000001);
#320=VECTOR('',#1336,11.000000000109);
#321=VECTOR('',#1337,2.);
#322=VECTOR('',#1342,2.);
#323=VECTOR('',#1347,0.899447252089);
#324=VECTOR('',#1348,2.);
#325=VECTOR('',#1349,0.899451270785);
#326=VECTOR('',#1352,75.300000000001);
#327=VECTOR('',#1359,7.499999999997);
#328=VECTOR('',#1360,2.);
#329=VECTOR('',#1361,7.5);
#330=VECTOR('',#1364,7.5);
#331=VECTOR('',#1365,2.);
#332=VECTOR('',#1366,7.499999999996);
#333=VECTOR('',#1371,2.);
#334=VECTOR('',#1378,2.);
#335=VECTOR('',#1383,8.3);
#336=VECTOR('',#1384,8.3);
#337=VECTOR('',#1389,1.6);
#338=VECTOR('',#1396,1.1);
#339=VECTOR('',#1401,10.3);
#340=VECTOR('',#1404,14.3);
#341=VECTOR('',#1407,14.);
#342=VECTOR('',#1412,10.3000000000011);
#343=VECTOR('',#1413,10.3);
#344=VECTOR('',#1416,14.);
#345=VECTOR('',#1417,13.999999535594);
#346=VECTOR('',#1420,14.3);
#347=VECTOR('',#1421,65.);
#348=VECTOR('',#1424,65.);
#349=VECTOR('',#1431,14.3);
#350=VECTOR('',#1438,1.);
#351=VECTOR('',#1445,1.);
#352=VECTOR('',#1452,1.);
#353=VECTOR('',#1457,1.35);
#354=VECTOR('',#1462,1.35);
#355=VECTOR('',#1467,1.35);
#356=VECTOR('',#1474,1.35);
#357=VECTOR('',#1479,2.);
#358=VECTOR('',#1480,2.);
#359=VECTOR('',#1483,2.);
#360=VECTOR('',#1486,2.);
#361=VECTOR('',#1491,2.);
#362=VECTOR('',#1494,2.);
#363=VECTOR('',#1511,1.);
#364=VECTOR('',#1542,1.);
#365=VECTOR('',#1547,1.);
#366=VECTOR('',#1552,1.);
#367=VECTOR('',#1555,1.6);
#368=VECTOR('',#1558,1.6);
#369=VECTOR('',#1561,1.6);
#370=CIRCLE('',#1120,0.99999999999989);
#371=CIRCLE('',#1121,3.);
#372=CIRCLE('',#1123,1.1);
#373=CIRCLE('',#1124,1.1);
#374=CIRCLE('',#1126,1.6);
#375=CIRCLE('',#1127,1.6);
#376=CIRCLE('',#1129,1.);
#377=CIRCLE('',#1130,3.0000000000002);
#378=CIRCLE('',#1134,3.);
#379=CIRCLE('',#1135,3.);
#380=CIRCLE('',#1137,3.);
#381=CIRCLE('',#1138,3.);
#382=CIRCLE('',#1140,3.);
#383=CIRCLE('',#1141,1.2);
#384=CIRCLE('',#1142,1.2);
#385=CIRCLE('',#1144,2.9999999999994);
#386=CIRCLE('',#1145,1.);
#387=CIRCLE('',#1148,0.999999999999126);
#388=CIRCLE('',#1149,3.0000000000017);
#389=CIRCLE('',#1151,3.);
#390=CIRCLE('',#1153,3.);
#391=CIRCLE('',#1154,1.0000000000002);
#392=CIRCLE('',#1156,0.999999999999379);
#393=CIRCLE('',#1157,3.0000000000017);
#394=CIRCLE('',#1160,3.);
#395=CIRCLE('',#1161,3.);
#396=CIRCLE('',#1163,3.);
#397=CIRCLE('',#1164,3.);
#398=CIRCLE('',#1167,1.6);
#399=CIRCLE('',#1168,1.6);
#400=CIRCLE('',#1170,1.1);
#401=CIRCLE('',#1171,1.1);
#402=CIRCLE('',#1179,1.2);
#403=CIRCLE('',#1180,1.2);
#404=CIRCLE('',#1185,1.35);
#405=CIRCLE('',#1186,2.75);
#406=CIRCLE('',#1188,1.35);
#407=CIRCLE('',#1189,2.75);
#408=CIRCLE('',#1191,1.35);
#409=CIRCLE('',#1192,2.75);
#410=CIRCLE('',#1194,1.35);
#411=CIRCLE('',#1196,1.35);
#412=CIRCLE('',#1198,1.35);
#413=CIRCLE('',#1200,1.35);
#414=CIRCLE('',#1201,1.35);
#415=CIRCLE('',#1207,17.4);
#416=CIRCLE('',#1208,17.4);
#417=CIRCLE('',#1210,2.9999999999994);
#418=CIRCLE('',#1211,3.000000000001);
#419=CIRCLE('',#1213,3.0000000000001);
#420=CIRCLE('',#1214,3.);
#421=CIRCLE('',#1216,2.7500000000068);
#422=CIRCLE('',#1217,2.75);
#423=CIRCLE('',#1218,2.7500000000068);
#424=CIRCLE('',#1220,3.1499999999999);
#425=CIRCLE('',#1221,3.1500000001646);
#426=CIRCLE('',#1222,3.1500000001646);
#427=CIRCLE('',#1223,3.1499999998221);
#428=CIRCLE('',#1224,3.1499999998221);
#429=CIRCLE('',#1226,1.6000000000003);
#430=CIRCLE('',#1227,1.6);
#431=CIRCLE('',#1228,1.6);
#432=CIRCLE('',#1230,1.6000000000003);
#433=CIRCLE('',#1232,1.6);
#434=CIRCLE('',#1234,1.6);
#435=VERTEX_POINT('',#1567);
#436=VERTEX_POINT('',#1568);
#437=VERTEX_POINT('',#1570);
#438=VERTEX_POINT('',#1572);
#439=VERTEX_POINT('',#1576);
#440=VERTEX_POINT('',#1578);
#441=VERTEX_POINT('',#1582);
#442=VERTEX_POINT('',#1584);
#443=VERTEX_POINT('',#1588);
#444=VERTEX_POINT('',#1589);
#445=VERTEX_POINT('',#1591);
#446=VERTEX_POINT('',#1593);
#447=VERTEX_POINT('',#1595);
#448=VERTEX_POINT('',#1597);
#449=VERTEX_POINT('',#1601);
#450=VERTEX_POINT('',#1603);
#451=VERTEX_POINT('',#1607);
#452=VERTEX_POINT('',#1608);
#453=VERTEX_POINT('',#1610);
#454=VERTEX_POINT('',#1612);
#455=VERTEX_POINT('',#1623);
#456=VERTEX_POINT('',#1625);
#457=VERTEX_POINT('',#1627);
#458=VERTEX_POINT('',#1629);
#459=VERTEX_POINT('',#1631);
#460=VERTEX_POINT('',#1633);
#461=VERTEX_POINT('',#1636);
#462=VERTEX_POINT('',#1637);
#463=VERTEX_POINT('',#1639);
#464=VERTEX_POINT('',#1641);
#465=VERTEX_POINT('',#1645);
#466=VERTEX_POINT('',#1646);
#467=VERTEX_POINT('',#1649);
#468=VERTEX_POINT('',#1651);
#469=VERTEX_POINT('',#1653);
#470=VERTEX_POINT('',#1657);
#471=VERTEX_POINT('',#1661);
#472=VERTEX_POINT('',#1663);
#473=VERTEX_POINT('',#1665);
#474=VERTEX_POINT('',#1667);
#475=VERTEX_POINT('',#1671);
#476=VERTEX_POINT('',#1675);
#477=VERTEX_POINT('',#1676);
#478=VERTEX_POINT('',#1678);
#479=VERTEX_POINT('',#1680);
#480=VERTEX_POINT('',#1682);
#481=VERTEX_POINT('',#1687);
#482=VERTEX_POINT('',#1689);
#483=VERTEX_POINT('',#1691);
#484=VERTEX_POINT('',#1693);
#485=VERTEX_POINT('',#1697);
#486=VERTEX_POINT('',#1699);
#487=VERTEX_POINT('',#1703);
#488=VERTEX_POINT('',#1705);
#489=VERTEX_POINT('',#1709);
#490=VERTEX_POINT('',#1711);
#491=VERTEX_POINT('',#1718);
#492=VERTEX_POINT('',#1720);
#493=VERTEX_POINT('',#1724);
#494=VERTEX_POINT('',#1726);
#495=VERTEX_POINT('',#1758);
#496=VERTEX_POINT('',#1759);
#497=VERTEX_POINT('',#1761);
#498=VERTEX_POINT('',#1763);
#499=VERTEX_POINT('',#1771);
#500=VERTEX_POINT('',#1773);
#501=VERTEX_POINT('',#1777);
#502=VERTEX_POINT('',#1779);
#503=VERTEX_POINT('',#1783);
#504=VERTEX_POINT('',#1785);
#505=VERTEX_POINT('',#1789);
#506=VERTEX_POINT('',#1793);
#507=VERTEX_POINT('',#1797);
#508=VERTEX_POINT('',#1801);
#509=VERTEX_POINT('',#1803);
#510=VERTEX_POINT('',#1815);
#511=VERTEX_POINT('',#1816);
#512=VERTEX_POINT('',#1818);
#513=VERTEX_POINT('',#1820);
#514=VERTEX_POINT('',#1830);
#515=VERTEX_POINT('',#1832);
#516=VERTEX_POINT('',#1834);
#517=VERTEX_POINT('',#1841);
#518=VERTEX_POINT('',#1843);
#519=VERTEX_POINT('',#1852);
#520=VERTEX_POINT('',#1854);
#521=VERTEX_POINT('',#1857);
#522=VERTEX_POINT('',#1861);
#523=VERTEX_POINT('',#1863);
#524=VERTEX_POINT('',#1865);
#525=VERTEX_POINT('',#1868);
#526=VERTEX_POINT('',#1872);
#527=VERTEX_POINT('',#1876);
#528=EDGE_CURVE('',#435,#436,#370,.T.);
#529=EDGE_CURVE('',#436,#437,#208,.T.);
#530=EDGE_CURVE('',#437,#438,#371,.T.);
#531=EDGE_CURVE('',#438,#435,#209,.T.);
#532=EDGE_CURVE('',#439,#439,#372,.T.);
#533=EDGE_CURVE('',#439,#440,#210,.T.);
#534=EDGE_CURVE('',#440,#440,#373,.T.);
#535=EDGE_CURVE('',#441,#441,#374,.T.);
#536=EDGE_CURVE('',#441,#442,#211,.T.);
#537=EDGE_CURVE('',#442,#442,#375,.T.);
#538=EDGE_CURVE('',#443,#444,#376,.T.);
#539=EDGE_CURVE('',#444,#445,#212,.T.);
#540=EDGE_CURVE('',#445,#446,#213,.T.);
#541=EDGE_CURVE('',#446,#447,#214,.T.);
#542=EDGE_CURVE('',#447,#448,#377,.T.);
#543=EDGE_CURVE('',#448,#443,#215,.T.);
#544=EDGE_CURVE('',#438,#449,#216,.T.);
#545=EDGE_CURVE('',#449,#450,#217,.T.);
#546=EDGE_CURVE('',#450,#435,#218,.T.);
#547=EDGE_CURVE('',#451,#452,#219,.T.);
#548=EDGE_CURVE('',#452,#453,#220,.T.);
#549=EDGE_CURVE('',#453,#454,#221,.T.);
#550=EDGE_CURVE('',#454,#451,#222,.T.);
#551=EDGE_CURVE('',#449,#453,#378,.T.);
#552=EDGE_CURVE('',#452,#450,#379,.T.);
#553=EDGE_CURVE('',#445,#451,#380,.T.);
#554=EDGE_CURVE('',#454,#446,#381,.T.);
#555=EDGE_CURVE('',#436,#443,#223,.T.);
#556=EDGE_CURVE('',#443,#455,#224,.T.);
#557=EDGE_CURVE('',#455,#456,#225,.T.);
#558=EDGE_CURVE('',#456,#457,#226,.T.);
#559=EDGE_CURVE('',#457,#458,#382,.T.);
#560=EDGE_CURVE('',#458,#459,#227,.T.);
#561=EDGE_CURVE('',#459,#460,#228,.T.);
#562=EDGE_CURVE('',#460,#436,#229,.T.);
#563=EDGE_CURVE('',#461,#462,#230,.T.);
#564=EDGE_CURVE('',#462,#463,#383,.T.);
#565=EDGE_CURVE('',#463,#464,#231,.T.);
#566=EDGE_CURVE('',#464,#461,#384,.T.);
#567=EDGE_CURVE('',#465,#466,#385,.T.);
#568=EDGE_CURVE('',#466,#437,#232,.T.);
#569=EDGE_CURVE('',#460,#467,#386,.T.);
#570=EDGE_CURVE('',#467,#468,#233,.T.);
#571=EDGE_CURVE('',#468,#469,#234,.T.);
#572=EDGE_CURVE('',#469,#465,#235,.T.);
#573=EDGE_CURVE('',#470,#455,#236,.T.);
#574=EDGE_CURVE('',#448,#470,#237,.T.);
#575=EDGE_CURVE('',#456,#471,#387,.T.);
#576=EDGE_CURVE('',#471,#472,#238,.T.);
#577=EDGE_CURVE('',#472,#473,#388,.T.);
#578=EDGE_CURVE('',#473,#474,#239,.T.);
#579=EDGE_CURVE('',#474,#457,#240,.T.);
#580=EDGE_CURVE('',#474,#475,#389,.T.);
#581=EDGE_CURVE('',#475,#458,#241,.T.);
#582=EDGE_CURVE('',#476,#477,#390,.T.);
#583=EDGE_CURVE('',#477,#478,#242,.T.);
#584=EDGE_CURVE('',#478,#479,#243,.T.);
#585=EDGE_CURVE('',#479,#480,#244,.T.);
#586=EDGE_CURVE('',#480,#459,#391,.T.);
#587=EDGE_CURVE('',#475,#476,#245,.T.);
#588=EDGE_CURVE('',#481,#455,#392,.T.);
#589=EDGE_CURVE('',#470,#482,#393,.T.);
#590=EDGE_CURVE('',#482,#483,#246,.T.);
#591=EDGE_CURVE('',#483,#484,#247,.T.);
#592=EDGE_CURVE('',#484,#481,#248,.T.);
#593=EDGE_CURVE('',#471,#485,#249,.T.);
#594=EDGE_CURVE('',#485,#486,#250,.T.);
#595=EDGE_CURVE('',#486,#472,#251,.T.);
#596=EDGE_CURVE('',#483,#487,#394,.T.);
#597=EDGE_CURVE('',#487,#488,#252,.T.);
#598=EDGE_CURVE('',#488,#484,#395,.T.);
#599=EDGE_CURVE('',#485,#489,#396,.T.);
#600=EDGE_CURVE('',#489,#490,#253,.T.);
#601=EDGE_CURVE('',#490,#486,#397,.T.);
#602=EDGE_CURVE('',#489,#488,#254,.T.);
#603=EDGE_CURVE('',#487,#490,#255,.T.);
#604=EDGE_CURVE('',#491,#491,#398,.T.);
#605=EDGE_CURVE('',#491,#492,#256,.T.);
#606=EDGE_CURVE('',#492,#492,#399,.T.);
#607=EDGE_CURVE('',#493,#493,#400,.T.);
#608=EDGE_CURVE('',#493,#494,#257,.T.);
#609=EDGE_CURVE('',#494,#494,#401,.T.);
#610=EDGE_CURVE('',#444,#435,#258,.T.);
#611=EDGE_CURVE('',#471,#481,#259,.T.);
#612=EDGE_CURVE('',#480,#467,#260,.T.);
#613=EDGE_CURVE('',#437,#448,#261,.T.);
#614=EDGE_CURVE('',#447,#438,#262,.T.);
#615=EDGE_CURVE('',#465,#477,#263,.T.);
#616=EDGE_CURVE('',#476,#466,#264,.T.);
#617=EDGE_CURVE('',#473,#470,#265,.T.);
#618=EDGE_CURVE('',#495,#496,#266,.T.);
#619=EDGE_CURVE('',#496,#497,#402,.T.);
#620=EDGE_CURVE('',#497,#498,#267,.T.);
#621=EDGE_CURVE('',#498,#495,#403,.T.);
#622=EDGE_CURVE('',#472,#482,#268,.T.);
#623=EDGE_CURVE('',#499,#499,#404,.T.);
#624=EDGE_CURVE('',#499,#500,#269,.T.);
#625=EDGE_CURVE('',#500,#500,#405,.T.);
#626=EDGE_CURVE('',#501,#501,#406,.T.);
#627=EDGE_CURVE('',#501,#502,#270,.T.);
#628=EDGE_CURVE('',#502,#502,#407,.T.);
#629=EDGE_CURVE('',#503,#503,#408,.T.);
#630=EDGE_CURVE('',#503,#504,#271,.T.);
#631=EDGE_CURVE('',#504,#504,#409,.T.);
#632=EDGE_CURVE('',#501,#505,#272,.T.);
#633=EDGE_CURVE('',#505,#505,#410,.T.);
#634=EDGE_CURVE('',#499,#506,#273,.T.);
#635=EDGE_CURVE('',#506,#506,#411,.T.);
#636=EDGE_CURVE('',#503,#507,#274,.T.);
#637=EDGE_CURVE('',#507,#507,#412,.T.);
#638=EDGE_CURVE('',#508,#508,#413,.T.);
#639=EDGE_CURVE('',#508,#509,#275,.T.);
#640=EDGE_CURVE('',#509,#509,#414,.T.);
#641=EDGE_CURVE('',#495,#462,#276,.T.);
#642=EDGE_CURVE('',#461,#496,#277,.T.);
#643=EDGE_CURVE('',#498,#463,#278,.T.);
#644=EDGE_CURVE('',#497,#464,#279,.T.);
#645=EDGE_CURVE('',#510,#511,#280,.T.);
#646=EDGE_CURVE('',#511,#512,#415,.T.);
#647=EDGE_CURVE('',#512,#513,#281,.T.);
#648=EDGE_CURVE('',#513,#510,#416,.T.);
#649=EDGE_CURVE('',#478,#511,#417,.T.);
#650=EDGE_CURVE('',#510,#479,#418,.T.);
#651=EDGE_CURVE('',#468,#513,#419,.T.);
#652=EDGE_CURVE('',#512,#469,#420,.T.);
#653=EDGE_CURVE('',#508,#514,#282,.T.);
#654=EDGE_CURVE('',#514,#515,#421,.T.);
#655=EDGE_CURVE('',#515,#516,#18,.T.);
#656=EDGE_CURVE('',#516,#517,#422,.T.);
#657=EDGE_CURVE('',#517,#518,#19,.T.);
#658=EDGE_CURVE('',#518,#514,#423,.T.);
#659=EDGE_CURVE('',#519,#519,#424,.T.);
#660=EDGE_CURVE('',#516,#520,#425,.T.);
#661=EDGE_CURVE('',#520,#515,#426,.T.);
#662=EDGE_CURVE('',#518,#521,#427,.T.);
#663=EDGE_CURVE('',#521,#517,#428,.T.);
#664=EDGE_CURVE('',#522,#522,#429,.T.);
#665=EDGE_CURVE('',#523,#523,#430,.T.);
#666=EDGE_CURVE('',#524,#524,#431,.T.);
#667=EDGE_CURVE('',#525,#525,#432,.T.);
#668=EDGE_CURVE('',#525,#520,#283,.T.);
#669=EDGE_CURVE('',#526,#526,#433,.T.);
#670=EDGE_CURVE('',#526,#521,#284,.T.);
#671=EDGE_CURVE('',#527,#527,#434,.T.);
#672=EDGE_CURVE('',#527,#519,#285,.T.);
#673=EDGE_CURVE('',#527,#524,#286,.T.);
#674=EDGE_CURVE('',#526,#523,#287,.T.);
#675=EDGE_CURVE('',#525,#522,#288,.T.);
#676=ORIENTED_EDGE('',*,*,#528,.T.);
#677=ORIENTED_EDGE('',*,*,#529,.T.);
#678=ORIENTED_EDGE('',*,*,#530,.T.);
#679=ORIENTED_EDGE('',*,*,#531,.T.);
#680=ORIENTED_EDGE('',*,*,#532,.T.);
#681=ORIENTED_EDGE('',*,*,#533,.T.);
#682=ORIENTED_EDGE('',*,*,#534,.T.);
#683=ORIENTED_EDGE('',*,*,#533,.F.);
#684=ORIENTED_EDGE('',*,*,#535,.T.);
#685=ORIENTED_EDGE('',*,*,#536,.T.);
#686=ORIENTED_EDGE('',*,*,#537,.T.);
#687=ORIENTED_EDGE('',*,*,#536,.F.);
#688=ORIENTED_EDGE('',*,*,#538,.T.);
#689=ORIENTED_EDGE('',*,*,#539,.T.);
#690=ORIENTED_EDGE('',*,*,#540,.T.);
#691=ORIENTED_EDGE('',*,*,#541,.T.);
#692=ORIENTED_EDGE('',*,*,#542,.T.);
#693=ORIENTED_EDGE('',*,*,#543,.T.);
#694=ORIENTED_EDGE('',*,*,#531,.F.);
#695=ORIENTED_EDGE('',*,*,#544,.T.);
#696=ORIENTED_EDGE('',*,*,#545,.T.);
#697=ORIENTED_EDGE('',*,*,#546,.T.);
#698=ORIENTED_EDGE('',*,*,#547,.T.);
#699=ORIENTED_EDGE('',*,*,#548,.T.);
#700=ORIENTED_EDGE('',*,*,#549,.T.);
#701=ORIENTED_EDGE('',*,*,#550,.T.);
#702=ORIENTED_EDGE('',*,*,#551,.T.);
#703=ORIENTED_EDGE('',*,*,#548,.F.);
#704=ORIENTED_EDGE('',*,*,#552,.T.);
#705=ORIENTED_EDGE('',*,*,#545,.F.);
#706=ORIENTED_EDGE('',*,*,#540,.F.);
#707=ORIENTED_EDGE('',*,*,#553,.T.);
#708=ORIENTED_EDGE('',*,*,#550,.F.);
#709=ORIENTED_EDGE('',*,*,#554,.T.);
#710=ORIENTED_EDGE('',*,*,#555,.T.);
#711=ORIENTED_EDGE('',*,*,#556,.T.);
#712=ORIENTED_EDGE('',*,*,#557,.T.);
#713=ORIENTED_EDGE('',*,*,#558,.T.);
#714=ORIENTED_EDGE('',*,*,#559,.T.);
#715=ORIENTED_EDGE('',*,*,#560,.T.);
#716=ORIENTED_EDGE('',*,*,#561,.T.);
#717=ORIENTED_EDGE('',*,*,#562,.T.);
#718=ORIENTED_EDGE('',*,*,#563,.T.);
#719=ORIENTED_EDGE('',*,*,#564,.T.);
#720=ORIENTED_EDGE('',*,*,#565,.T.);
#721=ORIENTED_EDGE('',*,*,#566,.T.);
#722=ORIENTED_EDGE('',*,*,#567,.T.);
#723=ORIENTED_EDGE('',*,*,#568,.T.);
#724=ORIENTED_EDGE('',*,*,#529,.F.);
#725=ORIENTED_EDGE('',*,*,#562,.F.);
#726=ORIENTED_EDGE('',*,*,#569,.T.);
#727=ORIENTED_EDGE('',*,*,#570,.T.);
#728=ORIENTED_EDGE('',*,*,#571,.T.);
#729=ORIENTED_EDGE('',*,*,#572,.T.);
#730=ORIENTED_EDGE('',*,*,#573,.T.);
#731=ORIENTED_EDGE('',*,*,#556,.F.);
#732=ORIENTED_EDGE('',*,*,#543,.F.);
#733=ORIENTED_EDGE('',*,*,#574,.T.);
#734=ORIENTED_EDGE('',*,*,#575,.T.);
#735=ORIENTED_EDGE('',*,*,#576,.T.);
#736=ORIENTED_EDGE('',*,*,#577,.T.);
#737=ORIENTED_EDGE('',*,*,#578,.T.);
#738=ORIENTED_EDGE('',*,*,#579,.T.);
#739=ORIENTED_EDGE('',*,*,#558,.F.);
#740=ORIENTED_EDGE('',*,*,#580,.T.);
#741=ORIENTED_EDGE('',*,*,#581,.T.);
#742=ORIENTED_EDGE('',*,*,#559,.F.);
#743=ORIENTED_EDGE('',*,*,#579,.F.);
#744=ORIENTED_EDGE('',*,*,#582,.T.);
#745=ORIENTED_EDGE('',*,*,#583,.T.);
#746=ORIENTED_EDGE('',*,*,#584,.T.);
#747=ORIENTED_EDGE('',*,*,#585,.T.);
#748=ORIENTED_EDGE('',*,*,#586,.T.);
#749=ORIENTED_EDGE('',*,*,#560,.F.);
#750=ORIENTED_EDGE('',*,*,#581,.F.);
#751=ORIENTED_EDGE('',*,*,#587,.T.);
#752=ORIENTED_EDGE('',*,*,#588,.T.);
#753=ORIENTED_EDGE('',*,*,#573,.F.);
#754=ORIENTED_EDGE('',*,*,#589,.T.);
#755=ORIENTED_EDGE('',*,*,#590,.T.);
#756=ORIENTED_EDGE('',*,*,#591,.T.);
#757=ORIENTED_EDGE('',*,*,#592,.T.);
#758=ORIENTED_EDGE('',*,*,#593,.T.);
#759=ORIENTED_EDGE('',*,*,#594,.T.);
#760=ORIENTED_EDGE('',*,*,#595,.T.);
#761=ORIENTED_EDGE('',*,*,#576,.F.);
#762=ORIENTED_EDGE('',*,*,#596,.T.);
#763=ORIENTED_EDGE('',*,*,#597,.T.);
#764=ORIENTED_EDGE('',*,*,#598,.T.);
#765=ORIENTED_EDGE('',*,*,#591,.F.);
#766=ORIENTED_EDGE('',*,*,#594,.F.);
#767=ORIENTED_EDGE('',*,*,#599,.T.);
#768=ORIENTED_EDGE('',*,*,#600,.T.);
#769=ORIENTED_EDGE('',*,*,#601,.T.);
#770=ORIENTED_EDGE('',*,*,#602,.T.);
#771=ORIENTED_EDGE('',*,*,#597,.F.);
#772=ORIENTED_EDGE('',*,*,#603,.T.);
#773=ORIENTED_EDGE('',*,*,#600,.F.);
#774=ORIENTED_EDGE('',*,*,#604,.T.);
#775=ORIENTED_EDGE('',*,*,#605,.T.);
#776=ORIENTED_EDGE('',*,*,#606,.T.);
#777=ORIENTED_EDGE('',*,*,#605,.F.);
#778=ORIENTED_EDGE('',*,*,#607,.T.);
#779=ORIENTED_EDGE('',*,*,#608,.T.);
#780=ORIENTED_EDGE('',*,*,#609,.T.);
#781=ORIENTED_EDGE('',*,*,#608,.F.);
#782=ORIENTED_EDGE('',*,*,#610,.T.);
#783=ORIENTED_EDGE('',*,*,#546,.F.);
#784=ORIENTED_EDGE('',*,*,#552,.F.);
#785=ORIENTED_EDGE('',*,*,#547,.F.);
#786=ORIENTED_EDGE('',*,*,#553,.F.);
#787=ORIENTED_EDGE('',*,*,#539,.F.);
#788=ORIENTED_EDGE('',*,*,#534,.F.);
#789=ORIENTED_EDGE('',*,*,#537,.F.);
#790=ORIENTED_EDGE('',*,*,#611,.T.);
#791=ORIENTED_EDGE('',*,*,#592,.F.);
#792=ORIENTED_EDGE('',*,*,#598,.F.);
#793=ORIENTED_EDGE('',*,*,#602,.F.);
#794=ORIENTED_EDGE('',*,*,#599,.F.);
#795=ORIENTED_EDGE('',*,*,#593,.F.);
#796=ORIENTED_EDGE('',*,*,#609,.F.);
#797=ORIENTED_EDGE('',*,*,#606,.F.);
#798=ORIENTED_EDGE('',*,*,#569,.F.);
#799=ORIENTED_EDGE('',*,*,#561,.F.);
#800=ORIENTED_EDGE('',*,*,#586,.F.);
#801=ORIENTED_EDGE('',*,*,#612,.T.);
#802=ORIENTED_EDGE('',*,*,#528,.F.);
#803=ORIENTED_EDGE('',*,*,#610,.F.);
#804=ORIENTED_EDGE('',*,*,#538,.F.);
#805=ORIENTED_EDGE('',*,*,#555,.F.);
#806=ORIENTED_EDGE('',*,*,#575,.F.);
#807=ORIENTED_EDGE('',*,*,#557,.F.);
#808=ORIENTED_EDGE('',*,*,#588,.F.);
#809=ORIENTED_EDGE('',*,*,#611,.F.);
#810=ORIENTED_EDGE('',*,*,#530,.F.);
#811=ORIENTED_EDGE('',*,*,#613,.T.);
#812=ORIENTED_EDGE('',*,*,#542,.F.);
#813=ORIENTED_EDGE('',*,*,#614,.T.);
#814=ORIENTED_EDGE('',*,*,#567,.F.);
#815=ORIENTED_EDGE('',*,*,#615,.T.);
#816=ORIENTED_EDGE('',*,*,#582,.F.);
#817=ORIENTED_EDGE('',*,*,#616,.T.);
#818=ORIENTED_EDGE('',*,*,#580,.F.);
#819=ORIENTED_EDGE('',*,*,#578,.F.);
#820=ORIENTED_EDGE('',*,*,#617,.T.);
#821=ORIENTED_EDGE('',*,*,#574,.F.);
#822=ORIENTED_EDGE('',*,*,#613,.F.);
#823=ORIENTED_EDGE('',*,*,#568,.F.);
#824=ORIENTED_EDGE('',*,*,#616,.F.);
#825=ORIENTED_EDGE('',*,*,#587,.F.);
#826=ORIENTED_EDGE('',*,*,#618,.T.);
#827=ORIENTED_EDGE('',*,*,#619,.T.);
#828=ORIENTED_EDGE('',*,*,#620,.T.);
#829=ORIENTED_EDGE('',*,*,#621,.T.);
#830=ORIENTED_EDGE('',*,*,#541,.F.);
#831=ORIENTED_EDGE('',*,*,#554,.F.);
#832=ORIENTED_EDGE('',*,*,#549,.F.);
#833=ORIENTED_EDGE('',*,*,#551,.F.);
#834=ORIENTED_EDGE('',*,*,#544,.F.);
#835=ORIENTED_EDGE('',*,*,#614,.F.);
#836=ORIENTED_EDGE('',*,*,#532,.F.);
#837=ORIENTED_EDGE('',*,*,#535,.F.);
#838=ORIENTED_EDGE('',*,*,#577,.F.);
#839=ORIENTED_EDGE('',*,*,#622,.T.);
#840=ORIENTED_EDGE('',*,*,#589,.F.);
#841=ORIENTED_EDGE('',*,*,#617,.F.);
#842=ORIENTED_EDGE('',*,*,#595,.F.);
#843=ORIENTED_EDGE('',*,*,#601,.F.);
#844=ORIENTED_EDGE('',*,*,#603,.F.);
#845=ORIENTED_EDGE('',*,*,#596,.F.);
#846=ORIENTED_EDGE('',*,*,#590,.F.);
#847=ORIENTED_EDGE('',*,*,#622,.F.);
#848=ORIENTED_EDGE('',*,*,#607,.F.);
#849=ORIENTED_EDGE('',*,*,#604,.F.);
#850=ORIENTED_EDGE('',*,*,#623,.T.);
#851=ORIENTED_EDGE('',*,*,#624,.T.);
#852=ORIENTED_EDGE('',*,*,#625,.T.);
#853=ORIENTED_EDGE('',*,*,#624,.F.);
#854=ORIENTED_EDGE('',*,*,#626,.T.);
#855=ORIENTED_EDGE('',*,*,#627,.T.);
#856=ORIENTED_EDGE('',*,*,#628,.T.);
#857=ORIENTED_EDGE('',*,*,#627,.F.);
#858=ORIENTED_EDGE('',*,*,#629,.T.);
#859=ORIENTED_EDGE('',*,*,#630,.T.);
#860=ORIENTED_EDGE('',*,*,#631,.T.);
#861=ORIENTED_EDGE('',*,*,#630,.F.);
#862=ORIENTED_EDGE('',*,*,#626,.F.);
#863=ORIENTED_EDGE('',*,*,#632,.T.);
#864=ORIENTED_EDGE('',*,*,#633,.T.);
#865=ORIENTED_EDGE('',*,*,#632,.F.);
#866=ORIENTED_EDGE('',*,*,#623,.F.);
#867=ORIENTED_EDGE('',*,*,#634,.T.);
#868=ORIENTED_EDGE('',*,*,#635,.T.);
#869=ORIENTED_EDGE('',*,*,#634,.F.);
#870=ORIENTED_EDGE('',*,*,#629,.F.);
#871=ORIENTED_EDGE('',*,*,#636,.T.);
#872=ORIENTED_EDGE('',*,*,#637,.T.);
#873=ORIENTED_EDGE('',*,*,#636,.F.);
#874=ORIENTED_EDGE('',*,*,#638,.T.);
#875=ORIENTED_EDGE('',*,*,#639,.T.);
#876=ORIENTED_EDGE('',*,*,#640,.T.);
#877=ORIENTED_EDGE('',*,*,#639,.F.);
#878=ORIENTED_EDGE('',*,*,#618,.F.);
#879=ORIENTED_EDGE('',*,*,#641,.T.);
#880=ORIENTED_EDGE('',*,*,#563,.F.);
#881=ORIENTED_EDGE('',*,*,#642,.T.);
#882=ORIENTED_EDGE('',*,*,#621,.F.);
#883=ORIENTED_EDGE('',*,*,#643,.T.);
#884=ORIENTED_EDGE('',*,*,#564,.F.);
#885=ORIENTED_EDGE('',*,*,#641,.F.);
#886=ORIENTED_EDGE('',*,*,#620,.F.);
#887=ORIENTED_EDGE('',*,*,#644,.T.);
#888=ORIENTED_EDGE('',*,*,#565,.F.);
#889=ORIENTED_EDGE('',*,*,#643,.F.);
#890=ORIENTED_EDGE('',*,*,#619,.F.);
#891=ORIENTED_EDGE('',*,*,#642,.F.);
#892=ORIENTED_EDGE('',*,*,#566,.F.);
#893=ORIENTED_EDGE('',*,*,#644,.F.);
#894=ORIENTED_EDGE('',*,*,#645,.T.);
#895=ORIENTED_EDGE('',*,*,#646,.T.);
#896=ORIENTED_EDGE('',*,*,#647,.T.);
#897=ORIENTED_EDGE('',*,*,#648,.T.);
#898=ORIENTED_EDGE('',*,*,#649,.T.);
#899=ORIENTED_EDGE('',*,*,#645,.F.);
#900=ORIENTED_EDGE('',*,*,#650,.T.);
#901=ORIENTED_EDGE('',*,*,#584,.F.);
#902=ORIENTED_EDGE('',*,*,#651,.T.);
#903=ORIENTED_EDGE('',*,*,#647,.F.);
#904=ORIENTED_EDGE('',*,*,#652,.T.);
#905=ORIENTED_EDGE('',*,*,#571,.F.);
#906=ORIENTED_EDGE('',*,*,#638,.F.);
#907=ORIENTED_EDGE('',*,*,#653,.T.);
#908=ORIENTED_EDGE('',*,*,#654,.T.);
#909=ORIENTED_EDGE('',*,*,#655,.T.);
#910=ORIENTED_EDGE('',*,*,#656,.T.);
#911=ORIENTED_EDGE('',*,*,#657,.T.);
#912=ORIENTED_EDGE('',*,*,#658,.T.);
#913=ORIENTED_EDGE('',*,*,#653,.F.);
#914=ORIENTED_EDGE('',*,*,#648,.F.);
#915=ORIENTED_EDGE('',*,*,#651,.F.);
#916=ORIENTED_EDGE('',*,*,#570,.F.);
#917=ORIENTED_EDGE('',*,*,#612,.F.);
#918=ORIENTED_EDGE('',*,*,#585,.F.);
#919=ORIENTED_EDGE('',*,*,#650,.F.);
#920=ORIENTED_EDGE('',*,*,#659,.T.);
#921=ORIENTED_EDGE('',*,*,#656,.F.);
#922=ORIENTED_EDGE('',*,*,#660,.T.);
#923=ORIENTED_EDGE('',*,*,#661,.T.);
#924=ORIENTED_EDGE('',*,*,#654,.F.);
#925=ORIENTED_EDGE('',*,*,#658,.F.);
#926=ORIENTED_EDGE('',*,*,#662,.T.);
#927=ORIENTED_EDGE('',*,*,#663,.T.);
#928=ORIENTED_EDGE('',*,*,#631,.F.);
#929=ORIENTED_EDGE('',*,*,#628,.F.);
#930=ORIENTED_EDGE('',*,*,#625,.F.);
#931=ORIENTED_EDGE('',*,*,#646,.F.);
#932=ORIENTED_EDGE('',*,*,#649,.F.);
#933=ORIENTED_EDGE('',*,*,#583,.F.);
#934=ORIENTED_EDGE('',*,*,#615,.F.);
#935=ORIENTED_EDGE('',*,*,#572,.F.);
#936=ORIENTED_EDGE('',*,*,#652,.F.);
#937=ORIENTED_EDGE('',*,*,#664,.T.);
#938=ORIENTED_EDGE('',*,*,#665,.T.);
#939=ORIENTED_EDGE('',*,*,#666,.T.);
#940=ORIENTED_EDGE('',*,*,#640,.F.);
#941=ORIENTED_EDGE('',*,*,#637,.F.);
#942=ORIENTED_EDGE('',*,*,#635,.F.);
#943=ORIENTED_EDGE('',*,*,#633,.F.);
#944=ORIENTED_EDGE('',*,*,#667,.T.);
#945=ORIENTED_EDGE('',*,*,#668,.T.);
#946=ORIENTED_EDGE('',*,*,#660,.F.);
#947=ORIENTED_EDGE('',*,*,#655,.F.);
#948=ORIENTED_EDGE('',*,*,#661,.F.);
#949=ORIENTED_EDGE('',*,*,#668,.F.);
#950=ORIENTED_EDGE('',*,*,#669,.T.);
#951=ORIENTED_EDGE('',*,*,#670,.T.);
#952=ORIENTED_EDGE('',*,*,#662,.F.);
#953=ORIENTED_EDGE('',*,*,#657,.F.);
#954=ORIENTED_EDGE('',*,*,#663,.F.);
#955=ORIENTED_EDGE('',*,*,#670,.F.);
#956=ORIENTED_EDGE('',*,*,#671,.T.);
#957=ORIENTED_EDGE('',*,*,#672,.T.);
#958=ORIENTED_EDGE('',*,*,#659,.F.);
#959=ORIENTED_EDGE('',*,*,#672,.F.);
#960=ORIENTED_EDGE('',*,*,#671,.F.);
#961=ORIENTED_EDGE('',*,*,#673,.T.);
#962=ORIENTED_EDGE('',*,*,#666,.F.);
#963=ORIENTED_EDGE('',*,*,#673,.F.);
#964=ORIENTED_EDGE('',*,*,#669,.F.);
#965=ORIENTED_EDGE('',*,*,#674,.T.);
#966=ORIENTED_EDGE('',*,*,#665,.F.);
#967=ORIENTED_EDGE('',*,*,#674,.F.);
#968=ORIENTED_EDGE('',*,*,#667,.F.);
#969=ORIENTED_EDGE('',*,*,#675,.T.);
#970=ORIENTED_EDGE('',*,*,#664,.F.);
#971=ORIENTED_EDGE('',*,*,#675,.F.);
#972=PLANE('',#1119);
#973=PLANE('',#1128);
#974=PLANE('',#1131);
#975=PLANE('',#1132);
#976=PLANE('',#1139);
#977=PLANE('',#1143);
#978=PLANE('',#1146);
#979=PLANE('',#1147);
#980=PLANE('',#1152);
#981=PLANE('',#1155);
#982=PLANE('',#1158);
#983=PLANE('',#1165);
#984=PLANE('',#1172);
#985=PLANE('',#1173);
#986=PLANE('',#1178);
#987=PLANE('',#1181);
#988=PLANE('',#1183);
#989=PLANE('',#1202);
#990=PLANE('',#1204);
#991=PLANE('',#1219);
#992=PLANE('',#1225);
#993=STYLED_ITEM('',(#1916),#1049);
#994=STYLED_ITEM('',(#1916),#1050);
#995=STYLED_ITEM('',(#1916),#1051);
#996=STYLED_ITEM('',(#1916),#1052);
#997=STYLED_ITEM('',(#1916),#1053);
#998=STYLED_ITEM('',(#1916),#1054);
#999=STYLED_ITEM('',(#1916),#1055);
#1000=STYLED_ITEM('',(#1916),#1056);
#1001=STYLED_ITEM('',(#1916),#1057);
#1002=STYLED_ITEM('',(#1916),#1058);
#1003=STYLED_ITEM('',(#1916),#1059);
#1004=STYLED_ITEM('',(#1916),#1060);
#1005=STYLED_ITEM('',(#1916),#1061);
#1006=STYLED_ITEM('',(#1916),#1062);
#1007=STYLED_ITEM('',(#1916),#1063);
#1008=STYLED_ITEM('',(#1916),#1064);
#1009=STYLED_ITEM('',(#1916),#1065);
#1010=STYLED_ITEM('',(#1916),#1066);
#1011=STYLED_ITEM('',(#1916),#1067);
#1012=STYLED_ITEM('',(#1916),#1068);
#1013=STYLED_ITEM('',(#1916),#1069);
#1014=STYLED_ITEM('',(#1916),#1070);
#1015=STYLED_ITEM('',(#1916),#1071);
#1016=STYLED_ITEM('',(#1916),#1072);
#1017=STYLED_ITEM('',(#1916),#1073);
#1018=STYLED_ITEM('',(#1916),#1074);
#1019=STYLED_ITEM('',(#1916),#1075);
#1020=STYLED_ITEM('',(#1916),#1076);
#1021=STYLED_ITEM('',(#1916),#1077);
#1022=STYLED_ITEM('',(#1916),#1078);
#1023=STYLED_ITEM('',(#1916),#1079);
#1024=STYLED_ITEM('',(#1916),#1080);
#1025=STYLED_ITEM('',(#1916),#1081);
#1026=STYLED_ITEM('',(#1916),#1082);
#1027=STYLED_ITEM('',(#1916),#1083);
#1028=STYLED_ITEM('',(#1916),#1084);
#1029=STYLED_ITEM('',(#1916),#1085);
#1030=STYLED_ITEM('',(#1916),#1086);
#1031=STYLED_ITEM('',(#1916),#1087);
#1032=STYLED_ITEM('',(#1916),#1088);
#1033=STYLED_ITEM('',(#1916),#1089);
#1034=STYLED_ITEM('',(#1916),#1090);
#1035=STYLED_ITEM('',(#1916),#1091);
#1036=STYLED_ITEM('',(#1916),#1092);
#1037=STYLED_ITEM('',(#1916),#1093);
#1038=STYLED_ITEM('',(#1916),#1094);
#1039=STYLED_ITEM('',(#1916),#1095);
#1040=STYLED_ITEM('',(#1916),#1096);
#1041=STYLED_ITEM('',(#1916),#1097);
#1042=STYLED_ITEM('',(#1916),#1098);
#1043=STYLED_ITEM('',(#1916),#1099);
#1044=STYLED_ITEM('',(#1916),#1100);
#1045=STYLED_ITEM('',(#1916),#1101);
#1046=STYLED_ITEM('',(#1916),#1102);
#1047=STYLED_ITEM('',(#1916),#1103);
#1048=STYLED_ITEM('',(#1915),#17);
#1049=ADVANCED_FACE('',(#76),#972,.T.);
#1050=ADVANCED_FACE('',(#77),#50,.F.);
#1051=ADVANCED_FACE('',(#78),#51,.F.);
#1052=ADVANCED_FACE('',(#79),#973,.T.);
#1053=ADVANCED_FACE('',(#80),#974,.T.);
#1054=ADVANCED_FACE('',(#81),#975,.T.);
#1055=ADVANCED_FACE('',(#82),#52,.T.);
#1056=ADVANCED_FACE('',(#83),#53,.T.);
#1057=ADVANCED_FACE('',(#84,#28),#976,.T.);
#1058=ADVANCED_FACE('',(#85),#977,.T.);
#1059=ADVANCED_FACE('',(#86),#978,.T.);
#1060=ADVANCED_FACE('',(#87),#979,.T.);
#1061=ADVANCED_FACE('',(#88),#54,.T.);
#1062=ADVANCED_FACE('',(#89),#980,.T.);
#1063=ADVANCED_FACE('',(#90),#981,.T.);
#1064=ADVANCED_FACE('',(#91),#982,.T.);
#1065=ADVANCED_FACE('',(#92),#55,.T.);
#1066=ADVANCED_FACE('',(#93),#56,.T.);
#1067=ADVANCED_FACE('',(#94),#983,.T.);
#1068=ADVANCED_FACE('',(#95),#57,.F.);
#1069=ADVANCED_FACE('',(#96),#58,.F.);
#1070=ADVANCED_FACE('',(#97,#29,#30),#984,.T.);
#1071=ADVANCED_FACE('',(#98,#31,#32),#985,.T.);
#1072=ADVANCED_FACE('',(#99),#59,.F.);
#1073=ADVANCED_FACE('',(#100),#60,.F.);
#1074=ADVANCED_FACE('',(#101),#27,.F.);
#1075=ADVANCED_FACE('',(#102),#61,.T.);
#1076=ADVANCED_FACE('',(#103),#62,.T.);
#1077=ADVANCED_FACE('',(#104,#33),#986,.T.);
#1078=ADVANCED_FACE('',(#105,#34,#35),#987,.T.);
#1079=ADVANCED_FACE('',(#106),#63,.T.);
#1080=ADVANCED_FACE('',(#107,#36,#37),#988,.T.);
#1081=ADVANCED_FACE('',(#108),#20,.F.);
#1082=ADVANCED_FACE('',(#109),#21,.F.);
#1083=ADVANCED_FACE('',(#110),#22,.F.);
#1084=ADVANCED_FACE('',(#111),#64,.F.);
#1085=ADVANCED_FACE('',(#112),#65,.F.);
#1086=ADVANCED_FACE('',(#113),#66,.F.);
#1087=ADVANCED_FACE('',(#114),#67,.F.);
#1088=ADVANCED_FACE('',(#115),#989,.T.);
#1089=ADVANCED_FACE('',(#116),#68,.F.);
#1090=ADVANCED_FACE('',(#117),#990,.T.);
#1091=ADVANCED_FACE('',(#118),#69,.F.);
#1092=ADVANCED_FACE('',(#119),#70,.T.);
#1093=ADVANCED_FACE('',(#120),#71,.F.);
#1094=ADVANCED_FACE('',(#121),#72,.F.);
#1095=ADVANCED_FACE('',(#122),#23,.F.);
#1096=ADVANCED_FACE('',(#123,#38,#39,#40,#41,#42),#991,.T.);
#1097=ADVANCED_FACE('',(#124,#43,#44,#45,#46,#47,#48,#49),#992,.T.);
#1098=ADVANCED_FACE('',(#125),#24,.F.);
#1099=ADVANCED_FACE('',(#126),#25,.F.);
#1100=ADVANCED_FACE('',(#127),#26,.F.);
#1101=ADVANCED_FACE('',(#128),#73,.F.);
#1102=ADVANCED_FACE('',(#129),#74,.F.);
#1103=ADVANCED_FACE('',(#130),#75,.F.);
#1104=CLOSED_SHELL('',(#1049,#1050,#1051,#1052,#1053,#1054,#1055,#1056,
#1057,#1058,#1059,#1060,#1061,#1062,#1063,#1064,#1065,#1066,#1067,#1068,
#1069,#1070,#1071,#1072,#1073,#1074,#1075,#1076,#1077,#1078,#1079,#1080,
#1081,#1082,#1083,#1084,#1085,#1086,#1087,#1088,#1089,#1090,#1091,#1092,
#1093,#1094,#1095,#1096,#1097,#1098,#1099,#1100,#1101,#1102,#1103));
#1105=DERIVED_UNIT_ELEMENT(#1107,1.);
#1106=DERIVED_UNIT_ELEMENT(#1893,-3.);
#1107=(
MASS_UNIT()
NAMED_UNIT(*)
SI_UNIT(.KILO.,.GRAM.)
);
#1108=DERIVED_UNIT((#1105,#1106));
#1109=MEASURE_REPRESENTATION_ITEM('density measure',
POSITIVE_RATIO_MEASURE(7850.),#1108);
#1110=PROPERTY_DEFINITION_REPRESENTATION(#1115,#1112);
#1111=PROPERTY_DEFINITION_REPRESENTATION(#1116,#1113);
#1112=REPRESENTATION('material name',(#1114),#1890);
#1113=REPRESENTATION('density',(#1109),#1890);
#1114=DESCRIPTIVE_REPRESENTATION_ITEM('\X2\94A2\X0\','\X2\94A2\X0\');
#1115=PROPERTY_DEFINITION('material property','material name',#1905);
#1116=PROPERTY_DEFINITION('material property','density of part',#1905);
#1117=AXIS2_PLACEMENT_3D('',#1564,#1239,#1240);
#1118=AXIS2_PLACEMENT_3D('',#1565,#1241,#1242);
#1119=AXIS2_PLACEMENT_3D('',#1566,#1243,#1244);
#1120=AXIS2_PLACEMENT_3D('',#1569,#1245,#1246);
#1121=AXIS2_PLACEMENT_3D('',#1573,#1248,#1249);
#1122=AXIS2_PLACEMENT_3D('',#1575,#1251,#1252);
#1123=AXIS2_PLACEMENT_3D('',#1577,#1253,#1254);
#1124=AXIS2_PLACEMENT_3D('',#1580,#1256,#1257);
#1125=AXIS2_PLACEMENT_3D('',#1581,#1258,#1259);
#1126=AXIS2_PLACEMENT_3D('',#1583,#1260,#1261);
#1127=AXIS2_PLACEMENT_3D('',#1586,#1263,#1264);
#1128=AXIS2_PLACEMENT_3D('',#1587,#1265,#1266);
#1129=AXIS2_PLACEMENT_3D('',#1590,#1267,#1268);
#1130=AXIS2_PLACEMENT_3D('',#1598,#1272,#1273);
#1131=AXIS2_PLACEMENT_3D('',#1600,#1275,#1276);
#1132=AXIS2_PLACEMENT_3D('',#1606,#1280,#1281);
#1133=AXIS2_PLACEMENT_3D('',#1615,#1286,#1287);
#1134=AXIS2_PLACEMENT_3D('',#1616,#1288,#1289);
#1135=AXIS2_PLACEMENT_3D('',#1617,#1290,#1291);
#1136=AXIS2_PLACEMENT_3D('',#1618,#1292,#1293);
#1137=AXIS2_PLACEMENT_3D('',#1619,#1294,#1295);
#1138=AXIS2_PLACEMENT_3D('',#1620,#1296,#1297);
#1139=AXIS2_PLACEMENT_3D('',#1621,#1298,#1299);
#1140=AXIS2_PLACEMENT_3D('',#1630,#1304,#1305);
#1141=AXIS2_PLACEMENT_3D('',#1640,#1310,#1311);
#1142=AXIS2_PLACEMENT_3D('',#1643,#1313,#1314);
#1143=AXIS2_PLACEMENT_3D('',#1644,#1315,#1316);
#1144=AXIS2_PLACEMENT_3D('',#1647,#1317,#1318);
#1145=AXIS2_PLACEMENT_3D('',#1650,#1320,#1321);
#1146=AXIS2_PLACEMENT_3D('',#1656,#1325,#1326);
#1147=AXIS2_PLACEMENT_3D('',#1660,#1329,#1330);
#1148=AXIS2_PLACEMENT_3D('',#1662,#1331,#1332);
#1149=AXIS2_PLACEMENT_3D('',#1666,#1334,#1335);
#1150=AXIS2_PLACEMENT_3D('',#1670,#1338,#1339);
#1151=AXIS2_PLACEMENT_3D('',#1672,#1340,#1341);
#1152=AXIS2_PLACEMENT_3D('',#1674,#1343,#1344);
#1153=AXIS2_PLACEMENT_3D('',#1677,#1345,#1346);
#1154=AXIS2_PLACEMENT_3D('',#1684,#1350,#1351);
#1155=AXIS2_PLACEMENT_3D('',#1686,#1353,#1354);
#1156=AXIS2_PLACEMENT_3D('',#1688,#1355,#1356);
#1157=AXIS2_PLACEMENT_3D('',#1690,#1357,#1358);
#1158=AXIS2_PLACEMENT_3D('',#1696,#1362,#1363);
#1159=AXIS2_PLACEMENT_3D('',#1702,#1367,#1368);
#1160=AXIS2_PLACEMENT_3D('',#1704,#1369,#1370);
#1161=AXIS2_PLACEMENT_3D('',#1707,#1372,#1373);
#1162=AXIS2_PLACEMENT_3D('',#1708,#1374,#1375);
#1163=AXIS2_PLACEMENT_3D('',#1710,#1376,#1377);
#1164=AXIS2_PLACEMENT_3D('',#1713,#1379,#1380);
#1165=AXIS2_PLACEMENT_3D('',#1714,#1381,#1382);
#1166=AXIS2_PLACEMENT_3D('',#1717,#1385,#1386);
#1167=AXIS2_PLACEMENT_3D('',#1719,#1387,#1388);
#1168=AXIS2_PLACEMENT_3D('',#1722,#1390,#1391);
#1169=AXIS2_PLACEMENT_3D('',#1723,#1392,#1393);
#1170=AXIS2_PLACEMENT_3D('',#1725,#1394,#1395);
#1171=AXIS2_PLACEMENT_3D('',#1728,#1397,#1398);
#1172=AXIS2_PLACEMENT_3D('',#1729,#1399,#1400);
#1173=AXIS2_PLACEMENT_3D('',#1731,#1402,#1403);
#1174=AXIS2_PLACEMENT_3D('',#1733,#1405,#1406);
#1175=AXIS2_PLACEMENT_3D('',#1735,#1408,#1409);
#1176=AXIS2_PLACEMENT_3D('',#1750,#1410,#1411);
#1177=AXIS2_PLACEMENT_3D('',#1753,#1414,#1415);
#1178=AXIS2_PLACEMENT_3D('',#1756,#1418,#1419);
#1179=AXIS2_PLACEMENT_3D('',#1762,#1422,#1423);
#1180=AXIS2_PLACEMENT_3D('',#1765,#1425,#1426);
#1181=AXIS2_PLACEMENT_3D('',#1766,#1427,#1428);
#1182=AXIS2_PLACEMENT_3D('',#1767,#1429,#1430);
#1183=AXIS2_PLACEMENT_3D('',#1769,#1432,#1433);
#1184=AXIS2_PLACEMENT_3D('',#1770,#1434,#1435);
#1185=AXIS2_PLACEMENT_3D('',#1772,#1436,#1437);
#1186=AXIS2_PLACEMENT_3D('',#1775,#1439,#1440);
#1187=AXIS2_PLACEMENT_3D('',#1776,#1441,#1442);
#1188=AXIS2_PLACEMENT_3D('',#1778,#1443,#1444);
#1189=AXIS2_PLACEMENT_3D('',#1781,#1446,#1447);
#1190=AXIS2_PLACEMENT_3D('',#1782,#1448,#1449);
#1191=AXIS2_PLACEMENT_3D('',#1784,#1450,#1451);
#1192=AXIS2_PLACEMENT_3D('',#1787,#1453,#1454);
#1193=AXIS2_PLACEMENT_3D('',#1788,#1455,#1456);
#1194=AXIS2_PLACEMENT_3D('',#1791,#1458,#1459);
#1195=AXIS2_PLACEMENT_3D('',#1792,#1460,#1461);
#1196=AXIS2_PLACEMENT_3D('',#1795,#1463,#1464);
#1197=AXIS2_PLACEMENT_3D('',#1796,#1465,#1466);
#1198=AXIS2_PLACEMENT_3D('',#1799,#1468,#1469);
#1199=AXIS2_PLACEMENT_3D('',#1800,#1470,#1471);
#1200=AXIS2_PLACEMENT_3D('',#1802,#1472,#1473);
#1201=AXIS2_PLACEMENT_3D('',#1805,#1475,#1476);
#1202=AXIS2_PLACEMENT_3D('',#1806,#1477,#1478);
#1203=AXIS2_PLACEMENT_3D('',#1809,#1481,#1482);
#1204=AXIS2_PLACEMENT_3D('',#1811,#1484,#1485);
#1205=AXIS2_PLACEMENT_3D('',#1813,#1487,#1488);
#1206=AXIS2_PLACEMENT_3D('',#1814,#1489,#1490);
#1207=AXIS2_PLACEMENT_3D('',#1819,#1492,#1493);
#1208=AXIS2_PLACEMENT_3D('',#1822,#1495,#1496);
#1209=AXIS2_PLACEMENT_3D('',#1823,#1497,#1498);
#1210=AXIS2_PLACEMENT_3D('',#1824,#1499,#1500);
#1211=AXIS2_PLACEMENT_3D('',#1825,#1501,#1502);
#1212=AXIS2_PLACEMENT_3D('',#1826,#1503,#1504);
#1213=AXIS2_PLACEMENT_3D('',#1827,#1505,#1506);
#1214=AXIS2_PLACEMENT_3D('',#1828,#1507,#1508);
#1215=AXIS2_PLACEMENT_3D('',#1829,#1509,#1510);
#1216=AXIS2_PLACEMENT_3D('',#1833,#1512,#1513);
#1217=AXIS2_PLACEMENT_3D('',#1842,#1514,#1515);
#1218=AXIS2_PLACEMENT_3D('',#1850,#1516,#1517);
#1219=AXIS2_PLACEMENT_3D('',#1851,#1518,#1519);
#1220=AXIS2_PLACEMENT_3D('',#1853,#1520,#1521);
#1221=AXIS2_PLACEMENT_3D('',#1855,#1522,#1523);
#1222=AXIS2_PLACEMENT_3D('',#1856,#1524,#1525);
#1223=AXIS2_PLACEMENT_3D('',#1858,#1526,#1527);
#1224=AXIS2_PLACEMENT_3D('',#1859,#1528,#1529);
#1225=AXIS2_PLACEMENT_3D('',#1860,#1530,#1531);
#1226=AXIS2_PLACEMENT_3D('',#1862,#1532,#1533);
#1227=AXIS2_PLACEMENT_3D('',#1864,#1534,#1535);
#1228=AXIS2_PLACEMENT_3D('',#1866,#1536,#1537);
#1229=AXIS2_PLACEMENT_3D('',#1867,#1538,#1539);
#1230=AXIS2_PLACEMENT_3D('',#1869,#1540,#1541);
#1231=AXIS2_PLACEMENT_3D('',#1871,#1543,#1544);
#1232=AXIS2_PLACEMENT_3D('',#1873,#1545,#1546);
#1233=AXIS2_PLACEMENT_3D('',#1875,#1548,#1549);
#1234=AXIS2_PLACEMENT_3D('',#1877,#1550,#1551);
#1235=AXIS2_PLACEMENT_3D('',#1879,#1553,#1554);
#1236=AXIS2_PLACEMENT_3D('',#1881,#1556,#1557);
#1237=AXIS2_PLACEMENT_3D('',#1883,#1559,#1560);
#1238=AXIS2_PLACEMENT_3D('',#1885,#1562,#1563);
#1239=DIRECTION('axis',(0.,0.,1.));
#1240=DIRECTION('refdir',(1.,0.,0.));
#1241=DIRECTION('axis',(0.,0.,1.));
#1242=DIRECTION('refdir',(1.,0.,0.));
#1243=DIRECTION('center_axis',(0.,0.,-1.));
#1244=DIRECTION('ref_axis',(-1.,0.,0.));
#1245=DIRECTION('center_axis',(3.3474739445933E-14,-9.9009754805354E-14,
1.));
#1246=DIRECTION('ref_axis',(1.56068675531645E-29,-1.,-9.9009754805354E-14));
#1247=DIRECTION('',(1.,1.4807600035027E-8,0.));
#1248=DIRECTION('center_axis',(8.0337255527994E-15,-9.1893564701861E-15,
-1.));
#1249=DIRECTION('ref_axis',(1.,9.8716999019643E-9,8.03372546208483E-15));
#1250=DIRECTION('',(1.0000889005823E-12,1.,0.));
#1251=DIRECTION('center_axis',(0.,1.,0.));
#1252=DIRECTION('ref_axis',(1.6148698540002E-15,0.,1.));
#1253=DIRECTION('center_axis',(0.,-1.,0.));
#1254=DIRECTION('ref_axis',(1.1418854244973E-15,0.,1.));
#1255=DIRECTION('',(0.,1.,0.));
#1256=DIRECTION('center_axis',(0.,1.,0.));
#1257=DIRECTION('ref_axis',(-1.1418854244973E-15,0.,1.));
#1258=DIRECTION('center_axis',(8.8817841970012E-16,1.,8.8817841970012E-16));
#1259=DIRECTION('ref_axis',(1.1102230246252E-15,-8.88178419700121E-16,1.));
#1260=DIRECTION('center_axis',(0.,-1.,0.));
#1261=DIRECTION('ref_axis',(-7.8504622934189E-16,0.,1.));
#1262=DIRECTION('',(8.8817841970012E-16,1.,8.8817841970012E-16));
#1263=DIRECTION('center_axis',(0.,1.,0.));
#1264=DIRECTION('ref_axis',(7.8504622934189E-16,0.,1.));
#1265=DIRECTION('center_axis',(0.,0.,1.));
#1266=DIRECTION('ref_axis',(1.,0.,0.));
#1267=DIRECTION('center_axis',(3.2163785799707E-15,-3.2163785799707E-15,
-1.));
#1268=DIRECTION('ref_axis',(1.,-8.8817841970012E-16,3.2163785799707E-15));
#1269=DIRECTION('',(-1.,0.,0.));
#1270=DIRECTION('',(0.,-1.,0.));
#1271=DIRECTION('',(1.,0.,0.));
#1272=DIRECTION('center_axis',(-6.2078783775096E-15,6.9006609020668E-15,
1.));
#1273=DIRECTION('ref_axis',(-6.6791017161445E-13,-1.,6.90066090206265E-15));
#1274=DIRECTION('',(-1.,3.0890510212915E-16,0.));
#1275=DIRECTION('center_axis',(0.,0.,-1.));
#1276=DIRECTION('ref_axis',(1.,0.,0.));
#1277=DIRECTION('',(-1.,0.,0.));
#1278=DIRECTION('',(0.,1.,0.));
#1279=DIRECTION('',(1.,0.,0.));
#1280=DIRECTION('center_axis',(-1.,0.,8.2621248344198E-16));
#1281=DIRECTION('ref_axis',(0.,1.,0.));
#1282=DIRECTION('',(0.,0.,-1.));
#1283=DIRECTION('',(0.,-1.,0.));
#1284=DIRECTION('',(0.,0.,1.));
#1285=DIRECTION('',(0.,1.,0.));
#1286=DIRECTION('center_axis',(-1.7763568394002E-15,-1.,0.));
#1287=DIRECTION('ref_axis',(-1.1842378929335E-15,2.10362908058931E-30,-1.));
#1288=DIRECTION('center_axis',(9.4949434424127E-16,1.,-2.3474354869223E-16));
#1289=DIRECTION('ref_axis',(-5.9211894646675E-16,-2.34743548692229E-16,
-1.));
#1290=DIRECTION('center_axis',(-1.1281820431285E-15,-1.,5.6055849804964E-17));
#1291=DIRECTION('ref_axis',(-1.,1.1281820431285E-15,3.14225829735871E-33));
#1292=DIRECTION('center_axis',(-8.8817841970013E-16,-1.,0.));
#1293=DIRECTION('ref_axis',(-1.,8.8817841970013E-16,1.0125233984581E-12));
#1294=DIRECTION('center_axis',(3.5737539777452E-16,-1.,-3.5737539777452E-16));
#1295=DIRECTION('ref_axis',(5.9211894646675E-16,-3.5737539777452E-16,1.));
#1296=DIRECTION('center_axis',(-1.1737177434611E-16,1.,-4.7474717212064E-16));
#1297=DIRECTION('ref_axis',(-1.,-1.1737177434611E-16,5.9211894646675E-16));
#1298=DIRECTION('center_axis',(-1.,0.,0.));
#1299=DIRECTION('ref_axis',(0.,1.591361110325E-16,-1.));
#1300=DIRECTION('',(0.,0.,1.));
#1301=DIRECTION('',(0.,1.3027227847682E-9,1.));
#1302=DIRECTION('',(0.,-3.1585733873007E-9,1.));
#1303=DIRECTION('',(0.,1.,0.));
#1304=DIRECTION('center_axis',(-1.,9.3897419476891E-16,-3.7979773769651E-15));
#1305=DIRECTION('ref_axis',(-3.7979773769651E-15,-1.4802973661669E-15,1.));
#1306=DIRECTION('',(0.,0.,-1.));
#1307=DIRECTION('',(0.,-1.,0.));
#1308=DIRECTION('',(0.,0.,1.));
#1309=DIRECTION('',(0.,0.,1.));
#1310=DIRECTION('center_axis',(1.,-2.6803154833089E-15,-2.6803154833089E-15));
#1311=DIRECTION('ref_axis',(2.68031548330887E-15,1.,-1.1842378929335E-14));
#1312=DIRECTION('',(0.,3.0744637605004E-16,-1.));
#1313=DIRECTION('center_axis',(1.,2.6803154833089E-15,2.6803154833089E-15));
#1314=DIRECTION('ref_axis',(2.6803154833089E-15,-1.,7.18409109006542E-30));
#1315=DIRECTION('center_axis',(-3.0890510212915E-16,-1.,0.));
#1316=DIRECTION('ref_axis',(1.,-3.0890510212915E-16,0.));
#1317=DIRECTION('center_axis',(-9.5861944589798E-15,-1.,1.7078291758863E-14));
#1318=DIRECTION('ref_axis',(-7.25599332914498E-7,-1.70782848031222E-14,
-0.999999999999737));
#1319=DIRECTION('',(1.99662477134409E-13,-8.69582062336907E-8,0.999999999999996));
#1320=DIRECTION('center_axis',(1.0721261933236E-15,1.,-1.0721261933236E-15));
#1321=DIRECTION('ref_axis',(1.,-1.0721261933236E-15,1.7763568394003E-15));
#1322=DIRECTION('',(-1.,0.,0.));
#1323=DIRECTION('',(0.,0.,-1.));
#1324=DIRECTION('',(1.,0.,1.6950670156461E-12));
#1325=DIRECTION('center_axis',(-3.0890510212915E-16,-1.,0.));
#1326=DIRECTION('ref_axis',(1.,-3.0890510212915E-16,0.));
#1327=DIRECTION('',(-0.999999999999527,-9.72952750366107E-7,0.));
#1328=DIRECTION('',(0.,0.,1.));
#1329=DIRECTION('center_axis',(1.0658141036433E-14,9.2595920199069E-15,
1.));
#1330=DIRECTION('ref_axis',(-1.,-1.0658141036433E-14,1.06581410364331E-14));
#1331=DIRECTION('center_axis',(4.28850471787133E-14,-4.2885046394989E-14,
-1.));
#1332=DIRECTION('ref_axis',(-8.72635297356136E-13,-1.,3.55271367880361E-14));
#1333=DIRECTION('',(-2.0001778011637E-12,-1.,0.));
#1334=DIRECTION('center_axis',(-5.7180063645278E-15,5.7180063647433E-15,
1.));
#1335=DIRECTION('ref_axis',(-1.0006810195282E-12,-1.,5.71800636473758E-15));
#1336=DIRECTION('',(0.,1.,0.));
#1337=DIRECTION('',(-1.,0.,0.));
#1338=DIRECTION('center_axis',(1.,0.,1.4210854715202E-14));
#1339=DIRECTION('ref_axis',(-1.4210854715202E-14,-3.5527136788005E-15,1.));
#1340=DIRECTION('center_axis',(-1.,1.4189814416257E-15,-2.1337322371748E-15));
#1341=DIRECTION('ref_axis',(-2.1337322371748E-15,-1.4802973661669E-15,1.));
#1342=DIRECTION('',(-1.,0.,0.));
#1343=DIRECTION('center_axis',(0.,1.,0.));
#1344=DIRECTION('ref_axis',(-1.,0.,0.));
#1345=DIRECTION('center_axis',(4.5474006191533E-15,1.,-1.5700401176336E-14));
#1346=DIRECTION('ref_axis',(1.,-4.54740061915697E-15,-2.3359092438113E-13));
#1347=DIRECTION('',(-1.,0.,1.9749427609842E-15));
#1348=DIRECTION('',(0.,0.,1.));
#1349=DIRECTION('',(1.,0.,0.));
#1350=DIRECTION('center_axis',(-8.1933337751329E-15,-1.,-6.8845042186675E-16));
#1351=DIRECTION('ref_axis',(-1.0658141036399E-14,6.88450421866837E-16,-1.));
#1352=DIRECTION('',(0.,0.,-1.));
#1353=DIRECTION('center_axis',(0.,0.,-1.));
#1354=DIRECTION('ref_axis',(-1.,-2.8462526976836E-16,0.));
#1355=DIRECTION('center_axis',(-1.5162153339451E-14,6.28036874400713E-15,
1.));
#1356=DIRECTION('ref_axis',(0.999999999999998,6.34433083846314E-8,1.77635683940135E-14));
#1357=DIRECTION('center_axis',(2.0987930101932E-14,-1.539252999751E-14,
-1.));
#1358=DIRECTION('ref_axis',(0.999999999999776,6.69782499684477E-7,2.09879197922801E-14));
#1359=DIRECTION('',(-1.,-4.0027240781168E-14,0.));
#1360=DIRECTION('',(0.,1.,0.));
#1361=DIRECTION('',(1.,0.,0.));
#1362=DIRECTION('center_axis',(0.,0.,1.));
#1363=DIRECTION('ref_axis',(1.,0.,0.));
#1364=DIRECTION('',(-1.,0.,0.));
#1365=DIRECTION('',(0.,-1.,0.));
#1366=DIRECTION('',(1.,-1.3334518674438E-13,0.));
#1367=DIRECTION('center_axis',(0.,-1.,0.));
#1368=DIRECTION('ref_axis',(-7.6975463040673E-15,0.,-1.));
#1369=DIRECTION('center_axis',(-8.3738264463134E-16,1.,-2.0216205375648E-15));
#1370=DIRECTION('ref_axis',(1.1842378929335E-15,-2.0216205375648E-15,-1.));
#1371=DIRECTION('',(0.,1.,0.));
#1372=DIRECTION('center_axis',(-1.7255610643315E-15,-1.,-1.1334421178647E-15));
#1373=DIRECTION('ref_axis',(-1.,1.72556106433149E-15,4.736951571734E-15));
#1374=DIRECTION('center_axis',(8.8817841970012E-16,-1.,1.4210854715202E-14));
#1375=DIRECTION('ref_axis',(-1.,-8.88178419685782E-16,1.0089706847794E-12));
#1376=DIRECTION('center_axis',(3.5737539777452E-16,-1.,-3.5737539777452E-16));
#1377=DIRECTION('ref_axis',(1.1842378929335E-15,-3.57375397774519E-16,1.));
#1378=DIRECTION('',(0.,-1.,0.));
#1379=DIRECTION('center_axis',(-3.5737539777452E-16,1.,3.5737539777452E-16));
#1380=DIRECTION('ref_axis',(-1.,-3.57375397774517E-16,-9.473903143468E-15));
#1381=DIRECTION('center_axis',(-1.,0.,0.));
#1382=DIRECTION('ref_axis',(0.,1.,0.));
#1383=DIRECTION('',(0.,0.,-1.));
#1384=DIRECTION('',(0.,0.,1.));
#1385=DIRECTION('center_axis',(0.,1.,0.));
#1386=DIRECTION('ref_axis',(-1.3322676295502E-14,0.,1.));
#1387=DIRECTION('center_axis',(0.,-1.,0.));
#1388=DIRECTION('ref_axis',(0.,0.,1.));
#1389=DIRECTION('',(0.,1.,0.));
#1390=DIRECTION('center_axis',(0.,1.,0.));
#1391=DIRECTION('ref_axis',(0.,0.,1.));
#1392=DIRECTION('center_axis',(1.7763568394002E-15,1.,0.));
#1393=DIRECTION('ref_axis',(4.8446095620008E-15,-8.60575532968372E-30,1.));
#1394=DIRECTION('center_axis',(0.,-1.,0.));
#1395=DIRECTION('ref_axis',(-4.5675416979892E-15,0.,1.));
#1396=DIRECTION('',(1.7763568394002E-15,1.,0.));
#1397=DIRECTION('center_axis',(0.,1.,0.));
#1398=DIRECTION('ref_axis',(4.5675416979892E-15,0.,1.));
#1399=DIRECTION('center_axis',(4.5209080188789E-16,1.,8.9114891608708E-17));
#1400=DIRECTION('ref_axis',(1.,-4.5209080188789E-16,0.));
#1401=DIRECTION('',(0.,0.,-1.));
#1402=DIRECTION('center_axis',(4.2515928548222E-16,1.,5.5144954269313E-17));
#1403=DIRECTION('ref_axis',(1.,-4.2515928548222E-16,0.));
#1404=DIRECTION('',(0.,0.,-1.));
#1405=DIRECTION('center_axis',(-1.040437577363E-14,1.,1.0150610510859E-14));
#1406=DIRECTION('ref_axis',(0.999999999999933,1.04043720635748E-14,3.65500631094311E-7));
#1407=DIRECTION('',(0.,-1.,0.));
#1408=DIRECTION('center_axis',(0.,0.,1.));
#1409=DIRECTION('ref_axis',(-3.65500991250651E-7,-0.999999999999933,0.));
#1410=DIRECTION('center_axis',(-5.5187785301755E-15,8.8817841970012E-15,
1.));
#1411=DIRECTION('ref_axis',(0.999999999999085,1.35281319568749E-6,5.51876651477559E-15));
#1412=DIRECTION('',(-2.91115567466739E-13,3.87289417450888E-7,0.999999999999925));
#1413=DIRECTION('',(0.,0.,-1.));
#1414=DIRECTION('center_axis',(-9.1355494597727E-15,1.,-1.3227514321963E-14));
#1415=DIRECTION('ref_axis',(-1.35281335881619E-6,-1.32275266806442E-14,
-0.999999999999085));
#1416=DIRECTION('',(-1.315641429451E-7,0.999999999999991,-1.0932020842321E-13));
#1417=DIRECTION('',(-7.13080412042029E-14,-0.999999999999998,-5.65492661629379E-8));
#1418=DIRECTION('center_axis',(1.,0.,0.));
#1419=DIRECTION('ref_axis',(0.,-2.6569440172875E-16,1.));
#1420=DIRECTION('',(0.,1.4052150349314E-7,-0.99999999999999));
#1421=DIRECTION('',(0.,0.,-1.));
#1422=DIRECTION('center_axis',(-1.,-1.7868769888726E-15,1.7868769888726E-15));
#1423=DIRECTION('ref_axis',(-1.7868769888726E-15,1.,-2.09728922722229E-30));
#1424=DIRECTION('',(0.,-3.0744637605004E-16,1.));
#1425=DIRECTION('center_axis',(-1.,1.7868769888726E-15,-1.7868769888726E-15));
#1426=DIRECTION('ref_axis',(-1.78687698887262E-15,-1.,1.1842378929335E-14));
#1427=DIRECTION('center_axis',(-6.4978632569903E-32,-1.,-4.8468126586637E-17));
#1428=DIRECTION('ref_axis',(1.,1.65309428213318E-45,-1.340646671246E-15));
#1429=DIRECTION('center_axis',(-4.9688303200007E-15,8.4470115440012E-15,
1.));
#1430=DIRECTION('ref_axis',(0.999999999999915,4.12496139171982E-7,4.96882683564063E-15));
#1431=DIRECTION('',(7.006050751201E-14,9.0929594856013E-14,-1.));
#1432=DIRECTION('center_axis',(-6.4978632569916E-32,-1.,-4.8468126586637E-17));
#1433=DIRECTION('ref_axis',(1.,-1.66404192638572E-45,-1.3406466712462E-15));
#1434=DIRECTION('center_axis',(-2.7345174557347E-16,-2.5239692154472E-16,
1.));
#1435=DIRECTION('ref_axis',(1.,8.8338922540652E-16,2.7345174557347E-16));
#1436=DIRECTION('center_axis',(2.9075786271922E-17,-2.9075786271922E-17,
-1.));
#1437=DIRECTION('ref_axis',(1.,8.4540134733048E-34,2.9075786271922E-17));
#1438=DIRECTION('',(-0.707106781186549,-8.89717692110513E-16,0.707106781186546));
#1439=DIRECTION('center_axis',(0.,0.,1.));
#1440=DIRECTION('ref_axis',(1.,-1.1418854244973E-16,0.));
#1441=DIRECTION('center_axis',(-1.2619846077236E-16,-6.7341696671361E-17,
1.));
#1442=DIRECTION('ref_axis',(1.,4.7648793550562E-16,1.2619846077236E-16));
#1443=DIRECTION('center_axis',(2.9075786271922E-17,-2.9075786271922E-17,
-1.));
#1444=DIRECTION('ref_axis',(1.,9.304251607015E-16,2.9075786271922E-17));
#1445=DIRECTION('',(-0.707106781186549,-4.71141226346079E-16,0.707106781186546));
#1446=DIRECTION('center_axis',(0.,0.,1.));
#1447=DIRECTION('ref_axis',(1.,2.2837708489946E-16,0.));
#1448=DIRECTION('center_axis',(-3.646023274313E-16,-2.5239692154472E-16,
1.));
#1449=DIRECTION('ref_axis',(1.,5.0479384308944E-16,3.646023274313E-16));
#1450=DIRECTION('center_axis',(1.1630314508769E-16,-1.1630314508769E-16,
-1.));
#1451=DIRECTION('ref_axis',(1.,-1.1630314508769E-16,1.1630314508769E-16));
#1452=DIRECTION('',(-0.707106781186549,-6.22010329948191E-16,0.707106781186546));
#1453=DIRECTION('center_axis',(0.,0.,1.));
#1454=DIRECTION('ref_axis',(1.,-1.1418854244973E-16,0.));
#1455=DIRECTION('center_axis',(0.,6.7619580400166E-17,-1.));
#1456=DIRECTION('ref_axis',(1.,2.3460149443352E-16,1.58636546148465E-32));
#1457=DIRECTION('',(0.,6.7619580400166E-17,-1.));
#1458=DIRECTION('center_axis',(3.4064402522861E-17,-3.4064402522861E-17,
-1.));
#1459=DIRECTION('ref_axis',(1.,9.304251607015E-16,3.4064402522861E-17));
#1460=DIRECTION('center_axis',(2.7755575615629E-16,0.,-1.));
#1461=DIRECTION('ref_axis',(1.,6.5790994051861E-16,2.7755575615629E-16));
#1462=DIRECTION('',(2.7755575615629E-16,0.,-1.));
#1463=DIRECTION('center_axis',(3.4064402522861E-17,-3.4064402522861E-17,
-1.));
#1464=DIRECTION('ref_axis',(1.,-5.8151572543844E-17,3.4064402522861E-17));
#1465=DIRECTION('center_axis',(9.251858538543E-17,0.,-1.));
#1466=DIRECTION('ref_axis',(1.,0.,9.251858538543E-17));
#1467=DIRECTION('',(9.251858538543E-17,0.,-1.));
#1468=DIRECTION('center_axis',(3.4064402522861E-17,-3.4064402522861E-17,
-1.));
#1469=DIRECTION('ref_axis',(1.,1.7445471763153E-16,3.4064402522861E-17));
#1470=DIRECTION('center_axis',(0.,6.7619580400166E-17,-1.));
#1471=DIRECTION('ref_axis',(1.,5.3334035334528E-15,3.60642509036841E-31));
#1472=DIRECTION('center_axis',(2.9075786271922E-17,2.9075786271922E-17,
1.));
#1473=DIRECTION('ref_axis',(1.,-8.4540134733047E-34,-2.9075786271922E-17));
#1474=DIRECTION('',(0.,6.7619580400166E-17,-1.));
#1475=DIRECTION('center_axis',(3.4064402522861E-17,-3.4064402522861E-17,
-1.));
#1476=DIRECTION('ref_axis',(1.,9.304251607015E-16,3.4064402522861E-17));
#1477=DIRECTION('center_axis',(0.,-1.,-2.5962138422004E-16));
#1478=DIRECTION('ref_axis',(0.,-2.5962138422004E-16,1.));
#1479=DIRECTION('',(-1.,0.,0.));
#1480=DIRECTION('',(1.,0.,0.));
#1481=DIRECTION('center_axis',(-1.,0.,0.));
#1482=DIRECTION('ref_axis',(0.,-1.,-2.3684757858669E-14));
#1483=DIRECTION('',(-1.,0.,0.));
#1484=DIRECTION('center_axis',(0.,1.,3.7918386379505E-16));
#1485=DIRECTION('ref_axis',(0.,3.7918386379505E-16,-1.));
#1486=DIRECTION('',(-1.,0.,0.));
#1487=DIRECTION('center_axis',(-1.,5.5511151231258E-17,5.3290705182007E-15));
#1488=DIRECTION('ref_axis',(5.55111512314E-17,1.,2.6645352591004E-14));
#1489=DIRECTION('center_axis',(-3.7816971776294E-16,-1.7763568394002E-15,
-1.));
#1490=DIRECTION('ref_axis',(-1.,1.75186429858228E-10,3.78169717451747E-16));
#1491=DIRECTION('',(0.,0.,-1.));
#1492=DIRECTION('center_axis',(-1.4735346255813E-17,-8.5074561273958E-18,
1.));
#1493=DIRECTION('ref_axis',(0.87161218709384,0.49019607843137,1.70138290086905E-17));
#1494=DIRECTION('',(0.,0.,1.));
#1495=DIRECTION('center_axis',(2.5206407512529E-17,-5.9396895510825E-18,
-1.));
#1496=DIRECTION('ref_axis',(0.871612186922088,-0.490196078736759,2.48818245032991E-17));
#1497=DIRECTION('center_axis',(0.,0.,-1.));
#1498=DIRECTION('ref_axis',(2.074451745197E-7,-0.999999999999978,0.));
#1499=DIRECTION('center_axis',(1.3752649632595E-14,2.3512916471334E-14,
-1.));
#1500=DIRECTION('ref_axis',(-1.1842378929337E-15,-1.,-2.3512916471334E-14));
#1501=DIRECTION('center_axis',(2.0827134362973E-15,3.560816887628E-15,1.));
#1502=DIRECTION('ref_axis',(-0.871612187093739,-0.490196078431549,3.56081688762869E-15));
#1503=DIRECTION('center_axis',(1.7763568394003E-15,-1.7763568394003E-15,
1.));
#1504=DIRECTION('ref_axis',(2.0744517215121E-7,0.999999999999978,1.77635647090361E-15));
#1505=DIRECTION('center_axis',(-6.3462735912989E-16,1.6657549608151E-15,
1.));
#1506=DIRECTION('ref_axis',(1.1842378929334E-15,1.,-1.6657549608151E-15));
#1507=DIRECTION('center_axis',(-2.9319892814673E-16,-7.9449593273444E-17,
-1.));
#1508=DIRECTION('ref_axis',(-0.87161218808996,0.49019607666018,2.16609880392713E-16));
#1509=DIRECTION('center_axis',(-2.4226209543233E-16,-1.9391291041576E-16,
1.));
#1510=DIRECTION('ref_axis',(1.,2.8008517844997E-16,2.4226209543233E-16));
#1511=DIRECTION('',(-0.707106781186549,-4.21762868529971E-16,0.707106781186546));
#1512=DIRECTION('center_axis',(0.,0.,1.));
#1513=DIRECTION('ref_axis',(0.0977452935771777,0.995211463752057,0.));
#1514=DIRECTION('center_axis',(0.,0.,1.));
#1515=DIRECTION('ref_axis',(1.,-2.4223047810003E-16,0.));
#1516=DIRECTION('center_axis',(0.,0.,1.));
#1517=DIRECTION('ref_axis',(0.0977452935771777,0.995211463752057,0.));
#1518=DIRECTION('center_axis',(-4.5484144381097E-18,-3.8369745804807E-18,
1.));
#1519=DIRECTION('ref_axis',(1.,0.,4.5484144381097E-18));
#1520=DIRECTION('center_axis',(0.,0.,-1.));
#1521=DIRECTION('ref_axis',(1.,9.9688410075163E-17,0.));
#1522=DIRECTION('center_axis',(0.,0.,-1.));
#1523=DIRECTION('ref_axis',(0.0223981109402579,0.999749130845488,0.));
#1524=DIRECTION('center_axis',(0.,0.,-1.));
#1525=DIRECTION('ref_axis',(0.0223981109402579,0.999749130845488,0.));
#1526=DIRECTION('center_axis',(0.,0.,-1.));
#1527=DIRECTION('ref_axis',(-0.636720591438209,-0.771094604078239,0.));
#1528=DIRECTION('center_axis',(0.,0.,-1.));
#1529=DIRECTION('ref_axis',(-0.636720591438209,-0.771094604078239,0.));
#1530=DIRECTION('center_axis',(0.,0.,-1.));
#1531=DIRECTION('ref_axis',(1.,0.,0.));
#1532=DIRECTION('center_axis',(-6.9388939039072E-17,6.9388939039072E-17,
1.));
#1533=DIRECTION('ref_axis',(1.,-7.8504622934174E-16,6.9388939039072E-17));
#1534=DIRECTION('center_axis',(-8.3759858853404E-17,8.3759858853404E-17,
1.));
#1535=DIRECTION('ref_axis',(1.,7.8504622934189E-16,8.37598588534039E-17));
#1536=DIRECTION('center_axis',(-8.3759858853404E-17,8.3759858853404E-17,
1.));
#1537=DIRECTION('ref_axis',(1.,7.8504622934189E-16,8.37598588534039E-17));
#1538=DIRECTION('center_axis',(0.,1.813154481056E-16,1.));
#1539=DIRECTION('ref_axis',(1.,3.6263089621121E-16,-6.57505834434709E-32));
#1540=DIRECTION('center_axis',(2.4532694666929E-17,-2.4532694666929E-17,
-1.));
#1541=DIRECTION('ref_axis',(1.,7.8504622934174E-16,2.4532694666929E-17));
#1542=DIRECTION('',(-0.707106781186549,-2.14804988512905E-16,0.707106781186546));
#1543=DIRECTION('center_axis',(-1.1493567377184E-16,-2.2987134754367E-16,
1.));
#1544=DIRECTION('ref_axis',(1.,8.0454971640286E-16,1.1493567377184E-16));
#1545=DIRECTION('center_axis',(2.4532694666934E-17,-2.4532694666934E-17,
-1.));
#1546=DIRECTION('ref_axis',(1.,-7.8504622934189E-16,2.4532694666934E-17));
#1547=DIRECTION('',(-0.707106781186549,-8.18041754542345E-16,0.707106781186546));
#1548=DIRECTION('center_axis',(-1.2793103709101E-16,-6.3965518545503E-17,
1.));
#1549=DIRECTION('ref_axis',(1.,3.1982759272752E-16,1.2793103709101E-16));
#1550=DIRECTION('center_axis',(2.4532694666934E-17,-2.4532694666934E-17,
-1.));
#1551=DIRECTION('ref_axis',(1.,-7.8504622934189E-16,2.4532694666934E-17));
#1552=DIRECTION('',(-0.707106781186549,-3.57978317177388E-16,0.707106781186546));
#1553=DIRECTION('center_axis',(0.,0.,-1.));
#1554=DIRECTION('ref_axis',(1.,-5.5511151231258E-16,0.));
#1555=DIRECTION('',(0.,0.,-1.));
#1556=DIRECTION('center_axis',(0.,0.,-1.));
#1557=DIRECTION('ref_axis',(1.,-1.1102230246252E-15,0.));
#1558=DIRECTION('',(0.,0.,-1.));
#1559=DIRECTION('center_axis',(0.,0.,-1.));
#1560=DIRECTION('ref_axis',(1.,0.,0.));
#1561=DIRECTION('',(0.,0.,-1.));
#1562=DIRECTION('',(-4.7299885411689E-15,1.,-2.5226605552901E-15));
#1563=DIRECTION('',(2.775557561563E-16,-2.5226605552901E-15,-1.));
#1564=CARTESIAN_POINT('',(0.,0.,0.));
#1565=CARTESIAN_POINT('',(0.,0.,0.));
#1566=CARTESIAN_POINT('Origin',(20.680339887499,-6.8,8.));
#1567=CARTESIAN_POINT('',(18.680339887499,-8.,8.));
#1568=CARTESIAN_POINT('',(19.680339887499,-7.,8.));
#1569=CARTESIAN_POINT('Origin',(18.680339887499,-7.0000000000001,8.0000000000001));
#1570=CARTESIAN_POINT('',(21.680339887499,-6.99999997080121,8.00000000000001));
#1571=CARTESIAN_POINT('',(19.680339887499,-7.,8.));
#1572=CARTESIAN_POINT('',(18.680339887497,-10.,8.));
#1573=CARTESIAN_POINT('Origin',(18.680339887499,-6.9999999999999,8.));
#1574=CARTESIAN_POINT('',(18.680339887497,-10.,8.));
#1575=CARTESIAN_POINT('Origin',(12.,-10.,14.4));
#1576=CARTESIAN_POINT('',(12.,-10.,13.3));
#1577=CARTESIAN_POINT('Origin',(12.,-10.,14.4));
#1578=CARTESIAN_POINT('',(12.,-8.,13.3));
#1579=CARTESIAN_POINT('',(12.,-10.,13.3));
#1580=CARTESIAN_POINT('Origin',(12.,-8.,14.4));
#1581=CARTESIAN_POINT('Origin',(14.680339887499,-10.,12.5));
#1582=CARTESIAN_POINT('',(14.680339887499,-10.,10.9));
#1583=CARTESIAN_POINT('Origin',(14.680339887499,-10.,12.5));
#1584=CARTESIAN_POINT('',(14.680339887499,-8.,10.9));
#1585=CARTESIAN_POINT('',(14.680339887499,-10.,10.9));
#1586=CARTESIAN_POINT('Origin',(14.680339887499,-8.,12.5));
#1587=CARTESIAN_POINT('Origin',(17.378643549256,-9.,18.3));
#1588=CARTESIAN_POINT('',(19.680339887499,-7.,18.3));
#1589=CARTESIAN_POINT('',(18.680339887499,-8.,18.3));
#1590=CARTESIAN_POINT('Origin',(18.680339887499,-7.,18.3));
#1591=CARTESIAN_POINT('',(11.180339887499,-8.,18.3));
#1592=CARTESIAN_POINT('',(18.680339887499,-8.,18.3));
#1593=CARTESIAN_POINT('',(11.180339887499,-10.,18.3));
#1594=CARTESIAN_POINT('',(11.180339887499,-8.,18.3));
#1595=CARTESIAN_POINT('',(18.680339887497,-10.,18.3));
#1596=CARTESIAN_POINT('',(11.180339887499,-10.,18.3));
#1597=CARTESIAN_POINT('',(21.680339887498,-6.99999866075853,18.2999999999995));
#1598=CARTESIAN_POINT('Origin',(18.680339887499,-6.9999999999998,18.3));
#1599=CARTESIAN_POINT('',(18.0918682968505,-7.,18.3));
#1600=CARTESIAN_POINT('Origin',(11.739395538622,-10.440944348877,8.));
#1601=CARTESIAN_POINT('',(11.180339887499,-10.,8.));
#1602=CARTESIAN_POINT('',(18.680339887497,-10.,8.));
#1603=CARTESIAN_POINT('',(11.180339887499,-8.,8.));
#1604=CARTESIAN_POINT('',(11.180339887499,-10.,8.));
#1605=CARTESIAN_POINT('',(11.180339887499,-8.,8.));
#1606=CARTESIAN_POINT('Origin',(8.180339887499,-10.440944348877,13.15));
#1607=CARTESIAN_POINT('',(8.180339887499,-8.,15.3));
#1608=CARTESIAN_POINT('',(8.180339887499,-8.,11.));
#1609=CARTESIAN_POINT('',(8.180339887499,-8.,15.3));
#1610=CARTESIAN_POINT('',(8.180339887499,-10.,11.));
#1611=CARTESIAN_POINT('',(8.180339887499,-8.,11.));
#1612=CARTESIAN_POINT('',(8.180339887499,-10.,15.3));
#1613=CARTESIAN_POINT('',(8.180339887499,-10.,11.));
#1614=CARTESIAN_POINT('',(8.180339887499,-10.,15.3));
#1615=CARTESIAN_POINT('Origin',(11.180339887499,-8.,11.));
#1616=CARTESIAN_POINT('Origin',(11.180339887499,-10.,11.));
#1617=CARTESIAN_POINT('Origin',(11.180339887499,-8.,11.));
#1618=CARTESIAN_POINT('Origin',(11.180339887499,-8.,15.3));
#1619=CARTESIAN_POINT('Origin',(11.180339887499,-8.,15.3));
#1620=CARTESIAN_POINT('Origin',(11.180339887499,-10.,15.3));
#1621=CARTESIAN_POINT('Origin',(19.680339887499,-32.5,47.65));
#1622=CARTESIAN_POINT('',(19.680339887499,-7.,8.));
#1623=CARTESIAN_POINT('',(19.680339887499,-6.99999993736355,67.));
#1624=CARTESIAN_POINT('',(19.680339887499,-7.,18.3));
#1625=CARTESIAN_POINT('',(19.680339887499,-6.999999981725,81.3));
#1626=CARTESIAN_POINT('',(19.680339887499,-6.9999999365574,67.));
#1627=CARTESIAN_POINT('',(19.680339887499,4.,81.3));
#1628=CARTESIAN_POINT('',(19.680339887499,-6.999999981725,81.3));
#1629=CARTESIAN_POINT('',(19.680339887499,7.,78.3));
#1630=CARTESIAN_POINT('Origin',(19.680339887499,4.,78.3));
#1631=CARTESIAN_POINT('',(19.680339887499,7.,3.));
#1632=CARTESIAN_POINT('',(19.680339887499,7.,78.3));
#1633=CARTESIAN_POINT('',(19.680339887499,-7.,3.));
#1634=CARTESIAN_POINT('',(19.680339887499,7.,3.));
#1635=CARTESIAN_POINT('',(19.680339887499,-7.,3.));
#1636=CARTESIAN_POINT('',(19.680339887499,2.2,8.150000000003));
#1637=CARTESIAN_POINT('',(19.680339887499,2.2,73.150000000003));
#1638=CARTESIAN_POINT('',(19.680339887499,2.2,8.150000000003));
#1639=CARTESIAN_POINT('',(19.680339887499,-0.20000000000002,73.150000000003));
#1640=CARTESIAN_POINT('Origin',(19.680339887499,0.99999999999998,73.150000000003));
#1641=CARTESIAN_POINT('',(19.680339887499,-0.2,8.150000000003));
#1642=CARTESIAN_POINT('',(19.680339887499,-0.20000000000002,73.150000000003));
#1643=CARTESIAN_POINT('Origin',(19.680339887499,1.,8.150000000003));
#1644=CARTESIAN_POINT('Origin',(18.805093044445,-7.,33.437438205542));
#1645=CARTESIAN_POINT('',(18.680337710701,-7.,1.530482917925E-12));
#1646=CARTESIAN_POINT('',(21.6803398874981,-6.9999997681132,2.99999920830961));
#1647=CARTESIAN_POINT('Origin',(18.680339887499,-7.,3.0000000000001));
#1648=CARTESIAN_POINT('',(21.680339887498,-6.9999995355937,2.9999992083096));
#1649=CARTESIAN_POINT('',(18.680339887499,-7.,2.));
#1650=CARTESIAN_POINT('Origin',(18.680339887499,-7.,3.));
#1651=CARTESIAN_POINT('',(17.780888616714,-7.,2.));
#1652=CARTESIAN_POINT('',(18.680339887499,-7.,2.));
#1653=CARTESIAN_POINT('',(17.780888616714,-7.,5.8564264548977E-15));
#1654=CARTESIAN_POINT('',(17.780888616714,-7.,2.));
#1655=CARTESIAN_POINT('',(17.780888616714,-7.,5.8564264548977E-15));
#1656=CARTESIAN_POINT('Origin',(18.805093044445,-7.,33.437438205542));
#1657=CARTESIAN_POINT('',(21.6803398874987,-6.99999899373293,67.0000000000001));
#1658=CARTESIAN_POINT('',(21.680339887499,-6.9999979906519,67.));
#1659=CARTESIAN_POINT('',(21.680339887499,-7.,41.6187184714975));
#1660=CARTESIAN_POINT('Origin',(20.680339887489,-4.4409443489064,81.3));
#1661=CARTESIAN_POINT('',(18.680339887499,-8.,81.3));
#1662=CARTESIAN_POINT('Origin',(18.6803398874999,-7.00000000000087,81.3));
#1663=CARTESIAN_POINT('',(18.680339887495,-10.000000000001,81.3));
#1664=CARTESIAN_POINT('',(18.680339887499,-8.,81.3));
#1665=CARTESIAN_POINT('',(21.680339887499,-7.0000000001094,81.3));
#1666=CARTESIAN_POINT('Origin',(18.680339887498,-6.9999999999993,81.3));
#1667=CARTESIAN_POINT('',(21.680339887499,4.,81.3));
#1668=CARTESIAN_POINT('',(21.680339887499,-7.0000000001094,81.3));
#1669=CARTESIAN_POINT('',(21.680339887499,4.,81.3));
#1670=CARTESIAN_POINT('Origin',(19.680339887499,4.,78.3));
#1671=CARTESIAN_POINT('',(21.680339887499,7.,78.3));
#1672=CARTESIAN_POINT('Origin',(21.680339887499,4.,78.3));
#1673=CARTESIAN_POINT('',(21.680339887499,7.,78.3));
#1674=CARTESIAN_POINT('Origin',(9.8880387309293,7.,36.15));
#1675=CARTESIAN_POINT('',(21.680339887499,7.,2.9999999999993));
#1676=CARTESIAN_POINT('',(18.680335868803,7.,0.));
#1677=CARTESIAN_POINT('Origin',(18.680339887499,7.0000000000001,3.));
#1678=CARTESIAN_POINT('',(17.780888616714,7.,1.7763568394003E-15));
#1679=CARTESIAN_POINT('',(18.680335868803,7.,0.));
#1680=CARTESIAN_POINT('',(17.780888616714,7.,2.));
#1681=CARTESIAN_POINT('',(17.780888616714,7.,1.7763568394003E-15));
#1682=CARTESIAN_POINT('',(18.680339887499,7.,2.));
#1683=CARTESIAN_POINT('',(17.780888616714,7.,2.));
#1684=CARTESIAN_POINT('Origin',(18.680339887499,7.,3.0000000000002));
#1685=CARTESIAN_POINT('',(21.680339887499,7.,78.3));
#1686=CARTESIAN_POINT('Origin',(15.43930372106,-8.4483036617814,67.));
#1687=CARTESIAN_POINT('',(18.680339887499,-8.,67.));
#1688=CARTESIAN_POINT('Origin',(18.6803398874997,-7.00000000000071,67.));
#1689=CARTESIAN_POINT('',(18.680339887496,-9.9999999999997,67.));
#1690=CARTESIAN_POINT('Origin',(18.680339887498,-6.9999999999994,67.));
#1691=CARTESIAN_POINT('',(11.180339887499,-10.,67.));
#1692=CARTESIAN_POINT('',(18.680339887496,-9.9999999999997,67.));
#1693=CARTESIAN_POINT('',(11.180339887499,-8.,67.));
#1694=CARTESIAN_POINT('',(11.180339887499,-10.,67.));
#1695=CARTESIAN_POINT('',(11.180339887499,-8.,67.));
#1696=CARTESIAN_POINT('Origin',(14.630830130703,-9.5000000000005,81.3));
#1697=CARTESIAN_POINT('',(11.180339887499,-8.,81.3));
#1698=CARTESIAN_POINT('',(18.680339887499,-8.,81.3));
#1699=CARTESIAN_POINT('',(11.180339887499,-10.,81.3));
#1700=CARTESIAN_POINT('',(11.180339887499,-8.,81.3));
#1701=CARTESIAN_POINT('',(11.180339887499,-10.,81.3));
#1702=CARTESIAN_POINT('Origin',(11.180339887499,-8.,70.));
#1703=CARTESIAN_POINT('',(8.180339887499,-10.,70.));
#1704=CARTESIAN_POINT('Origin',(11.180339887499,-10.,70.));
#1705=CARTESIAN_POINT('',(8.180339887499,-8.,70.));
#1706=CARTESIAN_POINT('',(8.180339887499,-10.,70.));
#1707=CARTESIAN_POINT('Origin',(11.180339887499,-8.,70.));
#1708=CARTESIAN_POINT('Origin',(11.180339887499,-8.,78.3));
#1709=CARTESIAN_POINT('',(8.180339887499,-8.,78.3));
#1710=CARTESIAN_POINT('Origin',(11.180339887499,-8.,78.3));
#1711=CARTESIAN_POINT('',(8.180339887499,-10.,78.3));
#1712=CARTESIAN_POINT('',(8.180339887499,-8.,78.3));
#1713=CARTESIAN_POINT('Origin',(11.180339887499,-10.,78.3));
#1714=CARTESIAN_POINT('Origin',(8.180339887499,-9.6909443488766,73.9));
#1715=CARTESIAN_POINT('',(8.180339887499,-8.,78.3));
#1716=CARTESIAN_POINT('',(8.180339887499,-10.,70.));
#1717=CARTESIAN_POINT('Origin',(14.680339887499,-10.,77.5));
#1718=CARTESIAN_POINT('',(14.680339887499,-10.,75.9));
#1719=CARTESIAN_POINT('Origin',(14.680339887499,-10.,77.5));
#1720=CARTESIAN_POINT('',(14.680339887499,-8.,75.9));
#1721=CARTESIAN_POINT('',(14.680339887499,-10.,75.9));
#1722=CARTESIAN_POINT('Origin',(14.680339887499,-8.,77.5));
#1723=CARTESIAN_POINT('Origin',(12.,-10.,70.));
#1724=CARTESIAN_POINT('',(12.,-10.,68.9));
#1725=CARTESIAN_POINT('Origin',(12.,-10.,70.));
#1726=CARTESIAN_POINT('',(12.,-8.,68.9));
#1727=CARTESIAN_POINT('',(12.,-10.,68.9));
#1728=CARTESIAN_POINT('Origin',(12.,-8.,70.));
#1729=CARTESIAN_POINT('Origin',(12.786534377691,-8.,37.9));
#1730=CARTESIAN_POINT('',(18.680339887499,-8.,18.3));
#1731=CARTESIAN_POINT('Origin',(16.536534377691,-8.,49.0875));
#1732=CARTESIAN_POINT('',(18.680339887499,-8.,81.3));
#1733=CARTESIAN_POINT('Origin',(18.680339887499,-7.,3.0000000000002));
#1734=CARTESIAN_POINT('',(18.680339887499,7.,2.));
#1735=CARTESIAN_POINT('Origin',(18.680339887499,-7.,8.));
#1736=CARTESIAN_POINT('Ctrl Pts',(11.180339887499,-8.,64.));
#1737=CARTESIAN_POINT('Ctrl Pts',(11.180339887499,-8.,89.56));
#1738=CARTESIAN_POINT('Ctrl Pts',(14.930339887499,-8.,64.));
#1739=CARTESIAN_POINT('Ctrl Pts',(14.930339887499,-8.,89.56));
#1740=CARTESIAN_POINT('Ctrl Pts',(18.680339887499,-8.0000000000001,64.));
#1741=CARTESIAN_POINT('Ctrl Pts',(18.680339887499,-8.0000000000001,89.56));
#1742=CARTESIAN_POINT('Ctrl Pts',(19.094553449872,-8.0000000000001,64.));
#1743=CARTESIAN_POINT('Ctrl Pts',(19.094553449872,-8.0000000000001,89.56));
#1744=CARTESIAN_POINT('Ctrl Pts',(19.387446668686,-7.7071067811866,64.));
#1745=CARTESIAN_POINT('Ctrl Pts',(19.387446668686,-7.7071067811866,89.56));
#1746=CARTESIAN_POINT('Ctrl Pts',(19.680340038894,-7.4142134109777,64.));
#1747=CARTESIAN_POINT('Ctrl Pts',(19.680340038894,-7.4142134109777,89.56));
#1748=CARTESIAN_POINT('Ctrl Pts',(19.680339887499,-6.999999634499,64.));
#1749=CARTESIAN_POINT('Ctrl Pts',(19.680339887499,-6.999999634499,89.56));
#1750=CARTESIAN_POINT('Origin',(18.680339887499,-6.9999999999999,8.));
#1751=CARTESIAN_POINT('',(21.680339887499,-6.9999999703848,8.));
#1752=CARTESIAN_POINT('',(18.680339887497,-10.,18.3));
#1753=CARTESIAN_POINT('Origin',(18.680339887498,-7.,2.9999999999992));
#1754=CARTESIAN_POINT('',(18.680337710701,-7.,1.530482917925E-12));
#1755=CARTESIAN_POINT('',(21.680339887499,7.,2.9999999999993));
#1756=CARTESIAN_POINT('Origin',(21.680339887499,-5.4107977955908E-6,49.799998737453));
#1757=CARTESIAN_POINT('',(21.680339887499,-7.0000000001094,81.3));
#1758=CARTESIAN_POINT('',(21.680339887499,2.2,73.150000000003));
#1759=CARTESIAN_POINT('',(21.680339887499,2.2,8.150000000003));
#1760=CARTESIAN_POINT('',(21.680339887499,2.2,73.150000000003));
#1761=CARTESIAN_POINT('',(21.680339887499,-0.2,8.150000000003));
#1762=CARTESIAN_POINT('Origin',(21.680339887499,1.,8.150000000003));
#1763=CARTESIAN_POINT('',(21.680339887499,-0.20000000000002,73.150000000003));
#1764=CARTESIAN_POINT('',(21.680339887499,-0.2,8.150000000003));
#1765=CARTESIAN_POINT('Origin',(21.680339887499,0.99999999999997,73.150000000003));
#1766=CARTESIAN_POINT('Origin',(13.380339887499,-10.,44.65));
#1767=CARTESIAN_POINT('Origin',(18.680339887499,-6.9999999999993,67.));
#1768=CARTESIAN_POINT('',(18.680339887495,-10.000000000001,81.3));
#1769=CARTESIAN_POINT('Origin',(13.380339887499,-10.,44.65));
#1770=CARTESIAN_POINT('Origin',(6.93068761242783E-15,-8.,0.250000000000006));
#1771=CARTESIAN_POINT('',(-1.34999999999999,-8.,0.6));
#1772=CARTESIAN_POINT('Origin',(3.5527136788005E-15,-8.,0.6));
#1773=CARTESIAN_POINT('',(-2.75,-8.,2.));
#1774=CARTESIAN_POINT('',(-0.999999999999993,-8.,0.250000000000006));
#1775=CARTESIAN_POINT('Origin',(-1.7763568394003E-15,-8.,2.));
#1776=CARTESIAN_POINT('Origin',(-8.,-4.74520753226606E-15,0.250000000000006));
#1777=CARTESIAN_POINT('',(-9.35,-5.57736315691852E-15,0.600000000000002));
#1778=CARTESIAN_POINT('Origin',(-8.,-4.7141202331873E-15,0.6));
#1779=CARTESIAN_POINT('',(-10.75,-6.51017519384692E-15,2.));
#1780=CARTESIAN_POINT('',(-9.,-5.34416014768642E-15,0.250000000000006));
#1781=CARTESIAN_POINT('Origin',(-8.,-4.180750662274E-15,2.));
#1782=CARTESIAN_POINT('Origin',(-3.929626308294E-15,8.,0.250000000000006));
#1783=CARTESIAN_POINT('',(-1.35,8.,0.600000000000002));
#1784=CARTESIAN_POINT('Origin',(-3.1086244689504E-15,8.,0.6));
#1785=CARTESIAN_POINT('',(-2.75000000000001,8.,2.));
#1786=CARTESIAN_POINT('',(-1.,8.,0.250000000000006));
#1787=CARTESIAN_POINT('Origin',(-4.8849813083507E-15,8.,2.));
#1788=CARTESIAN_POINT('Origin',(-8.,-3.7747582837255E-15,0.6));
#1789=CARTESIAN_POINT('',(-9.35,-3.88557123508576E-15,-6.93889390390723E-17));
#1790=CARTESIAN_POINT('',(-9.35,-3.92614298332586E-15,0.6));
#1791=CARTESIAN_POINT('Origin',(-8.,-4.6735484849472E-15,6.5035359056654E-17));
#1792=CARTESIAN_POINT('Origin',(9.8254737679326E-15,-8.,0.6));
#1793=CARTESIAN_POINT('',(-1.34999999999999,-8.,-6.24500451351651E-16));
#1794=CARTESIAN_POINT('',(-1.34999999999999,-8.,0.6));
#1795=CARTESIAN_POINT('Origin',(-8.8817841970013E-16,-8.,6.5035359056654E-17));
#1796=CARTESIAN_POINT('Origin',(-5.8286708792821E-15,8.,0.6));
#1797=CARTESIAN_POINT('',(-1.35000000000001,8.,-2.08166817117217E-16));
#1798=CARTESIAN_POINT('',(-1.35000000000001,8.,0.6));
#1799=CARTESIAN_POINT('Origin',(-8.8817841970013E-16,8.,6.5035359056654E-17));
#1800=CARTESIAN_POINT('Origin',(8.,-7.105427357601E-15,0.6));
#1801=CARTESIAN_POINT('',(6.65,-1.41401948098774E-14,0.6));
#1802=CARTESIAN_POINT('Origin',(8.,9.4667412560233E-17,0.6));
#1803=CARTESIAN_POINT('',(6.65,-1.40996230616373E-14,-6.93889390390723E-17));
#1804=CARTESIAN_POINT('',(6.65,-1.41401948098774E-14,0.6));
#1805=CARTESIAN_POINT('Origin',(8.,-1.1208348061467E-15,6.5035359056654E-17));
#1806=CARTESIAN_POINT('Origin',(20.680339887499,2.2,40.650000000003));
#1807=CARTESIAN_POINT('',(21.680339887499,2.2,73.150000000003));
#1808=CARTESIAN_POINT('',(19.680339887499,2.2,8.150000000003));
#1809=CARTESIAN_POINT('Origin',(21.680339887499,1.,73.150000000003));
#1810=CARTESIAN_POINT('',(21.680339887499,-0.20000000000002,73.150000000003));
#1811=CARTESIAN_POINT('Origin',(20.680339887499,-0.20000000000001,40.650000000003));
#1812=CARTESIAN_POINT('',(21.680339887499,-0.2,8.150000000003));
#1813=CARTESIAN_POINT('Origin',(21.680339887499,1.,8.150000000003));
#1814=CARTESIAN_POINT('Origin',(9.6381236325271E-15,-7.105427357601E-15,
2.));
#1815=CARTESIAN_POINT('',(15.166052055433,8.5294117647059,2.));
#1816=CARTESIAN_POINT('',(15.166052055433,8.5294117647059,-4.5147703153133E-15));
#1817=CARTESIAN_POINT('',(15.166052055433,8.5294117647059,2.));
#1818=CARTESIAN_POINT('',(15.166052052444,-8.5294117700194,-5.3901688216567E-15));
#1819=CARTESIAN_POINT('Origin',(-7.105427357601E-15,-1.7763568394003E-14,
-1.4802973661669E-16));
#1820=CARTESIAN_POINT('',(15.166052052444,-8.5294117700194,2.));
#1821=CARTESIAN_POINT('',(15.166052052444,-8.5294117700194,-5.3901688216567E-15));
#1822=CARTESIAN_POINT('Origin',(-1.5099033134902E-14,-1.7763568394003E-14,
2.));
#1823=CARTESIAN_POINT('Origin',(17.780888616714,9.9999999999998,2.));
#1824=CARTESIAN_POINT('Origin',(17.780888616714,9.9999999999998,7.4091463092799E-14));
#1825=CARTESIAN_POINT('Origin',(17.780888616715,10.000000000001,2.));
#1826=CARTESIAN_POINT('Origin',(17.780888616714,-10.,-3.6701382908849E-17));
#1827=CARTESIAN_POINT('Origin',(17.780888616714,-10.,2.));
#1828=CARTESIAN_POINT('Origin',(17.780888616714,-10.,2.3834877982033E-16));
#1829=CARTESIAN_POINT('Origin',(8.,-4.30886647509839E-16,0.250000000000006));
#1830=CARTESIAN_POINT('',(5.24999999992561,-1.87724635128473E-15,2.00000000007439));
#1831=CARTESIAN_POINT('',(7.,-8.33436505874545E-16,0.250000000000006));
#1832=CARTESIAN_POINT('',(7.8753945911031,-2.7471755480991,2.));
#1833=CARTESIAN_POINT('Origin',(8.,4.4408920985006E-16,2.));
#1834=CARTESIAN_POINT('',(8.8457519306751,-2.61671619823701,1.99999999942949));
#1835=CARTESIAN_POINT('Ctrl Pts',(7.87539459112486,-2.74717554817456,2.00000000007439));
#1836=CARTESIAN_POINT('Ctrl Pts',(8.02964629319323,-2.72823473513431,1.97408933285595));
#1837=CARTESIAN_POINT('Ctrl Pts',(8.19077947299903,-2.70762486181796,1.95890159318079));
#1838=CARTESIAN_POINT('Ctrl Pts',(8.53112008069976,-2.66186788894717,1.95890159318079));
#1839=CARTESIAN_POINT('Ctrl Pts',(8.69197497988779,-2.63918818868369,1.97408933217942));
#1840=CARTESIAN_POINT('Ctrl Pts',(8.8457519308642,-2.61671619826552,1.99999999833194));
#1841=CARTESIAN_POINT('',(9.8371826577264,2.0462795219982,2.));
#1842=CARTESIAN_POINT('Origin',(8.,6.6613381477509E-16,2.));
#1843=CARTESIAN_POINT('',(8.2687995573379,2.7368315253249,2.));
#1844=CARTESIAN_POINT('Ctrl Pts',(9.83718265773175,2.04627952202696,2.00000000002495));
#1845=CARTESIAN_POINT('Ctrl Pts',(9.59866835315469,2.15724130614104,1.92322344823302));
#1846=CARTESIAN_POINT('Ctrl Pts',(9.34299170675664,2.27376807454234,1.87216624580889));
#1847=CARTESIAN_POINT('Ctrl Pts',(8.77029164433521,2.52592532823205,1.87216624580889));
#1848=CARTESIAN_POINT('Ctrl Pts',(8.51169890130895,2.63582905181923,1.92322344818819));
#1849=CARTESIAN_POINT('Ctrl Pts',(8.26879955727959,2.7368315252446,1.99999999992116));
#1850=CARTESIAN_POINT('Origin',(8.,4.4408920985006E-16,2.));
#1851=CARTESIAN_POINT('Origin',(-5.7286720820997,-8.7,2.));
#1852=CARTESIAN_POINT('',(-12.7609310117542,6.3150617643297,1.99999999999999));
#1853=CARTESIAN_POINT('Origin',(-9.6109310117541,6.3150617643297,2.));
#1854=CARTESIAN_POINT('',(5.62519788021539,-5.7659259587356,2.0000000000823));
#1855=CARTESIAN_POINT('Origin',(8.7751978802977,-5.7659259587356,2.));
#1856=CARTESIAN_POINT('Origin',(8.7751978802977,-5.7659259587356,2.));
#1857=CARTESIAN_POINT('',(7.12446942023004,5.1657795280342,2.00000000002495));
#1858=CARTESIAN_POINT('Origin',(10.274469420255,5.1657795280342,2.));
#1859=CARTESIAN_POINT('Origin',(10.274469420255,5.1657795280342,2.));
#1860=CARTESIAN_POINT('Origin',(-5.7286722241872,-8.7,0.));
#1861=CARTESIAN_POINT('',(7.1751978802977,-5.7659259587356,-4.16333634234434E-16));
#1862=CARTESIAN_POINT('Origin',(8.7751978802977,-5.7659259587356,-2.2204460492503E-16));
#1863=CARTESIAN_POINT('',(8.674469420255,5.1657795280342,-4.85722573273506E-16));
#1864=CARTESIAN_POINT('Origin',(10.274469420255,5.1657795280342,-1.895269253967E-16));
#1865=CARTESIAN_POINT('',(-11.2109310117542,6.3150617643297,-4.85722573273506E-16));
#1866=CARTESIAN_POINT('Origin',(-9.6109310117542,6.3150617643297,-1.895269253967E-16));
#1867=CARTESIAN_POINT('Origin',(8.7751978802977,-5.7659259587356,-0.150000000000003));
#1868=CARTESIAN_POINT('',(7.17519788029755,-5.7659259587356,0.450000000000147));
#1869=CARTESIAN_POINT('Origin',(8.7751978802977,-5.7659259587356,0.45));
#1870=CARTESIAN_POINT('',(7.7751978802977,-5.7659259587356,-0.150000000000003));
#1871=CARTESIAN_POINT('Origin',(10.274469420255,5.1657795280342,-0.150000000000003));
#1872=CARTESIAN_POINT('',(8.674469420255,5.1657795280342,0.449999999999997));
#1873=CARTESIAN_POINT('Origin',(10.274469420255,5.1657795280342,0.45));
#1874=CARTESIAN_POINT('',(9.274469420255,5.1657795280342,-0.150000000000004));
#1875=CARTESIAN_POINT('Origin',(-9.6109310117542,6.3150617643297,-0.150000000000003));
#1876=CARTESIAN_POINT('',(-11.2109310117542,6.3150617643297,0.449999999999997));
#1877=CARTESIAN_POINT('Origin',(-9.6109310117542,6.3150617643297,0.45));
#1878=CARTESIAN_POINT('',(-10.6109310117542,6.3150617643297,-0.150000000000004));
#1879=CARTESIAN_POINT('Origin',(-9.6109310117542,6.3150617643297,0.45));
#1880=CARTESIAN_POINT('',(-11.2109310117542,6.3150617643297,0.45));
#1881=CARTESIAN_POINT('Origin',(10.274469420255,5.1657795280342,0.45));
#1882=CARTESIAN_POINT('',(8.674469420255,5.1657795280342,0.45));
#1883=CARTESIAN_POINT('Origin',(8.7751978802977,-5.7659259587356,0.45000000000001));
#1884=CARTESIAN_POINT('',(7.1751978802977,-5.7659259587356,0.45000000000001));
#1885=CARTESIAN_POINT('',(-0.68997393867119,89.42520270418,68.141829480538));
#1886=UNCERTAINTY_MEASURE_WITH_UNIT(LENGTH_MEASURE(0.01),#1892,
'DISTANCE_ACCURACY_VALUE',
'Maximum model space distance between geometric entities at asserted c
onnectivities');
#1887=UNCERTAINTY_MEASURE_WITH_UNIT(LENGTH_MEASURE(0.01),#1892,
'DISTANCE_ACCURACY_VALUE',
'Maximum model space distance between geometric entities at asserted c
onnectivities');
#1888=UNCERTAINTY_MEASURE_WITH_UNIT(LENGTH_MEASURE(0.01),#1892,
'DISTANCE_ACCURACY_VALUE',
'Maximum model space distance between geometric entities at asserted c
onnectivities');
#1889=(
GEOMETRIC_REPRESENTATION_CONTEXT(3)
GLOBAL_UNCERTAINTY_ASSIGNED_CONTEXT((#1886))
GLOBAL_UNIT_ASSIGNED_CONTEXT((#1892,#1894,#1895))
REPRESENTATION_CONTEXT('','3D')
);
#1890=(
GEOMETRIC_REPRESENTATION_CONTEXT(3)
GLOBAL_UNCERTAINTY_ASSIGNED_CONTEXT((#1887))
GLOBAL_UNIT_ASSIGNED_CONTEXT((#1892,#1894,#1895))
REPRESENTATION_CONTEXT('','3D')
);
#1891=(
GEOMETRIC_REPRESENTATION_CONTEXT(3)
GLOBAL_UNCERTAINTY_ASSIGNED_CONTEXT((#1888))
GLOBAL_UNIT_ASSIGNED_CONTEXT((#1892,#1894,#1895))
REPRESENTATION_CONTEXT('','3D')
);
#1892=(
LENGTH_UNIT()
NAMED_UNIT(*)
SI_UNIT(.MILLI.,.METRE.)
);
#1893=(
LENGTH_UNIT()
NAMED_UNIT(*)
SI_UNIT($,.METRE.)
);
#1894=(
NAMED_UNIT(*)
PLANE_ANGLE_UNIT()
SI_UNIT($,.RADIAN.)
);
#1895=(
NAMED_UNIT(*)
SI_UNIT($,.STERADIAN.)
SOLID_ANGLE_UNIT()
);
#1896=SHAPE_DEFINITION_REPRESENTATION(#1898,#1901);
#1897=SHAPE_DEFINITION_REPRESENTATION(#1899,#1902);
#1898=PRODUCT_DEFINITION_SHAPE('',$,#1904);
#1899=PRODUCT_DEFINITION_SHAPE('',$,#1905);
#1900=PRODUCT_DEFINITION_SHAPE($,$,#14);
#1901=SHAPE_REPRESENTATION('',(#1117,#1238),#1889);
#1902=SHAPE_REPRESENTATION('',(#1118),#1890);
#1903=PRODUCT_DEFINITION_CONTEXT('part definition',#1911,'design');
#1904=PRODUCT_DEFINITION('\X\CE\X\DE\X\CB\X\A2\X\D4\X\C6\X\CC\X\A8\X\A3
\X\A8\X\BF\X\CD\X\BB\X\A7\X\CD\X\BC\X\A3\X\A91',
'\X2\65E052377535673A4E9153F03010\X0\3D\X2\6A21578B3011\X0\',#1906,#1903);
#1905=PRODUCT_DEFINITION('(\X\D6\X\A7\X\BC\X\DC1\X\A3\X\A93D',
'(\X\D6\X\A7\X\BC\X\DC1\X\A3\X\A93D',#1907,#1903);
#1906=PRODUCT_DEFINITION_FORMATION('',$,#1913);
#1907=PRODUCT_DEFINITION_FORMATION('',$,#1914);
#1908=PRODUCT_RELATED_PRODUCT_CATEGORY(
'\X2\65E052377535673A4E9153F03010\X0\3D\X2\6A21578B3011\X0\',
'\X2\65E052377535673A4E9153F03010\X0\3D\X2\6A21578B3011\X0\',(#1913));
#1909=PRODUCT_RELATED_PRODUCT_CATEGORY('(\X\D6\X\A7\X\BC\X\DC1\X\A3\X\A9
3D','(\X\D6\X\A7\X\BC\X\DC1\X\A3\X\A93D',(#1914));
#1910=APPLICATION_PROTOCOL_DEFINITION('international standard',
'automotive_design',2009,#1911);
#1911=APPLICATION_CONTEXT(
'Core Data for Automotive Mechanical Design Process');
#1912=PRODUCT_CONTEXT('part definition',#1911,'mechanical');
#1913=PRODUCT('\X\CE\X\DE\X\CB\X\A2\X\D4\X\C6\X\CC\X\A8\X\A3\X\A8\X\BF
\X\CD\X\BB\X\A7\X\CD\X\BC\X\A3\X\A91',
'\X2\65E052377535673A4E9153F03010\X0\3D\X2\6A21578B3011\X0\',
'This file contains a STEP AP42 implementation',(#1912));
#1914=PRODUCT('(\X\D6\X\A7\X\BC\X\DC1\X\A3\X\A93D','(\X\D6\X\A7\X\BC\X\DC
1\X\A3\X\A93D',$,(#1912));
#1915=PRESENTATION_STYLE_ASSIGNMENT((#1917));
#1916=PRESENTATION_STYLE_ASSIGNMENT((#1918));
#1917=SURFACE_STYLE_USAGE(.BOTH.,#1919);
#1918=SURFACE_STYLE_USAGE(.BOTH.,#1920);
#1919=SURFACE_SIDE_STYLE('',(#1921));
#1920=SURFACE_SIDE_STYLE('',(#1922));
#1921=SURFACE_STYLE_FILL_AREA(#1923);
#1922=SURFACE_STYLE_FILL_AREA(#1924);
#1923=FILL_AREA_STYLE('\X2\94A2\X0\ - \X2\7F0E5149\X0\',(#1925));
#1924=FILL_AREA_STYLE('Opaque(96,96,96)',(#1926));
#1925=FILL_AREA_STYLE_COLOUR('\X2\94A2\X0\ - \X2\7F0E5149\X0\',#1927);
#1926=FILL_AREA_STYLE_COLOUR('Opaque(96,96,96)',#1928);
#1927=COLOUR_RGB('\X2\94A2\X0\ - \X2\7F0E5149\X0\',0.627450980392157,0.627450980392157,
0.627450980392157);
#1928=COLOUR_RGB('Opaque(96,96,96)',0.376470588235294,0.376470588235294,
0.376470588235294);
ENDSEC;
END-ISO-10303-21;
